G04 #@! TF.GenerationSoftware,KiCad,Pcbnew,10.0.3*
G04 #@! TF.CreationDate,2026-07-22T21:07:00-07:00*
G04 #@! TF.ProjectId,mp3-player,6d70332d-706c-4617-9965-722e6b696361,rev?*
G04 #@! TF.SameCoordinates,Original*
G04 #@! TF.FileFunction,Soldermask,Top*
G04 #@! TF.FilePolarity,Negative*
%FSLAX46Y46*%
G04 Gerber Fmt 4.6, Leading zero omitted, Abs format (unit mm)*
G04 Created by KiCad (PCBNEW 10.0.3) date 2026-07-22 21:07:00*
%MOMM*%
%LPD*%
G01*
G04 APERTURE LIST*
G04 Aperture macros list*
%AMRoundRect*
0 Rectangle with rounded corners*
0 $1 Rounding radius*
0 $2 $3 $4 $5 $6 $7 $8 $9 X,Y pos of 4 corners*
0 Add a 4 corners polygon primitive as box body*
4,1,4,$2,$3,$4,$5,$6,$7,$8,$9,$2,$3,0*
0 Add four circle primitives for the rounded corners*
1,1,$1+$1,$2,$3*
1,1,$1+$1,$4,$5*
1,1,$1+$1,$6,$7*
1,1,$1+$1,$8,$9*
0 Add four rect primitives between the rounded corners*
20,1,$1+$1,$2,$3,$4,$5,0*
20,1,$1+$1,$4,$5,$6,$7,0*
20,1,$1+$1,$6,$7,$8,$9,0*
20,1,$1+$1,$8,$9,$2,$3,0*%
%AMFreePoly0*
4,1,18,-0.100000,0.387500,-0.096194,0.406634,-0.085355,0.422855,-0.069134,0.433694,-0.050000,0.437500,0.050000,0.437500,0.069134,0.433694,0.085355,0.422855,0.096194,0.406634,0.100000,0.387500,0.100000,-0.387500,0.096194,-0.406634,0.085355,-0.422855,0.069134,-0.433694,0.050000,-0.437500,-0.050000,-0.437500,-0.100000,-0.387500,-0.100000,0.387500,-0.100000,0.387500,$1*%
%AMFreePoly1*
4,1,18,-0.100000,0.387500,-0.096194,0.406634,-0.085355,0.422855,-0.069134,0.433694,-0.050000,0.437500,0.050000,0.437500,0.069134,0.433694,0.085355,0.422855,0.096194,0.406634,0.100000,0.387500,0.100000,-0.387500,0.050000,-0.437500,-0.050000,-0.437500,-0.069134,-0.433694,-0.085355,-0.422855,-0.096194,-0.406634,-0.100000,-0.387500,-0.100000,0.387500,-0.100000,0.387500,$1*%
%AMFreePoly2*
4,1,18,-0.437500,0.050000,-0.387500,0.100000,0.387500,0.100000,0.406634,0.096194,0.422855,0.085355,0.433694,0.069134,0.437500,0.050000,0.437500,-0.050000,0.433694,-0.069134,0.422855,-0.085355,0.406634,-0.096194,0.387500,-0.100000,-0.387500,-0.100000,-0.406634,-0.096194,-0.422855,-0.085355,-0.433694,-0.069134,-0.437500,-0.050000,-0.437500,0.050000,-0.437500,0.050000,$1*%
%AMFreePoly3*
4,1,18,-0.437500,0.050000,-0.433694,0.069134,-0.422855,0.085355,-0.406634,0.096194,-0.387500,0.100000,0.387500,0.100000,0.406634,0.096194,0.422855,0.085355,0.433694,0.069134,0.437500,0.050000,0.437500,-0.050000,0.433694,-0.069134,0.422855,-0.085355,0.406634,-0.096194,0.387500,-0.100000,-0.387500,-0.100000,-0.437500,-0.050000,-0.437500,0.050000,-0.437500,0.050000,$1*%
%AMFreePoly4*
4,1,18,-0.100000,0.387500,-0.096194,0.406634,-0.085355,0.422855,-0.069134,0.433694,-0.050000,0.437500,0.050000,0.437500,0.100000,0.387500,0.100000,-0.387500,0.096194,-0.406634,0.085355,-0.422855,0.069134,-0.433694,0.050000,-0.437500,-0.050000,-0.437500,-0.069134,-0.433694,-0.085355,-0.422855,-0.096194,-0.406634,-0.100000,-0.387500,-0.100000,0.387500,-0.100000,0.387500,$1*%
%AMFreePoly5*
4,1,18,-0.100000,0.387500,-0.050000,0.437500,0.050000,0.437500,0.069134,0.433694,0.085355,0.422855,0.096194,0.406634,0.100000,0.387500,0.100000,-0.387500,0.096194,-0.406634,0.085355,-0.422855,0.069134,-0.433694,0.050000,-0.437500,-0.050000,-0.437500,-0.069134,-0.433694,-0.085355,-0.422855,-0.096194,-0.406634,-0.100000,-0.387500,-0.100000,0.387500,-0.100000,0.387500,$1*%
%AMFreePoly6*
4,1,18,-0.437500,0.050000,-0.433694,0.069134,-0.422855,0.085355,-0.406634,0.096194,-0.387500,0.100000,0.387500,0.100000,0.406634,0.096194,0.422855,0.085355,0.433694,0.069134,0.437500,0.050000,0.437500,-0.050000,0.387500,-0.100000,-0.387500,-0.100000,-0.406634,-0.096194,-0.422855,-0.085355,-0.433694,-0.069134,-0.437500,-0.050000,-0.437500,0.050000,-0.437500,0.050000,$1*%
%AMFreePoly7*
4,1,18,-0.437500,0.050000,-0.433694,0.069134,-0.422855,0.085355,-0.406634,0.096194,-0.387500,0.100000,0.387500,0.100000,0.437500,0.050000,0.437500,-0.050000,0.433694,-0.069134,0.422855,-0.085355,0.406634,-0.096194,0.387500,-0.100000,-0.387500,-0.100000,-0.406634,-0.096194,-0.422855,-0.085355,-0.433694,-0.069134,-0.437500,-0.050000,-0.437500,0.050000,-0.437500,0.050000,$1*%
G04 Aperture macros list end*
%ADD10RoundRect,0.140000X0.170000X-0.140000X0.170000X0.140000X-0.170000X0.140000X-0.170000X-0.140000X0*%
%ADD11RoundRect,0.135000X0.185000X-0.135000X0.185000X0.135000X-0.185000X0.135000X-0.185000X-0.135000X0*%
%ADD12R,0.470000X0.530000*%
%ADD13R,0.700000X1.700000*%
%ADD14RoundRect,0.140000X0.140000X0.170000X-0.140000X0.170000X-0.140000X-0.170000X0.140000X-0.170000X0*%
%ADD15R,0.508000X1.320800*%
%ADD16RoundRect,0.140000X-0.140000X-0.170000X0.140000X-0.170000X0.140000X0.170000X-0.140000X0.170000X0*%
%ADD17RoundRect,0.135000X-0.135000X-0.185000X0.135000X-0.185000X0.135000X0.185000X-0.135000X0.185000X0*%
%ADD18RoundRect,0.135000X0.135000X0.185000X-0.135000X0.185000X-0.135000X-0.185000X0.135000X-0.185000X0*%
%ADD19RoundRect,0.140000X-0.170000X0.140000X-0.170000X-0.140000X0.170000X-0.140000X0.170000X0.140000X0*%
%ADD20C,3.200000*%
%ADD21RoundRect,0.150000X0.150000X-0.512500X0.150000X0.512500X-0.150000X0.512500X-0.150000X-0.512500X0*%
%ADD22RoundRect,0.135000X-0.185000X0.135000X-0.185000X-0.135000X0.185000X-0.135000X0.185000X0.135000X0*%
%ADD23C,1.498600*%
%ADD24O,1.750000X1.200000*%
%ADD25RoundRect,0.250000X0.625000X-0.350000X0.625000X0.350000X-0.625000X0.350000X-0.625000X-0.350000X0*%
%ADD26C,2.006600*%
%ADD27C,1.320800*%
%ADD28O,1.712000X3.220000*%
%ADD29C,1.000000*%
%ADD30RoundRect,0.153000X-1.547000X1.547000X-1.547000X-1.547000X1.547000X-1.547000X1.547000X1.547000X0*%
%ADD31FreePoly0,180.000000*%
%ADD32RoundRect,0.050000X0.050000X0.387500X-0.050000X0.387500X-0.050000X-0.387500X0.050000X-0.387500X0*%
%ADD33FreePoly1,180.000000*%
%ADD34FreePoly2,180.000000*%
%ADD35RoundRect,0.050000X0.387500X0.050000X-0.387500X0.050000X-0.387500X-0.050000X0.387500X-0.050000X0*%
%ADD36FreePoly3,180.000000*%
%ADD37FreePoly4,180.000000*%
%ADD38FreePoly5,180.000000*%
%ADD39FreePoly6,180.000000*%
%ADD40FreePoly7,180.000000*%
%ADD41C,1.803400*%
%ADD42O,1.108000X2.308000*%
%ADD43O,1.108000X1.908000*%
%ADD44RoundRect,0.250000X0.450000X0.350000X-0.450000X0.350000X-0.450000X-0.350000X0.450000X-0.350000X0*%
%ADD45R,0.355600X1.676400*%
%ADD46RoundRect,0.087500X0.087500X-0.425000X0.087500X0.425000X-0.087500X0.425000X-0.087500X-0.425000X0*%
%ADD47RoundRect,0.162500X0.162500X-0.650000X0.162500X0.650000X-0.162500X0.650000X-0.162500X-0.650000X0*%
%ADD48RoundRect,0.100000X0.100000X-0.637500X0.100000X0.637500X-0.100000X0.637500X-0.100000X-0.637500X0*%
%ADD49R,1.050000X0.650000*%
%ADD50RoundRect,0.150000X0.150000X-0.587500X0.150000X0.587500X-0.150000X0.587500X-0.150000X-0.587500X0*%
%ADD51O,2.620000X1.412000*%
%ADD52C,1.204000*%
%ADD53RoundRect,0.102000X-0.500000X-0.500000X0.500000X-0.500000X0.500000X0.500000X-0.500000X0.500000X0*%
%ADD54C,0.800000*%
%ADD55C,0.850000*%
%ADD56R,0.850000X0.850000*%
%ADD57RoundRect,0.087500X-0.087500X0.425000X-0.087500X-0.425000X0.087500X-0.425000X0.087500X0.425000X0*%
%ADD58RoundRect,0.150000X-0.512500X-0.150000X0.512500X-0.150000X0.512500X0.150000X-0.512500X0.150000X0*%
G04 APERTURE END LIST*
D10*
G04 #@! TO.C,C9*
X119300000Y-77670000D03*
X119300000Y-78630000D03*
G04 #@! TD*
D11*
G04 #@! TO.C,R5*
X119300000Y-79490000D03*
X119300000Y-80510000D03*
G04 #@! TD*
D12*
G04 #@! TO.C,C7*
X120985000Y-78650000D03*
X122015000Y-78650000D03*
G04 #@! TD*
D13*
G04 #@! TO.C,L1*
X120800000Y-80300000D03*
X122200000Y-80300000D03*
G04 #@! TD*
D12*
G04 #@! TO.C,C6*
X120985000Y-77700000D03*
X122015000Y-77700000D03*
G04 #@! TD*
D14*
G04 #@! TO.C,C25*
X130520000Y-88700000D03*
X131480000Y-88700000D03*
G04 #@! TD*
D15*
G04 #@! TO.C,U9*
X131150001Y-87293800D03*
X129249999Y-87293800D03*
X129249999Y-84906200D03*
X130200000Y-84906200D03*
X131150001Y-84906200D03*
G04 #@! TD*
D16*
G04 #@! TO.C,C41*
X143980000Y-86000000D03*
X143020000Y-86000000D03*
G04 #@! TD*
D17*
G04 #@! TO.C,R39*
X139110000Y-55500000D03*
X138090000Y-55500000D03*
G04 #@! TD*
D16*
G04 #@! TO.C,C30*
X135180000Y-81800000D03*
X134220000Y-81800000D03*
G04 #@! TD*
G04 #@! TO.C,C28*
X136620000Y-81350000D03*
X137580000Y-81350000D03*
G04 #@! TD*
D18*
G04 #@! TO.C,R1*
X138790000Y-75900000D03*
X139810000Y-75900000D03*
G04 #@! TD*
D19*
G04 #@! TO.C,C1*
X121800000Y-95180000D03*
X121800000Y-94220000D03*
G04 #@! TD*
D20*
G04 #@! TO.C,H2*
X150500000Y-58500000D03*
G04 #@! TD*
D14*
G04 #@! TO.C,C40*
X148320000Y-88400000D03*
X149280000Y-88400000D03*
G04 #@! TD*
D16*
G04 #@! TO.C,C31*
X135180000Y-80800000D03*
X134220000Y-80800000D03*
G04 #@! TD*
D18*
G04 #@! TO.C,R42*
X141890000Y-70500000D03*
X142910000Y-70500000D03*
G04 #@! TD*
D19*
G04 #@! TO.C,C24*
X125600000Y-88980000D03*
X125600000Y-88020000D03*
G04 #@! TD*
D17*
G04 #@! TO.C,R6*
X139510000Y-74500000D03*
X138490000Y-74500000D03*
G04 #@! TD*
D21*
G04 #@! TO.C,U3*
X111350000Y-87112500D03*
X113250000Y-87112500D03*
X113250000Y-89387500D03*
X112300000Y-89387500D03*
X111350000Y-89387500D03*
G04 #@! TD*
D16*
G04 #@! TO.C,C50*
X140280000Y-67400000D03*
X139320000Y-67400000D03*
G04 #@! TD*
D22*
G04 #@! TO.C,R32*
X106800000Y-67010000D03*
X106800000Y-65990000D03*
G04 #@! TD*
D17*
G04 #@! TO.C,R36*
X144860000Y-55650000D03*
X143840000Y-55650000D03*
G04 #@! TD*
D23*
G04 #@! TO.C,SW2*
X121750000Y-62000000D03*
X115249999Y-62000000D03*
X121750000Y-57499999D03*
X115249999Y-57499999D03*
G04 #@! TD*
D16*
G04 #@! TO.C,C43*
X132380000Y-64000000D03*
X131420000Y-64000000D03*
G04 #@! TD*
D18*
G04 #@! TO.C,R2*
X123440000Y-67500000D03*
X124460000Y-67500000D03*
G04 #@! TD*
D11*
G04 #@! TO.C,R21*
X130250000Y-63480000D03*
X130250000Y-64500000D03*
G04 #@! TD*
D16*
G04 #@! TO.C,C57*
X124780000Y-55400000D03*
X123820000Y-55400000D03*
G04 #@! TD*
D18*
G04 #@! TO.C,R43*
X139990000Y-64800000D03*
X141010000Y-64800000D03*
G04 #@! TD*
D14*
G04 #@! TO.C,C16*
X118020000Y-68400000D03*
X118980000Y-68400000D03*
G04 #@! TD*
D24*
G04 #@! TO.C,J1*
X116350000Y-92454786D03*
D25*
X116350000Y-94454786D03*
G04 #@! TD*
D14*
G04 #@! TO.C,C20*
X123020000Y-83400000D03*
X123980000Y-83400000D03*
G04 #@! TD*
D26*
G04 #@! TO.C,SW9*
X151512450Y-73099999D03*
X151512450Y-64900001D03*
D27*
X151512450Y-71000001D03*
X151512450Y-69000000D03*
X151512450Y-67000000D03*
G04 #@! TD*
D17*
G04 #@! TO.C,R41*
X137710000Y-66200000D03*
X136690000Y-66200000D03*
G04 #@! TD*
D28*
G04 #@! TO.C,J7*
X149000000Y-90900000D03*
X147750000Y-85600000D03*
X153250000Y-85600000D03*
D29*
X150500000Y-87500000D03*
X150500000Y-95000000D03*
G04 #@! TD*
D30*
G04 #@! TO.C,U1*
X123500000Y-73100000D03*
D31*
X126300000Y-76537500D03*
D32*
X125900000Y-76537500D03*
X125500000Y-76537500D03*
X125100000Y-76537500D03*
X124700000Y-76537500D03*
X124300000Y-76537500D03*
X123900000Y-76537500D03*
X123500000Y-76537500D03*
X123100000Y-76537500D03*
X122700000Y-76537500D03*
X122300000Y-76537500D03*
X121900000Y-76537500D03*
X121500000Y-76537500D03*
X121100000Y-76537500D03*
D33*
X120700000Y-76537500D03*
D34*
X120062500Y-75900000D03*
D35*
X120062500Y-75500000D03*
X120062500Y-75100000D03*
X120062500Y-74700000D03*
X120062500Y-74300000D03*
X120062500Y-73900000D03*
X120062500Y-73500000D03*
X120062500Y-73100000D03*
X120062500Y-72700000D03*
X120062500Y-72300000D03*
X120062500Y-71900000D03*
X120062500Y-71500000D03*
X120062500Y-71100000D03*
X120062500Y-70700000D03*
D36*
X120062500Y-70300000D03*
D37*
X120700000Y-69662500D03*
D32*
X121100000Y-69662500D03*
X121500000Y-69662500D03*
X121900000Y-69662500D03*
X122300000Y-69662500D03*
X122700000Y-69662500D03*
X123100000Y-69662500D03*
X123500000Y-69662500D03*
X123900000Y-69662500D03*
X124300000Y-69662500D03*
X124700000Y-69662500D03*
X125100000Y-69662500D03*
X125500000Y-69662500D03*
X125900000Y-69662500D03*
D38*
X126300000Y-69662500D03*
D39*
X126937500Y-70300000D03*
D35*
X126937500Y-70700000D03*
X126937500Y-71100000D03*
X126937500Y-71500000D03*
X126937500Y-71900000D03*
X126937500Y-72300000D03*
X126937500Y-72700000D03*
X126937500Y-73100000D03*
X126937500Y-73500000D03*
X126937500Y-73900000D03*
X126937500Y-74300000D03*
X126937500Y-74700000D03*
X126937500Y-75100000D03*
X126937500Y-75500000D03*
D40*
X126937500Y-75900000D03*
G04 #@! TD*
D29*
G04 #@! TO.C,J3*
X134550000Y-78937500D03*
X142550000Y-78937500D03*
G04 #@! TD*
D41*
G04 #@! TO.C,SW6*
X106436150Y-64495000D03*
X106436150Y-71505001D03*
D23*
X103945851Y-65750000D03*
X103945851Y-70250001D03*
G04 #@! TD*
D10*
G04 #@! TO.C,C18*
X128100000Y-66070000D03*
X128100000Y-67030000D03*
G04 #@! TD*
D41*
G04 #@! TO.C,SW5*
X106436150Y-73995000D03*
X106436150Y-81005001D03*
D23*
X103945851Y-75250000D03*
X103945851Y-79750001D03*
G04 #@! TD*
D42*
G04 #@! TO.C,J5*
X123179968Y-95151128D03*
D43*
X123179998Y-91151085D03*
X131820002Y-91151085D03*
D42*
X131820032Y-95151128D03*
G04 #@! TD*
D16*
G04 #@! TO.C,C3*
X126430000Y-67500000D03*
X125470000Y-67500000D03*
G04 #@! TD*
D44*
G04 #@! TO.C,Y1*
X126250000Y-66000000D03*
X124050000Y-66000000D03*
X124050000Y-64300000D03*
X126250000Y-64300000D03*
G04 #@! TD*
D10*
G04 #@! TO.C,C4*
X122400000Y-65670000D03*
X122400000Y-66630000D03*
G04 #@! TD*
D14*
G04 #@! TO.C,C13*
X118180000Y-77800000D03*
X117220000Y-77800000D03*
G04 #@! TD*
D20*
G04 #@! TO.C,H1*
X104500000Y-87493070D03*
G04 #@! TD*
D19*
G04 #@! TO.C,C59*
X144900000Y-83880000D03*
X144900000Y-82920000D03*
G04 #@! TD*
D14*
G04 #@! TO.C,C15*
X117120000Y-72950000D03*
X118080000Y-72950000D03*
G04 #@! TD*
D17*
G04 #@! TO.C,R35*
X144110000Y-61100000D03*
X143090000Y-61100000D03*
G04 #@! TD*
D11*
G04 #@! TO.C,R18*
X114900000Y-88240000D03*
X114900000Y-89260000D03*
G04 #@! TD*
D17*
G04 #@! TO.C,R28*
X134510000Y-63800000D03*
X133490000Y-63800000D03*
G04 #@! TD*
D45*
G04 #@! TO.C,U6*
X146849999Y-93419400D03*
X146200000Y-93419400D03*
X145549999Y-93419400D03*
X144900000Y-93419400D03*
X144249999Y-93419400D03*
X143600000Y-93419400D03*
X142949999Y-93419400D03*
X142950001Y-87780600D03*
X143600000Y-87780600D03*
X144250001Y-87780600D03*
X144900000Y-87780600D03*
X145549999Y-87780600D03*
X146200000Y-87780600D03*
X146850001Y-87780600D03*
G04 #@! TD*
D11*
G04 #@! TO.C,R7*
X124900000Y-79090000D03*
X124900000Y-80110000D03*
G04 #@! TD*
D16*
G04 #@! TO.C,C35*
X134880000Y-91600000D03*
X133920000Y-91600000D03*
G04 #@! TD*
D46*
G04 #@! TO.C,U4*
X119350000Y-86662500D03*
X120000000Y-86662500D03*
X120650000Y-86662500D03*
X120650000Y-88337500D03*
X120000000Y-88337500D03*
X119350000Y-88337500D03*
G04 #@! TD*
D11*
G04 #@! TO.C,R29*
X135700000Y-63790000D03*
X135700000Y-64810000D03*
G04 #@! TD*
D14*
G04 #@! TO.C,C23*
X129669999Y-83300000D03*
X130629999Y-83300000D03*
G04 #@! TD*
D47*
G04 #@! TO.C,U10*
X132295000Y-70012500D03*
X133565000Y-70012500D03*
X134835000Y-70012500D03*
X136105000Y-70012500D03*
X136105000Y-77187500D03*
X134835000Y-77187500D03*
X133565000Y-77187500D03*
X132295000Y-77187500D03*
G04 #@! TD*
D22*
G04 #@! TO.C,R4*
X148800000Y-72710000D03*
X148800000Y-71690000D03*
G04 #@! TD*
D14*
G04 #@! TO.C,C56*
X126320000Y-55400000D03*
X127280000Y-55400000D03*
G04 #@! TD*
D16*
G04 #@! TO.C,C37*
X140480000Y-93700000D03*
X139520000Y-93700000D03*
G04 #@! TD*
D19*
G04 #@! TO.C,C27*
X136700000Y-91680000D03*
X136700000Y-90720000D03*
G04 #@! TD*
D22*
G04 #@! TO.C,R16*
X138500000Y-93710000D03*
X138500000Y-92690000D03*
G04 #@! TD*
D15*
G04 #@! TO.C,U8*
X124450001Y-87293800D03*
X122549999Y-87293800D03*
X122549999Y-84906200D03*
X123500000Y-84906200D03*
X124450001Y-84906200D03*
G04 #@! TD*
D16*
G04 #@! TO.C,C54*
X122780000Y-55400000D03*
X121820000Y-55400000D03*
G04 #@! TD*
D19*
G04 #@! TO.C,C17*
X128200000Y-77080000D03*
X128200000Y-76120000D03*
G04 #@! TD*
D48*
G04 #@! TO.C,U5*
X134275000Y-83337500D03*
X134925000Y-83337500D03*
X135575000Y-83337500D03*
X136225000Y-83337500D03*
X136875000Y-83337500D03*
X137525000Y-83337500D03*
X138175000Y-83337500D03*
X138825000Y-83337500D03*
X139475000Y-83337500D03*
X140125000Y-83337500D03*
X140125000Y-89062500D03*
X139475000Y-89062500D03*
X138825000Y-89062500D03*
X138175000Y-89062500D03*
X137525000Y-89062500D03*
X136875000Y-89062500D03*
X136225000Y-89062500D03*
X135575000Y-89062500D03*
X134925000Y-89062500D03*
X134275000Y-89062500D03*
G04 #@! TD*
D22*
G04 #@! TO.C,R3*
X120200000Y-95410000D03*
X120200000Y-94390000D03*
G04 #@! TD*
D49*
G04 #@! TO.C,BOOTSEL*
X145650000Y-74475000D03*
X141525000Y-74475000D03*
X145675000Y-72325000D03*
X141525000Y-72325000D03*
G04 #@! TD*
D23*
G04 #@! TO.C,SW4*
X139750000Y-62000000D03*
X133249999Y-62000000D03*
X139750000Y-57499999D03*
X133249999Y-57499999D03*
G04 #@! TD*
D50*
G04 #@! TO.C,Q2*
X143900000Y-57412500D03*
X144850000Y-59287500D03*
X142950000Y-59287500D03*
G04 #@! TD*
D18*
G04 #@! TO.C,R31*
X107690000Y-77500000D03*
X108710000Y-77500000D03*
G04 #@! TD*
D14*
G04 #@! TO.C,C45*
X117320000Y-76800000D03*
X118280000Y-76800000D03*
G04 #@! TD*
G04 #@! TO.C,C53*
X113820000Y-55400000D03*
X114780000Y-55400000D03*
G04 #@! TD*
G04 #@! TO.C,C22*
X129669999Y-82300000D03*
X130629999Y-82300000D03*
G04 #@! TD*
D51*
G04 #@! TO.C,DS1*
X144863243Y-52018710D03*
X110263243Y-52018710D03*
D52*
X139563243Y-53818710D03*
X138063243Y-53818710D03*
X136563243Y-53818710D03*
X135063243Y-53818710D03*
X133563243Y-53818710D03*
X132063243Y-53818710D03*
X130563243Y-53818710D03*
X129063243Y-53818710D03*
X127563243Y-53818710D03*
X126063243Y-53818710D03*
X124563243Y-53818710D03*
X123063243Y-53818710D03*
X121563243Y-53818710D03*
X120063243Y-53818710D03*
X118563243Y-53818710D03*
X117063243Y-53818710D03*
D53*
X115563243Y-53818710D03*
D54*
X147663243Y-53968710D03*
X107463243Y-53968710D03*
G04 #@! TD*
D16*
G04 #@! TO.C,C29*
X136620000Y-80350000D03*
X137580000Y-80350000D03*
G04 #@! TD*
G04 #@! TO.C,C51*
X118780000Y-55400000D03*
X117820000Y-55400000D03*
G04 #@! TD*
D18*
G04 #@! TO.C,R33*
X106790000Y-68100000D03*
X107810000Y-68100000D03*
G04 #@! TD*
D20*
G04 #@! TO.C,H3*
X150500000Y-79000000D03*
G04 #@! TD*
D14*
G04 #@! TO.C,C39*
X146120000Y-95200000D03*
X147080000Y-95200000D03*
G04 #@! TD*
D11*
G04 #@! TO.C,R8*
X123900000Y-79090000D03*
X123900000Y-80110000D03*
G04 #@! TD*
D55*
G04 #@! TO.C,J6*
X113900000Y-78200000D03*
X113900000Y-77200000D03*
X113900000Y-76200000D03*
X113900000Y-75200000D03*
X113900000Y-74200000D03*
D56*
X113900000Y-73200000D03*
G04 #@! TD*
D22*
G04 #@! TO.C,R19*
X148500000Y-94410000D03*
X148500000Y-93390000D03*
G04 #@! TD*
D11*
G04 #@! TO.C,R17*
X114900000Y-90440000D03*
X114900000Y-91460000D03*
G04 #@! TD*
D16*
G04 #@! TO.C,C2*
X133230000Y-68350000D03*
X132270000Y-68350000D03*
G04 #@! TD*
D18*
G04 #@! TO.C,R40*
X141890000Y-69300000D03*
X142910000Y-69300000D03*
G04 #@! TD*
D11*
G04 #@! TO.C,R37*
X128750000Y-94090000D03*
X128750000Y-95110000D03*
G04 #@! TD*
D19*
G04 #@! TO.C,C5*
X118500000Y-95180000D03*
X118500000Y-94220000D03*
G04 #@! TD*
D16*
G04 #@! TO.C,C34*
X134880000Y-90600000D03*
X133920000Y-90600000D03*
G04 #@! TD*
D14*
G04 #@! TO.C,C10*
X120470000Y-67350000D03*
X121430000Y-67350000D03*
G04 #@! TD*
D16*
G04 #@! TO.C,C46*
X130380000Y-71600000D03*
X129420000Y-71600000D03*
G04 #@! TD*
D11*
G04 #@! TO.C,R23*
X118700000Y-63790000D03*
X118700000Y-64810000D03*
G04 #@! TD*
D17*
G04 #@! TO.C,R22*
X117410000Y-63800000D03*
X116390000Y-63800000D03*
G04 #@! TD*
D19*
G04 #@! TO.C,C49*
X106800000Y-70180000D03*
X106800000Y-69220000D03*
G04 #@! TD*
D16*
G04 #@! TO.C,C44*
X120880000Y-63800000D03*
X119920000Y-63800000D03*
G04 #@! TD*
G04 #@! TO.C,C8*
X129880000Y-73750000D03*
X128920000Y-73750000D03*
G04 #@! TD*
D19*
G04 #@! TO.C,C48*
X107700000Y-79580000D03*
X107700000Y-78620000D03*
G04 #@! TD*
D16*
G04 #@! TO.C,C47*
X137880000Y-63800000D03*
X136920000Y-63800000D03*
G04 #@! TD*
D19*
G04 #@! TO.C,C12*
X126000000Y-80480000D03*
X126000000Y-79520000D03*
G04 #@! TD*
D57*
G04 #@! TO.C,U7*
X120640762Y-84636081D03*
X119990762Y-84636081D03*
X119340762Y-84636081D03*
X119340762Y-82961081D03*
X119990762Y-82961081D03*
X120640762Y-82961081D03*
G04 #@! TD*
D22*
G04 #@! TO.C,R15*
X137500000Y-93710000D03*
X137500000Y-92690000D03*
G04 #@! TD*
D14*
G04 #@! TO.C,C11*
X116820000Y-73900000D03*
X117780000Y-73900000D03*
G04 #@! TD*
D16*
G04 #@! TO.C,C19*
X120780000Y-55400000D03*
X119820000Y-55400000D03*
G04 #@! TD*
G04 #@! TO.C,C32*
X140455000Y-90575000D03*
X139495000Y-90575000D03*
G04 #@! TD*
G04 #@! TO.C,C52*
X116780000Y-55400000D03*
X115820000Y-55400000D03*
G04 #@! TD*
G04 #@! TO.C,C42*
X144980000Y-95100000D03*
X144020000Y-95100000D03*
G04 #@! TD*
D58*
G04 #@! TO.C,U2*
X121337500Y-91043655D03*
X121337500Y-92943655D03*
X119062500Y-92943655D03*
X119062500Y-91993655D03*
X119062500Y-91043655D03*
G04 #@! TD*
D16*
G04 #@! TO.C,C58*
X111130000Y-55550000D03*
X110170000Y-55550000D03*
G04 #@! TD*
D20*
G04 #@! TO.C,H4*
X104500000Y-58500000D03*
G04 #@! TD*
D10*
G04 #@! TO.C,C26*
X133100000Y-86820000D03*
X133100000Y-87780000D03*
G04 #@! TD*
D11*
G04 #@! TO.C,R38*
X126700000Y-95110000D03*
X126700000Y-94090000D03*
G04 #@! TD*
D14*
G04 #@! TO.C,C36*
X136480000Y-93700000D03*
X135520000Y-93700000D03*
G04 #@! TD*
D16*
G04 #@! TO.C,C33*
X140455000Y-91700000D03*
X139495000Y-91700000D03*
G04 #@! TD*
D11*
G04 #@! TO.C,R14*
X142600000Y-80290000D03*
X142600000Y-81310000D03*
G04 #@! TD*
D17*
G04 #@! TO.C,R20*
X129310000Y-64000000D03*
X128290000Y-64000000D03*
G04 #@! TD*
D14*
G04 #@! TO.C,C21*
X122920000Y-82400000D03*
X123880000Y-82400000D03*
G04 #@! TD*
D22*
G04 #@! TO.C,R30*
X107700000Y-76510000D03*
X107700000Y-75490000D03*
G04 #@! TD*
D23*
G04 #@! TO.C,SW3*
X130750000Y-62000000D03*
X124249999Y-62000000D03*
X130750000Y-57499999D03*
X124249999Y-57499999D03*
G04 #@! TD*
D10*
G04 #@! TO.C,C38*
X141475000Y-88720000D03*
X141475000Y-89680000D03*
G04 #@! TD*
D11*
G04 #@! TO.C,R24*
X143800000Y-82490000D03*
X143800000Y-83510000D03*
G04 #@! TD*
D16*
G04 #@! TO.C,C55*
X130280000Y-55400000D03*
X129320000Y-55400000D03*
G04 #@! TD*
M02*
