G04 #@! TF.GenerationSoftware,KiCad,Pcbnew,10.0.3*
G04 #@! TF.CreationDate,2026-07-22T21:07:00-07:00*
G04 #@! TF.ProjectId,mp3-player,6d70332d-706c-4617-9965-722e6b696361,rev?*
G04 #@! TF.SameCoordinates,Original*
G04 #@! TF.FileFunction,Legend,Bot*
G04 #@! TF.FilePolarity,Positive*
%FSLAX46Y46*%
G04 Gerber Fmt 4.6, Leading zero omitted, Abs format (unit mm)*
G04 Created by KiCad (PCBNEW 10.0.3) date 2026-07-22 21:07:00*
%MOMM*%
%LPD*%
G01*
G04 APERTURE LIST*
G04 Aperture macros list*
%AMRoundRect*
0 Rectangle with rounded corners*
0 $1 Rounding radius*
0 $2 $3 $4 $5 $6 $7 $8 $9 X,Y pos of 4 corners*
0 Add a 4 corners polygon primitive as box body*
4,1,4,$2,$3,$4,$5,$6,$7,$8,$9,$2,$3,0*
0 Add four circle primitives for the rounded corners*
1,1,$1+$1,$2,$3*
1,1,$1+$1,$4,$5*
1,1,$1+$1,$6,$7*
1,1,$1+$1,$8,$9*
0 Add four rect primitives between the rounded corners*
20,1,$1+$1,$2,$3,$4,$5,0*
20,1,$1+$1,$4,$5,$6,$7,0*
20,1,$1+$1,$6,$7,$8,$9,0*
20,1,$1+$1,$8,$9,$2,$3,0*%
G04 Aperture macros list end*
%ADD10C,0.150000*%
%ADD11C,0.225000*%
%ADD12C,0.400000*%
%ADD13C,0.120000*%
%ADD14C,0.454000*%
%ADD15C,0.152400*%
%ADD16C,0.200000*%
%ADD17C,0.127000*%
%ADD18C,0.254000*%
%ADD19C,3.200000*%
%ADD20C,1.498600*%
%ADD21O,1.750000X1.200000*%
%ADD22RoundRect,0.250000X0.625000X-0.350000X0.625000X0.350000X-0.625000X0.350000X-0.625000X-0.350000X0*%
%ADD23C,2.006600*%
%ADD24C,1.320800*%
%ADD25O,1.712000X3.220000*%
%ADD26C,1.000000*%
%ADD27RoundRect,0.102000X0.600000X1.100000X-0.600000X1.100000X-0.600000X-1.100000X0.600000X-1.100000X0*%
%ADD28RoundRect,0.102000X0.800000X0.750000X-0.800000X0.750000X-0.800000X-0.750000X0.800000X-0.750000X0*%
%ADD29RoundRect,0.102000X0.600000X0.900000X-0.600000X0.900000X-0.600000X-0.900000X0.600000X-0.900000X0*%
%ADD30RoundRect,0.102000X0.350000X0.800000X-0.350000X0.800000X-0.350000X-0.800000X0.350000X-0.800000X0*%
%ADD31RoundRect,0.250000X0.350000X0.650000X-0.350000X0.650000X-0.350000X-0.650000X0.350000X-0.650000X0*%
%ADD32RoundRect,0.150000X0.150000X0.625000X-0.150000X0.625000X-0.150000X-0.625000X0.150000X-0.625000X0*%
%ADD33C,1.803400*%
%ADD34O,1.108000X2.308000*%
%ADD35O,1.108000X1.908000*%
%ADD36R,0.300000X1.150000*%
%ADD37R,0.599948X1.150112*%
%ADD38O,2.620000X1.412000*%
%ADD39C,1.204000*%
%ADD40RoundRect,0.102000X-0.500000X-0.500000X0.500000X-0.500000X0.500000X0.500000X-0.500000X0.500000X0*%
%ADD41C,0.800000*%
%ADD42C,0.850000*%
%ADD43R,0.850000X0.850000*%
G04 APERTURE END LIST*
D10*
X101430180Y-94663220D02*
X102430180Y-94663220D01*
X102430180Y-94663220D02*
X102430180Y-94282268D01*
X102430180Y-94282268D02*
X102382561Y-94187030D01*
X102382561Y-94187030D02*
X102334942Y-94139411D01*
X102334942Y-94139411D02*
X102239704Y-94091792D01*
X102239704Y-94091792D02*
X102096847Y-94091792D01*
X102096847Y-94091792D02*
X102001609Y-94139411D01*
X102001609Y-94139411D02*
X101953990Y-94187030D01*
X101953990Y-94187030D02*
X101906371Y-94282268D01*
X101906371Y-94282268D02*
X101906371Y-94663220D01*
X101430180Y-93520363D02*
X101477800Y-93615601D01*
X101477800Y-93615601D02*
X101525419Y-93663220D01*
X101525419Y-93663220D02*
X101620657Y-93710839D01*
X101620657Y-93710839D02*
X101906371Y-93710839D01*
X101906371Y-93710839D02*
X102001609Y-93663220D01*
X102001609Y-93663220D02*
X102049228Y-93615601D01*
X102049228Y-93615601D02*
X102096847Y-93520363D01*
X102096847Y-93520363D02*
X102096847Y-93377506D01*
X102096847Y-93377506D02*
X102049228Y-93282268D01*
X102049228Y-93282268D02*
X102001609Y-93234649D01*
X102001609Y-93234649D02*
X101906371Y-93187030D01*
X101906371Y-93187030D02*
X101620657Y-93187030D01*
X101620657Y-93187030D02*
X101525419Y-93234649D01*
X101525419Y-93234649D02*
X101477800Y-93282268D01*
X101477800Y-93282268D02*
X101430180Y-93377506D01*
X101430180Y-93377506D02*
X101430180Y-93520363D01*
X101430180Y-92615601D02*
X101477800Y-92710839D01*
X101477800Y-92710839D02*
X101573038Y-92758458D01*
X101573038Y-92758458D02*
X102430180Y-92758458D01*
X101430180Y-91806077D02*
X101953990Y-91806077D01*
X101953990Y-91806077D02*
X102049228Y-91853696D01*
X102049228Y-91853696D02*
X102096847Y-91948934D01*
X102096847Y-91948934D02*
X102096847Y-92139410D01*
X102096847Y-92139410D02*
X102049228Y-92234648D01*
X101477800Y-91806077D02*
X101430180Y-91901315D01*
X101430180Y-91901315D02*
X101430180Y-92139410D01*
X101430180Y-92139410D02*
X101477800Y-92234648D01*
X101477800Y-92234648D02*
X101573038Y-92282267D01*
X101573038Y-92282267D02*
X101668276Y-92282267D01*
X101668276Y-92282267D02*
X101763514Y-92234648D01*
X101763514Y-92234648D02*
X101811133Y-92139410D01*
X101811133Y-92139410D02*
X101811133Y-91901315D01*
X101811133Y-91901315D02*
X101858752Y-91806077D01*
X101430180Y-91329886D02*
X102096847Y-91329886D01*
X101906371Y-91329886D02*
X102001609Y-91282267D01*
X102001609Y-91282267D02*
X102049228Y-91234648D01*
X102049228Y-91234648D02*
X102096847Y-91139410D01*
X102096847Y-91139410D02*
X102096847Y-91044172D01*
X101430180Y-90710838D02*
X102096847Y-90710838D01*
X102430180Y-90710838D02*
X102382561Y-90758457D01*
X102382561Y-90758457D02*
X102334942Y-90710838D01*
X102334942Y-90710838D02*
X102382561Y-90663219D01*
X102382561Y-90663219D02*
X102430180Y-90710838D01*
X102430180Y-90710838D02*
X102334942Y-90710838D01*
X102096847Y-90377505D02*
X102096847Y-89996553D01*
X102430180Y-90234648D02*
X101573038Y-90234648D01*
X101573038Y-90234648D02*
X101477800Y-90187029D01*
X101477800Y-90187029D02*
X101430180Y-90091791D01*
X101430180Y-90091791D02*
X101430180Y-89996553D01*
X102096847Y-89758457D02*
X101430180Y-89520362D01*
X102096847Y-89282267D02*
X101430180Y-89520362D01*
X101430180Y-89520362D02*
X101192085Y-89615600D01*
X101192085Y-89615600D02*
X101144466Y-89663219D01*
X101144466Y-89663219D02*
X101096847Y-89758457D01*
X101525419Y-88901314D02*
X101477800Y-88853695D01*
X101477800Y-88853695D02*
X101430180Y-88901314D01*
X101430180Y-88901314D02*
X101477800Y-88948933D01*
X101477800Y-88948933D02*
X101525419Y-88901314D01*
X101525419Y-88901314D02*
X101430180Y-88901314D01*
X101811133Y-88901314D02*
X102382561Y-88948933D01*
X102382561Y-88948933D02*
X102430180Y-88901314D01*
X102430180Y-88901314D02*
X102382561Y-88853695D01*
X102382561Y-88853695D02*
X101811133Y-88901314D01*
X101811133Y-88901314D02*
X102430180Y-88901314D01*
D11*
X147294831Y-60104728D02*
X147294831Y-58604728D01*
X147294831Y-58604728D02*
X146794831Y-59676157D01*
X146794831Y-59676157D02*
X146294831Y-58604728D01*
X146294831Y-58604728D02*
X146294831Y-60104728D01*
X145580545Y-60104728D02*
X145580545Y-59104728D01*
X145580545Y-58604728D02*
X145651973Y-58676157D01*
X145651973Y-58676157D02*
X145580545Y-58747585D01*
X145580545Y-58747585D02*
X145509116Y-58676157D01*
X145509116Y-58676157D02*
X145580545Y-58604728D01*
X145580545Y-58604728D02*
X145580545Y-58747585D01*
X144866259Y-59104728D02*
X144866259Y-60104728D01*
X144866259Y-59247585D02*
X144794830Y-59176157D01*
X144794830Y-59176157D02*
X144651973Y-59104728D01*
X144651973Y-59104728D02*
X144437687Y-59104728D01*
X144437687Y-59104728D02*
X144294830Y-59176157D01*
X144294830Y-59176157D02*
X144223402Y-59319014D01*
X144223402Y-59319014D02*
X144223402Y-60104728D01*
X143509116Y-60104728D02*
X143509116Y-59104728D01*
X143509116Y-58604728D02*
X143580544Y-58676157D01*
X143580544Y-58676157D02*
X143509116Y-58747585D01*
X143509116Y-58747585D02*
X143437687Y-58676157D01*
X143437687Y-58676157D02*
X143509116Y-58604728D01*
X143509116Y-58604728D02*
X143509116Y-58747585D01*
X142794830Y-60104728D02*
X142794830Y-58604728D01*
X142794830Y-58604728D02*
X142294830Y-59676157D01*
X142294830Y-59676157D02*
X141794830Y-58604728D01*
X141794830Y-58604728D02*
X141794830Y-60104728D01*
X140437687Y-59104728D02*
X140437687Y-60104728D01*
X141080544Y-59104728D02*
X141080544Y-59890442D01*
X141080544Y-59890442D02*
X141009115Y-60033300D01*
X141009115Y-60033300D02*
X140866258Y-60104728D01*
X140866258Y-60104728D02*
X140651972Y-60104728D01*
X140651972Y-60104728D02*
X140509115Y-60033300D01*
X140509115Y-60033300D02*
X140437687Y-59961871D01*
X139794829Y-60033300D02*
X139651972Y-60104728D01*
X139651972Y-60104728D02*
X139366258Y-60104728D01*
X139366258Y-60104728D02*
X139223401Y-60033300D01*
X139223401Y-60033300D02*
X139151972Y-59890442D01*
X139151972Y-59890442D02*
X139151972Y-59819014D01*
X139151972Y-59819014D02*
X139223401Y-59676157D01*
X139223401Y-59676157D02*
X139366258Y-59604728D01*
X139366258Y-59604728D02*
X139580544Y-59604728D01*
X139580544Y-59604728D02*
X139723401Y-59533300D01*
X139723401Y-59533300D02*
X139794829Y-59390442D01*
X139794829Y-59390442D02*
X139794829Y-59319014D01*
X139794829Y-59319014D02*
X139723401Y-59176157D01*
X139723401Y-59176157D02*
X139580544Y-59104728D01*
X139580544Y-59104728D02*
X139366258Y-59104728D01*
X139366258Y-59104728D02*
X139223401Y-59176157D01*
X138509115Y-60104728D02*
X138509115Y-59104728D01*
X138509115Y-58604728D02*
X138580543Y-58676157D01*
X138580543Y-58676157D02*
X138509115Y-58747585D01*
X138509115Y-58747585D02*
X138437686Y-58676157D01*
X138437686Y-58676157D02*
X138509115Y-58604728D01*
X138509115Y-58604728D02*
X138509115Y-58747585D01*
X137151972Y-60033300D02*
X137294829Y-60104728D01*
X137294829Y-60104728D02*
X137580543Y-60104728D01*
X137580543Y-60104728D02*
X137723400Y-60033300D01*
X137723400Y-60033300D02*
X137794829Y-59961871D01*
X137794829Y-59961871D02*
X137866257Y-59819014D01*
X137866257Y-59819014D02*
X137866257Y-59390442D01*
X137866257Y-59390442D02*
X137794829Y-59247585D01*
X137794829Y-59247585D02*
X137723400Y-59176157D01*
X137723400Y-59176157D02*
X137580543Y-59104728D01*
X137580543Y-59104728D02*
X137294829Y-59104728D01*
X137294829Y-59104728D02*
X137151972Y-59176157D01*
X136009115Y-59319014D02*
X135794829Y-59390442D01*
X135794829Y-59390442D02*
X135723400Y-59461871D01*
X135723400Y-59461871D02*
X135651972Y-59604728D01*
X135651972Y-59604728D02*
X135651972Y-59819014D01*
X135651972Y-59819014D02*
X135723400Y-59961871D01*
X135723400Y-59961871D02*
X135794829Y-60033300D01*
X135794829Y-60033300D02*
X135937686Y-60104728D01*
X135937686Y-60104728D02*
X136509115Y-60104728D01*
X136509115Y-60104728D02*
X136509115Y-58604728D01*
X136509115Y-58604728D02*
X136009115Y-58604728D01*
X136009115Y-58604728D02*
X135866258Y-58676157D01*
X135866258Y-58676157D02*
X135794829Y-58747585D01*
X135794829Y-58747585D02*
X135723400Y-58890442D01*
X135723400Y-58890442D02*
X135723400Y-59033300D01*
X135723400Y-59033300D02*
X135794829Y-59176157D01*
X135794829Y-59176157D02*
X135866258Y-59247585D01*
X135866258Y-59247585D02*
X136009115Y-59319014D01*
X136009115Y-59319014D02*
X136509115Y-59319014D01*
X134794829Y-60104728D02*
X134937686Y-60033300D01*
X134937686Y-60033300D02*
X135009115Y-59961871D01*
X135009115Y-59961871D02*
X135080543Y-59819014D01*
X135080543Y-59819014D02*
X135080543Y-59390442D01*
X135080543Y-59390442D02*
X135009115Y-59247585D01*
X135009115Y-59247585D02*
X134937686Y-59176157D01*
X134937686Y-59176157D02*
X134794829Y-59104728D01*
X134794829Y-59104728D02*
X134580543Y-59104728D01*
X134580543Y-59104728D02*
X134437686Y-59176157D01*
X134437686Y-59176157D02*
X134366258Y-59247585D01*
X134366258Y-59247585D02*
X134294829Y-59390442D01*
X134294829Y-59390442D02*
X134294829Y-59819014D01*
X134294829Y-59819014D02*
X134366258Y-59961871D01*
X134366258Y-59961871D02*
X134437686Y-60033300D01*
X134437686Y-60033300D02*
X134580543Y-60104728D01*
X134580543Y-60104728D02*
X134794829Y-60104728D01*
X133794829Y-60104728D02*
X133009115Y-59104728D01*
X133794829Y-59104728D02*
X133009115Y-60104728D01*
X131437686Y-59104728D02*
X131080543Y-60104728D01*
X131080543Y-60104728D02*
X130723400Y-59104728D01*
X129866257Y-58604728D02*
X129723400Y-58604728D01*
X129723400Y-58604728D02*
X129580543Y-58676157D01*
X129580543Y-58676157D02*
X129509115Y-58747585D01*
X129509115Y-58747585D02*
X129437686Y-58890442D01*
X129437686Y-58890442D02*
X129366257Y-59176157D01*
X129366257Y-59176157D02*
X129366257Y-59533300D01*
X129366257Y-59533300D02*
X129437686Y-59819014D01*
X129437686Y-59819014D02*
X129509115Y-59961871D01*
X129509115Y-59961871D02*
X129580543Y-60033300D01*
X129580543Y-60033300D02*
X129723400Y-60104728D01*
X129723400Y-60104728D02*
X129866257Y-60104728D01*
X129866257Y-60104728D02*
X130009115Y-60033300D01*
X130009115Y-60033300D02*
X130080543Y-59961871D01*
X130080543Y-59961871D02*
X130151972Y-59819014D01*
X130151972Y-59819014D02*
X130223400Y-59533300D01*
X130223400Y-59533300D02*
X130223400Y-59176157D01*
X130223400Y-59176157D02*
X130151972Y-58890442D01*
X130151972Y-58890442D02*
X130080543Y-58747585D01*
X130080543Y-58747585D02*
X130009115Y-58676157D01*
X130009115Y-58676157D02*
X129866257Y-58604728D01*
X128723401Y-59961871D02*
X128651972Y-60033300D01*
X128651972Y-60033300D02*
X128723401Y-60104728D01*
X128723401Y-60104728D02*
X128794829Y-60033300D01*
X128794829Y-60033300D02*
X128723401Y-59961871D01*
X128723401Y-59961871D02*
X128723401Y-60104728D01*
X127223400Y-60104728D02*
X128080543Y-60104728D01*
X127651972Y-60104728D02*
X127651972Y-58604728D01*
X127651972Y-58604728D02*
X127794829Y-58819014D01*
X127794829Y-58819014D02*
X127937686Y-58961871D01*
X127937686Y-58961871D02*
X128080543Y-59033300D01*
D10*
X103225419Y-94191792D02*
X103177800Y-94239411D01*
X103177800Y-94239411D02*
X103130180Y-94382268D01*
X103130180Y-94382268D02*
X103130180Y-94477506D01*
X103130180Y-94477506D02*
X103177800Y-94620363D01*
X103177800Y-94620363D02*
X103273038Y-94715601D01*
X103273038Y-94715601D02*
X103368276Y-94763220D01*
X103368276Y-94763220D02*
X103558752Y-94810839D01*
X103558752Y-94810839D02*
X103701609Y-94810839D01*
X103701609Y-94810839D02*
X103892085Y-94763220D01*
X103892085Y-94763220D02*
X103987323Y-94715601D01*
X103987323Y-94715601D02*
X104082561Y-94620363D01*
X104082561Y-94620363D02*
X104130180Y-94477506D01*
X104130180Y-94477506D02*
X104130180Y-94382268D01*
X104130180Y-94382268D02*
X104082561Y-94239411D01*
X104082561Y-94239411D02*
X104034942Y-94191792D01*
X103130180Y-93763220D02*
X104130180Y-93763220D01*
X103130180Y-93334649D02*
X103653990Y-93334649D01*
X103653990Y-93334649D02*
X103749228Y-93382268D01*
X103749228Y-93382268D02*
X103796847Y-93477506D01*
X103796847Y-93477506D02*
X103796847Y-93620363D01*
X103796847Y-93620363D02*
X103749228Y-93715601D01*
X103749228Y-93715601D02*
X103701609Y-93763220D01*
X103177800Y-92477506D02*
X103130180Y-92572744D01*
X103130180Y-92572744D02*
X103130180Y-92763220D01*
X103130180Y-92763220D02*
X103177800Y-92858458D01*
X103177800Y-92858458D02*
X103273038Y-92906077D01*
X103273038Y-92906077D02*
X103653990Y-92906077D01*
X103653990Y-92906077D02*
X103749228Y-92858458D01*
X103749228Y-92858458D02*
X103796847Y-92763220D01*
X103796847Y-92763220D02*
X103796847Y-92572744D01*
X103796847Y-92572744D02*
X103749228Y-92477506D01*
X103749228Y-92477506D02*
X103653990Y-92429887D01*
X103653990Y-92429887D02*
X103558752Y-92429887D01*
X103558752Y-92429887D02*
X103463514Y-92906077D01*
X103177800Y-91572744D02*
X103130180Y-91667982D01*
X103130180Y-91667982D02*
X103130180Y-91858458D01*
X103130180Y-91858458D02*
X103177800Y-91953696D01*
X103177800Y-91953696D02*
X103225419Y-92001315D01*
X103225419Y-92001315D02*
X103320657Y-92048934D01*
X103320657Y-92048934D02*
X103606371Y-92048934D01*
X103606371Y-92048934D02*
X103701609Y-92001315D01*
X103701609Y-92001315D02*
X103749228Y-91953696D01*
X103749228Y-91953696D02*
X103796847Y-91858458D01*
X103796847Y-91858458D02*
X103796847Y-91667982D01*
X103796847Y-91667982D02*
X103749228Y-91572744D01*
X103130180Y-91144172D02*
X104130180Y-91144172D01*
X103511133Y-91048934D02*
X103130180Y-90763220D01*
X103796847Y-90763220D02*
X103415895Y-91144172D01*
D12*
X107300000Y-92100000D02*
X108300000Y-92100000D01*
X108900000Y-95000000D02*
G75*
G02*
X106700000Y-95000000I-1100000J0D01*
G01*
X106700000Y-95000000D02*
G75*
G02*
X108900000Y-95000000I1100000J0D01*
G01*
X107800000Y-95500000D02*
X107800000Y-94500000D01*
X108900000Y-92100000D02*
G75*
G02*
X106700000Y-92100000I-1100000J0D01*
G01*
X106700000Y-92100000D02*
G75*
G02*
X108900000Y-92100000I1100000J0D01*
G01*
X107800000Y-92600000D02*
X107800000Y-91600000D01*
D10*
X110933333Y-88654819D02*
X110933333Y-89369104D01*
X110933333Y-89369104D02*
X110980952Y-89511961D01*
X110980952Y-89511961D02*
X111076190Y-89607200D01*
X111076190Y-89607200D02*
X111219047Y-89654819D01*
X111219047Y-89654819D02*
X111314285Y-89654819D01*
X109933333Y-89654819D02*
X110504761Y-89654819D01*
X110219047Y-89654819D02*
X110219047Y-88654819D01*
X110219047Y-88654819D02*
X110314285Y-88797676D01*
X110314285Y-88797676D02*
X110409523Y-88892914D01*
X110409523Y-88892914D02*
X110504761Y-88940533D01*
X148333332Y-65607200D02*
X148190475Y-65654819D01*
X148190475Y-65654819D02*
X147952380Y-65654819D01*
X147952380Y-65654819D02*
X147857142Y-65607200D01*
X147857142Y-65607200D02*
X147809523Y-65559580D01*
X147809523Y-65559580D02*
X147761904Y-65464342D01*
X147761904Y-65464342D02*
X147761904Y-65369104D01*
X147761904Y-65369104D02*
X147809523Y-65273866D01*
X147809523Y-65273866D02*
X147857142Y-65226247D01*
X147857142Y-65226247D02*
X147952380Y-65178628D01*
X147952380Y-65178628D02*
X148142856Y-65131009D01*
X148142856Y-65131009D02*
X148238094Y-65083390D01*
X148238094Y-65083390D02*
X148285713Y-65035771D01*
X148285713Y-65035771D02*
X148333332Y-64940533D01*
X148333332Y-64940533D02*
X148333332Y-64845295D01*
X148333332Y-64845295D02*
X148285713Y-64750057D01*
X148285713Y-64750057D02*
X148238094Y-64702438D01*
X148238094Y-64702438D02*
X148142856Y-64654819D01*
X148142856Y-64654819D02*
X147904761Y-64654819D01*
X147904761Y-64654819D02*
X147761904Y-64702438D01*
X147428570Y-64654819D02*
X147190475Y-65654819D01*
X147190475Y-65654819D02*
X146999999Y-64940533D01*
X146999999Y-64940533D02*
X146809523Y-65654819D01*
X146809523Y-65654819D02*
X146571428Y-64654819D01*
X146142856Y-65654819D02*
X145952380Y-65654819D01*
X145952380Y-65654819D02*
X145857142Y-65607200D01*
X145857142Y-65607200D02*
X145809523Y-65559580D01*
X145809523Y-65559580D02*
X145714285Y-65416723D01*
X145714285Y-65416723D02*
X145666666Y-65226247D01*
X145666666Y-65226247D02*
X145666666Y-64845295D01*
X145666666Y-64845295D02*
X145714285Y-64750057D01*
X145714285Y-64750057D02*
X145761904Y-64702438D01*
X145761904Y-64702438D02*
X145857142Y-64654819D01*
X145857142Y-64654819D02*
X146047618Y-64654819D01*
X146047618Y-64654819D02*
X146142856Y-64702438D01*
X146142856Y-64702438D02*
X146190475Y-64750057D01*
X146190475Y-64750057D02*
X146238094Y-64845295D01*
X146238094Y-64845295D02*
X146238094Y-65083390D01*
X146238094Y-65083390D02*
X146190475Y-65178628D01*
X146190475Y-65178628D02*
X146142856Y-65226247D01*
X146142856Y-65226247D02*
X146047618Y-65273866D01*
X146047618Y-65273866D02*
X145857142Y-65273866D01*
X145857142Y-65273866D02*
X145761904Y-65226247D01*
X145761904Y-65226247D02*
X145714285Y-65178628D01*
X145714285Y-65178628D02*
X145666666Y-65083390D01*
X150933333Y-82254819D02*
X150933333Y-82969104D01*
X150933333Y-82969104D02*
X150980952Y-83111961D01*
X150980952Y-83111961D02*
X151076190Y-83207200D01*
X151076190Y-83207200D02*
X151219047Y-83254819D01*
X151219047Y-83254819D02*
X151314285Y-83254819D01*
X150552380Y-82254819D02*
X149885714Y-82254819D01*
X149885714Y-82254819D02*
X150314285Y-83254819D01*
X142533333Y-65154819D02*
X142533333Y-65869104D01*
X142533333Y-65869104D02*
X142580952Y-66011961D01*
X142580952Y-66011961D02*
X142676190Y-66107200D01*
X142676190Y-66107200D02*
X142819047Y-66154819D01*
X142819047Y-66154819D02*
X142914285Y-66154819D01*
X142152380Y-65154819D02*
X141533333Y-65154819D01*
X141533333Y-65154819D02*
X141866666Y-65535771D01*
X141866666Y-65535771D02*
X141723809Y-65535771D01*
X141723809Y-65535771D02*
X141628571Y-65583390D01*
X141628571Y-65583390D02*
X141580952Y-65631009D01*
X141580952Y-65631009D02*
X141533333Y-65726247D01*
X141533333Y-65726247D02*
X141533333Y-65964342D01*
X141533333Y-65964342D02*
X141580952Y-66059580D01*
X141580952Y-66059580D02*
X141628571Y-66107200D01*
X141628571Y-66107200D02*
X141723809Y-66154819D01*
X141723809Y-66154819D02*
X142009523Y-66154819D01*
X142009523Y-66154819D02*
X142104761Y-66107200D01*
X142104761Y-66107200D02*
X142152380Y-66059580D01*
X113838094Y-63754819D02*
X113838094Y-62754819D01*
X113838094Y-62754819D02*
X113599999Y-62754819D01*
X113599999Y-62754819D02*
X113457142Y-62802438D01*
X113457142Y-62802438D02*
X113361904Y-62897676D01*
X113361904Y-62897676D02*
X113314285Y-62992914D01*
X113314285Y-62992914D02*
X113266666Y-63183390D01*
X113266666Y-63183390D02*
X113266666Y-63326247D01*
X113266666Y-63326247D02*
X113314285Y-63516723D01*
X113314285Y-63516723D02*
X113361904Y-63611961D01*
X113361904Y-63611961D02*
X113457142Y-63707200D01*
X113457142Y-63707200D02*
X113599999Y-63754819D01*
X113599999Y-63754819D02*
X113838094Y-63754819D01*
X112838094Y-63231009D02*
X112504761Y-63231009D01*
X112361904Y-63754819D02*
X112838094Y-63754819D01*
X112838094Y-63754819D02*
X112838094Y-62754819D01*
X112838094Y-62754819D02*
X112361904Y-62754819D01*
X111599999Y-63231009D02*
X111457142Y-63278628D01*
X111457142Y-63278628D02*
X111409523Y-63326247D01*
X111409523Y-63326247D02*
X111361904Y-63421485D01*
X111361904Y-63421485D02*
X111361904Y-63564342D01*
X111361904Y-63564342D02*
X111409523Y-63659580D01*
X111409523Y-63659580D02*
X111457142Y-63707200D01*
X111457142Y-63707200D02*
X111552380Y-63754819D01*
X111552380Y-63754819D02*
X111933332Y-63754819D01*
X111933332Y-63754819D02*
X111933332Y-62754819D01*
X111933332Y-62754819D02*
X111599999Y-62754819D01*
X111599999Y-62754819D02*
X111504761Y-62802438D01*
X111504761Y-62802438D02*
X111457142Y-62850057D01*
X111457142Y-62850057D02*
X111409523Y-62945295D01*
X111409523Y-62945295D02*
X111409523Y-63040533D01*
X111409523Y-63040533D02*
X111457142Y-63135771D01*
X111457142Y-63135771D02*
X111504761Y-63183390D01*
X111504761Y-63183390D02*
X111599999Y-63231009D01*
X111599999Y-63231009D02*
X111933332Y-63231009D01*
X110933332Y-62754819D02*
X110933332Y-63564342D01*
X110933332Y-63564342D02*
X110885713Y-63659580D01*
X110885713Y-63659580D02*
X110838094Y-63707200D01*
X110838094Y-63707200D02*
X110742856Y-63754819D01*
X110742856Y-63754819D02*
X110552380Y-63754819D01*
X110552380Y-63754819D02*
X110457142Y-63707200D01*
X110457142Y-63707200D02*
X110409523Y-63659580D01*
X110409523Y-63659580D02*
X110361904Y-63564342D01*
X110361904Y-63564342D02*
X110361904Y-62754819D01*
X109361904Y-62802438D02*
X109457142Y-62754819D01*
X109457142Y-62754819D02*
X109599999Y-62754819D01*
X109599999Y-62754819D02*
X109742856Y-62802438D01*
X109742856Y-62802438D02*
X109838094Y-62897676D01*
X109838094Y-62897676D02*
X109885713Y-62992914D01*
X109885713Y-62992914D02*
X109933332Y-63183390D01*
X109933332Y-63183390D02*
X109933332Y-63326247D01*
X109933332Y-63326247D02*
X109885713Y-63516723D01*
X109885713Y-63516723D02*
X109838094Y-63611961D01*
X109838094Y-63611961D02*
X109742856Y-63707200D01*
X109742856Y-63707200D02*
X109599999Y-63754819D01*
X109599999Y-63754819D02*
X109504761Y-63754819D01*
X109504761Y-63754819D02*
X109361904Y-63707200D01*
X109361904Y-63707200D02*
X109314285Y-63659580D01*
X109314285Y-63659580D02*
X109314285Y-63326247D01*
X109314285Y-63326247D02*
X109504761Y-63326247D01*
X104533332Y-63207200D02*
X104390475Y-63254819D01*
X104390475Y-63254819D02*
X104152380Y-63254819D01*
X104152380Y-63254819D02*
X104057142Y-63207200D01*
X104057142Y-63207200D02*
X104009523Y-63159580D01*
X104009523Y-63159580D02*
X103961904Y-63064342D01*
X103961904Y-63064342D02*
X103961904Y-62969104D01*
X103961904Y-62969104D02*
X104009523Y-62873866D01*
X104009523Y-62873866D02*
X104057142Y-62826247D01*
X104057142Y-62826247D02*
X104152380Y-62778628D01*
X104152380Y-62778628D02*
X104342856Y-62731009D01*
X104342856Y-62731009D02*
X104438094Y-62683390D01*
X104438094Y-62683390D02*
X104485713Y-62635771D01*
X104485713Y-62635771D02*
X104533332Y-62540533D01*
X104533332Y-62540533D02*
X104533332Y-62445295D01*
X104533332Y-62445295D02*
X104485713Y-62350057D01*
X104485713Y-62350057D02*
X104438094Y-62302438D01*
X104438094Y-62302438D02*
X104342856Y-62254819D01*
X104342856Y-62254819D02*
X104104761Y-62254819D01*
X104104761Y-62254819D02*
X103961904Y-62302438D01*
X103628570Y-62254819D02*
X103390475Y-63254819D01*
X103390475Y-63254819D02*
X103199999Y-62540533D01*
X103199999Y-62540533D02*
X103009523Y-63254819D01*
X103009523Y-63254819D02*
X102771428Y-62254819D01*
X101961904Y-62254819D02*
X102152380Y-62254819D01*
X102152380Y-62254819D02*
X102247618Y-62302438D01*
X102247618Y-62302438D02*
X102295237Y-62350057D01*
X102295237Y-62350057D02*
X102390475Y-62492914D01*
X102390475Y-62492914D02*
X102438094Y-62683390D01*
X102438094Y-62683390D02*
X102438094Y-63064342D01*
X102438094Y-63064342D02*
X102390475Y-63159580D01*
X102390475Y-63159580D02*
X102342856Y-63207200D01*
X102342856Y-63207200D02*
X102247618Y-63254819D01*
X102247618Y-63254819D02*
X102057142Y-63254819D01*
X102057142Y-63254819D02*
X101961904Y-63207200D01*
X101961904Y-63207200D02*
X101914285Y-63159580D01*
X101914285Y-63159580D02*
X101866666Y-63064342D01*
X101866666Y-63064342D02*
X101866666Y-62826247D01*
X101866666Y-62826247D02*
X101914285Y-62731009D01*
X101914285Y-62731009D02*
X101961904Y-62683390D01*
X101961904Y-62683390D02*
X102057142Y-62635771D01*
X102057142Y-62635771D02*
X102247618Y-62635771D01*
X102247618Y-62635771D02*
X102342856Y-62683390D01*
X102342856Y-62683390D02*
X102390475Y-62731009D01*
X102390475Y-62731009D02*
X102438094Y-62826247D01*
X111233332Y-75907200D02*
X111090475Y-75954819D01*
X111090475Y-75954819D02*
X110852380Y-75954819D01*
X110852380Y-75954819D02*
X110757142Y-75907200D01*
X110757142Y-75907200D02*
X110709523Y-75859580D01*
X110709523Y-75859580D02*
X110661904Y-75764342D01*
X110661904Y-75764342D02*
X110661904Y-75669104D01*
X110661904Y-75669104D02*
X110709523Y-75573866D01*
X110709523Y-75573866D02*
X110757142Y-75526247D01*
X110757142Y-75526247D02*
X110852380Y-75478628D01*
X110852380Y-75478628D02*
X111042856Y-75431009D01*
X111042856Y-75431009D02*
X111138094Y-75383390D01*
X111138094Y-75383390D02*
X111185713Y-75335771D01*
X111185713Y-75335771D02*
X111233332Y-75240533D01*
X111233332Y-75240533D02*
X111233332Y-75145295D01*
X111233332Y-75145295D02*
X111185713Y-75050057D01*
X111185713Y-75050057D02*
X111138094Y-75002438D01*
X111138094Y-75002438D02*
X111042856Y-74954819D01*
X111042856Y-74954819D02*
X110804761Y-74954819D01*
X110804761Y-74954819D02*
X110661904Y-75002438D01*
X110328570Y-74954819D02*
X110090475Y-75954819D01*
X110090475Y-75954819D02*
X109899999Y-75240533D01*
X109899999Y-75240533D02*
X109709523Y-75954819D01*
X109709523Y-75954819D02*
X109471428Y-74954819D01*
X108614285Y-74954819D02*
X109090475Y-74954819D01*
X109090475Y-74954819D02*
X109138094Y-75431009D01*
X109138094Y-75431009D02*
X109090475Y-75383390D01*
X109090475Y-75383390D02*
X108995237Y-75335771D01*
X108995237Y-75335771D02*
X108757142Y-75335771D01*
X108757142Y-75335771D02*
X108661904Y-75383390D01*
X108661904Y-75383390D02*
X108614285Y-75431009D01*
X108614285Y-75431009D02*
X108566666Y-75526247D01*
X108566666Y-75526247D02*
X108566666Y-75764342D01*
X108566666Y-75764342D02*
X108614285Y-75859580D01*
X108614285Y-75859580D02*
X108661904Y-75907200D01*
X108661904Y-75907200D02*
X108757142Y-75954819D01*
X108757142Y-75954819D02*
X108995237Y-75954819D01*
X108995237Y-75954819D02*
X109090475Y-75907200D01*
X109090475Y-75907200D02*
X109138094Y-75859580D01*
X127933333Y-87754819D02*
X127933333Y-88469104D01*
X127933333Y-88469104D02*
X127980952Y-88611961D01*
X127980952Y-88611961D02*
X128076190Y-88707200D01*
X128076190Y-88707200D02*
X128219047Y-88754819D01*
X128219047Y-88754819D02*
X128314285Y-88754819D01*
X126980952Y-87754819D02*
X127457142Y-87754819D01*
X127457142Y-87754819D02*
X127504761Y-88231009D01*
X127504761Y-88231009D02*
X127457142Y-88183390D01*
X127457142Y-88183390D02*
X127361904Y-88135771D01*
X127361904Y-88135771D02*
X127123809Y-88135771D01*
X127123809Y-88135771D02*
X127028571Y-88183390D01*
X127028571Y-88183390D02*
X126980952Y-88231009D01*
X126980952Y-88231009D02*
X126933333Y-88326247D01*
X126933333Y-88326247D02*
X126933333Y-88564342D01*
X126933333Y-88564342D02*
X126980952Y-88659580D01*
X126980952Y-88659580D02*
X127028571Y-88707200D01*
X127028571Y-88707200D02*
X127123809Y-88754819D01*
X127123809Y-88754819D02*
X127361904Y-88754819D01*
X127361904Y-88754819D02*
X127457142Y-88707200D01*
X127457142Y-88707200D02*
X127504761Y-88659580D01*
G04 #@! TO.C,J1*
D13*
X112250000Y-94754786D02*
X113850000Y-94754786D01*
X113850000Y-95754786D01*
X112250000Y-95754786D01*
X112250000Y-94754786D01*
X112250000Y-91154786D02*
X113850000Y-91154786D01*
X113850000Y-92154786D01*
X112250000Y-92154786D01*
X112250000Y-91154786D01*
X117810000Y-95594786D02*
X117810000Y-96254786D01*
X117810000Y-91314786D02*
X116210000Y-91314786D01*
X117810000Y-90394786D02*
X117810000Y-91314786D01*
X116210000Y-96254786D02*
X116210000Y-95594786D01*
X116210000Y-95594786D02*
X117810000Y-95594786D01*
X116210000Y-95314786D02*
X117425000Y-95314786D01*
X116210000Y-95314786D02*
X116210000Y-95594786D01*
X116210000Y-91314786D02*
X116210000Y-91594786D01*
X116210000Y-90394786D02*
X116210000Y-91314786D01*
X114350000Y-93954786D02*
X114350000Y-92954786D01*
X114350000Y-92954786D02*
X109990000Y-92954786D01*
X112250000Y-95254786D02*
X109990000Y-95254786D01*
X112250000Y-94754786D02*
X109990000Y-94754786D01*
X109990000Y-96354786D02*
X109990000Y-90394786D01*
X109990000Y-93954786D02*
X114350000Y-93954786D01*
X109990000Y-90394786D02*
X117810000Y-90394786D01*
G04 #@! TO.C,SW9*
D14*
X151739450Y-62700000D02*
G75*
G02*
X151285450Y-62700000I-227000J0D01*
G01*
X151285450Y-62700000D02*
G75*
G02*
X151739450Y-62700000I227000J0D01*
G01*
D15*
X153836550Y-73432300D02*
X152806505Y-73432300D01*
X153836550Y-71133600D02*
X153836550Y-73432300D01*
X153836550Y-64567700D02*
X153836550Y-66866400D01*
X152806505Y-64567700D02*
X153836550Y-64567700D01*
X150218395Y-73432300D02*
X149188350Y-73432300D01*
X149188350Y-73432300D02*
X149188350Y-64567700D01*
X149188350Y-64567700D02*
X150218395Y-64567700D01*
G04 #@! TO.C,J7*
D16*
X146500000Y-90900000D02*
G75*
G02*
X146300000Y-90900000I-100000J0D01*
G01*
X146300000Y-90900000D02*
G75*
G02*
X146500000Y-90900000I100000J0D01*
G01*
D17*
X154100000Y-95300000D02*
X154100000Y-87428000D01*
X152176000Y-85000000D02*
X148824000Y-85000000D01*
X146900000Y-95300000D02*
X146900000Y-87428000D01*
G04 #@! TO.C,J3*
D16*
X135450000Y-66587500D02*
G75*
G02*
X135250000Y-66587500I-100000J0D01*
G01*
X135250000Y-66587500D02*
G75*
G02*
X135450000Y-66587500I100000J0D01*
G01*
D17*
X144975000Y-82937500D02*
X130225000Y-82937500D01*
X144975000Y-79957500D02*
X144975000Y-82937500D01*
X144975000Y-70457500D02*
X144975000Y-77117500D01*
X131870000Y-68437500D02*
X134680000Y-68437500D01*
X130225000Y-79957500D02*
X130225000Y-82937500D01*
X130225000Y-70057500D02*
X130225000Y-77117500D01*
G04 #@! TO.C,DEBUG*
D13*
X116010000Y-68515000D02*
X116010000Y-66015000D01*
X116010000Y-66015000D02*
X114960000Y-66015000D01*
X114960000Y-66015000D02*
X114960000Y-65025000D01*
X114840000Y-70485000D02*
X111960000Y-70485000D01*
X110790000Y-68515000D02*
X110790000Y-66015000D01*
X110790000Y-66015000D02*
X111840000Y-66015000D01*
G04 #@! TO.C,SW6*
D15*
X108083050Y-71683000D02*
X107628851Y-71683000D01*
X108083050Y-64317000D02*
X108083050Y-71683000D01*
X107628851Y-64317000D02*
X108083050Y-64317000D01*
X105101525Y-71683000D02*
X100475750Y-71683000D01*
X100475750Y-71683000D02*
X100475750Y-64317000D01*
X100475750Y-64317000D02*
X105101525Y-64317000D01*
G04 #@! TO.C,SW5*
X108083050Y-81183000D02*
X107628851Y-81183000D01*
X108083050Y-73817000D02*
X108083050Y-81183000D01*
X107628851Y-73817000D02*
X108083050Y-73817000D01*
X105101525Y-81183000D02*
X100475750Y-81183000D01*
X100475750Y-81183000D02*
X100475750Y-73817000D01*
X100475750Y-73817000D02*
X105101525Y-73817000D01*
G04 #@! TO.C,J5*
D18*
X130827000Y-89246766D02*
G75*
G02*
X130573000Y-89246766I-127000J0D01*
G01*
X130573000Y-89246766D02*
G75*
G02*
X130827000Y-89246766I127000J0D01*
G01*
D15*
X132097400Y-92400000D02*
X132097400Y-93700000D01*
X131332715Y-89900000D02*
X132097400Y-89900000D01*
X122902600Y-93700000D02*
X122902600Y-92400000D01*
X122902600Y-89900000D02*
X123667285Y-89900000D01*
G04 #@! TD*
%LPC*%
D19*
G04 #@! TO.C,H2*
X150500000Y-58500000D03*
G04 #@! TD*
D20*
G04 #@! TO.C,SW2*
X121750000Y-62000000D03*
X115249999Y-62000000D03*
X121750000Y-57499999D03*
X115249999Y-57499999D03*
G04 #@! TD*
D21*
G04 #@! TO.C,J1*
X116350000Y-92454786D03*
D22*
X116350000Y-94454786D03*
G04 #@! TD*
D23*
G04 #@! TO.C,SW9*
X151512450Y-73099999D03*
X151512450Y-64900001D03*
D24*
X151512450Y-71000001D03*
X151512450Y-69000000D03*
X151512450Y-67000000D03*
G04 #@! TD*
D25*
G04 #@! TO.C,J7*
X149000000Y-90900000D03*
X147750000Y-85600000D03*
X153250000Y-85600000D03*
D26*
X150500000Y-87500000D03*
X150500000Y-95000000D03*
G04 #@! TD*
D27*
G04 #@! TO.C,J3*
X129850000Y-78537500D03*
X145350000Y-78537500D03*
D28*
X130750000Y-68987500D03*
D29*
X145350000Y-69237500D03*
D30*
X144150000Y-67937500D03*
X143050000Y-67937500D03*
X141950000Y-67937500D03*
X140850000Y-67937500D03*
X139750000Y-67937500D03*
X138650000Y-67937500D03*
X137550000Y-67937500D03*
X136450000Y-67937500D03*
X135350000Y-67937500D03*
D26*
X134550000Y-78937500D03*
X142550000Y-78937500D03*
G04 #@! TD*
D31*
G04 #@! TO.C,DEBUG*
X111100000Y-69675000D03*
X115700000Y-69675000D03*
D32*
X112400000Y-65800000D03*
X113400000Y-65800000D03*
X114400000Y-65800000D03*
G04 #@! TD*
D33*
G04 #@! TO.C,SW6*
X106436150Y-64495000D03*
X106436150Y-71505001D03*
D20*
X103945851Y-65750000D03*
X103945851Y-70250001D03*
G04 #@! TD*
D33*
G04 #@! TO.C,SW5*
X106436150Y-73995000D03*
X106436150Y-81005001D03*
D20*
X103945851Y-75250000D03*
X103945851Y-79750001D03*
G04 #@! TD*
D34*
G04 #@! TO.C,J5*
X123179968Y-95151128D03*
D35*
X123179998Y-91151085D03*
X131820002Y-91151085D03*
D34*
X131820032Y-95151128D03*
D36*
X129249999Y-90576080D03*
X128250001Y-90576080D03*
X126749999Y-90576080D03*
X125750001Y-90576080D03*
D37*
X125100000Y-90576080D03*
X124299999Y-90576080D03*
D36*
X126250000Y-90576080D03*
X127250000Y-90576080D03*
X127750000Y-90576080D03*
X128750000Y-90576080D03*
D37*
X129900000Y-90576080D03*
X130700001Y-90576080D03*
G04 #@! TD*
D19*
G04 #@! TO.C,H1*
X104500000Y-87493070D03*
G04 #@! TD*
D20*
G04 #@! TO.C,SW4*
X139750000Y-62000000D03*
X133249999Y-62000000D03*
X139750000Y-57499999D03*
X133249999Y-57499999D03*
G04 #@! TD*
D38*
G04 #@! TO.C,DS1*
X144863243Y-52018710D03*
X110263243Y-52018710D03*
D39*
X139563243Y-53818710D03*
X138063243Y-53818710D03*
X136563243Y-53818710D03*
X135063243Y-53818710D03*
X133563243Y-53818710D03*
X132063243Y-53818710D03*
X130563243Y-53818710D03*
X129063243Y-53818710D03*
X127563243Y-53818710D03*
X126063243Y-53818710D03*
X124563243Y-53818710D03*
X123063243Y-53818710D03*
X121563243Y-53818710D03*
X120063243Y-53818710D03*
X118563243Y-53818710D03*
X117063243Y-53818710D03*
D40*
X115563243Y-53818710D03*
D41*
X147663243Y-53968710D03*
X107463243Y-53968710D03*
G04 #@! TD*
D19*
G04 #@! TO.C,H3*
X150500000Y-79000000D03*
G04 #@! TD*
D42*
G04 #@! TO.C,J6*
X113900000Y-78200000D03*
X113900000Y-77200000D03*
X113900000Y-76200000D03*
X113900000Y-75200000D03*
X113900000Y-74200000D03*
D43*
X113900000Y-73200000D03*
G04 #@! TD*
D19*
G04 #@! TO.C,H4*
X104500000Y-58500000D03*
G04 #@! TD*
D20*
G04 #@! TO.C,SW3*
X130750000Y-62000000D03*
X124249999Y-62000000D03*
X130750000Y-57499999D03*
X124249999Y-57499999D03*
G04 #@! TD*
%LPD*%
M02*
