%TF.GenerationSoftware,KiCad,Pcbnew,10.0.3*%
%TF.CreationDate,2026-07-22T21:07:00-07:00*%
%TF.ProjectId,mp3-player,6d70332d-706c-4617-9965-722e6b696361,rev?*%
%TF.SameCoordinates,Original*%
%TF.FileFunction,Drillmap*%
%TF.FilePolarity,Positive*%
%FSLAX45Y45*%
G04 Gerber Fmt 4.5, Leading zero omitted, Abs format (unit mm)*
G04 Created by KiCad (PCBNEW 10.0.3) date 2026-07-22 21:07:00*
%MOMM*%
%LPD*%
G01*
G04 APERTURE LIST*
%ADD10C,0.050000*%
%ADD11C,0.200000*%
%ADD12C,0.100000*%
%ADD13C,0.320000*%
G04 APERTURE END LIST*
D10*
X10000000Y-5300000D02*
X10000000Y-5300000D01*
G75*
G02*
X10300000Y-5000000I300000J0D01*
G01*
X15200000Y-5000000D01*
G75*
G02*
X15500000Y-5300000I0J-300000D01*
G01*
X15500000Y-9400000D01*
G75*
G02*
X15200000Y-9700000I-300000J0D01*
G01*
X10300000Y-9700000D01*
G75*
G02*
X10000000Y-9400000I0J300000D01*
G01*
X10000000Y-5300000D01*
D11*
D12*
X10706324Y-5356871D02*
X10786324Y-5436871D01*
X10786324Y-5356871D02*
X10706324Y-5436871D01*
X14726324Y-5356871D02*
X14806324Y-5436871D01*
X14806324Y-5356871D02*
X14726324Y-5436871D01*
X13505000Y-7893750D02*
G75*
G02*
X13405000Y-7893750I-50000J0D01*
G01*
X13405000Y-7893750D02*
G75*
G02*
X13505000Y-7893750I50000J0D01*
G01*
X14305000Y-7893750D02*
G75*
G02*
X14205000Y-7893750I-50000J0D01*
G01*
X14205000Y-7893750D02*
G75*
G02*
X14305000Y-7893750I50000J0D01*
G01*
X15100000Y-8750000D02*
G75*
G02*
X15000000Y-8750000I-50000J0D01*
G01*
X15000000Y-8750000D02*
G75*
G02*
X15100000Y-8750000I50000J0D01*
G01*
X15100000Y-9500000D02*
G75*
G02*
X15000000Y-9500000I-50000J0D01*
G01*
X15000000Y-9500000D02*
G75*
G02*
X15100000Y-9500000I50000J0D01*
G01*
D13*
X10450000Y-5690000D02*
X10450000Y-6010000D01*
X10290000Y-5850000D02*
X10610000Y-5850000D01*
X10450000Y-8589307D02*
X10450000Y-8909307D01*
X10290000Y-8749307D02*
X10610000Y-8749307D01*
X15050000Y-5690000D02*
X15050000Y-6010000D01*
X14890000Y-5850000D02*
X15210000Y-5850000D01*
X15050000Y-7740000D02*
X15050000Y-8060000D01*
X14890000Y-7900000D02*
X15210000Y-7900000D01*
D11*
X10258277Y-10013984D02*
X10258277Y-9813984D01*
X10258277Y-9813984D02*
X10305896Y-9813984D01*
X10305896Y-9813984D02*
X10334467Y-9823508D01*
X10334467Y-9823508D02*
X10353515Y-9842555D01*
X10353515Y-9842555D02*
X10363039Y-9861603D01*
X10363039Y-9861603D02*
X10372563Y-9899698D01*
X10372563Y-9899698D02*
X10372563Y-9928270D01*
X10372563Y-9928270D02*
X10363039Y-9966365D01*
X10363039Y-9966365D02*
X10353515Y-9985412D01*
X10353515Y-9985412D02*
X10334467Y-10004460D01*
X10334467Y-10004460D02*
X10305896Y-10013984D01*
X10305896Y-10013984D02*
X10258277Y-10013984D01*
X10458277Y-10013984D02*
X10458277Y-9880650D01*
X10458277Y-9918746D02*
X10467801Y-9899698D01*
X10467801Y-9899698D02*
X10477324Y-9890174D01*
X10477324Y-9890174D02*
X10496372Y-9880650D01*
X10496372Y-9880650D02*
X10515420Y-9880650D01*
X10582086Y-10013984D02*
X10582086Y-9880650D01*
X10582086Y-9813984D02*
X10572563Y-9823508D01*
X10572563Y-9823508D02*
X10582086Y-9833031D01*
X10582086Y-9833031D02*
X10591610Y-9823508D01*
X10591610Y-9823508D02*
X10582086Y-9813984D01*
X10582086Y-9813984D02*
X10582086Y-9833031D01*
X10705896Y-10013984D02*
X10686848Y-10004460D01*
X10686848Y-10004460D02*
X10677324Y-9985412D01*
X10677324Y-9985412D02*
X10677324Y-9813984D01*
X10810658Y-10013984D02*
X10791610Y-10004460D01*
X10791610Y-10004460D02*
X10782086Y-9985412D01*
X10782086Y-9985412D02*
X10782086Y-9813984D01*
X11039229Y-10013984D02*
X11039229Y-9813984D01*
X11039229Y-9813984D02*
X11105896Y-9956841D01*
X11105896Y-9956841D02*
X11172563Y-9813984D01*
X11172563Y-9813984D02*
X11172563Y-10013984D01*
X11353515Y-10013984D02*
X11353515Y-9909222D01*
X11353515Y-9909222D02*
X11343991Y-9890174D01*
X11343991Y-9890174D02*
X11324943Y-9880650D01*
X11324943Y-9880650D02*
X11286848Y-9880650D01*
X11286848Y-9880650D02*
X11267801Y-9890174D01*
X11353515Y-10004460D02*
X11334467Y-10013984D01*
X11334467Y-10013984D02*
X11286848Y-10013984D01*
X11286848Y-10013984D02*
X11267801Y-10004460D01*
X11267801Y-10004460D02*
X11258277Y-9985412D01*
X11258277Y-9985412D02*
X11258277Y-9966365D01*
X11258277Y-9966365D02*
X11267801Y-9947317D01*
X11267801Y-9947317D02*
X11286848Y-9937793D01*
X11286848Y-9937793D02*
X11334467Y-9937793D01*
X11334467Y-9937793D02*
X11353515Y-9928270D01*
X11448753Y-9880650D02*
X11448753Y-10080650D01*
X11448753Y-9890174D02*
X11467801Y-9880650D01*
X11467801Y-9880650D02*
X11505896Y-9880650D01*
X11505896Y-9880650D02*
X11524943Y-9890174D01*
X11524943Y-9890174D02*
X11534467Y-9899698D01*
X11534467Y-9899698D02*
X11543991Y-9918746D01*
X11543991Y-9918746D02*
X11543991Y-9975889D01*
X11543991Y-9975889D02*
X11534467Y-9994936D01*
X11534467Y-9994936D02*
X11524943Y-10004460D01*
X11524943Y-10004460D02*
X11505896Y-10013984D01*
X11505896Y-10013984D02*
X11467801Y-10013984D01*
X11467801Y-10013984D02*
X11448753Y-10004460D01*
X11629705Y-9994936D02*
X11639229Y-10004460D01*
X11639229Y-10004460D02*
X11629705Y-10013984D01*
X11629705Y-10013984D02*
X11620182Y-10004460D01*
X11620182Y-10004460D02*
X11629705Y-9994936D01*
X11629705Y-9994936D02*
X11629705Y-10013984D01*
X11629705Y-9890174D02*
X11639229Y-9899698D01*
X11639229Y-9899698D02*
X11629705Y-9909222D01*
X11629705Y-9909222D02*
X11620182Y-9899698D01*
X11620182Y-9899698D02*
X11629705Y-9890174D01*
X11629705Y-9890174D02*
X11629705Y-9909222D01*
D12*
X9917500Y-10302500D02*
X9997500Y-10382500D01*
X9997500Y-10302500D02*
X9917500Y-10382500D01*
D11*
X10296372Y-10233984D02*
X10315420Y-10233984D01*
X10315420Y-10233984D02*
X10334467Y-10243508D01*
X10334467Y-10243508D02*
X10343991Y-10253031D01*
X10343991Y-10253031D02*
X10353515Y-10272079D01*
X10353515Y-10272079D02*
X10363039Y-10310174D01*
X10363039Y-10310174D02*
X10363039Y-10357793D01*
X10363039Y-10357793D02*
X10353515Y-10395889D01*
X10353515Y-10395889D02*
X10343991Y-10414936D01*
X10343991Y-10414936D02*
X10334467Y-10424460D01*
X10334467Y-10424460D02*
X10315420Y-10433984D01*
X10315420Y-10433984D02*
X10296372Y-10433984D01*
X10296372Y-10433984D02*
X10277324Y-10424460D01*
X10277324Y-10424460D02*
X10267801Y-10414936D01*
X10267801Y-10414936D02*
X10258277Y-10395889D01*
X10258277Y-10395889D02*
X10248753Y-10357793D01*
X10248753Y-10357793D02*
X10248753Y-10310174D01*
X10248753Y-10310174D02*
X10258277Y-10272079D01*
X10258277Y-10272079D02*
X10267801Y-10253031D01*
X10267801Y-10253031D02*
X10277324Y-10243508D01*
X10277324Y-10243508D02*
X10296372Y-10233984D01*
X10448753Y-10414936D02*
X10458277Y-10424460D01*
X10458277Y-10424460D02*
X10448753Y-10433984D01*
X10448753Y-10433984D02*
X10439229Y-10424460D01*
X10439229Y-10424460D02*
X10448753Y-10414936D01*
X10448753Y-10414936D02*
X10448753Y-10433984D01*
X10572563Y-10319698D02*
X10553515Y-10310174D01*
X10553515Y-10310174D02*
X10543991Y-10300650D01*
X10543991Y-10300650D02*
X10534467Y-10281603D01*
X10534467Y-10281603D02*
X10534467Y-10272079D01*
X10534467Y-10272079D02*
X10543991Y-10253031D01*
X10543991Y-10253031D02*
X10553515Y-10243508D01*
X10553515Y-10243508D02*
X10572563Y-10233984D01*
X10572563Y-10233984D02*
X10610658Y-10233984D01*
X10610658Y-10233984D02*
X10629705Y-10243508D01*
X10629705Y-10243508D02*
X10639229Y-10253031D01*
X10639229Y-10253031D02*
X10648753Y-10272079D01*
X10648753Y-10272079D02*
X10648753Y-10281603D01*
X10648753Y-10281603D02*
X10639229Y-10300650D01*
X10639229Y-10300650D02*
X10629705Y-10310174D01*
X10629705Y-10310174D02*
X10610658Y-10319698D01*
X10610658Y-10319698D02*
X10572563Y-10319698D01*
X10572563Y-10319698D02*
X10553515Y-10329222D01*
X10553515Y-10329222D02*
X10543991Y-10338746D01*
X10543991Y-10338746D02*
X10534467Y-10357793D01*
X10534467Y-10357793D02*
X10534467Y-10395889D01*
X10534467Y-10395889D02*
X10543991Y-10414936D01*
X10543991Y-10414936D02*
X10553515Y-10424460D01*
X10553515Y-10424460D02*
X10572563Y-10433984D01*
X10572563Y-10433984D02*
X10610658Y-10433984D01*
X10610658Y-10433984D02*
X10629705Y-10424460D01*
X10629705Y-10424460D02*
X10639229Y-10414936D01*
X10639229Y-10414936D02*
X10648753Y-10395889D01*
X10648753Y-10395889D02*
X10648753Y-10357793D01*
X10648753Y-10357793D02*
X10639229Y-10338746D01*
X10639229Y-10338746D02*
X10629705Y-10329222D01*
X10629705Y-10329222D02*
X10610658Y-10319698D01*
X10772563Y-10233984D02*
X10791610Y-10233984D01*
X10791610Y-10233984D02*
X10810658Y-10243508D01*
X10810658Y-10243508D02*
X10820182Y-10253031D01*
X10820182Y-10253031D02*
X10829705Y-10272079D01*
X10829705Y-10272079D02*
X10839229Y-10310174D01*
X10839229Y-10310174D02*
X10839229Y-10357793D01*
X10839229Y-10357793D02*
X10829705Y-10395889D01*
X10829705Y-10395889D02*
X10820182Y-10414936D01*
X10820182Y-10414936D02*
X10810658Y-10424460D01*
X10810658Y-10424460D02*
X10791610Y-10433984D01*
X10791610Y-10433984D02*
X10772563Y-10433984D01*
X10772563Y-10433984D02*
X10753515Y-10424460D01*
X10753515Y-10424460D02*
X10743991Y-10414936D01*
X10743991Y-10414936D02*
X10734467Y-10395889D01*
X10734467Y-10395889D02*
X10724944Y-10357793D01*
X10724944Y-10357793D02*
X10724944Y-10310174D01*
X10724944Y-10310174D02*
X10734467Y-10272079D01*
X10734467Y-10272079D02*
X10743991Y-10253031D01*
X10743991Y-10253031D02*
X10753515Y-10243508D01*
X10753515Y-10243508D02*
X10772563Y-10233984D01*
X10963039Y-10233984D02*
X10982086Y-10233984D01*
X10982086Y-10233984D02*
X11001134Y-10243508D01*
X11001134Y-10243508D02*
X11010658Y-10253031D01*
X11010658Y-10253031D02*
X11020182Y-10272079D01*
X11020182Y-10272079D02*
X11029705Y-10310174D01*
X11029705Y-10310174D02*
X11029705Y-10357793D01*
X11029705Y-10357793D02*
X11020182Y-10395889D01*
X11020182Y-10395889D02*
X11010658Y-10414936D01*
X11010658Y-10414936D02*
X11001134Y-10424460D01*
X11001134Y-10424460D02*
X10982086Y-10433984D01*
X10982086Y-10433984D02*
X10963039Y-10433984D01*
X10963039Y-10433984D02*
X10943991Y-10424460D01*
X10943991Y-10424460D02*
X10934467Y-10414936D01*
X10934467Y-10414936D02*
X10924944Y-10395889D01*
X10924944Y-10395889D02*
X10915420Y-10357793D01*
X10915420Y-10357793D02*
X10915420Y-10310174D01*
X10915420Y-10310174D02*
X10924944Y-10272079D01*
X10924944Y-10272079D02*
X10934467Y-10253031D01*
X10934467Y-10253031D02*
X10943991Y-10243508D01*
X10943991Y-10243508D02*
X10963039Y-10233984D01*
X11115420Y-10433984D02*
X11115420Y-10300650D01*
X11115420Y-10319698D02*
X11124944Y-10310174D01*
X11124944Y-10310174D02*
X11143991Y-10300650D01*
X11143991Y-10300650D02*
X11172563Y-10300650D01*
X11172563Y-10300650D02*
X11191610Y-10310174D01*
X11191610Y-10310174D02*
X11201134Y-10329222D01*
X11201134Y-10329222D02*
X11201134Y-10433984D01*
X11201134Y-10329222D02*
X11210658Y-10310174D01*
X11210658Y-10310174D02*
X11229705Y-10300650D01*
X11229705Y-10300650D02*
X11258277Y-10300650D01*
X11258277Y-10300650D02*
X11277324Y-10310174D01*
X11277324Y-10310174D02*
X11286848Y-10329222D01*
X11286848Y-10329222D02*
X11286848Y-10433984D01*
X11382086Y-10433984D02*
X11382086Y-10300650D01*
X11382086Y-10319698D02*
X11391610Y-10310174D01*
X11391610Y-10310174D02*
X11410658Y-10300650D01*
X11410658Y-10300650D02*
X11439229Y-10300650D01*
X11439229Y-10300650D02*
X11458277Y-10310174D01*
X11458277Y-10310174D02*
X11467801Y-10329222D01*
X11467801Y-10329222D02*
X11467801Y-10433984D01*
X11467801Y-10329222D02*
X11477324Y-10310174D01*
X11477324Y-10310174D02*
X11496372Y-10300650D01*
X11496372Y-10300650D02*
X11524943Y-10300650D01*
X11524943Y-10300650D02*
X11543991Y-10310174D01*
X11543991Y-10310174D02*
X11553515Y-10329222D01*
X11553515Y-10329222D02*
X11553515Y-10433984D01*
X11943991Y-10224460D02*
X11772563Y-10481603D01*
X12201134Y-10233984D02*
X12220182Y-10233984D01*
X12220182Y-10233984D02*
X12239229Y-10243508D01*
X12239229Y-10243508D02*
X12248753Y-10253031D01*
X12248753Y-10253031D02*
X12258277Y-10272079D01*
X12258277Y-10272079D02*
X12267801Y-10310174D01*
X12267801Y-10310174D02*
X12267801Y-10357793D01*
X12267801Y-10357793D02*
X12258277Y-10395889D01*
X12258277Y-10395889D02*
X12248753Y-10414936D01*
X12248753Y-10414936D02*
X12239229Y-10424460D01*
X12239229Y-10424460D02*
X12220182Y-10433984D01*
X12220182Y-10433984D02*
X12201134Y-10433984D01*
X12201134Y-10433984D02*
X12182086Y-10424460D01*
X12182086Y-10424460D02*
X12172563Y-10414936D01*
X12172563Y-10414936D02*
X12163039Y-10395889D01*
X12163039Y-10395889D02*
X12153515Y-10357793D01*
X12153515Y-10357793D02*
X12153515Y-10310174D01*
X12153515Y-10310174D02*
X12163039Y-10272079D01*
X12163039Y-10272079D02*
X12172563Y-10253031D01*
X12172563Y-10253031D02*
X12182086Y-10243508D01*
X12182086Y-10243508D02*
X12201134Y-10233984D01*
X12353515Y-10414936D02*
X12363039Y-10424460D01*
X12363039Y-10424460D02*
X12353515Y-10433984D01*
X12353515Y-10433984D02*
X12343991Y-10424460D01*
X12343991Y-10424460D02*
X12353515Y-10414936D01*
X12353515Y-10414936D02*
X12353515Y-10433984D01*
X12486848Y-10233984D02*
X12505896Y-10233984D01*
X12505896Y-10233984D02*
X12524944Y-10243508D01*
X12524944Y-10243508D02*
X12534467Y-10253031D01*
X12534467Y-10253031D02*
X12543991Y-10272079D01*
X12543991Y-10272079D02*
X12553515Y-10310174D01*
X12553515Y-10310174D02*
X12553515Y-10357793D01*
X12553515Y-10357793D02*
X12543991Y-10395889D01*
X12543991Y-10395889D02*
X12534467Y-10414936D01*
X12534467Y-10414936D02*
X12524944Y-10424460D01*
X12524944Y-10424460D02*
X12505896Y-10433984D01*
X12505896Y-10433984D02*
X12486848Y-10433984D01*
X12486848Y-10433984D02*
X12467801Y-10424460D01*
X12467801Y-10424460D02*
X12458277Y-10414936D01*
X12458277Y-10414936D02*
X12448753Y-10395889D01*
X12448753Y-10395889D02*
X12439229Y-10357793D01*
X12439229Y-10357793D02*
X12439229Y-10310174D01*
X12439229Y-10310174D02*
X12448753Y-10272079D01*
X12448753Y-10272079D02*
X12458277Y-10253031D01*
X12458277Y-10253031D02*
X12467801Y-10243508D01*
X12467801Y-10243508D02*
X12486848Y-10233984D01*
X12620182Y-10233984D02*
X12743991Y-10233984D01*
X12743991Y-10233984D02*
X12677325Y-10310174D01*
X12677325Y-10310174D02*
X12705896Y-10310174D01*
X12705896Y-10310174D02*
X12724944Y-10319698D01*
X12724944Y-10319698D02*
X12734467Y-10329222D01*
X12734467Y-10329222D02*
X12743991Y-10348270D01*
X12743991Y-10348270D02*
X12743991Y-10395889D01*
X12743991Y-10395889D02*
X12734467Y-10414936D01*
X12734467Y-10414936D02*
X12724944Y-10424460D01*
X12724944Y-10424460D02*
X12705896Y-10433984D01*
X12705896Y-10433984D02*
X12648753Y-10433984D01*
X12648753Y-10433984D02*
X12629706Y-10424460D01*
X12629706Y-10424460D02*
X12620182Y-10414936D01*
X12934467Y-10433984D02*
X12820182Y-10433984D01*
X12877325Y-10433984D02*
X12877325Y-10233984D01*
X12877325Y-10233984D02*
X12858277Y-10262555D01*
X12858277Y-10262555D02*
X12839229Y-10281603D01*
X12839229Y-10281603D02*
X12820182Y-10291127D01*
X13115420Y-10233984D02*
X13020182Y-10233984D01*
X13020182Y-10233984D02*
X13010658Y-10329222D01*
X13010658Y-10329222D02*
X13020182Y-10319698D01*
X13020182Y-10319698D02*
X13039229Y-10310174D01*
X13039229Y-10310174D02*
X13086848Y-10310174D01*
X13086848Y-10310174D02*
X13105896Y-10319698D01*
X13105896Y-10319698D02*
X13115420Y-10329222D01*
X13115420Y-10329222D02*
X13124944Y-10348270D01*
X13124944Y-10348270D02*
X13124944Y-10395889D01*
X13124944Y-10395889D02*
X13115420Y-10414936D01*
X13115420Y-10414936D02*
X13105896Y-10424460D01*
X13105896Y-10424460D02*
X13086848Y-10433984D01*
X13086848Y-10433984D02*
X13039229Y-10433984D01*
X13039229Y-10433984D02*
X13020182Y-10424460D01*
X13020182Y-10424460D02*
X13010658Y-10414936D01*
X13201134Y-10233984D02*
X13201134Y-10272079D01*
X13277325Y-10233984D02*
X13277325Y-10272079D01*
X13572563Y-10510174D02*
X13563039Y-10500650D01*
X13563039Y-10500650D02*
X13543991Y-10472079D01*
X13543991Y-10472079D02*
X13534468Y-10453031D01*
X13534468Y-10453031D02*
X13524944Y-10424460D01*
X13524944Y-10424460D02*
X13515420Y-10376841D01*
X13515420Y-10376841D02*
X13515420Y-10338746D01*
X13515420Y-10338746D02*
X13524944Y-10291127D01*
X13524944Y-10291127D02*
X13534468Y-10262555D01*
X13534468Y-10262555D02*
X13543991Y-10243508D01*
X13543991Y-10243508D02*
X13563039Y-10214936D01*
X13563039Y-10214936D02*
X13572563Y-10205412D01*
X13639229Y-10253031D02*
X13648753Y-10243508D01*
X13648753Y-10243508D02*
X13667801Y-10233984D01*
X13667801Y-10233984D02*
X13715420Y-10233984D01*
X13715420Y-10233984D02*
X13734468Y-10243508D01*
X13734468Y-10243508D02*
X13743991Y-10253031D01*
X13743991Y-10253031D02*
X13753515Y-10272079D01*
X13753515Y-10272079D02*
X13753515Y-10291127D01*
X13753515Y-10291127D02*
X13743991Y-10319698D01*
X13743991Y-10319698D02*
X13629706Y-10433984D01*
X13629706Y-10433984D02*
X13753515Y-10433984D01*
X13991610Y-10433984D02*
X13991610Y-10233984D01*
X14077325Y-10433984D02*
X14077325Y-10329222D01*
X14077325Y-10329222D02*
X14067801Y-10310174D01*
X14067801Y-10310174D02*
X14048753Y-10300650D01*
X14048753Y-10300650D02*
X14020182Y-10300650D01*
X14020182Y-10300650D02*
X14001134Y-10310174D01*
X14001134Y-10310174D02*
X13991610Y-10319698D01*
X14201134Y-10433984D02*
X14182087Y-10424460D01*
X14182087Y-10424460D02*
X14172563Y-10414936D01*
X14172563Y-10414936D02*
X14163039Y-10395889D01*
X14163039Y-10395889D02*
X14163039Y-10338746D01*
X14163039Y-10338746D02*
X14172563Y-10319698D01*
X14172563Y-10319698D02*
X14182087Y-10310174D01*
X14182087Y-10310174D02*
X14201134Y-10300650D01*
X14201134Y-10300650D02*
X14229706Y-10300650D01*
X14229706Y-10300650D02*
X14248753Y-10310174D01*
X14248753Y-10310174D02*
X14258277Y-10319698D01*
X14258277Y-10319698D02*
X14267801Y-10338746D01*
X14267801Y-10338746D02*
X14267801Y-10395889D01*
X14267801Y-10395889D02*
X14258277Y-10414936D01*
X14258277Y-10414936D02*
X14248753Y-10424460D01*
X14248753Y-10424460D02*
X14229706Y-10433984D01*
X14229706Y-10433984D02*
X14201134Y-10433984D01*
X14382087Y-10433984D02*
X14363039Y-10424460D01*
X14363039Y-10424460D02*
X14353515Y-10405412D01*
X14353515Y-10405412D02*
X14353515Y-10233984D01*
X14534468Y-10424460D02*
X14515420Y-10433984D01*
X14515420Y-10433984D02*
X14477325Y-10433984D01*
X14477325Y-10433984D02*
X14458277Y-10424460D01*
X14458277Y-10424460D02*
X14448753Y-10405412D01*
X14448753Y-10405412D02*
X14448753Y-10329222D01*
X14448753Y-10329222D02*
X14458277Y-10310174D01*
X14458277Y-10310174D02*
X14477325Y-10300650D01*
X14477325Y-10300650D02*
X14515420Y-10300650D01*
X14515420Y-10300650D02*
X14534468Y-10310174D01*
X14534468Y-10310174D02*
X14543991Y-10329222D01*
X14543991Y-10329222D02*
X14543991Y-10348270D01*
X14543991Y-10348270D02*
X14448753Y-10367317D01*
X14620182Y-10424460D02*
X14639230Y-10433984D01*
X14639230Y-10433984D02*
X14677325Y-10433984D01*
X14677325Y-10433984D02*
X14696372Y-10424460D01*
X14696372Y-10424460D02*
X14705896Y-10405412D01*
X14705896Y-10405412D02*
X14705896Y-10395889D01*
X14705896Y-10395889D02*
X14696372Y-10376841D01*
X14696372Y-10376841D02*
X14677325Y-10367317D01*
X14677325Y-10367317D02*
X14648753Y-10367317D01*
X14648753Y-10367317D02*
X14629706Y-10357793D01*
X14629706Y-10357793D02*
X14620182Y-10338746D01*
X14620182Y-10338746D02*
X14620182Y-10329222D01*
X14620182Y-10329222D02*
X14629706Y-10310174D01*
X14629706Y-10310174D02*
X14648753Y-10300650D01*
X14648753Y-10300650D02*
X14677325Y-10300650D01*
X14677325Y-10300650D02*
X14696372Y-10310174D01*
X14772563Y-10510174D02*
X14782087Y-10500650D01*
X14782087Y-10500650D02*
X14801134Y-10472079D01*
X14801134Y-10472079D02*
X14810658Y-10453031D01*
X14810658Y-10453031D02*
X14820182Y-10424460D01*
X14820182Y-10424460D02*
X14829706Y-10376841D01*
X14829706Y-10376841D02*
X14829706Y-10338746D01*
X14829706Y-10338746D02*
X14820182Y-10291127D01*
X14820182Y-10291127D02*
X14810658Y-10262555D01*
X14810658Y-10262555D02*
X14801134Y-10243508D01*
X14801134Y-10243508D02*
X14782087Y-10214936D01*
X14782087Y-10214936D02*
X14772563Y-10205412D01*
X15134468Y-10510174D02*
X15124944Y-10500650D01*
X15124944Y-10500650D02*
X15105896Y-10472079D01*
X15105896Y-10472079D02*
X15096372Y-10453031D01*
X15096372Y-10453031D02*
X15086849Y-10424460D01*
X15086849Y-10424460D02*
X15077325Y-10376841D01*
X15077325Y-10376841D02*
X15077325Y-10338746D01*
X15077325Y-10338746D02*
X15086849Y-10291127D01*
X15086849Y-10291127D02*
X15096372Y-10262555D01*
X15096372Y-10262555D02*
X15105896Y-10243508D01*
X15105896Y-10243508D02*
X15124944Y-10214936D01*
X15124944Y-10214936D02*
X15134468Y-10205412D01*
X15210658Y-10300650D02*
X15210658Y-10433984D01*
X15210658Y-10319698D02*
X15220182Y-10310174D01*
X15220182Y-10310174D02*
X15239230Y-10300650D01*
X15239230Y-10300650D02*
X15267801Y-10300650D01*
X15267801Y-10300650D02*
X15286849Y-10310174D01*
X15286849Y-10310174D02*
X15296372Y-10329222D01*
X15296372Y-10329222D02*
X15296372Y-10433984D01*
X15420182Y-10433984D02*
X15401134Y-10424460D01*
X15401134Y-10424460D02*
X15391611Y-10414936D01*
X15391611Y-10414936D02*
X15382087Y-10395889D01*
X15382087Y-10395889D02*
X15382087Y-10338746D01*
X15382087Y-10338746D02*
X15391611Y-10319698D01*
X15391611Y-10319698D02*
X15401134Y-10310174D01*
X15401134Y-10310174D02*
X15420182Y-10300650D01*
X15420182Y-10300650D02*
X15448753Y-10300650D01*
X15448753Y-10300650D02*
X15467801Y-10310174D01*
X15467801Y-10310174D02*
X15477325Y-10319698D01*
X15477325Y-10319698D02*
X15486849Y-10338746D01*
X15486849Y-10338746D02*
X15486849Y-10395889D01*
X15486849Y-10395889D02*
X15477325Y-10414936D01*
X15477325Y-10414936D02*
X15467801Y-10424460D01*
X15467801Y-10424460D02*
X15448753Y-10433984D01*
X15448753Y-10433984D02*
X15420182Y-10433984D01*
X15543992Y-10300650D02*
X15620182Y-10300650D01*
X15572563Y-10233984D02*
X15572563Y-10405412D01*
X15572563Y-10405412D02*
X15582087Y-10424460D01*
X15582087Y-10424460D02*
X15601134Y-10433984D01*
X15601134Y-10433984D02*
X15620182Y-10433984D01*
X15839230Y-10300650D02*
X15839230Y-10500650D01*
X15839230Y-10310174D02*
X15858277Y-10300650D01*
X15858277Y-10300650D02*
X15896373Y-10300650D01*
X15896373Y-10300650D02*
X15915420Y-10310174D01*
X15915420Y-10310174D02*
X15924944Y-10319698D01*
X15924944Y-10319698D02*
X15934468Y-10338746D01*
X15934468Y-10338746D02*
X15934468Y-10395889D01*
X15934468Y-10395889D02*
X15924944Y-10414936D01*
X15924944Y-10414936D02*
X15915420Y-10424460D01*
X15915420Y-10424460D02*
X15896373Y-10433984D01*
X15896373Y-10433984D02*
X15858277Y-10433984D01*
X15858277Y-10433984D02*
X15839230Y-10424460D01*
X16048753Y-10433984D02*
X16029706Y-10424460D01*
X16029706Y-10424460D02*
X16020182Y-10405412D01*
X16020182Y-10405412D02*
X16020182Y-10233984D01*
X16210658Y-10433984D02*
X16210658Y-10329222D01*
X16210658Y-10329222D02*
X16201134Y-10310174D01*
X16201134Y-10310174D02*
X16182087Y-10300650D01*
X16182087Y-10300650D02*
X16143992Y-10300650D01*
X16143992Y-10300650D02*
X16124944Y-10310174D01*
X16210658Y-10424460D02*
X16191611Y-10433984D01*
X16191611Y-10433984D02*
X16143992Y-10433984D01*
X16143992Y-10433984D02*
X16124944Y-10424460D01*
X16124944Y-10424460D02*
X16115420Y-10405412D01*
X16115420Y-10405412D02*
X16115420Y-10386365D01*
X16115420Y-10386365D02*
X16124944Y-10367317D01*
X16124944Y-10367317D02*
X16143992Y-10357793D01*
X16143992Y-10357793D02*
X16191611Y-10357793D01*
X16191611Y-10357793D02*
X16210658Y-10348270D01*
X16277325Y-10300650D02*
X16353515Y-10300650D01*
X16305896Y-10233984D02*
X16305896Y-10405412D01*
X16305896Y-10405412D02*
X16315420Y-10424460D01*
X16315420Y-10424460D02*
X16334468Y-10433984D01*
X16334468Y-10433984D02*
X16353515Y-10433984D01*
X16496373Y-10424460D02*
X16477325Y-10433984D01*
X16477325Y-10433984D02*
X16439230Y-10433984D01*
X16439230Y-10433984D02*
X16420182Y-10424460D01*
X16420182Y-10424460D02*
X16410658Y-10405412D01*
X16410658Y-10405412D02*
X16410658Y-10329222D01*
X16410658Y-10329222D02*
X16420182Y-10310174D01*
X16420182Y-10310174D02*
X16439230Y-10300650D01*
X16439230Y-10300650D02*
X16477325Y-10300650D01*
X16477325Y-10300650D02*
X16496373Y-10310174D01*
X16496373Y-10310174D02*
X16505896Y-10329222D01*
X16505896Y-10329222D02*
X16505896Y-10348270D01*
X16505896Y-10348270D02*
X16410658Y-10367317D01*
X16677325Y-10433984D02*
X16677325Y-10233984D01*
X16677325Y-10424460D02*
X16658277Y-10433984D01*
X16658277Y-10433984D02*
X16620182Y-10433984D01*
X16620182Y-10433984D02*
X16601134Y-10424460D01*
X16601134Y-10424460D02*
X16591611Y-10414936D01*
X16591611Y-10414936D02*
X16582087Y-10395889D01*
X16582087Y-10395889D02*
X16582087Y-10338746D01*
X16582087Y-10338746D02*
X16591611Y-10319698D01*
X16591611Y-10319698D02*
X16601134Y-10310174D01*
X16601134Y-10310174D02*
X16620182Y-10300650D01*
X16620182Y-10300650D02*
X16658277Y-10300650D01*
X16658277Y-10300650D02*
X16677325Y-10310174D01*
X16753515Y-10510174D02*
X16763039Y-10500650D01*
X16763039Y-10500650D02*
X16782087Y-10472079D01*
X16782087Y-10472079D02*
X16791611Y-10453031D01*
X16791611Y-10453031D02*
X16801135Y-10424460D01*
X16801135Y-10424460D02*
X16810658Y-10376841D01*
X16810658Y-10376841D02*
X16810658Y-10338746D01*
X16810658Y-10338746D02*
X16801135Y-10291127D01*
X16801135Y-10291127D02*
X16791611Y-10262555D01*
X16791611Y-10262555D02*
X16782087Y-10243508D01*
X16782087Y-10243508D02*
X16763039Y-10214936D01*
X16763039Y-10214936D02*
X16753515Y-10205412D01*
D12*
X9997500Y-10606500D02*
G75*
G02*
X9897500Y-10606500I-50000J0D01*
G01*
X9897500Y-10606500D02*
G75*
G02*
X9997500Y-10606500I50000J0D01*
G01*
D11*
X10363039Y-10697984D02*
X10248753Y-10697984D01*
X10305896Y-10697984D02*
X10305896Y-10497984D01*
X10305896Y-10497984D02*
X10286848Y-10526555D01*
X10286848Y-10526555D02*
X10267801Y-10545603D01*
X10267801Y-10545603D02*
X10248753Y-10555127D01*
X10448753Y-10678936D02*
X10458277Y-10688460D01*
X10458277Y-10688460D02*
X10448753Y-10697984D01*
X10448753Y-10697984D02*
X10439229Y-10688460D01*
X10439229Y-10688460D02*
X10448753Y-10678936D01*
X10448753Y-10678936D02*
X10448753Y-10697984D01*
X10582086Y-10497984D02*
X10601134Y-10497984D01*
X10601134Y-10497984D02*
X10620182Y-10507508D01*
X10620182Y-10507508D02*
X10629705Y-10517031D01*
X10629705Y-10517031D02*
X10639229Y-10536079D01*
X10639229Y-10536079D02*
X10648753Y-10574174D01*
X10648753Y-10574174D02*
X10648753Y-10621793D01*
X10648753Y-10621793D02*
X10639229Y-10659889D01*
X10639229Y-10659889D02*
X10629705Y-10678936D01*
X10629705Y-10678936D02*
X10620182Y-10688460D01*
X10620182Y-10688460D02*
X10601134Y-10697984D01*
X10601134Y-10697984D02*
X10582086Y-10697984D01*
X10582086Y-10697984D02*
X10563039Y-10688460D01*
X10563039Y-10688460D02*
X10553515Y-10678936D01*
X10553515Y-10678936D02*
X10543991Y-10659889D01*
X10543991Y-10659889D02*
X10534467Y-10621793D01*
X10534467Y-10621793D02*
X10534467Y-10574174D01*
X10534467Y-10574174D02*
X10543991Y-10536079D01*
X10543991Y-10536079D02*
X10553515Y-10517031D01*
X10553515Y-10517031D02*
X10563039Y-10507508D01*
X10563039Y-10507508D02*
X10582086Y-10497984D01*
X10772563Y-10497984D02*
X10791610Y-10497984D01*
X10791610Y-10497984D02*
X10810658Y-10507508D01*
X10810658Y-10507508D02*
X10820182Y-10517031D01*
X10820182Y-10517031D02*
X10829705Y-10536079D01*
X10829705Y-10536079D02*
X10839229Y-10574174D01*
X10839229Y-10574174D02*
X10839229Y-10621793D01*
X10839229Y-10621793D02*
X10829705Y-10659889D01*
X10829705Y-10659889D02*
X10820182Y-10678936D01*
X10820182Y-10678936D02*
X10810658Y-10688460D01*
X10810658Y-10688460D02*
X10791610Y-10697984D01*
X10791610Y-10697984D02*
X10772563Y-10697984D01*
X10772563Y-10697984D02*
X10753515Y-10688460D01*
X10753515Y-10688460D02*
X10743991Y-10678936D01*
X10743991Y-10678936D02*
X10734467Y-10659889D01*
X10734467Y-10659889D02*
X10724944Y-10621793D01*
X10724944Y-10621793D02*
X10724944Y-10574174D01*
X10724944Y-10574174D02*
X10734467Y-10536079D01*
X10734467Y-10536079D02*
X10743991Y-10517031D01*
X10743991Y-10517031D02*
X10753515Y-10507508D01*
X10753515Y-10507508D02*
X10772563Y-10497984D01*
X10963039Y-10497984D02*
X10982086Y-10497984D01*
X10982086Y-10497984D02*
X11001134Y-10507508D01*
X11001134Y-10507508D02*
X11010658Y-10517031D01*
X11010658Y-10517031D02*
X11020182Y-10536079D01*
X11020182Y-10536079D02*
X11029705Y-10574174D01*
X11029705Y-10574174D02*
X11029705Y-10621793D01*
X11029705Y-10621793D02*
X11020182Y-10659889D01*
X11020182Y-10659889D02*
X11010658Y-10678936D01*
X11010658Y-10678936D02*
X11001134Y-10688460D01*
X11001134Y-10688460D02*
X10982086Y-10697984D01*
X10982086Y-10697984D02*
X10963039Y-10697984D01*
X10963039Y-10697984D02*
X10943991Y-10688460D01*
X10943991Y-10688460D02*
X10934467Y-10678936D01*
X10934467Y-10678936D02*
X10924944Y-10659889D01*
X10924944Y-10659889D02*
X10915420Y-10621793D01*
X10915420Y-10621793D02*
X10915420Y-10574174D01*
X10915420Y-10574174D02*
X10924944Y-10536079D01*
X10924944Y-10536079D02*
X10934467Y-10517031D01*
X10934467Y-10517031D02*
X10943991Y-10507508D01*
X10943991Y-10507508D02*
X10963039Y-10497984D01*
X11115420Y-10697984D02*
X11115420Y-10564650D01*
X11115420Y-10583698D02*
X11124944Y-10574174D01*
X11124944Y-10574174D02*
X11143991Y-10564650D01*
X11143991Y-10564650D02*
X11172563Y-10564650D01*
X11172563Y-10564650D02*
X11191610Y-10574174D01*
X11191610Y-10574174D02*
X11201134Y-10593222D01*
X11201134Y-10593222D02*
X11201134Y-10697984D01*
X11201134Y-10593222D02*
X11210658Y-10574174D01*
X11210658Y-10574174D02*
X11229705Y-10564650D01*
X11229705Y-10564650D02*
X11258277Y-10564650D01*
X11258277Y-10564650D02*
X11277324Y-10574174D01*
X11277324Y-10574174D02*
X11286848Y-10593222D01*
X11286848Y-10593222D02*
X11286848Y-10697984D01*
X11382086Y-10697984D02*
X11382086Y-10564650D01*
X11382086Y-10583698D02*
X11391610Y-10574174D01*
X11391610Y-10574174D02*
X11410658Y-10564650D01*
X11410658Y-10564650D02*
X11439229Y-10564650D01*
X11439229Y-10564650D02*
X11458277Y-10574174D01*
X11458277Y-10574174D02*
X11467801Y-10593222D01*
X11467801Y-10593222D02*
X11467801Y-10697984D01*
X11467801Y-10593222D02*
X11477324Y-10574174D01*
X11477324Y-10574174D02*
X11496372Y-10564650D01*
X11496372Y-10564650D02*
X11524943Y-10564650D01*
X11524943Y-10564650D02*
X11543991Y-10574174D01*
X11543991Y-10574174D02*
X11553515Y-10593222D01*
X11553515Y-10593222D02*
X11553515Y-10697984D01*
X11943991Y-10488460D02*
X11772563Y-10745603D01*
X12201134Y-10497984D02*
X12220182Y-10497984D01*
X12220182Y-10497984D02*
X12239229Y-10507508D01*
X12239229Y-10507508D02*
X12248753Y-10517031D01*
X12248753Y-10517031D02*
X12258277Y-10536079D01*
X12258277Y-10536079D02*
X12267801Y-10574174D01*
X12267801Y-10574174D02*
X12267801Y-10621793D01*
X12267801Y-10621793D02*
X12258277Y-10659889D01*
X12258277Y-10659889D02*
X12248753Y-10678936D01*
X12248753Y-10678936D02*
X12239229Y-10688460D01*
X12239229Y-10688460D02*
X12220182Y-10697984D01*
X12220182Y-10697984D02*
X12201134Y-10697984D01*
X12201134Y-10697984D02*
X12182086Y-10688460D01*
X12182086Y-10688460D02*
X12172563Y-10678936D01*
X12172563Y-10678936D02*
X12163039Y-10659889D01*
X12163039Y-10659889D02*
X12153515Y-10621793D01*
X12153515Y-10621793D02*
X12153515Y-10574174D01*
X12153515Y-10574174D02*
X12163039Y-10536079D01*
X12163039Y-10536079D02*
X12172563Y-10517031D01*
X12172563Y-10517031D02*
X12182086Y-10507508D01*
X12182086Y-10507508D02*
X12201134Y-10497984D01*
X12353515Y-10678936D02*
X12363039Y-10688460D01*
X12363039Y-10688460D02*
X12353515Y-10697984D01*
X12353515Y-10697984D02*
X12343991Y-10688460D01*
X12343991Y-10688460D02*
X12353515Y-10678936D01*
X12353515Y-10678936D02*
X12353515Y-10697984D01*
X12486848Y-10497984D02*
X12505896Y-10497984D01*
X12505896Y-10497984D02*
X12524944Y-10507508D01*
X12524944Y-10507508D02*
X12534467Y-10517031D01*
X12534467Y-10517031D02*
X12543991Y-10536079D01*
X12543991Y-10536079D02*
X12553515Y-10574174D01*
X12553515Y-10574174D02*
X12553515Y-10621793D01*
X12553515Y-10621793D02*
X12543991Y-10659889D01*
X12543991Y-10659889D02*
X12534467Y-10678936D01*
X12534467Y-10678936D02*
X12524944Y-10688460D01*
X12524944Y-10688460D02*
X12505896Y-10697984D01*
X12505896Y-10697984D02*
X12486848Y-10697984D01*
X12486848Y-10697984D02*
X12467801Y-10688460D01*
X12467801Y-10688460D02*
X12458277Y-10678936D01*
X12458277Y-10678936D02*
X12448753Y-10659889D01*
X12448753Y-10659889D02*
X12439229Y-10621793D01*
X12439229Y-10621793D02*
X12439229Y-10574174D01*
X12439229Y-10574174D02*
X12448753Y-10536079D01*
X12448753Y-10536079D02*
X12458277Y-10517031D01*
X12458277Y-10517031D02*
X12467801Y-10507508D01*
X12467801Y-10507508D02*
X12486848Y-10497984D01*
X12620182Y-10497984D02*
X12743991Y-10497984D01*
X12743991Y-10497984D02*
X12677325Y-10574174D01*
X12677325Y-10574174D02*
X12705896Y-10574174D01*
X12705896Y-10574174D02*
X12724944Y-10583698D01*
X12724944Y-10583698D02*
X12734467Y-10593222D01*
X12734467Y-10593222D02*
X12743991Y-10612270D01*
X12743991Y-10612270D02*
X12743991Y-10659889D01*
X12743991Y-10659889D02*
X12734467Y-10678936D01*
X12734467Y-10678936D02*
X12724944Y-10688460D01*
X12724944Y-10688460D02*
X12705896Y-10697984D01*
X12705896Y-10697984D02*
X12648753Y-10697984D01*
X12648753Y-10697984D02*
X12629706Y-10688460D01*
X12629706Y-10688460D02*
X12620182Y-10678936D01*
X12839229Y-10697984D02*
X12877325Y-10697984D01*
X12877325Y-10697984D02*
X12896372Y-10688460D01*
X12896372Y-10688460D02*
X12905896Y-10678936D01*
X12905896Y-10678936D02*
X12924944Y-10650365D01*
X12924944Y-10650365D02*
X12934467Y-10612270D01*
X12934467Y-10612270D02*
X12934467Y-10536079D01*
X12934467Y-10536079D02*
X12924944Y-10517031D01*
X12924944Y-10517031D02*
X12915420Y-10507508D01*
X12915420Y-10507508D02*
X12896372Y-10497984D01*
X12896372Y-10497984D02*
X12858277Y-10497984D01*
X12858277Y-10497984D02*
X12839229Y-10507508D01*
X12839229Y-10507508D02*
X12829706Y-10517031D01*
X12829706Y-10517031D02*
X12820182Y-10536079D01*
X12820182Y-10536079D02*
X12820182Y-10583698D01*
X12820182Y-10583698D02*
X12829706Y-10602746D01*
X12829706Y-10602746D02*
X12839229Y-10612270D01*
X12839229Y-10612270D02*
X12858277Y-10621793D01*
X12858277Y-10621793D02*
X12896372Y-10621793D01*
X12896372Y-10621793D02*
X12915420Y-10612270D01*
X12915420Y-10612270D02*
X12924944Y-10602746D01*
X12924944Y-10602746D02*
X12934467Y-10583698D01*
X13105896Y-10564650D02*
X13105896Y-10697984D01*
X13058277Y-10488460D02*
X13010658Y-10631317D01*
X13010658Y-10631317D02*
X13134467Y-10631317D01*
X13201134Y-10497984D02*
X13201134Y-10536079D01*
X13277325Y-10497984D02*
X13277325Y-10536079D01*
X13572563Y-10774174D02*
X13563039Y-10764650D01*
X13563039Y-10764650D02*
X13543991Y-10736079D01*
X13543991Y-10736079D02*
X13534468Y-10717031D01*
X13534468Y-10717031D02*
X13524944Y-10688460D01*
X13524944Y-10688460D02*
X13515420Y-10640841D01*
X13515420Y-10640841D02*
X13515420Y-10602746D01*
X13515420Y-10602746D02*
X13524944Y-10555127D01*
X13524944Y-10555127D02*
X13534468Y-10526555D01*
X13534468Y-10526555D02*
X13543991Y-10507508D01*
X13543991Y-10507508D02*
X13563039Y-10478936D01*
X13563039Y-10478936D02*
X13572563Y-10469412D01*
X13734468Y-10564650D02*
X13734468Y-10697984D01*
X13686848Y-10488460D02*
X13639229Y-10631317D01*
X13639229Y-10631317D02*
X13763039Y-10631317D01*
X13991610Y-10697984D02*
X13991610Y-10497984D01*
X14077325Y-10697984D02*
X14077325Y-10593222D01*
X14077325Y-10593222D02*
X14067801Y-10574174D01*
X14067801Y-10574174D02*
X14048753Y-10564650D01*
X14048753Y-10564650D02*
X14020182Y-10564650D01*
X14020182Y-10564650D02*
X14001134Y-10574174D01*
X14001134Y-10574174D02*
X13991610Y-10583698D01*
X14201134Y-10697984D02*
X14182087Y-10688460D01*
X14182087Y-10688460D02*
X14172563Y-10678936D01*
X14172563Y-10678936D02*
X14163039Y-10659889D01*
X14163039Y-10659889D02*
X14163039Y-10602746D01*
X14163039Y-10602746D02*
X14172563Y-10583698D01*
X14172563Y-10583698D02*
X14182087Y-10574174D01*
X14182087Y-10574174D02*
X14201134Y-10564650D01*
X14201134Y-10564650D02*
X14229706Y-10564650D01*
X14229706Y-10564650D02*
X14248753Y-10574174D01*
X14248753Y-10574174D02*
X14258277Y-10583698D01*
X14258277Y-10583698D02*
X14267801Y-10602746D01*
X14267801Y-10602746D02*
X14267801Y-10659889D01*
X14267801Y-10659889D02*
X14258277Y-10678936D01*
X14258277Y-10678936D02*
X14248753Y-10688460D01*
X14248753Y-10688460D02*
X14229706Y-10697984D01*
X14229706Y-10697984D02*
X14201134Y-10697984D01*
X14382087Y-10697984D02*
X14363039Y-10688460D01*
X14363039Y-10688460D02*
X14353515Y-10669412D01*
X14353515Y-10669412D02*
X14353515Y-10497984D01*
X14534468Y-10688460D02*
X14515420Y-10697984D01*
X14515420Y-10697984D02*
X14477325Y-10697984D01*
X14477325Y-10697984D02*
X14458277Y-10688460D01*
X14458277Y-10688460D02*
X14448753Y-10669412D01*
X14448753Y-10669412D02*
X14448753Y-10593222D01*
X14448753Y-10593222D02*
X14458277Y-10574174D01*
X14458277Y-10574174D02*
X14477325Y-10564650D01*
X14477325Y-10564650D02*
X14515420Y-10564650D01*
X14515420Y-10564650D02*
X14534468Y-10574174D01*
X14534468Y-10574174D02*
X14543991Y-10593222D01*
X14543991Y-10593222D02*
X14543991Y-10612270D01*
X14543991Y-10612270D02*
X14448753Y-10631317D01*
X14620182Y-10688460D02*
X14639230Y-10697984D01*
X14639230Y-10697984D02*
X14677325Y-10697984D01*
X14677325Y-10697984D02*
X14696372Y-10688460D01*
X14696372Y-10688460D02*
X14705896Y-10669412D01*
X14705896Y-10669412D02*
X14705896Y-10659889D01*
X14705896Y-10659889D02*
X14696372Y-10640841D01*
X14696372Y-10640841D02*
X14677325Y-10631317D01*
X14677325Y-10631317D02*
X14648753Y-10631317D01*
X14648753Y-10631317D02*
X14629706Y-10621793D01*
X14629706Y-10621793D02*
X14620182Y-10602746D01*
X14620182Y-10602746D02*
X14620182Y-10593222D01*
X14620182Y-10593222D02*
X14629706Y-10574174D01*
X14629706Y-10574174D02*
X14648753Y-10564650D01*
X14648753Y-10564650D02*
X14677325Y-10564650D01*
X14677325Y-10564650D02*
X14696372Y-10574174D01*
X14772563Y-10774174D02*
X14782087Y-10764650D01*
X14782087Y-10764650D02*
X14801134Y-10736079D01*
X14801134Y-10736079D02*
X14810658Y-10717031D01*
X14810658Y-10717031D02*
X14820182Y-10688460D01*
X14820182Y-10688460D02*
X14829706Y-10640841D01*
X14829706Y-10640841D02*
X14829706Y-10602746D01*
X14829706Y-10602746D02*
X14820182Y-10555127D01*
X14820182Y-10555127D02*
X14810658Y-10526555D01*
X14810658Y-10526555D02*
X14801134Y-10507508D01*
X14801134Y-10507508D02*
X14782087Y-10478936D01*
X14782087Y-10478936D02*
X14772563Y-10469412D01*
X15134468Y-10774174D02*
X15124944Y-10764650D01*
X15124944Y-10764650D02*
X15105896Y-10736079D01*
X15105896Y-10736079D02*
X15096372Y-10717031D01*
X15096372Y-10717031D02*
X15086849Y-10688460D01*
X15086849Y-10688460D02*
X15077325Y-10640841D01*
X15077325Y-10640841D02*
X15077325Y-10602746D01*
X15077325Y-10602746D02*
X15086849Y-10555127D01*
X15086849Y-10555127D02*
X15096372Y-10526555D01*
X15096372Y-10526555D02*
X15105896Y-10507508D01*
X15105896Y-10507508D02*
X15124944Y-10478936D01*
X15124944Y-10478936D02*
X15134468Y-10469412D01*
X15210658Y-10564650D02*
X15210658Y-10697984D01*
X15210658Y-10583698D02*
X15220182Y-10574174D01*
X15220182Y-10574174D02*
X15239230Y-10564650D01*
X15239230Y-10564650D02*
X15267801Y-10564650D01*
X15267801Y-10564650D02*
X15286849Y-10574174D01*
X15286849Y-10574174D02*
X15296372Y-10593222D01*
X15296372Y-10593222D02*
X15296372Y-10697984D01*
X15420182Y-10697984D02*
X15401134Y-10688460D01*
X15401134Y-10688460D02*
X15391611Y-10678936D01*
X15391611Y-10678936D02*
X15382087Y-10659889D01*
X15382087Y-10659889D02*
X15382087Y-10602746D01*
X15382087Y-10602746D02*
X15391611Y-10583698D01*
X15391611Y-10583698D02*
X15401134Y-10574174D01*
X15401134Y-10574174D02*
X15420182Y-10564650D01*
X15420182Y-10564650D02*
X15448753Y-10564650D01*
X15448753Y-10564650D02*
X15467801Y-10574174D01*
X15467801Y-10574174D02*
X15477325Y-10583698D01*
X15477325Y-10583698D02*
X15486849Y-10602746D01*
X15486849Y-10602746D02*
X15486849Y-10659889D01*
X15486849Y-10659889D02*
X15477325Y-10678936D01*
X15477325Y-10678936D02*
X15467801Y-10688460D01*
X15467801Y-10688460D02*
X15448753Y-10697984D01*
X15448753Y-10697984D02*
X15420182Y-10697984D01*
X15543992Y-10564650D02*
X15620182Y-10564650D01*
X15572563Y-10497984D02*
X15572563Y-10669412D01*
X15572563Y-10669412D02*
X15582087Y-10688460D01*
X15582087Y-10688460D02*
X15601134Y-10697984D01*
X15601134Y-10697984D02*
X15620182Y-10697984D01*
X15839230Y-10564650D02*
X15839230Y-10764650D01*
X15839230Y-10574174D02*
X15858277Y-10564650D01*
X15858277Y-10564650D02*
X15896373Y-10564650D01*
X15896373Y-10564650D02*
X15915420Y-10574174D01*
X15915420Y-10574174D02*
X15924944Y-10583698D01*
X15924944Y-10583698D02*
X15934468Y-10602746D01*
X15934468Y-10602746D02*
X15934468Y-10659889D01*
X15934468Y-10659889D02*
X15924944Y-10678936D01*
X15924944Y-10678936D02*
X15915420Y-10688460D01*
X15915420Y-10688460D02*
X15896373Y-10697984D01*
X15896373Y-10697984D02*
X15858277Y-10697984D01*
X15858277Y-10697984D02*
X15839230Y-10688460D01*
X16048753Y-10697984D02*
X16029706Y-10688460D01*
X16029706Y-10688460D02*
X16020182Y-10669412D01*
X16020182Y-10669412D02*
X16020182Y-10497984D01*
X16210658Y-10697984D02*
X16210658Y-10593222D01*
X16210658Y-10593222D02*
X16201134Y-10574174D01*
X16201134Y-10574174D02*
X16182087Y-10564650D01*
X16182087Y-10564650D02*
X16143992Y-10564650D01*
X16143992Y-10564650D02*
X16124944Y-10574174D01*
X16210658Y-10688460D02*
X16191611Y-10697984D01*
X16191611Y-10697984D02*
X16143992Y-10697984D01*
X16143992Y-10697984D02*
X16124944Y-10688460D01*
X16124944Y-10688460D02*
X16115420Y-10669412D01*
X16115420Y-10669412D02*
X16115420Y-10650365D01*
X16115420Y-10650365D02*
X16124944Y-10631317D01*
X16124944Y-10631317D02*
X16143992Y-10621793D01*
X16143992Y-10621793D02*
X16191611Y-10621793D01*
X16191611Y-10621793D02*
X16210658Y-10612270D01*
X16277325Y-10564650D02*
X16353515Y-10564650D01*
X16305896Y-10497984D02*
X16305896Y-10669412D01*
X16305896Y-10669412D02*
X16315420Y-10688460D01*
X16315420Y-10688460D02*
X16334468Y-10697984D01*
X16334468Y-10697984D02*
X16353515Y-10697984D01*
X16496373Y-10688460D02*
X16477325Y-10697984D01*
X16477325Y-10697984D02*
X16439230Y-10697984D01*
X16439230Y-10697984D02*
X16420182Y-10688460D01*
X16420182Y-10688460D02*
X16410658Y-10669412D01*
X16410658Y-10669412D02*
X16410658Y-10593222D01*
X16410658Y-10593222D02*
X16420182Y-10574174D01*
X16420182Y-10574174D02*
X16439230Y-10564650D01*
X16439230Y-10564650D02*
X16477325Y-10564650D01*
X16477325Y-10564650D02*
X16496373Y-10574174D01*
X16496373Y-10574174D02*
X16505896Y-10593222D01*
X16505896Y-10593222D02*
X16505896Y-10612270D01*
X16505896Y-10612270D02*
X16410658Y-10631317D01*
X16677325Y-10697984D02*
X16677325Y-10497984D01*
X16677325Y-10688460D02*
X16658277Y-10697984D01*
X16658277Y-10697984D02*
X16620182Y-10697984D01*
X16620182Y-10697984D02*
X16601134Y-10688460D01*
X16601134Y-10688460D02*
X16591611Y-10678936D01*
X16591611Y-10678936D02*
X16582087Y-10659889D01*
X16582087Y-10659889D02*
X16582087Y-10602746D01*
X16582087Y-10602746D02*
X16591611Y-10583698D01*
X16591611Y-10583698D02*
X16601134Y-10574174D01*
X16601134Y-10574174D02*
X16620182Y-10564650D01*
X16620182Y-10564650D02*
X16658277Y-10564650D01*
X16658277Y-10564650D02*
X16677325Y-10574174D01*
X16753515Y-10774174D02*
X16763039Y-10764650D01*
X16763039Y-10764650D02*
X16782087Y-10736079D01*
X16782087Y-10736079D02*
X16791611Y-10717031D01*
X16791611Y-10717031D02*
X16801135Y-10688460D01*
X16801135Y-10688460D02*
X16810658Y-10640841D01*
X16810658Y-10640841D02*
X16810658Y-10602746D01*
X16810658Y-10602746D02*
X16801135Y-10555127D01*
X16801135Y-10555127D02*
X16791611Y-10526555D01*
X16791611Y-10526555D02*
X16782087Y-10507508D01*
X16782087Y-10507508D02*
X16763039Y-10478936D01*
X16763039Y-10478936D02*
X16753515Y-10469412D01*
X9897500Y-10770500D02*
X9897500Y-10970500D01*
X9797500Y-10870500D02*
X9997500Y-10870500D01*
X10239229Y-10761984D02*
X10363039Y-10761984D01*
X10363039Y-10761984D02*
X10296372Y-10838174D01*
X10296372Y-10838174D02*
X10324944Y-10838174D01*
X10324944Y-10838174D02*
X10343991Y-10847698D01*
X10343991Y-10847698D02*
X10353515Y-10857222D01*
X10353515Y-10857222D02*
X10363039Y-10876270D01*
X10363039Y-10876270D02*
X10363039Y-10923889D01*
X10363039Y-10923889D02*
X10353515Y-10942936D01*
X10353515Y-10942936D02*
X10343991Y-10952460D01*
X10343991Y-10952460D02*
X10324944Y-10961984D01*
X10324944Y-10961984D02*
X10267801Y-10961984D01*
X10267801Y-10961984D02*
X10248753Y-10952460D01*
X10248753Y-10952460D02*
X10239229Y-10942936D01*
X10448753Y-10942936D02*
X10458277Y-10952460D01*
X10458277Y-10952460D02*
X10448753Y-10961984D01*
X10448753Y-10961984D02*
X10439229Y-10952460D01*
X10439229Y-10952460D02*
X10448753Y-10942936D01*
X10448753Y-10942936D02*
X10448753Y-10961984D01*
X10534467Y-10781031D02*
X10543991Y-10771508D01*
X10543991Y-10771508D02*
X10563039Y-10761984D01*
X10563039Y-10761984D02*
X10610658Y-10761984D01*
X10610658Y-10761984D02*
X10629705Y-10771508D01*
X10629705Y-10771508D02*
X10639229Y-10781031D01*
X10639229Y-10781031D02*
X10648753Y-10800079D01*
X10648753Y-10800079D02*
X10648753Y-10819127D01*
X10648753Y-10819127D02*
X10639229Y-10847698D01*
X10639229Y-10847698D02*
X10524944Y-10961984D01*
X10524944Y-10961984D02*
X10648753Y-10961984D01*
X10772563Y-10761984D02*
X10791610Y-10761984D01*
X10791610Y-10761984D02*
X10810658Y-10771508D01*
X10810658Y-10771508D02*
X10820182Y-10781031D01*
X10820182Y-10781031D02*
X10829705Y-10800079D01*
X10829705Y-10800079D02*
X10839229Y-10838174D01*
X10839229Y-10838174D02*
X10839229Y-10885793D01*
X10839229Y-10885793D02*
X10829705Y-10923889D01*
X10829705Y-10923889D02*
X10820182Y-10942936D01*
X10820182Y-10942936D02*
X10810658Y-10952460D01*
X10810658Y-10952460D02*
X10791610Y-10961984D01*
X10791610Y-10961984D02*
X10772563Y-10961984D01*
X10772563Y-10961984D02*
X10753515Y-10952460D01*
X10753515Y-10952460D02*
X10743991Y-10942936D01*
X10743991Y-10942936D02*
X10734467Y-10923889D01*
X10734467Y-10923889D02*
X10724944Y-10885793D01*
X10724944Y-10885793D02*
X10724944Y-10838174D01*
X10724944Y-10838174D02*
X10734467Y-10800079D01*
X10734467Y-10800079D02*
X10743991Y-10781031D01*
X10743991Y-10781031D02*
X10753515Y-10771508D01*
X10753515Y-10771508D02*
X10772563Y-10761984D01*
X10963039Y-10761984D02*
X10982086Y-10761984D01*
X10982086Y-10761984D02*
X11001134Y-10771508D01*
X11001134Y-10771508D02*
X11010658Y-10781031D01*
X11010658Y-10781031D02*
X11020182Y-10800079D01*
X11020182Y-10800079D02*
X11029705Y-10838174D01*
X11029705Y-10838174D02*
X11029705Y-10885793D01*
X11029705Y-10885793D02*
X11020182Y-10923889D01*
X11020182Y-10923889D02*
X11010658Y-10942936D01*
X11010658Y-10942936D02*
X11001134Y-10952460D01*
X11001134Y-10952460D02*
X10982086Y-10961984D01*
X10982086Y-10961984D02*
X10963039Y-10961984D01*
X10963039Y-10961984D02*
X10943991Y-10952460D01*
X10943991Y-10952460D02*
X10934467Y-10942936D01*
X10934467Y-10942936D02*
X10924944Y-10923889D01*
X10924944Y-10923889D02*
X10915420Y-10885793D01*
X10915420Y-10885793D02*
X10915420Y-10838174D01*
X10915420Y-10838174D02*
X10924944Y-10800079D01*
X10924944Y-10800079D02*
X10934467Y-10781031D01*
X10934467Y-10781031D02*
X10943991Y-10771508D01*
X10943991Y-10771508D02*
X10963039Y-10761984D01*
X11115420Y-10961984D02*
X11115420Y-10828650D01*
X11115420Y-10847698D02*
X11124944Y-10838174D01*
X11124944Y-10838174D02*
X11143991Y-10828650D01*
X11143991Y-10828650D02*
X11172563Y-10828650D01*
X11172563Y-10828650D02*
X11191610Y-10838174D01*
X11191610Y-10838174D02*
X11201134Y-10857222D01*
X11201134Y-10857222D02*
X11201134Y-10961984D01*
X11201134Y-10857222D02*
X11210658Y-10838174D01*
X11210658Y-10838174D02*
X11229705Y-10828650D01*
X11229705Y-10828650D02*
X11258277Y-10828650D01*
X11258277Y-10828650D02*
X11277324Y-10838174D01*
X11277324Y-10838174D02*
X11286848Y-10857222D01*
X11286848Y-10857222D02*
X11286848Y-10961984D01*
X11382086Y-10961984D02*
X11382086Y-10828650D01*
X11382086Y-10847698D02*
X11391610Y-10838174D01*
X11391610Y-10838174D02*
X11410658Y-10828650D01*
X11410658Y-10828650D02*
X11439229Y-10828650D01*
X11439229Y-10828650D02*
X11458277Y-10838174D01*
X11458277Y-10838174D02*
X11467801Y-10857222D01*
X11467801Y-10857222D02*
X11467801Y-10961984D01*
X11467801Y-10857222D02*
X11477324Y-10838174D01*
X11477324Y-10838174D02*
X11496372Y-10828650D01*
X11496372Y-10828650D02*
X11524943Y-10828650D01*
X11524943Y-10828650D02*
X11543991Y-10838174D01*
X11543991Y-10838174D02*
X11553515Y-10857222D01*
X11553515Y-10857222D02*
X11553515Y-10961984D01*
X11943991Y-10752460D02*
X11772563Y-11009603D01*
X12201134Y-10761984D02*
X12220182Y-10761984D01*
X12220182Y-10761984D02*
X12239229Y-10771508D01*
X12239229Y-10771508D02*
X12248753Y-10781031D01*
X12248753Y-10781031D02*
X12258277Y-10800079D01*
X12258277Y-10800079D02*
X12267801Y-10838174D01*
X12267801Y-10838174D02*
X12267801Y-10885793D01*
X12267801Y-10885793D02*
X12258277Y-10923889D01*
X12258277Y-10923889D02*
X12248753Y-10942936D01*
X12248753Y-10942936D02*
X12239229Y-10952460D01*
X12239229Y-10952460D02*
X12220182Y-10961984D01*
X12220182Y-10961984D02*
X12201134Y-10961984D01*
X12201134Y-10961984D02*
X12182086Y-10952460D01*
X12182086Y-10952460D02*
X12172563Y-10942936D01*
X12172563Y-10942936D02*
X12163039Y-10923889D01*
X12163039Y-10923889D02*
X12153515Y-10885793D01*
X12153515Y-10885793D02*
X12153515Y-10838174D01*
X12153515Y-10838174D02*
X12163039Y-10800079D01*
X12163039Y-10800079D02*
X12172563Y-10781031D01*
X12172563Y-10781031D02*
X12182086Y-10771508D01*
X12182086Y-10771508D02*
X12201134Y-10761984D01*
X12353515Y-10942936D02*
X12363039Y-10952460D01*
X12363039Y-10952460D02*
X12353515Y-10961984D01*
X12353515Y-10961984D02*
X12343991Y-10952460D01*
X12343991Y-10952460D02*
X12353515Y-10942936D01*
X12353515Y-10942936D02*
X12353515Y-10961984D01*
X12553515Y-10961984D02*
X12439229Y-10961984D01*
X12496372Y-10961984D02*
X12496372Y-10761984D01*
X12496372Y-10761984D02*
X12477325Y-10790555D01*
X12477325Y-10790555D02*
X12458277Y-10809603D01*
X12458277Y-10809603D02*
X12439229Y-10819127D01*
X12629706Y-10781031D02*
X12639229Y-10771508D01*
X12639229Y-10771508D02*
X12658277Y-10761984D01*
X12658277Y-10761984D02*
X12705896Y-10761984D01*
X12705896Y-10761984D02*
X12724944Y-10771508D01*
X12724944Y-10771508D02*
X12734467Y-10781031D01*
X12734467Y-10781031D02*
X12743991Y-10800079D01*
X12743991Y-10800079D02*
X12743991Y-10819127D01*
X12743991Y-10819127D02*
X12734467Y-10847698D01*
X12734467Y-10847698D02*
X12620182Y-10961984D01*
X12620182Y-10961984D02*
X12743991Y-10961984D01*
X12915420Y-10761984D02*
X12877325Y-10761984D01*
X12877325Y-10761984D02*
X12858277Y-10771508D01*
X12858277Y-10771508D02*
X12848753Y-10781031D01*
X12848753Y-10781031D02*
X12829706Y-10809603D01*
X12829706Y-10809603D02*
X12820182Y-10847698D01*
X12820182Y-10847698D02*
X12820182Y-10923889D01*
X12820182Y-10923889D02*
X12829706Y-10942936D01*
X12829706Y-10942936D02*
X12839229Y-10952460D01*
X12839229Y-10952460D02*
X12858277Y-10961984D01*
X12858277Y-10961984D02*
X12896372Y-10961984D01*
X12896372Y-10961984D02*
X12915420Y-10952460D01*
X12915420Y-10952460D02*
X12924944Y-10942936D01*
X12924944Y-10942936D02*
X12934467Y-10923889D01*
X12934467Y-10923889D02*
X12934467Y-10876270D01*
X12934467Y-10876270D02*
X12924944Y-10857222D01*
X12924944Y-10857222D02*
X12915420Y-10847698D01*
X12915420Y-10847698D02*
X12896372Y-10838174D01*
X12896372Y-10838174D02*
X12858277Y-10838174D01*
X12858277Y-10838174D02*
X12839229Y-10847698D01*
X12839229Y-10847698D02*
X12829706Y-10857222D01*
X12829706Y-10857222D02*
X12820182Y-10876270D01*
X13058277Y-10761984D02*
X13077325Y-10761984D01*
X13077325Y-10761984D02*
X13096372Y-10771508D01*
X13096372Y-10771508D02*
X13105896Y-10781031D01*
X13105896Y-10781031D02*
X13115420Y-10800079D01*
X13115420Y-10800079D02*
X13124944Y-10838174D01*
X13124944Y-10838174D02*
X13124944Y-10885793D01*
X13124944Y-10885793D02*
X13115420Y-10923889D01*
X13115420Y-10923889D02*
X13105896Y-10942936D01*
X13105896Y-10942936D02*
X13096372Y-10952460D01*
X13096372Y-10952460D02*
X13077325Y-10961984D01*
X13077325Y-10961984D02*
X13058277Y-10961984D01*
X13058277Y-10961984D02*
X13039229Y-10952460D01*
X13039229Y-10952460D02*
X13029706Y-10942936D01*
X13029706Y-10942936D02*
X13020182Y-10923889D01*
X13020182Y-10923889D02*
X13010658Y-10885793D01*
X13010658Y-10885793D02*
X13010658Y-10838174D01*
X13010658Y-10838174D02*
X13020182Y-10800079D01*
X13020182Y-10800079D02*
X13029706Y-10781031D01*
X13029706Y-10781031D02*
X13039229Y-10771508D01*
X13039229Y-10771508D02*
X13058277Y-10761984D01*
X13201134Y-10761984D02*
X13201134Y-10800079D01*
X13277325Y-10761984D02*
X13277325Y-10800079D01*
X13572563Y-11038174D02*
X13563039Y-11028650D01*
X13563039Y-11028650D02*
X13543991Y-11000079D01*
X13543991Y-11000079D02*
X13534468Y-10981031D01*
X13534468Y-10981031D02*
X13524944Y-10952460D01*
X13524944Y-10952460D02*
X13515420Y-10904841D01*
X13515420Y-10904841D02*
X13515420Y-10866746D01*
X13515420Y-10866746D02*
X13524944Y-10819127D01*
X13524944Y-10819127D02*
X13534468Y-10790555D01*
X13534468Y-10790555D02*
X13543991Y-10771508D01*
X13543991Y-10771508D02*
X13563039Y-10742936D01*
X13563039Y-10742936D02*
X13572563Y-10733412D01*
X13734468Y-10828650D02*
X13734468Y-10961984D01*
X13686848Y-10752460D02*
X13639229Y-10895317D01*
X13639229Y-10895317D02*
X13763039Y-10895317D01*
X13991610Y-10961984D02*
X13991610Y-10761984D01*
X14077325Y-10961984D02*
X14077325Y-10857222D01*
X14077325Y-10857222D02*
X14067801Y-10838174D01*
X14067801Y-10838174D02*
X14048753Y-10828650D01*
X14048753Y-10828650D02*
X14020182Y-10828650D01*
X14020182Y-10828650D02*
X14001134Y-10838174D01*
X14001134Y-10838174D02*
X13991610Y-10847698D01*
X14201134Y-10961984D02*
X14182087Y-10952460D01*
X14182087Y-10952460D02*
X14172563Y-10942936D01*
X14172563Y-10942936D02*
X14163039Y-10923889D01*
X14163039Y-10923889D02*
X14163039Y-10866746D01*
X14163039Y-10866746D02*
X14172563Y-10847698D01*
X14172563Y-10847698D02*
X14182087Y-10838174D01*
X14182087Y-10838174D02*
X14201134Y-10828650D01*
X14201134Y-10828650D02*
X14229706Y-10828650D01*
X14229706Y-10828650D02*
X14248753Y-10838174D01*
X14248753Y-10838174D02*
X14258277Y-10847698D01*
X14258277Y-10847698D02*
X14267801Y-10866746D01*
X14267801Y-10866746D02*
X14267801Y-10923889D01*
X14267801Y-10923889D02*
X14258277Y-10942936D01*
X14258277Y-10942936D02*
X14248753Y-10952460D01*
X14248753Y-10952460D02*
X14229706Y-10961984D01*
X14229706Y-10961984D02*
X14201134Y-10961984D01*
X14382087Y-10961984D02*
X14363039Y-10952460D01*
X14363039Y-10952460D02*
X14353515Y-10933412D01*
X14353515Y-10933412D02*
X14353515Y-10761984D01*
X14534468Y-10952460D02*
X14515420Y-10961984D01*
X14515420Y-10961984D02*
X14477325Y-10961984D01*
X14477325Y-10961984D02*
X14458277Y-10952460D01*
X14458277Y-10952460D02*
X14448753Y-10933412D01*
X14448753Y-10933412D02*
X14448753Y-10857222D01*
X14448753Y-10857222D02*
X14458277Y-10838174D01*
X14458277Y-10838174D02*
X14477325Y-10828650D01*
X14477325Y-10828650D02*
X14515420Y-10828650D01*
X14515420Y-10828650D02*
X14534468Y-10838174D01*
X14534468Y-10838174D02*
X14543991Y-10857222D01*
X14543991Y-10857222D02*
X14543991Y-10876270D01*
X14543991Y-10876270D02*
X14448753Y-10895317D01*
X14620182Y-10952460D02*
X14639230Y-10961984D01*
X14639230Y-10961984D02*
X14677325Y-10961984D01*
X14677325Y-10961984D02*
X14696372Y-10952460D01*
X14696372Y-10952460D02*
X14705896Y-10933412D01*
X14705896Y-10933412D02*
X14705896Y-10923889D01*
X14705896Y-10923889D02*
X14696372Y-10904841D01*
X14696372Y-10904841D02*
X14677325Y-10895317D01*
X14677325Y-10895317D02*
X14648753Y-10895317D01*
X14648753Y-10895317D02*
X14629706Y-10885793D01*
X14629706Y-10885793D02*
X14620182Y-10866746D01*
X14620182Y-10866746D02*
X14620182Y-10857222D01*
X14620182Y-10857222D02*
X14629706Y-10838174D01*
X14629706Y-10838174D02*
X14648753Y-10828650D01*
X14648753Y-10828650D02*
X14677325Y-10828650D01*
X14677325Y-10828650D02*
X14696372Y-10838174D01*
X14772563Y-11038174D02*
X14782087Y-11028650D01*
X14782087Y-11028650D02*
X14801134Y-11000079D01*
X14801134Y-11000079D02*
X14810658Y-10981031D01*
X14810658Y-10981031D02*
X14820182Y-10952460D01*
X14820182Y-10952460D02*
X14829706Y-10904841D01*
X14829706Y-10904841D02*
X14829706Y-10866746D01*
X14829706Y-10866746D02*
X14820182Y-10819127D01*
X14820182Y-10819127D02*
X14810658Y-10790555D01*
X14810658Y-10790555D02*
X14801134Y-10771508D01*
X14801134Y-10771508D02*
X14782087Y-10742936D01*
X14782087Y-10742936D02*
X14772563Y-10733412D01*
X15134468Y-11038174D02*
X15124944Y-11028650D01*
X15124944Y-11028650D02*
X15105896Y-11000079D01*
X15105896Y-11000079D02*
X15096372Y-10981031D01*
X15096372Y-10981031D02*
X15086849Y-10952460D01*
X15086849Y-10952460D02*
X15077325Y-10904841D01*
X15077325Y-10904841D02*
X15077325Y-10866746D01*
X15077325Y-10866746D02*
X15086849Y-10819127D01*
X15086849Y-10819127D02*
X15096372Y-10790555D01*
X15096372Y-10790555D02*
X15105896Y-10771508D01*
X15105896Y-10771508D02*
X15124944Y-10742936D01*
X15124944Y-10742936D02*
X15134468Y-10733412D01*
X15210658Y-10828650D02*
X15210658Y-10961984D01*
X15210658Y-10847698D02*
X15220182Y-10838174D01*
X15220182Y-10838174D02*
X15239230Y-10828650D01*
X15239230Y-10828650D02*
X15267801Y-10828650D01*
X15267801Y-10828650D02*
X15286849Y-10838174D01*
X15286849Y-10838174D02*
X15296372Y-10857222D01*
X15296372Y-10857222D02*
X15296372Y-10961984D01*
X15420182Y-10961984D02*
X15401134Y-10952460D01*
X15401134Y-10952460D02*
X15391611Y-10942936D01*
X15391611Y-10942936D02*
X15382087Y-10923889D01*
X15382087Y-10923889D02*
X15382087Y-10866746D01*
X15382087Y-10866746D02*
X15391611Y-10847698D01*
X15391611Y-10847698D02*
X15401134Y-10838174D01*
X15401134Y-10838174D02*
X15420182Y-10828650D01*
X15420182Y-10828650D02*
X15448753Y-10828650D01*
X15448753Y-10828650D02*
X15467801Y-10838174D01*
X15467801Y-10838174D02*
X15477325Y-10847698D01*
X15477325Y-10847698D02*
X15486849Y-10866746D01*
X15486849Y-10866746D02*
X15486849Y-10923889D01*
X15486849Y-10923889D02*
X15477325Y-10942936D01*
X15477325Y-10942936D02*
X15467801Y-10952460D01*
X15467801Y-10952460D02*
X15448753Y-10961984D01*
X15448753Y-10961984D02*
X15420182Y-10961984D01*
X15543992Y-10828650D02*
X15620182Y-10828650D01*
X15572563Y-10761984D02*
X15572563Y-10933412D01*
X15572563Y-10933412D02*
X15582087Y-10952460D01*
X15582087Y-10952460D02*
X15601134Y-10961984D01*
X15601134Y-10961984D02*
X15620182Y-10961984D01*
X15839230Y-10828650D02*
X15839230Y-11028650D01*
X15839230Y-10838174D02*
X15858277Y-10828650D01*
X15858277Y-10828650D02*
X15896373Y-10828650D01*
X15896373Y-10828650D02*
X15915420Y-10838174D01*
X15915420Y-10838174D02*
X15924944Y-10847698D01*
X15924944Y-10847698D02*
X15934468Y-10866746D01*
X15934468Y-10866746D02*
X15934468Y-10923889D01*
X15934468Y-10923889D02*
X15924944Y-10942936D01*
X15924944Y-10942936D02*
X15915420Y-10952460D01*
X15915420Y-10952460D02*
X15896373Y-10961984D01*
X15896373Y-10961984D02*
X15858277Y-10961984D01*
X15858277Y-10961984D02*
X15839230Y-10952460D01*
X16048753Y-10961984D02*
X16029706Y-10952460D01*
X16029706Y-10952460D02*
X16020182Y-10933412D01*
X16020182Y-10933412D02*
X16020182Y-10761984D01*
X16210658Y-10961984D02*
X16210658Y-10857222D01*
X16210658Y-10857222D02*
X16201134Y-10838174D01*
X16201134Y-10838174D02*
X16182087Y-10828650D01*
X16182087Y-10828650D02*
X16143992Y-10828650D01*
X16143992Y-10828650D02*
X16124944Y-10838174D01*
X16210658Y-10952460D02*
X16191611Y-10961984D01*
X16191611Y-10961984D02*
X16143992Y-10961984D01*
X16143992Y-10961984D02*
X16124944Y-10952460D01*
X16124944Y-10952460D02*
X16115420Y-10933412D01*
X16115420Y-10933412D02*
X16115420Y-10914365D01*
X16115420Y-10914365D02*
X16124944Y-10895317D01*
X16124944Y-10895317D02*
X16143992Y-10885793D01*
X16143992Y-10885793D02*
X16191611Y-10885793D01*
X16191611Y-10885793D02*
X16210658Y-10876270D01*
X16277325Y-10828650D02*
X16353515Y-10828650D01*
X16305896Y-10761984D02*
X16305896Y-10933412D01*
X16305896Y-10933412D02*
X16315420Y-10952460D01*
X16315420Y-10952460D02*
X16334468Y-10961984D01*
X16334468Y-10961984D02*
X16353515Y-10961984D01*
X16496373Y-10952460D02*
X16477325Y-10961984D01*
X16477325Y-10961984D02*
X16439230Y-10961984D01*
X16439230Y-10961984D02*
X16420182Y-10952460D01*
X16420182Y-10952460D02*
X16410658Y-10933412D01*
X16410658Y-10933412D02*
X16410658Y-10857222D01*
X16410658Y-10857222D02*
X16420182Y-10838174D01*
X16420182Y-10838174D02*
X16439230Y-10828650D01*
X16439230Y-10828650D02*
X16477325Y-10828650D01*
X16477325Y-10828650D02*
X16496373Y-10838174D01*
X16496373Y-10838174D02*
X16505896Y-10857222D01*
X16505896Y-10857222D02*
X16505896Y-10876270D01*
X16505896Y-10876270D02*
X16410658Y-10895317D01*
X16677325Y-10961984D02*
X16677325Y-10761984D01*
X16677325Y-10952460D02*
X16658277Y-10961984D01*
X16658277Y-10961984D02*
X16620182Y-10961984D01*
X16620182Y-10961984D02*
X16601134Y-10952460D01*
X16601134Y-10952460D02*
X16591611Y-10942936D01*
X16591611Y-10942936D02*
X16582087Y-10923889D01*
X16582087Y-10923889D02*
X16582087Y-10866746D01*
X16582087Y-10866746D02*
X16591611Y-10847698D01*
X16591611Y-10847698D02*
X16601134Y-10838174D01*
X16601134Y-10838174D02*
X16620182Y-10828650D01*
X16620182Y-10828650D02*
X16658277Y-10828650D01*
X16658277Y-10828650D02*
X16677325Y-10838174D01*
X16753515Y-11038174D02*
X16763039Y-11028650D01*
X16763039Y-11028650D02*
X16782087Y-11000079D01*
X16782087Y-11000079D02*
X16791611Y-10981031D01*
X16791611Y-10981031D02*
X16801135Y-10952460D01*
X16801135Y-10952460D02*
X16810658Y-10904841D01*
X16810658Y-10904841D02*
X16810658Y-10866746D01*
X16810658Y-10866746D02*
X16801135Y-10819127D01*
X16801135Y-10819127D02*
X16791611Y-10790555D01*
X16791611Y-10790555D02*
X16782087Y-10771508D01*
X16782087Y-10771508D02*
X16763039Y-10742936D01*
X16763039Y-10742936D02*
X16753515Y-10733412D01*
M02*
