%TF.GenerationSoftware,KiCad,Pcbnew,10.0.3*%
%TF.CreationDate,2026-07-22T21:07:00-07:00*%
%TF.ProjectId,mp3-player,6d70332d-706c-4617-9965-722e6b696361,rev?*%
%TF.SameCoordinates,Original*%
%TF.FileFunction,Drillmap*%
%TF.FilePolarity,Positive*%
%FSLAX45Y45*%
G04 Gerber Fmt 4.5, Leading zero omitted, Abs format (unit mm)*
G04 Created by KiCad (PCBNEW 10.0.3) date 2026-07-22 21:07:00*
%MOMM*%
%LPD*%
G01*
G04 APERTURE LIST*
%ADD10C,0.050000*%
%ADD11C,0.200000*%
%ADD12C,0.100000*%
%ADD13C,0.129540*%
%ADD14C,0.149860*%
G04 APERTURE END LIST*
D10*
X10000000Y-5300000D02*
X10000000Y-5300000D01*
G75*
G02*
X10300000Y-5000000I300000J0D01*
G01*
X15200000Y-5000000D01*
G75*
G02*
X15500000Y-5300000I0J-300000D01*
G01*
X15500000Y-9400000D01*
G75*
G02*
X15200000Y-9700000I-300000J0D01*
G01*
X10300000Y-9700000D01*
G75*
G02*
X10000000Y-9400000I0J300000D01*
G01*
X10000000Y-5300000D01*
D11*
D12*
X10385000Y-5305000D02*
X10415000Y-5335000D01*
X10415000Y-5305000D02*
X10385000Y-5335000D01*
X10575000Y-9145000D02*
X10605000Y-9175000D01*
X10605000Y-9145000D02*
X10575000Y-9175000D01*
X10865000Y-6795000D02*
X10895000Y-6825000D01*
X10895000Y-6795000D02*
X10865000Y-6825000D01*
X10925000Y-5915000D02*
X10955000Y-5945000D01*
X10955000Y-5915000D02*
X10925000Y-5945000D01*
X10955000Y-7735000D02*
X10985000Y-7765000D01*
X10985000Y-7735000D02*
X10955000Y-7765000D01*
X11085000Y-8105000D02*
X11115000Y-8135000D01*
X11115000Y-8105000D02*
X11085000Y-8135000D01*
X11120000Y-8555000D02*
X11150000Y-8585000D01*
X11150000Y-8555000D02*
X11120000Y-8585000D01*
X11180000Y-5540000D02*
X11210000Y-5570000D01*
X11210000Y-5540000D02*
X11180000Y-5570000D01*
X11215000Y-9080000D02*
X11245000Y-9110000D01*
X11245000Y-9080000D02*
X11215000Y-9110000D01*
X11260000Y-6700000D02*
X11290000Y-6730000D01*
X11290000Y-6700000D02*
X11260000Y-6730000D01*
X11325000Y-6430000D02*
X11355000Y-6460000D01*
X11355000Y-6430000D02*
X11325000Y-6460000D01*
X11345000Y-6955000D02*
X11375000Y-6985000D01*
X11375000Y-6955000D02*
X11345000Y-6985000D01*
X11365000Y-5435000D02*
X11395000Y-5465000D01*
X11395000Y-5435000D02*
X11365000Y-5465000D01*
X11500000Y-7955000D02*
X11530000Y-7985000D01*
X11530000Y-7955000D02*
X11500000Y-7985000D01*
X11545000Y-6610000D02*
X11575000Y-6640000D01*
X11575000Y-6610000D02*
X11545000Y-6640000D01*
X11580000Y-8870000D02*
X11610000Y-8900000D01*
X11610000Y-8870000D02*
X11580000Y-8900000D01*
X11605000Y-7435000D02*
X11635000Y-7465000D01*
X11635000Y-7435000D02*
X11605000Y-7465000D01*
X11625000Y-7280000D02*
X11655000Y-7310000D01*
X11655000Y-7280000D02*
X11625000Y-7310000D01*
X11635000Y-7660000D02*
X11665000Y-7690000D01*
X11665000Y-7660000D02*
X11635000Y-7690000D01*
X11665000Y-5615000D02*
X11695000Y-5645000D01*
X11695000Y-5615000D02*
X11665000Y-5645000D01*
X11707000Y-7852000D02*
X11737000Y-7882000D01*
X11737000Y-7852000D02*
X11707000Y-7882000D01*
X11720000Y-6970000D02*
X11750000Y-7000000D01*
X11750000Y-6970000D02*
X11720000Y-7000000D01*
X11725000Y-6825000D02*
X11755000Y-6855000D01*
X11755000Y-6825000D02*
X11725000Y-6855000D01*
X11780427Y-7587500D02*
X11810427Y-7617500D01*
X11810427Y-7587500D02*
X11780427Y-7617500D01*
X11785000Y-9155000D02*
X11815000Y-9185000D01*
X11815000Y-9155000D02*
X11785000Y-9185000D01*
X11803000Y-7847000D02*
X11833000Y-7877000D01*
X11833000Y-7847000D02*
X11803000Y-7877000D01*
X11807500Y-6749292D02*
X11837500Y-6779292D01*
X11837500Y-6749292D02*
X11807500Y-6779292D01*
X11825000Y-8035000D02*
X11855000Y-8065000D01*
X11855000Y-8035000D02*
X11825000Y-8065000D01*
X11825000Y-8375000D02*
X11855000Y-8405000D01*
X11855000Y-8375000D02*
X11825000Y-8405000D01*
X11825000Y-8735000D02*
X11855000Y-8765000D01*
X11855000Y-8735000D02*
X11825000Y-8765000D01*
X11835000Y-9585000D02*
X11865000Y-9615000D01*
X11865000Y-9585000D02*
X11835000Y-9615000D01*
X11845000Y-7375000D02*
X11875000Y-7405000D01*
X11875000Y-7375000D02*
X11845000Y-7405000D01*
X11855000Y-7535000D02*
X11885000Y-7565000D01*
X11885000Y-7535000D02*
X11855000Y-7565000D01*
X11865000Y-5615000D02*
X11895000Y-5645000D01*
X11895000Y-5615000D02*
X11865000Y-5645000D01*
X11865000Y-6265000D02*
X11895000Y-6295000D01*
X11895000Y-6265000D02*
X11865000Y-6295000D01*
X11865000Y-6935000D02*
X11895000Y-6965000D01*
X11895000Y-6935000D02*
X11865000Y-6965000D01*
X11870000Y-7279000D02*
X11900000Y-7309000D01*
X11900000Y-7279000D02*
X11870000Y-7309000D01*
X11892500Y-8970000D02*
X11922500Y-9000000D01*
X11922500Y-8970000D02*
X11892500Y-9000000D01*
X11920000Y-8130000D02*
X11950000Y-8160000D01*
X11950000Y-8130000D02*
X11920000Y-8160000D01*
X11920000Y-8550000D02*
X11950000Y-8580000D01*
X11950000Y-8550000D02*
X11920000Y-8580000D01*
X11925000Y-6090000D02*
X11955000Y-6120000D01*
X11955000Y-6090000D02*
X11925000Y-6120000D01*
X11950000Y-7680000D02*
X11980000Y-7710000D01*
X11980000Y-7680000D02*
X11950000Y-7710000D01*
X11955000Y-6485000D02*
X11985000Y-6515000D01*
X11985000Y-6485000D02*
X11955000Y-6515000D01*
X11985000Y-8550000D02*
X12015000Y-8580000D01*
X12015000Y-8550000D02*
X11985000Y-8580000D01*
X12005000Y-9185000D02*
X12035000Y-9215000D01*
X12035000Y-9185000D02*
X12005000Y-9215000D01*
X12025000Y-7785000D02*
X12055000Y-7815000D01*
X12055000Y-7785000D02*
X12025000Y-7815000D01*
X12025000Y-7845000D02*
X12055000Y-7875000D01*
X12055000Y-7845000D02*
X12025000Y-7875000D01*
X12030000Y-6645000D02*
X12060000Y-6675000D01*
X12060000Y-6645000D02*
X12030000Y-6675000D01*
X12030000Y-6865000D02*
X12060000Y-6895000D01*
X12060000Y-6865000D02*
X12030000Y-6895000D01*
X12035000Y-6455000D02*
X12065000Y-6485000D01*
X12065000Y-6455000D02*
X12035000Y-6485000D01*
X12049076Y-8550000D02*
X12079076Y-8580000D01*
X12079076Y-8550000D02*
X12049076Y-8580000D01*
X12055000Y-8915000D02*
X12085000Y-8945000D01*
X12085000Y-8915000D02*
X12055000Y-8945000D01*
X12065000Y-5615000D02*
X12095000Y-5645000D01*
X12095000Y-5615000D02*
X12065000Y-5645000D01*
X12125000Y-6645000D02*
X12155000Y-6675000D01*
X12155000Y-6645000D02*
X12125000Y-6675000D01*
X12130000Y-8841000D02*
X12160000Y-8871000D01*
X12160000Y-8841000D02*
X12130000Y-8871000D01*
X12131000Y-8915000D02*
X12161000Y-8945000D01*
X12161000Y-8915000D02*
X12131000Y-8945000D01*
X12165000Y-9585000D02*
X12195000Y-9615000D01*
X12195000Y-9585000D02*
X12165000Y-9615000D01*
X12175000Y-7545000D02*
X12205000Y-7575000D01*
X12205000Y-7545000D02*
X12175000Y-7575000D01*
X12185000Y-8355000D02*
X12215000Y-8385000D01*
X12215000Y-8355000D02*
X12185000Y-8385000D01*
X12205000Y-8225000D02*
X12235000Y-8255000D01*
X12235000Y-8225000D02*
X12205000Y-8255000D01*
X12225000Y-6465000D02*
X12255000Y-6495000D01*
X12255000Y-6465000D02*
X12225000Y-6495000D01*
X12245000Y-9245000D02*
X12275000Y-9275000D01*
X12275000Y-9245000D02*
X12245000Y-9275000D01*
X12245000Y-9305000D02*
X12275000Y-9335000D01*
X12275000Y-9305000D02*
X12245000Y-9335000D01*
X12265000Y-5605000D02*
X12295000Y-5635000D01*
X12295000Y-5605000D02*
X12265000Y-5635000D01*
X12265000Y-6400000D02*
X12295000Y-6430000D01*
X12295000Y-6400000D02*
X12265000Y-6430000D01*
X12285000Y-7815000D02*
X12315000Y-7845000D01*
X12315000Y-7815000D02*
X12285000Y-7845000D01*
X12285000Y-7875000D02*
X12315000Y-7905000D01*
X12315000Y-7875000D02*
X12285000Y-7905000D01*
X12295000Y-8595000D02*
X12325000Y-8625000D01*
X12325000Y-8595000D02*
X12295000Y-8625000D01*
X12355000Y-8715000D02*
X12385000Y-8745000D01*
X12385000Y-8715000D02*
X12355000Y-8745000D01*
X12375000Y-8595000D02*
X12405000Y-8625000D01*
X12405000Y-8595000D02*
X12375000Y-8625000D01*
X12456000Y-8294000D02*
X12486000Y-8324000D01*
X12486000Y-8294000D02*
X12456000Y-8324000D01*
X12456000Y-8355000D02*
X12486000Y-8385000D01*
X12486000Y-8355000D02*
X12456000Y-8385000D01*
X12465000Y-8835000D02*
X12495000Y-8865000D01*
X12495000Y-8835000D02*
X12465000Y-8865000D01*
X12475000Y-8615000D02*
X12505000Y-8645000D01*
X12505000Y-8615000D02*
X12475000Y-8645000D01*
X12525000Y-8714380D02*
X12555000Y-8744380D01*
X12555000Y-8714380D02*
X12525000Y-8744380D01*
X12555000Y-9335000D02*
X12585000Y-9365000D01*
X12585000Y-9335000D02*
X12555000Y-9365000D01*
X12640000Y-8100000D02*
X12670000Y-8130000D01*
X12670000Y-8100000D02*
X12640000Y-8130000D01*
X12660591Y-8009409D02*
X12690591Y-8039409D01*
X12690591Y-8009409D02*
X12660591Y-8039409D01*
X12710000Y-6710000D02*
X12740000Y-6740000D01*
X12740000Y-6710000D02*
X12710000Y-6740000D01*
X12715000Y-6585000D02*
X12745000Y-6615000D01*
X12745000Y-6585000D02*
X12715000Y-6615000D01*
X12716567Y-9189381D02*
X12746567Y-9219381D01*
X12746567Y-9189381D02*
X12716567Y-9219381D01*
X12755000Y-6082570D02*
X12785000Y-6112570D01*
X12785000Y-6082570D02*
X12755000Y-6112570D01*
X12771000Y-7102500D02*
X12801000Y-7132500D01*
X12801000Y-7102500D02*
X12771000Y-7132500D01*
X12773136Y-9245949D02*
X12803136Y-9275949D01*
X12803136Y-9245949D02*
X12773136Y-9275949D01*
X12790000Y-7365000D02*
X12820000Y-7395000D01*
X12820000Y-7365000D02*
X12790000Y-7395000D01*
X12795000Y-5155000D02*
X12825000Y-5185000D01*
X12825000Y-5155000D02*
X12795000Y-5185000D01*
X12835000Y-8335457D02*
X12865000Y-8365457D01*
X12865000Y-8335457D02*
X12835000Y-8365457D01*
X12840000Y-7147500D02*
X12870000Y-7177500D01*
X12870000Y-7147500D02*
X12840000Y-7177500D01*
X12860166Y-6640111D02*
X12890166Y-6670111D01*
X12890166Y-6640111D02*
X12860166Y-6670111D01*
X12860499Y-9200132D02*
X12890499Y-9230132D01*
X12890499Y-9200132D02*
X12860499Y-9230132D01*
X12864800Y-6560000D02*
X12894800Y-6590000D01*
X12894800Y-6560000D02*
X12864800Y-6590000D01*
X12865000Y-6935000D02*
X12895000Y-6965000D01*
X12895000Y-6935000D02*
X12865000Y-6965000D01*
X12875000Y-7015000D02*
X12905000Y-7045000D01*
X12905000Y-7015000D02*
X12875000Y-7045000D01*
X12885000Y-7605000D02*
X12915000Y-7635000D01*
X12915000Y-7605000D02*
X12885000Y-7635000D01*
X12885000Y-7695000D02*
X12915000Y-7725000D01*
X12915000Y-7695000D02*
X12885000Y-7725000D01*
X12885000Y-8215000D02*
X12915000Y-8245000D01*
X12915000Y-8215000D02*
X12885000Y-8245000D01*
X12965000Y-8595000D02*
X12995000Y-8625000D01*
X12995000Y-8595000D02*
X12965000Y-8625000D01*
X13005000Y-8785000D02*
X13035000Y-8815000D01*
X13035000Y-8785000D02*
X13005000Y-8815000D01*
X13007500Y-6520000D02*
X13037500Y-6550000D01*
X13037500Y-6520000D02*
X13007500Y-6550000D01*
X13020000Y-7595000D02*
X13050000Y-7625000D01*
X13050000Y-7595000D02*
X13020000Y-7625000D01*
X13045000Y-8595000D02*
X13075000Y-8625000D01*
X13075000Y-8595000D02*
X13045000Y-8625000D01*
X13050000Y-7365000D02*
X13080000Y-7395000D01*
X13080000Y-7365000D02*
X13050000Y-7395000D01*
X13055000Y-6715000D02*
X13085000Y-6745000D01*
X13085000Y-6715000D02*
X13055000Y-6745000D01*
X13095000Y-7145000D02*
X13125000Y-7175000D01*
X13125000Y-7145000D02*
X13095000Y-7175000D01*
X13120000Y-6765000D02*
X13150000Y-6795000D01*
X13150000Y-6765000D02*
X13120000Y-6795000D01*
X13135000Y-8290000D02*
X13165000Y-8320000D01*
X13165000Y-8290000D02*
X13135000Y-8320000D01*
X13135000Y-8355000D02*
X13165000Y-8385000D01*
X13165000Y-8355000D02*
X13135000Y-8385000D01*
X13135000Y-8925000D02*
X13165000Y-8955000D01*
X13165000Y-8925000D02*
X13135000Y-8955000D01*
X13140904Y-6530904D02*
X13170904Y-6560904D01*
X13170904Y-6530904D02*
X13140904Y-6560904D01*
X13162117Y-8010000D02*
X13192117Y-8040000D01*
X13192117Y-8010000D02*
X13162117Y-8040000D01*
X13175000Y-8685000D02*
X13205000Y-8715000D01*
X13205000Y-8685000D02*
X13175000Y-8715000D01*
X13175000Y-8745000D02*
X13205000Y-8775000D01*
X13205000Y-8745000D02*
X13175000Y-8775000D01*
X13212500Y-6737500D02*
X13242500Y-6767500D01*
X13242500Y-6737500D02*
X13212500Y-6767500D01*
X13223158Y-6293158D02*
X13253158Y-6323158D01*
X13253158Y-6293158D02*
X13223158Y-6323158D01*
X13225000Y-7952500D02*
X13255000Y-7982500D01*
X13255000Y-7952500D02*
X13225000Y-7982500D01*
X13295000Y-7895000D02*
X13325000Y-7925000D01*
X13325000Y-7895000D02*
X13295000Y-7925000D01*
X13305000Y-8975000D02*
X13335000Y-9005000D01*
X13335000Y-8975000D02*
X13305000Y-9005000D01*
X13310000Y-6735000D02*
X13340000Y-6765000D01*
X13340000Y-6735000D02*
X13310000Y-6765000D01*
X13330000Y-8165000D02*
X13360000Y-8195000D01*
X13360000Y-8165000D02*
X13330000Y-8195000D01*
X13345000Y-7145000D02*
X13375000Y-7175000D01*
X13375000Y-7145000D02*
X13345000Y-7175000D01*
X13405000Y-7565000D02*
X13435000Y-7595000D01*
X13435000Y-7565000D02*
X13405000Y-7595000D01*
X13425000Y-9355000D02*
X13455000Y-9385000D01*
X13455000Y-9355000D02*
X13425000Y-9385000D01*
X13475000Y-6535000D02*
X13505000Y-6565000D01*
X13505000Y-6535000D02*
X13475000Y-6565000D01*
X13475000Y-7145000D02*
X13505000Y-7175000D01*
X13505000Y-7145000D02*
X13475000Y-7175000D01*
X13554957Y-8437476D02*
X13584957Y-8467476D01*
X13584957Y-8437476D02*
X13554957Y-8467476D01*
X13555000Y-9045000D02*
X13585000Y-9075000D01*
X13585000Y-9045000D02*
X13555000Y-9075000D01*
X13570000Y-8147500D02*
X13600000Y-8177500D01*
X13600000Y-8147500D02*
X13570000Y-8177500D01*
X13570000Y-9150000D02*
X13600000Y-9180000D01*
X13600000Y-9150000D02*
X13570000Y-9180000D01*
X13585000Y-7125000D02*
X13615000Y-7155000D01*
X13615000Y-7125000D02*
X13585000Y-7155000D01*
X13595000Y-7850000D02*
X13625000Y-7880000D01*
X13625000Y-7850000D02*
X13595000Y-7880000D01*
X13645000Y-7292500D02*
X13675000Y-7322500D01*
X13675000Y-7292500D02*
X13645000Y-7322500D01*
X13645000Y-7435000D02*
X13675000Y-7465000D01*
X13675000Y-7435000D02*
X13645000Y-7465000D01*
X13740000Y-6905000D02*
X13770000Y-6935000D01*
X13770000Y-6905000D02*
X13740000Y-6935000D01*
X13742500Y-8192500D02*
X13772500Y-8222500D01*
X13772500Y-8192500D02*
X13742500Y-8222500D01*
X13765000Y-9535000D02*
X13795000Y-9565000D01*
X13795000Y-9535000D02*
X13765000Y-9565000D01*
X13845000Y-6435000D02*
X13875000Y-6465000D01*
X13875000Y-6435000D02*
X13845000Y-6465000D01*
X13860000Y-9050000D02*
X13890000Y-9080000D01*
X13890000Y-9050000D02*
X13860000Y-9080000D01*
X13875000Y-6535000D02*
X13905000Y-6565000D01*
X13905000Y-6535000D02*
X13875000Y-6565000D01*
X13907500Y-6645000D02*
X13937500Y-6675000D01*
X13937500Y-6645000D02*
X13907500Y-6675000D01*
X13932500Y-8177500D02*
X13962500Y-8207500D01*
X13962500Y-8177500D02*
X13932500Y-8207500D01*
X13945000Y-6965000D02*
X13975000Y-6995000D01*
X13975000Y-6965000D02*
X13945000Y-6995000D01*
X14005000Y-7035000D02*
X14035000Y-7065000D01*
X14035000Y-7035000D02*
X14005000Y-7065000D01*
X14025000Y-6645000D02*
X14055000Y-6675000D01*
X14055000Y-6645000D02*
X14025000Y-6675000D01*
X14045000Y-7655000D02*
X14075000Y-7685000D01*
X14075000Y-7655000D02*
X14045000Y-7685000D01*
X14097500Y-9050000D02*
X14127500Y-9080000D01*
X14127500Y-9050000D02*
X14097500Y-9080000D01*
X14120000Y-9355000D02*
X14150000Y-9385000D01*
X14150000Y-9355000D02*
X14120000Y-9385000D01*
X14175000Y-6465000D02*
X14205000Y-6495000D01*
X14205000Y-6465000D02*
X14175000Y-6495000D01*
X14205000Y-8585000D02*
X14235000Y-8615000D01*
X14235000Y-8585000D02*
X14205000Y-8615000D01*
X14345000Y-7217500D02*
X14375000Y-7247500D01*
X14375000Y-7217500D02*
X14345000Y-7247500D01*
X14375000Y-6975000D02*
X14405000Y-7005000D01*
X14405000Y-6975000D02*
X14375000Y-7005000D01*
X14385000Y-9185000D02*
X14415000Y-9215000D01*
X14415000Y-9185000D02*
X14385000Y-9215000D01*
X14400000Y-7950000D02*
X14430000Y-7980000D01*
X14430000Y-7950000D02*
X14400000Y-7980000D01*
X14475000Y-8195000D02*
X14505000Y-8225000D01*
X14505000Y-8195000D02*
X14475000Y-8225000D01*
X14475000Y-9185000D02*
X14505000Y-9215000D01*
X14505000Y-9185000D02*
X14475000Y-9215000D01*
X14485000Y-6065000D02*
X14515000Y-6095000D01*
X14515000Y-6065000D02*
X14485000Y-6095000D01*
X14540000Y-8615000D02*
X14570000Y-8645000D01*
X14570000Y-8615000D02*
X14540000Y-8645000D01*
X14605000Y-9195000D02*
X14635000Y-9225000D01*
X14635000Y-9195000D02*
X14605000Y-9225000D01*
X14645000Y-6915000D02*
X14675000Y-6945000D01*
X14675000Y-6915000D02*
X14645000Y-6945000D01*
X14735000Y-7595000D02*
X14765000Y-7625000D01*
X14765000Y-7595000D02*
X14735000Y-7625000D01*
X14825000Y-9515000D02*
X14855000Y-9545000D01*
X14855000Y-9515000D02*
X14825000Y-9545000D01*
X14925000Y-5415000D02*
X14955000Y-5445000D01*
X14955000Y-5415000D02*
X14925000Y-5445000D01*
X15125000Y-9325000D02*
X15155000Y-9355000D01*
X15155000Y-9325000D02*
X15125000Y-9355000D01*
X12227500Y-7172500D02*
G75*
G02*
X12197500Y-7172500I-15000J0D01*
G01*
X12197500Y-7172500D02*
G75*
G02*
X12227500Y-7172500I15000J0D01*
G01*
X12227500Y-7310000D02*
G75*
G02*
X12197500Y-7310000I-15000J0D01*
G01*
X12197500Y-7310000D02*
G75*
G02*
X12227500Y-7310000I15000J0D01*
G01*
X12227500Y-7447500D02*
G75*
G02*
X12197500Y-7447500I-15000J0D01*
G01*
X12197500Y-7447500D02*
G75*
G02*
X12227500Y-7447500I15000J0D01*
G01*
X12365000Y-7172500D02*
G75*
G02*
X12335000Y-7172500I-15000J0D01*
G01*
X12335000Y-7172500D02*
G75*
G02*
X12365000Y-7172500I15000J0D01*
G01*
X12365000Y-7310000D02*
G75*
G02*
X12335000Y-7310000I-15000J0D01*
G01*
X12335000Y-7310000D02*
G75*
G02*
X12365000Y-7310000I15000J0D01*
G01*
X12365000Y-7447500D02*
G75*
G02*
X12335000Y-7447500I-15000J0D01*
G01*
X12335000Y-7447500D02*
G75*
G02*
X12365000Y-7447500I15000J0D01*
G01*
X12502500Y-7172500D02*
G75*
G02*
X12472500Y-7172500I-15000J0D01*
G01*
X12472500Y-7172500D02*
G75*
G02*
X12502500Y-7172500I15000J0D01*
G01*
X12502500Y-7310000D02*
G75*
G02*
X12472500Y-7310000I-15000J0D01*
G01*
X12472500Y-7310000D02*
G75*
G02*
X12502500Y-7310000I15000J0D01*
G01*
X12502500Y-7447500D02*
G75*
G02*
X12472500Y-7447500I-15000J0D01*
G01*
X12472500Y-7447500D02*
G75*
G02*
X12502500Y-7447500I15000J0D01*
G01*
X11390000Y-7295000D02*
X11390000Y-7345000D01*
X11365000Y-7320000D02*
X11415000Y-7320000D01*
X11390000Y-7395000D02*
X11390000Y-7445000D01*
X11365000Y-7420000D02*
X11415000Y-7420000D01*
X11390000Y-7495000D02*
X11390000Y-7545000D01*
X11365000Y-7520000D02*
X11415000Y-7520000D01*
X11390000Y-7595000D02*
X11390000Y-7645000D01*
X11365000Y-7620000D02*
X11415000Y-7620000D01*
X11390000Y-7695000D02*
X11390000Y-7745000D01*
X11365000Y-7720000D02*
X11415000Y-7720000D01*
X11390000Y-7795000D02*
X11390000Y-7845000D01*
X11365000Y-7820000D02*
X11415000Y-7820000D01*
X11577538Y-5403084D02*
X11577538Y-5360658D01*
X11535111Y-5360658D01*
X11535111Y-5403084D01*
X11577538Y-5403084D01*
X11727538Y-5403084D02*
X11727538Y-5360658D01*
X11685111Y-5360658D01*
X11685111Y-5403084D01*
X11727538Y-5403084D01*
X11877538Y-5403084D02*
X11877538Y-5360658D01*
X11835111Y-5360658D01*
X11835111Y-5403084D01*
X11877538Y-5403084D01*
X12027538Y-5403084D02*
X12027538Y-5360658D01*
X11985111Y-5360658D01*
X11985111Y-5403084D01*
X12027538Y-5403084D01*
X12177538Y-5403084D02*
X12177538Y-5360658D01*
X12135111Y-5360658D01*
X12135111Y-5403084D01*
X12177538Y-5403084D01*
X12327538Y-5403084D02*
X12327538Y-5360658D01*
X12285111Y-5360658D01*
X12285111Y-5403084D01*
X12327538Y-5403084D01*
X12339210Y-9536326D02*
X12339210Y-9493899D01*
X12296783Y-9493899D01*
X12296783Y-9536326D01*
X12339210Y-9536326D01*
X12347997Y-9575113D02*
X12347997Y-9455113D01*
X12287997Y-9455113D02*
G75*
G02*
X12347997Y-9455113I30000J0D01*
G01*
X12287997Y-9455113D02*
X12287997Y-9575113D01*
X12287997Y-9575113D02*
G75*
G03*
X12347997Y-9575113I30000J0D01*
G01*
X12339213Y-9136322D02*
X12339213Y-9093895D01*
X12296786Y-9093895D01*
X12296786Y-9136322D01*
X12339213Y-9136322D01*
X12348000Y-9155109D02*
X12348000Y-9075109D01*
X12288000Y-9075109D02*
G75*
G02*
X12348000Y-9075109I30000J0D01*
G01*
X12288000Y-9075109D02*
X12288000Y-9155109D01*
X12288000Y-9155109D02*
G75*
G03*
X12348000Y-9155109I30000J0D01*
G01*
X12477538Y-5403084D02*
X12477538Y-5360658D01*
X12435111Y-5360658D01*
X12435111Y-5403084D01*
X12477538Y-5403084D01*
X12627538Y-5403084D02*
X12627538Y-5360658D01*
X12585111Y-5360658D01*
X12585111Y-5403084D01*
X12627538Y-5403084D01*
X12777538Y-5403084D02*
X12777538Y-5360658D01*
X12735111Y-5360658D01*
X12735111Y-5403084D01*
X12777538Y-5403084D01*
X12927538Y-5403084D02*
X12927538Y-5360658D01*
X12885111Y-5360658D01*
X12885111Y-5403084D01*
X12927538Y-5403084D01*
X13077538Y-5403084D02*
X13077538Y-5360658D01*
X13035111Y-5360658D01*
X13035111Y-5403084D01*
X13077538Y-5403084D01*
X13203214Y-9136322D02*
X13203214Y-9093895D01*
X13160787Y-9093895D01*
X13160787Y-9136322D01*
X13203214Y-9136322D01*
X13212000Y-9155109D02*
X13212000Y-9075109D01*
X13152000Y-9075109D02*
G75*
G02*
X13212000Y-9075109I30000J0D01*
G01*
X13152000Y-9075109D02*
X13152000Y-9155109D01*
X13152000Y-9155109D02*
G75*
G03*
X13212000Y-9155109I30000J0D01*
G01*
X13203217Y-9536326D02*
X13203217Y-9493899D01*
X13160790Y-9493899D01*
X13160790Y-9536326D01*
X13203217Y-9536326D01*
X13212003Y-9575113D02*
X13212003Y-9455113D01*
X13152003Y-9455113D02*
G75*
G02*
X13212003Y-9455113I30000J0D01*
G01*
X13152003Y-9455113D02*
X13152003Y-9575113D01*
X13152003Y-9575113D02*
G75*
G03*
X13212003Y-9575113I30000J0D01*
G01*
X13227538Y-5403084D02*
X13227538Y-5360658D01*
X13185111Y-5360658D01*
X13185111Y-5403084D01*
X13227538Y-5403084D01*
X13377538Y-5403084D02*
X13377538Y-5360658D01*
X13335111Y-5360658D01*
X13335111Y-5403084D01*
X13377538Y-5403084D01*
X13527538Y-5403084D02*
X13527538Y-5360658D01*
X13485111Y-5360658D01*
X13485111Y-5403084D01*
X13527538Y-5403084D01*
X13677538Y-5403084D02*
X13677538Y-5360658D01*
X13635111Y-5360658D01*
X13635111Y-5403084D01*
X13677538Y-5403084D01*
X13827538Y-5403084D02*
X13827538Y-5360658D01*
X13785111Y-5360658D01*
X13785111Y-5403084D01*
X13827538Y-5403084D01*
X13977538Y-5403084D02*
X13977538Y-5360658D01*
X13935111Y-5360658D01*
X13935111Y-5403084D01*
X13977538Y-5403084D01*
X11026324Y-5236871D02*
X11061324Y-5201871D01*
X11026324Y-5166871D01*
X10991324Y-5201871D01*
X11026324Y-5236871D01*
X10996324Y-5236871D02*
X11056324Y-5236871D01*
X11056324Y-5166871D02*
G75*
G02*
X11056324Y-5236871I0J-35000D01*
G01*
X11056324Y-5166871D02*
X10996324Y-5166871D01*
X10996324Y-5166871D02*
G75*
G03*
X10996324Y-5236871I0J-35000D01*
G01*
X14486324Y-5236871D02*
X14521324Y-5201871D01*
X14486324Y-5166871D01*
X14451324Y-5201871D01*
X14486324Y-5236871D01*
X14456324Y-5236871D02*
X14516324Y-5236871D01*
X14516324Y-5166871D02*
G75*
G02*
X14516324Y-5236871I0J-35000D01*
G01*
X14516324Y-5166871D02*
X14456324Y-5166871D01*
X14456324Y-5166871D02*
G75*
G03*
X14456324Y-5236871I0J-35000D01*
G01*
X11597500Y-9207979D02*
X11672500Y-9282979D01*
X11672500Y-9207979D02*
X11597500Y-9282979D01*
X11672500Y-9245479D02*
G75*
G02*
X11597500Y-9245479I-37500J0D01*
G01*
X11597500Y-9245479D02*
G75*
G02*
X11672500Y-9245479I37500J0D01*
G01*
X11597500Y-9407979D02*
X11672500Y-9482979D01*
X11672500Y-9407979D02*
X11597500Y-9482979D01*
X11672500Y-9445479D02*
G75*
G02*
X11597500Y-9445479I-37500J0D01*
G01*
X11597500Y-9445479D02*
G75*
G02*
X11672500Y-9445479I37500J0D01*
G01*
X15110605Y-6659360D02*
X15191885Y-6740640D01*
X15191885Y-6659360D02*
X15110605Y-6740640D01*
X15151245Y-6659360D02*
X15151245Y-6740640D01*
X15110605Y-6700000D02*
X15191885Y-6700000D01*
X15110605Y-6859360D02*
X15191885Y-6940640D01*
X15191885Y-6859360D02*
X15110605Y-6940640D01*
X15151245Y-6859360D02*
X15151245Y-6940640D01*
X15110605Y-6900000D02*
X15191885Y-6900000D01*
X15110605Y-7059360D02*
X15191885Y-7140640D01*
X15191885Y-7059360D02*
X15110605Y-7140640D01*
X15151245Y-7059360D02*
X15151245Y-7140640D01*
X15110605Y-7100000D02*
X15191885Y-7100000D01*
X10345055Y-6525470D02*
X10444115Y-6624530D01*
X10444115Y-6525470D02*
X10345055Y-6624530D01*
X10429608Y-6610023D02*
X10429608Y-6539977D01*
X10359562Y-6539977D01*
X10359562Y-6610023D01*
X10429608Y-6610023D01*
X10345055Y-6975470D02*
X10444115Y-7074530D01*
X10444115Y-6975470D02*
X10345055Y-7074530D01*
X10429608Y-7060023D02*
X10429608Y-6989977D01*
X10359562Y-6989977D01*
X10359562Y-7060023D01*
X10429608Y-7060023D01*
X10345055Y-7475470D02*
X10444115Y-7574530D01*
X10444115Y-7475470D02*
X10345055Y-7574530D01*
X10429608Y-7560023D02*
X10429608Y-7489977D01*
X10359562Y-7489977D01*
X10359562Y-7560023D01*
X10429608Y-7560023D01*
X10345055Y-7925470D02*
X10444115Y-8024530D01*
X10444115Y-7925470D02*
X10345055Y-8024530D01*
X10429608Y-8010023D02*
X10429608Y-7939977D01*
X10359562Y-7939977D01*
X10359562Y-8010023D01*
X10429608Y-8010023D01*
X11475470Y-5700470D02*
X11574530Y-5799530D01*
X11574530Y-5700470D02*
X11475470Y-5799530D01*
X11560023Y-5785023D02*
X11560023Y-5714977D01*
X11489977Y-5714977D01*
X11489977Y-5785023D01*
X11560023Y-5785023D01*
X11475470Y-6150470D02*
X11574530Y-6249530D01*
X11574530Y-6150470D02*
X11475470Y-6249530D01*
X11560023Y-6235023D02*
X11560023Y-6164977D01*
X11489977Y-6164977D01*
X11489977Y-6235023D01*
X11560023Y-6235023D01*
X12125470Y-5700470D02*
X12224530Y-5799530D01*
X12224530Y-5700470D02*
X12125470Y-5799530D01*
X12210023Y-5785023D02*
X12210023Y-5714977D01*
X12139977Y-5714977D01*
X12139977Y-5785023D01*
X12210023Y-5785023D01*
X12125470Y-6150470D02*
X12224530Y-6249530D01*
X12224530Y-6150470D02*
X12125470Y-6249530D01*
X12210023Y-6235023D02*
X12210023Y-6164977D01*
X12139977Y-6164977D01*
X12139977Y-6235023D01*
X12210023Y-6235023D01*
X12375470Y-5700470D02*
X12474530Y-5799530D01*
X12474530Y-5700470D02*
X12375470Y-5799530D01*
X12460023Y-5785023D02*
X12460023Y-5714977D01*
X12389977Y-5714977D01*
X12389977Y-5785023D01*
X12460023Y-5785023D01*
X12375470Y-6150470D02*
X12474530Y-6249530D01*
X12474530Y-6150470D02*
X12375470Y-6249530D01*
X12460023Y-6235023D02*
X12460023Y-6164977D01*
X12389977Y-6164977D01*
X12389977Y-6235023D01*
X12460023Y-6235023D01*
X13025470Y-5700470D02*
X13124530Y-5799530D01*
X13124530Y-5700470D02*
X13025470Y-5799530D01*
X13110023Y-5785023D02*
X13110023Y-5714977D01*
X13039977Y-5714977D01*
X13039977Y-5785023D01*
X13110023Y-5785023D01*
X13025470Y-6150470D02*
X13124530Y-6249530D01*
X13124530Y-6150470D02*
X13025470Y-6249530D01*
X13110023Y-6235023D02*
X13110023Y-6164977D01*
X13039977Y-6164977D01*
X13039977Y-6235023D01*
X13110023Y-6235023D01*
X13275470Y-5700470D02*
X13374530Y-5799530D01*
X13374530Y-5700470D02*
X13275470Y-5799530D01*
X13360023Y-5785023D02*
X13360023Y-5714977D01*
X13289977Y-5714977D01*
X13289977Y-5785023D01*
X13360023Y-5785023D01*
X13275470Y-6150470D02*
X13374530Y-6249530D01*
X13374530Y-6150470D02*
X13275470Y-6249530D01*
X13360023Y-6235023D02*
X13360023Y-6164977D01*
X13289977Y-6164977D01*
X13289977Y-6235023D01*
X13360023Y-6235023D01*
X13925470Y-5700470D02*
X14024530Y-5799530D01*
X14024530Y-5700470D02*
X13925470Y-5799530D01*
X14010023Y-5785023D02*
X14010023Y-5714977D01*
X13939977Y-5714977D01*
X13939977Y-5785023D01*
X14010023Y-5785023D01*
X13925470Y-6150470D02*
X14024530Y-6249530D01*
X14024530Y-6150470D02*
X13925470Y-6249530D01*
X14010023Y-6235023D02*
X14010023Y-6164977D01*
X13939977Y-6164977D01*
X13939977Y-6235023D01*
X14010023Y-6235023D01*
X14725000Y-8510000D02*
X14825000Y-8610000D01*
X14825000Y-8510000D02*
X14725000Y-8610000D01*
X14775000Y-8610000D02*
X14825000Y-8560000D01*
X14775000Y-8510000D01*
X14725000Y-8560000D01*
X14775000Y-8610000D01*
X14825000Y-8585000D02*
X14825000Y-8535000D01*
X14725000Y-8535000D02*
G75*
G02*
X14825000Y-8535000I50000J0D01*
G01*
X14725000Y-8535000D02*
X14725000Y-8585000D01*
X14725000Y-8585000D02*
G75*
G03*
X14825000Y-8585000I50000J0D01*
G01*
X14850000Y-9040000D02*
X14950000Y-9140000D01*
X14950000Y-9040000D02*
X14850000Y-9140000D01*
X14900000Y-9140000D02*
X14950000Y-9090000D01*
X14900000Y-9040000D01*
X14850000Y-9090000D01*
X14900000Y-9140000D01*
X14950000Y-9115000D02*
X14950000Y-9065000D01*
X14850000Y-9065000D02*
G75*
G02*
X14950000Y-9065000I50000J0D01*
G01*
X14850000Y-9065000D02*
X14850000Y-9115000D01*
X14850000Y-9115000D02*
G75*
G03*
X14950000Y-9115000I50000J0D01*
G01*
X15275000Y-8510000D02*
X15375000Y-8610000D01*
X15375000Y-8510000D02*
X15275000Y-8610000D01*
X15325000Y-8610000D02*
X15375000Y-8560000D01*
X15325000Y-8510000D01*
X15275000Y-8560000D01*
X15325000Y-8610000D01*
X15375000Y-8585000D02*
X15375000Y-8535000D01*
X15275000Y-8535000D02*
G75*
G02*
X15375000Y-8535000I50000J0D01*
G01*
X15275000Y-8535000D02*
X15275000Y-8585000D01*
X15275000Y-8585000D02*
G75*
G03*
X15375000Y-8585000I50000J0D01*
G01*
D13*
X10643615Y-6384730D02*
X10643615Y-6514270D01*
X10578845Y-6449500D02*
X10708385Y-6449500D01*
X10708385Y-6449500D02*
G75*
G02*
X10578845Y-6449500I-64770J0D01*
G01*
X10578845Y-6449500D02*
G75*
G02*
X10708385Y-6449500I64770J0D01*
G01*
X10643615Y-7085730D02*
X10643615Y-7215270D01*
X10578845Y-7150500D02*
X10708385Y-7150500D01*
X10708385Y-7150500D02*
G75*
G02*
X10578845Y-7150500I-64770J0D01*
G01*
X10578845Y-7150500D02*
G75*
G02*
X10708385Y-7150500I64770J0D01*
G01*
X10643615Y-7334730D02*
X10643615Y-7464270D01*
X10578845Y-7399500D02*
X10708385Y-7399500D01*
X10708385Y-7399500D02*
G75*
G02*
X10578845Y-7399500I-64770J0D01*
G01*
X10578845Y-7399500D02*
G75*
G02*
X10708385Y-7399500I64770J0D01*
G01*
X10643615Y-8035730D02*
X10643615Y-8165270D01*
X10578845Y-8100500D02*
X10708385Y-8100500D01*
X10708385Y-8100500D02*
G75*
G02*
X10578845Y-8100500I-64770J0D01*
G01*
X10578845Y-8100500D02*
G75*
G02*
X10708385Y-8100500I64770J0D01*
G01*
D14*
X15204229Y-6542984D02*
X15204229Y-6437016D01*
X15098261Y-6437016D01*
X15098261Y-6542984D01*
X15204229Y-6542984D01*
X15226175Y-6490000D02*
G75*
G02*
X15076315Y-6490000I-74930J0D01*
G01*
X15076315Y-6490000D02*
G75*
G02*
X15226175Y-6490000I74930J0D01*
G01*
X15204229Y-7362984D02*
X15204229Y-7257016D01*
X15098261Y-7257016D01*
X15098261Y-7362984D01*
X15204229Y-7362984D01*
X15226175Y-7310000D02*
G75*
G02*
X15076315Y-7310000I-74930J0D01*
G01*
X15076315Y-7310000D02*
G75*
G02*
X15226175Y-7310000I74930J0D01*
G01*
D11*
X10258277Y-10013984D02*
X10258277Y-9813984D01*
X10258277Y-9813984D02*
X10305896Y-9813984D01*
X10305896Y-9813984D02*
X10334467Y-9823508D01*
X10334467Y-9823508D02*
X10353515Y-9842555D01*
X10353515Y-9842555D02*
X10363039Y-9861603D01*
X10363039Y-9861603D02*
X10372563Y-9899698D01*
X10372563Y-9899698D02*
X10372563Y-9928270D01*
X10372563Y-9928270D02*
X10363039Y-9966365D01*
X10363039Y-9966365D02*
X10353515Y-9985412D01*
X10353515Y-9985412D02*
X10334467Y-10004460D01*
X10334467Y-10004460D02*
X10305896Y-10013984D01*
X10305896Y-10013984D02*
X10258277Y-10013984D01*
X10458277Y-10013984D02*
X10458277Y-9880650D01*
X10458277Y-9918746D02*
X10467801Y-9899698D01*
X10467801Y-9899698D02*
X10477324Y-9890174D01*
X10477324Y-9890174D02*
X10496372Y-9880650D01*
X10496372Y-9880650D02*
X10515420Y-9880650D01*
X10582086Y-10013984D02*
X10582086Y-9880650D01*
X10582086Y-9813984D02*
X10572563Y-9823508D01*
X10572563Y-9823508D02*
X10582086Y-9833031D01*
X10582086Y-9833031D02*
X10591610Y-9823508D01*
X10591610Y-9823508D02*
X10582086Y-9813984D01*
X10582086Y-9813984D02*
X10582086Y-9833031D01*
X10705896Y-10013984D02*
X10686848Y-10004460D01*
X10686848Y-10004460D02*
X10677324Y-9985412D01*
X10677324Y-9985412D02*
X10677324Y-9813984D01*
X10810658Y-10013984D02*
X10791610Y-10004460D01*
X10791610Y-10004460D02*
X10782086Y-9985412D01*
X10782086Y-9985412D02*
X10782086Y-9813984D01*
X11039229Y-10013984D02*
X11039229Y-9813984D01*
X11039229Y-9813984D02*
X11105896Y-9956841D01*
X11105896Y-9956841D02*
X11172563Y-9813984D01*
X11172563Y-9813984D02*
X11172563Y-10013984D01*
X11353515Y-10013984D02*
X11353515Y-9909222D01*
X11353515Y-9909222D02*
X11343991Y-9890174D01*
X11343991Y-9890174D02*
X11324943Y-9880650D01*
X11324943Y-9880650D02*
X11286848Y-9880650D01*
X11286848Y-9880650D02*
X11267801Y-9890174D01*
X11353515Y-10004460D02*
X11334467Y-10013984D01*
X11334467Y-10013984D02*
X11286848Y-10013984D01*
X11286848Y-10013984D02*
X11267801Y-10004460D01*
X11267801Y-10004460D02*
X11258277Y-9985412D01*
X11258277Y-9985412D02*
X11258277Y-9966365D01*
X11258277Y-9966365D02*
X11267801Y-9947317D01*
X11267801Y-9947317D02*
X11286848Y-9937793D01*
X11286848Y-9937793D02*
X11334467Y-9937793D01*
X11334467Y-9937793D02*
X11353515Y-9928270D01*
X11448753Y-9880650D02*
X11448753Y-10080650D01*
X11448753Y-9890174D02*
X11467801Y-9880650D01*
X11467801Y-9880650D02*
X11505896Y-9880650D01*
X11505896Y-9880650D02*
X11524943Y-9890174D01*
X11524943Y-9890174D02*
X11534467Y-9899698D01*
X11534467Y-9899698D02*
X11543991Y-9918746D01*
X11543991Y-9918746D02*
X11543991Y-9975889D01*
X11543991Y-9975889D02*
X11534467Y-9994936D01*
X11534467Y-9994936D02*
X11524943Y-10004460D01*
X11524943Y-10004460D02*
X11505896Y-10013984D01*
X11505896Y-10013984D02*
X11467801Y-10013984D01*
X11467801Y-10013984D02*
X11448753Y-10004460D01*
X11629705Y-9994936D02*
X11639229Y-10004460D01*
X11639229Y-10004460D02*
X11629705Y-10013984D01*
X11629705Y-10013984D02*
X11620182Y-10004460D01*
X11620182Y-10004460D02*
X11629705Y-9994936D01*
X11629705Y-9994936D02*
X11629705Y-10013984D01*
X11629705Y-9890174D02*
X11639229Y-9899698D01*
X11639229Y-9899698D02*
X11629705Y-9909222D01*
X11629705Y-9909222D02*
X11620182Y-9899698D01*
X11620182Y-9899698D02*
X11629705Y-9890174D01*
X11629705Y-9890174D02*
X11629705Y-9909222D01*
D12*
X9967500Y-10327500D02*
X9997500Y-10357500D01*
X9997500Y-10327500D02*
X9967500Y-10357500D01*
D11*
X10296372Y-10233984D02*
X10315420Y-10233984D01*
X10315420Y-10233984D02*
X10334467Y-10243508D01*
X10334467Y-10243508D02*
X10343991Y-10253031D01*
X10343991Y-10253031D02*
X10353515Y-10272079D01*
X10353515Y-10272079D02*
X10363039Y-10310174D01*
X10363039Y-10310174D02*
X10363039Y-10357793D01*
X10363039Y-10357793D02*
X10353515Y-10395889D01*
X10353515Y-10395889D02*
X10343991Y-10414936D01*
X10343991Y-10414936D02*
X10334467Y-10424460D01*
X10334467Y-10424460D02*
X10315420Y-10433984D01*
X10315420Y-10433984D02*
X10296372Y-10433984D01*
X10296372Y-10433984D02*
X10277324Y-10424460D01*
X10277324Y-10424460D02*
X10267801Y-10414936D01*
X10267801Y-10414936D02*
X10258277Y-10395889D01*
X10258277Y-10395889D02*
X10248753Y-10357793D01*
X10248753Y-10357793D02*
X10248753Y-10310174D01*
X10248753Y-10310174D02*
X10258277Y-10272079D01*
X10258277Y-10272079D02*
X10267801Y-10253031D01*
X10267801Y-10253031D02*
X10277324Y-10243508D01*
X10277324Y-10243508D02*
X10296372Y-10233984D01*
X10448753Y-10414936D02*
X10458277Y-10424460D01*
X10458277Y-10424460D02*
X10448753Y-10433984D01*
X10448753Y-10433984D02*
X10439229Y-10424460D01*
X10439229Y-10424460D02*
X10448753Y-10414936D01*
X10448753Y-10414936D02*
X10448753Y-10433984D01*
X10524944Y-10233984D02*
X10648753Y-10233984D01*
X10648753Y-10233984D02*
X10582086Y-10310174D01*
X10582086Y-10310174D02*
X10610658Y-10310174D01*
X10610658Y-10310174D02*
X10629705Y-10319698D01*
X10629705Y-10319698D02*
X10639229Y-10329222D01*
X10639229Y-10329222D02*
X10648753Y-10348270D01*
X10648753Y-10348270D02*
X10648753Y-10395889D01*
X10648753Y-10395889D02*
X10639229Y-10414936D01*
X10639229Y-10414936D02*
X10629705Y-10424460D01*
X10629705Y-10424460D02*
X10610658Y-10433984D01*
X10610658Y-10433984D02*
X10553515Y-10433984D01*
X10553515Y-10433984D02*
X10534467Y-10424460D01*
X10534467Y-10424460D02*
X10524944Y-10414936D01*
X10772563Y-10233984D02*
X10791610Y-10233984D01*
X10791610Y-10233984D02*
X10810658Y-10243508D01*
X10810658Y-10243508D02*
X10820182Y-10253031D01*
X10820182Y-10253031D02*
X10829705Y-10272079D01*
X10829705Y-10272079D02*
X10839229Y-10310174D01*
X10839229Y-10310174D02*
X10839229Y-10357793D01*
X10839229Y-10357793D02*
X10829705Y-10395889D01*
X10829705Y-10395889D02*
X10820182Y-10414936D01*
X10820182Y-10414936D02*
X10810658Y-10424460D01*
X10810658Y-10424460D02*
X10791610Y-10433984D01*
X10791610Y-10433984D02*
X10772563Y-10433984D01*
X10772563Y-10433984D02*
X10753515Y-10424460D01*
X10753515Y-10424460D02*
X10743991Y-10414936D01*
X10743991Y-10414936D02*
X10734467Y-10395889D01*
X10734467Y-10395889D02*
X10724944Y-10357793D01*
X10724944Y-10357793D02*
X10724944Y-10310174D01*
X10724944Y-10310174D02*
X10734467Y-10272079D01*
X10734467Y-10272079D02*
X10743991Y-10253031D01*
X10743991Y-10253031D02*
X10753515Y-10243508D01*
X10753515Y-10243508D02*
X10772563Y-10233984D01*
X10963039Y-10233984D02*
X10982086Y-10233984D01*
X10982086Y-10233984D02*
X11001134Y-10243508D01*
X11001134Y-10243508D02*
X11010658Y-10253031D01*
X11010658Y-10253031D02*
X11020182Y-10272079D01*
X11020182Y-10272079D02*
X11029705Y-10310174D01*
X11029705Y-10310174D02*
X11029705Y-10357793D01*
X11029705Y-10357793D02*
X11020182Y-10395889D01*
X11020182Y-10395889D02*
X11010658Y-10414936D01*
X11010658Y-10414936D02*
X11001134Y-10424460D01*
X11001134Y-10424460D02*
X10982086Y-10433984D01*
X10982086Y-10433984D02*
X10963039Y-10433984D01*
X10963039Y-10433984D02*
X10943991Y-10424460D01*
X10943991Y-10424460D02*
X10934467Y-10414936D01*
X10934467Y-10414936D02*
X10924944Y-10395889D01*
X10924944Y-10395889D02*
X10915420Y-10357793D01*
X10915420Y-10357793D02*
X10915420Y-10310174D01*
X10915420Y-10310174D02*
X10924944Y-10272079D01*
X10924944Y-10272079D02*
X10934467Y-10253031D01*
X10934467Y-10253031D02*
X10943991Y-10243508D01*
X10943991Y-10243508D02*
X10963039Y-10233984D01*
X11115420Y-10433984D02*
X11115420Y-10300650D01*
X11115420Y-10319698D02*
X11124944Y-10310174D01*
X11124944Y-10310174D02*
X11143991Y-10300650D01*
X11143991Y-10300650D02*
X11172563Y-10300650D01*
X11172563Y-10300650D02*
X11191610Y-10310174D01*
X11191610Y-10310174D02*
X11201134Y-10329222D01*
X11201134Y-10329222D02*
X11201134Y-10433984D01*
X11201134Y-10329222D02*
X11210658Y-10310174D01*
X11210658Y-10310174D02*
X11229705Y-10300650D01*
X11229705Y-10300650D02*
X11258277Y-10300650D01*
X11258277Y-10300650D02*
X11277324Y-10310174D01*
X11277324Y-10310174D02*
X11286848Y-10329222D01*
X11286848Y-10329222D02*
X11286848Y-10433984D01*
X11382086Y-10433984D02*
X11382086Y-10300650D01*
X11382086Y-10319698D02*
X11391610Y-10310174D01*
X11391610Y-10310174D02*
X11410658Y-10300650D01*
X11410658Y-10300650D02*
X11439229Y-10300650D01*
X11439229Y-10300650D02*
X11458277Y-10310174D01*
X11458277Y-10310174D02*
X11467801Y-10329222D01*
X11467801Y-10329222D02*
X11467801Y-10433984D01*
X11467801Y-10329222D02*
X11477324Y-10310174D01*
X11477324Y-10310174D02*
X11496372Y-10300650D01*
X11496372Y-10300650D02*
X11524943Y-10300650D01*
X11524943Y-10300650D02*
X11543991Y-10310174D01*
X11543991Y-10310174D02*
X11553515Y-10329222D01*
X11553515Y-10329222D02*
X11553515Y-10433984D01*
X11943991Y-10224460D02*
X11772563Y-10481603D01*
X12201134Y-10233984D02*
X12220182Y-10233984D01*
X12220182Y-10233984D02*
X12239229Y-10243508D01*
X12239229Y-10243508D02*
X12248753Y-10253031D01*
X12248753Y-10253031D02*
X12258277Y-10272079D01*
X12258277Y-10272079D02*
X12267801Y-10310174D01*
X12267801Y-10310174D02*
X12267801Y-10357793D01*
X12267801Y-10357793D02*
X12258277Y-10395889D01*
X12258277Y-10395889D02*
X12248753Y-10414936D01*
X12248753Y-10414936D02*
X12239229Y-10424460D01*
X12239229Y-10424460D02*
X12220182Y-10433984D01*
X12220182Y-10433984D02*
X12201134Y-10433984D01*
X12201134Y-10433984D02*
X12182086Y-10424460D01*
X12182086Y-10424460D02*
X12172563Y-10414936D01*
X12172563Y-10414936D02*
X12163039Y-10395889D01*
X12163039Y-10395889D02*
X12153515Y-10357793D01*
X12153515Y-10357793D02*
X12153515Y-10310174D01*
X12153515Y-10310174D02*
X12163039Y-10272079D01*
X12163039Y-10272079D02*
X12172563Y-10253031D01*
X12172563Y-10253031D02*
X12182086Y-10243508D01*
X12182086Y-10243508D02*
X12201134Y-10233984D01*
X12353515Y-10414936D02*
X12363039Y-10424460D01*
X12363039Y-10424460D02*
X12353515Y-10433984D01*
X12353515Y-10433984D02*
X12343991Y-10424460D01*
X12343991Y-10424460D02*
X12353515Y-10414936D01*
X12353515Y-10414936D02*
X12353515Y-10433984D01*
X12486848Y-10233984D02*
X12505896Y-10233984D01*
X12505896Y-10233984D02*
X12524944Y-10243508D01*
X12524944Y-10243508D02*
X12534467Y-10253031D01*
X12534467Y-10253031D02*
X12543991Y-10272079D01*
X12543991Y-10272079D02*
X12553515Y-10310174D01*
X12553515Y-10310174D02*
X12553515Y-10357793D01*
X12553515Y-10357793D02*
X12543991Y-10395889D01*
X12543991Y-10395889D02*
X12534467Y-10414936D01*
X12534467Y-10414936D02*
X12524944Y-10424460D01*
X12524944Y-10424460D02*
X12505896Y-10433984D01*
X12505896Y-10433984D02*
X12486848Y-10433984D01*
X12486848Y-10433984D02*
X12467801Y-10424460D01*
X12467801Y-10424460D02*
X12458277Y-10414936D01*
X12458277Y-10414936D02*
X12448753Y-10395889D01*
X12448753Y-10395889D02*
X12439229Y-10357793D01*
X12439229Y-10357793D02*
X12439229Y-10310174D01*
X12439229Y-10310174D02*
X12448753Y-10272079D01*
X12448753Y-10272079D02*
X12458277Y-10253031D01*
X12458277Y-10253031D02*
X12467801Y-10243508D01*
X12467801Y-10243508D02*
X12486848Y-10233984D01*
X12743991Y-10433984D02*
X12629706Y-10433984D01*
X12686848Y-10433984D02*
X12686848Y-10233984D01*
X12686848Y-10233984D02*
X12667801Y-10262555D01*
X12667801Y-10262555D02*
X12648753Y-10281603D01*
X12648753Y-10281603D02*
X12629706Y-10291127D01*
X12934467Y-10433984D02*
X12820182Y-10433984D01*
X12877325Y-10433984D02*
X12877325Y-10233984D01*
X12877325Y-10233984D02*
X12858277Y-10262555D01*
X12858277Y-10262555D02*
X12839229Y-10281603D01*
X12839229Y-10281603D02*
X12820182Y-10291127D01*
X13048753Y-10319698D02*
X13029706Y-10310174D01*
X13029706Y-10310174D02*
X13020182Y-10300650D01*
X13020182Y-10300650D02*
X13010658Y-10281603D01*
X13010658Y-10281603D02*
X13010658Y-10272079D01*
X13010658Y-10272079D02*
X13020182Y-10253031D01*
X13020182Y-10253031D02*
X13029706Y-10243508D01*
X13029706Y-10243508D02*
X13048753Y-10233984D01*
X13048753Y-10233984D02*
X13086848Y-10233984D01*
X13086848Y-10233984D02*
X13105896Y-10243508D01*
X13105896Y-10243508D02*
X13115420Y-10253031D01*
X13115420Y-10253031D02*
X13124944Y-10272079D01*
X13124944Y-10272079D02*
X13124944Y-10281603D01*
X13124944Y-10281603D02*
X13115420Y-10300650D01*
X13115420Y-10300650D02*
X13105896Y-10310174D01*
X13105896Y-10310174D02*
X13086848Y-10319698D01*
X13086848Y-10319698D02*
X13048753Y-10319698D01*
X13048753Y-10319698D02*
X13029706Y-10329222D01*
X13029706Y-10329222D02*
X13020182Y-10338746D01*
X13020182Y-10338746D02*
X13010658Y-10357793D01*
X13010658Y-10357793D02*
X13010658Y-10395889D01*
X13010658Y-10395889D02*
X13020182Y-10414936D01*
X13020182Y-10414936D02*
X13029706Y-10424460D01*
X13029706Y-10424460D02*
X13048753Y-10433984D01*
X13048753Y-10433984D02*
X13086848Y-10433984D01*
X13086848Y-10433984D02*
X13105896Y-10424460D01*
X13105896Y-10424460D02*
X13115420Y-10414936D01*
X13115420Y-10414936D02*
X13124944Y-10395889D01*
X13124944Y-10395889D02*
X13124944Y-10357793D01*
X13124944Y-10357793D02*
X13115420Y-10338746D01*
X13115420Y-10338746D02*
X13105896Y-10329222D01*
X13105896Y-10329222D02*
X13086848Y-10319698D01*
X13201134Y-10233984D02*
X13201134Y-10272079D01*
X13277325Y-10233984D02*
X13277325Y-10272079D01*
X13572563Y-10510174D02*
X13563039Y-10500650D01*
X13563039Y-10500650D02*
X13543991Y-10472079D01*
X13543991Y-10472079D02*
X13534468Y-10453031D01*
X13534468Y-10453031D02*
X13524944Y-10424460D01*
X13524944Y-10424460D02*
X13515420Y-10376841D01*
X13515420Y-10376841D02*
X13515420Y-10338746D01*
X13515420Y-10338746D02*
X13524944Y-10291127D01*
X13524944Y-10291127D02*
X13534468Y-10262555D01*
X13534468Y-10262555D02*
X13543991Y-10243508D01*
X13543991Y-10243508D02*
X13563039Y-10214936D01*
X13563039Y-10214936D02*
X13572563Y-10205412D01*
X13753515Y-10433984D02*
X13639229Y-10433984D01*
X13696372Y-10433984D02*
X13696372Y-10233984D01*
X13696372Y-10233984D02*
X13677325Y-10262555D01*
X13677325Y-10262555D02*
X13658277Y-10281603D01*
X13658277Y-10281603D02*
X13639229Y-10291127D01*
X13924944Y-10233984D02*
X13886848Y-10233984D01*
X13886848Y-10233984D02*
X13867801Y-10243508D01*
X13867801Y-10243508D02*
X13858277Y-10253031D01*
X13858277Y-10253031D02*
X13839229Y-10281603D01*
X13839229Y-10281603D02*
X13829706Y-10319698D01*
X13829706Y-10319698D02*
X13829706Y-10395889D01*
X13829706Y-10395889D02*
X13839229Y-10414936D01*
X13839229Y-10414936D02*
X13848753Y-10424460D01*
X13848753Y-10424460D02*
X13867801Y-10433984D01*
X13867801Y-10433984D02*
X13905896Y-10433984D01*
X13905896Y-10433984D02*
X13924944Y-10424460D01*
X13924944Y-10424460D02*
X13934468Y-10414936D01*
X13934468Y-10414936D02*
X13943991Y-10395889D01*
X13943991Y-10395889D02*
X13943991Y-10348270D01*
X13943991Y-10348270D02*
X13934468Y-10329222D01*
X13934468Y-10329222D02*
X13924944Y-10319698D01*
X13924944Y-10319698D02*
X13905896Y-10310174D01*
X13905896Y-10310174D02*
X13867801Y-10310174D01*
X13867801Y-10310174D02*
X13848753Y-10319698D01*
X13848753Y-10319698D02*
X13839229Y-10329222D01*
X13839229Y-10329222D02*
X13829706Y-10348270D01*
X14020182Y-10253031D02*
X14029706Y-10243508D01*
X14029706Y-10243508D02*
X14048753Y-10233984D01*
X14048753Y-10233984D02*
X14096372Y-10233984D01*
X14096372Y-10233984D02*
X14115420Y-10243508D01*
X14115420Y-10243508D02*
X14124944Y-10253031D01*
X14124944Y-10253031D02*
X14134468Y-10272079D01*
X14134468Y-10272079D02*
X14134468Y-10291127D01*
X14134468Y-10291127D02*
X14124944Y-10319698D01*
X14124944Y-10319698D02*
X14010658Y-10433984D01*
X14010658Y-10433984D02*
X14134468Y-10433984D01*
X14372563Y-10433984D02*
X14372563Y-10233984D01*
X14458277Y-10433984D02*
X14458277Y-10329222D01*
X14458277Y-10329222D02*
X14448753Y-10310174D01*
X14448753Y-10310174D02*
X14429706Y-10300650D01*
X14429706Y-10300650D02*
X14401134Y-10300650D01*
X14401134Y-10300650D02*
X14382087Y-10310174D01*
X14382087Y-10310174D02*
X14372563Y-10319698D01*
X14582087Y-10433984D02*
X14563039Y-10424460D01*
X14563039Y-10424460D02*
X14553515Y-10414936D01*
X14553515Y-10414936D02*
X14543991Y-10395889D01*
X14543991Y-10395889D02*
X14543991Y-10338746D01*
X14543991Y-10338746D02*
X14553515Y-10319698D01*
X14553515Y-10319698D02*
X14563039Y-10310174D01*
X14563039Y-10310174D02*
X14582087Y-10300650D01*
X14582087Y-10300650D02*
X14610658Y-10300650D01*
X14610658Y-10300650D02*
X14629706Y-10310174D01*
X14629706Y-10310174D02*
X14639230Y-10319698D01*
X14639230Y-10319698D02*
X14648753Y-10338746D01*
X14648753Y-10338746D02*
X14648753Y-10395889D01*
X14648753Y-10395889D02*
X14639230Y-10414936D01*
X14639230Y-10414936D02*
X14629706Y-10424460D01*
X14629706Y-10424460D02*
X14610658Y-10433984D01*
X14610658Y-10433984D02*
X14582087Y-10433984D01*
X14763039Y-10433984D02*
X14743991Y-10424460D01*
X14743991Y-10424460D02*
X14734468Y-10405412D01*
X14734468Y-10405412D02*
X14734468Y-10233984D01*
X14915420Y-10424460D02*
X14896372Y-10433984D01*
X14896372Y-10433984D02*
X14858277Y-10433984D01*
X14858277Y-10433984D02*
X14839230Y-10424460D01*
X14839230Y-10424460D02*
X14829706Y-10405412D01*
X14829706Y-10405412D02*
X14829706Y-10329222D01*
X14829706Y-10329222D02*
X14839230Y-10310174D01*
X14839230Y-10310174D02*
X14858277Y-10300650D01*
X14858277Y-10300650D02*
X14896372Y-10300650D01*
X14896372Y-10300650D02*
X14915420Y-10310174D01*
X14915420Y-10310174D02*
X14924944Y-10329222D01*
X14924944Y-10329222D02*
X14924944Y-10348270D01*
X14924944Y-10348270D02*
X14829706Y-10367317D01*
X15001134Y-10424460D02*
X15020182Y-10433984D01*
X15020182Y-10433984D02*
X15058277Y-10433984D01*
X15058277Y-10433984D02*
X15077325Y-10424460D01*
X15077325Y-10424460D02*
X15086849Y-10405412D01*
X15086849Y-10405412D02*
X15086849Y-10395889D01*
X15086849Y-10395889D02*
X15077325Y-10376841D01*
X15077325Y-10376841D02*
X15058277Y-10367317D01*
X15058277Y-10367317D02*
X15029706Y-10367317D01*
X15029706Y-10367317D02*
X15010658Y-10357793D01*
X15010658Y-10357793D02*
X15001134Y-10338746D01*
X15001134Y-10338746D02*
X15001134Y-10329222D01*
X15001134Y-10329222D02*
X15010658Y-10310174D01*
X15010658Y-10310174D02*
X15029706Y-10300650D01*
X15029706Y-10300650D02*
X15058277Y-10300650D01*
X15058277Y-10300650D02*
X15077325Y-10310174D01*
X15153515Y-10510174D02*
X15163039Y-10500650D01*
X15163039Y-10500650D02*
X15182087Y-10472079D01*
X15182087Y-10472079D02*
X15191611Y-10453031D01*
X15191611Y-10453031D02*
X15201134Y-10424460D01*
X15201134Y-10424460D02*
X15210658Y-10376841D01*
X15210658Y-10376841D02*
X15210658Y-10338746D01*
X15210658Y-10338746D02*
X15201134Y-10291127D01*
X15201134Y-10291127D02*
X15191611Y-10262555D01*
X15191611Y-10262555D02*
X15182087Y-10243508D01*
X15182087Y-10243508D02*
X15163039Y-10214936D01*
X15163039Y-10214936D02*
X15153515Y-10205412D01*
D12*
X9997500Y-10606500D02*
G75*
G02*
X9967500Y-10606500I-15000J0D01*
G01*
X9967500Y-10606500D02*
G75*
G02*
X9997500Y-10606500I15000J0D01*
G01*
D11*
X10296372Y-10497984D02*
X10315420Y-10497984D01*
X10315420Y-10497984D02*
X10334467Y-10507508D01*
X10334467Y-10507508D02*
X10343991Y-10517031D01*
X10343991Y-10517031D02*
X10353515Y-10536079D01*
X10353515Y-10536079D02*
X10363039Y-10574174D01*
X10363039Y-10574174D02*
X10363039Y-10621793D01*
X10363039Y-10621793D02*
X10353515Y-10659889D01*
X10353515Y-10659889D02*
X10343991Y-10678936D01*
X10343991Y-10678936D02*
X10334467Y-10688460D01*
X10334467Y-10688460D02*
X10315420Y-10697984D01*
X10315420Y-10697984D02*
X10296372Y-10697984D01*
X10296372Y-10697984D02*
X10277324Y-10688460D01*
X10277324Y-10688460D02*
X10267801Y-10678936D01*
X10267801Y-10678936D02*
X10258277Y-10659889D01*
X10258277Y-10659889D02*
X10248753Y-10621793D01*
X10248753Y-10621793D02*
X10248753Y-10574174D01*
X10248753Y-10574174D02*
X10258277Y-10536079D01*
X10258277Y-10536079D02*
X10267801Y-10517031D01*
X10267801Y-10517031D02*
X10277324Y-10507508D01*
X10277324Y-10507508D02*
X10296372Y-10497984D01*
X10448753Y-10678936D02*
X10458277Y-10688460D01*
X10458277Y-10688460D02*
X10448753Y-10697984D01*
X10448753Y-10697984D02*
X10439229Y-10688460D01*
X10439229Y-10688460D02*
X10448753Y-10678936D01*
X10448753Y-10678936D02*
X10448753Y-10697984D01*
X10524944Y-10497984D02*
X10648753Y-10497984D01*
X10648753Y-10497984D02*
X10582086Y-10574174D01*
X10582086Y-10574174D02*
X10610658Y-10574174D01*
X10610658Y-10574174D02*
X10629705Y-10583698D01*
X10629705Y-10583698D02*
X10639229Y-10593222D01*
X10639229Y-10593222D02*
X10648753Y-10612270D01*
X10648753Y-10612270D02*
X10648753Y-10659889D01*
X10648753Y-10659889D02*
X10639229Y-10678936D01*
X10639229Y-10678936D02*
X10629705Y-10688460D01*
X10629705Y-10688460D02*
X10610658Y-10697984D01*
X10610658Y-10697984D02*
X10553515Y-10697984D01*
X10553515Y-10697984D02*
X10534467Y-10688460D01*
X10534467Y-10688460D02*
X10524944Y-10678936D01*
X10772563Y-10497984D02*
X10791610Y-10497984D01*
X10791610Y-10497984D02*
X10810658Y-10507508D01*
X10810658Y-10507508D02*
X10820182Y-10517031D01*
X10820182Y-10517031D02*
X10829705Y-10536079D01*
X10829705Y-10536079D02*
X10839229Y-10574174D01*
X10839229Y-10574174D02*
X10839229Y-10621793D01*
X10839229Y-10621793D02*
X10829705Y-10659889D01*
X10829705Y-10659889D02*
X10820182Y-10678936D01*
X10820182Y-10678936D02*
X10810658Y-10688460D01*
X10810658Y-10688460D02*
X10791610Y-10697984D01*
X10791610Y-10697984D02*
X10772563Y-10697984D01*
X10772563Y-10697984D02*
X10753515Y-10688460D01*
X10753515Y-10688460D02*
X10743991Y-10678936D01*
X10743991Y-10678936D02*
X10734467Y-10659889D01*
X10734467Y-10659889D02*
X10724944Y-10621793D01*
X10724944Y-10621793D02*
X10724944Y-10574174D01*
X10724944Y-10574174D02*
X10734467Y-10536079D01*
X10734467Y-10536079D02*
X10743991Y-10517031D01*
X10743991Y-10517031D02*
X10753515Y-10507508D01*
X10753515Y-10507508D02*
X10772563Y-10497984D01*
X10963039Y-10497984D02*
X10982086Y-10497984D01*
X10982086Y-10497984D02*
X11001134Y-10507508D01*
X11001134Y-10507508D02*
X11010658Y-10517031D01*
X11010658Y-10517031D02*
X11020182Y-10536079D01*
X11020182Y-10536079D02*
X11029705Y-10574174D01*
X11029705Y-10574174D02*
X11029705Y-10621793D01*
X11029705Y-10621793D02*
X11020182Y-10659889D01*
X11020182Y-10659889D02*
X11010658Y-10678936D01*
X11010658Y-10678936D02*
X11001134Y-10688460D01*
X11001134Y-10688460D02*
X10982086Y-10697984D01*
X10982086Y-10697984D02*
X10963039Y-10697984D01*
X10963039Y-10697984D02*
X10943991Y-10688460D01*
X10943991Y-10688460D02*
X10934467Y-10678936D01*
X10934467Y-10678936D02*
X10924944Y-10659889D01*
X10924944Y-10659889D02*
X10915420Y-10621793D01*
X10915420Y-10621793D02*
X10915420Y-10574174D01*
X10915420Y-10574174D02*
X10924944Y-10536079D01*
X10924944Y-10536079D02*
X10934467Y-10517031D01*
X10934467Y-10517031D02*
X10943991Y-10507508D01*
X10943991Y-10507508D02*
X10963039Y-10497984D01*
X11115420Y-10697984D02*
X11115420Y-10564650D01*
X11115420Y-10583698D02*
X11124944Y-10574174D01*
X11124944Y-10574174D02*
X11143991Y-10564650D01*
X11143991Y-10564650D02*
X11172563Y-10564650D01*
X11172563Y-10564650D02*
X11191610Y-10574174D01*
X11191610Y-10574174D02*
X11201134Y-10593222D01*
X11201134Y-10593222D02*
X11201134Y-10697984D01*
X11201134Y-10593222D02*
X11210658Y-10574174D01*
X11210658Y-10574174D02*
X11229705Y-10564650D01*
X11229705Y-10564650D02*
X11258277Y-10564650D01*
X11258277Y-10564650D02*
X11277324Y-10574174D01*
X11277324Y-10574174D02*
X11286848Y-10593222D01*
X11286848Y-10593222D02*
X11286848Y-10697984D01*
X11382086Y-10697984D02*
X11382086Y-10564650D01*
X11382086Y-10583698D02*
X11391610Y-10574174D01*
X11391610Y-10574174D02*
X11410658Y-10564650D01*
X11410658Y-10564650D02*
X11439229Y-10564650D01*
X11439229Y-10564650D02*
X11458277Y-10574174D01*
X11458277Y-10574174D02*
X11467801Y-10593222D01*
X11467801Y-10593222D02*
X11467801Y-10697984D01*
X11467801Y-10593222D02*
X11477324Y-10574174D01*
X11477324Y-10574174D02*
X11496372Y-10564650D01*
X11496372Y-10564650D02*
X11524943Y-10564650D01*
X11524943Y-10564650D02*
X11543991Y-10574174D01*
X11543991Y-10574174D02*
X11553515Y-10593222D01*
X11553515Y-10593222D02*
X11553515Y-10697984D01*
X11943991Y-10488460D02*
X11772563Y-10745603D01*
X12201134Y-10497984D02*
X12220182Y-10497984D01*
X12220182Y-10497984D02*
X12239229Y-10507508D01*
X12239229Y-10507508D02*
X12248753Y-10517031D01*
X12248753Y-10517031D02*
X12258277Y-10536079D01*
X12258277Y-10536079D02*
X12267801Y-10574174D01*
X12267801Y-10574174D02*
X12267801Y-10621793D01*
X12267801Y-10621793D02*
X12258277Y-10659889D01*
X12258277Y-10659889D02*
X12248753Y-10678936D01*
X12248753Y-10678936D02*
X12239229Y-10688460D01*
X12239229Y-10688460D02*
X12220182Y-10697984D01*
X12220182Y-10697984D02*
X12201134Y-10697984D01*
X12201134Y-10697984D02*
X12182086Y-10688460D01*
X12182086Y-10688460D02*
X12172563Y-10678936D01*
X12172563Y-10678936D02*
X12163039Y-10659889D01*
X12163039Y-10659889D02*
X12153515Y-10621793D01*
X12153515Y-10621793D02*
X12153515Y-10574174D01*
X12153515Y-10574174D02*
X12163039Y-10536079D01*
X12163039Y-10536079D02*
X12172563Y-10517031D01*
X12172563Y-10517031D02*
X12182086Y-10507508D01*
X12182086Y-10507508D02*
X12201134Y-10497984D01*
X12353515Y-10678936D02*
X12363039Y-10688460D01*
X12363039Y-10688460D02*
X12353515Y-10697984D01*
X12353515Y-10697984D02*
X12343991Y-10688460D01*
X12343991Y-10688460D02*
X12353515Y-10678936D01*
X12353515Y-10678936D02*
X12353515Y-10697984D01*
X12486848Y-10497984D02*
X12505896Y-10497984D01*
X12505896Y-10497984D02*
X12524944Y-10507508D01*
X12524944Y-10507508D02*
X12534467Y-10517031D01*
X12534467Y-10517031D02*
X12543991Y-10536079D01*
X12543991Y-10536079D02*
X12553515Y-10574174D01*
X12553515Y-10574174D02*
X12553515Y-10621793D01*
X12553515Y-10621793D02*
X12543991Y-10659889D01*
X12543991Y-10659889D02*
X12534467Y-10678936D01*
X12534467Y-10678936D02*
X12524944Y-10688460D01*
X12524944Y-10688460D02*
X12505896Y-10697984D01*
X12505896Y-10697984D02*
X12486848Y-10697984D01*
X12486848Y-10697984D02*
X12467801Y-10688460D01*
X12467801Y-10688460D02*
X12458277Y-10678936D01*
X12458277Y-10678936D02*
X12448753Y-10659889D01*
X12448753Y-10659889D02*
X12439229Y-10621793D01*
X12439229Y-10621793D02*
X12439229Y-10574174D01*
X12439229Y-10574174D02*
X12448753Y-10536079D01*
X12448753Y-10536079D02*
X12458277Y-10517031D01*
X12458277Y-10517031D02*
X12467801Y-10507508D01*
X12467801Y-10507508D02*
X12486848Y-10497984D01*
X12743991Y-10697984D02*
X12629706Y-10697984D01*
X12686848Y-10697984D02*
X12686848Y-10497984D01*
X12686848Y-10497984D02*
X12667801Y-10526555D01*
X12667801Y-10526555D02*
X12648753Y-10545603D01*
X12648753Y-10545603D02*
X12629706Y-10555127D01*
X12934467Y-10697984D02*
X12820182Y-10697984D01*
X12877325Y-10697984D02*
X12877325Y-10497984D01*
X12877325Y-10497984D02*
X12858277Y-10526555D01*
X12858277Y-10526555D02*
X12839229Y-10545603D01*
X12839229Y-10545603D02*
X12820182Y-10555127D01*
X13048753Y-10583698D02*
X13029706Y-10574174D01*
X13029706Y-10574174D02*
X13020182Y-10564650D01*
X13020182Y-10564650D02*
X13010658Y-10545603D01*
X13010658Y-10545603D02*
X13010658Y-10536079D01*
X13010658Y-10536079D02*
X13020182Y-10517031D01*
X13020182Y-10517031D02*
X13029706Y-10507508D01*
X13029706Y-10507508D02*
X13048753Y-10497984D01*
X13048753Y-10497984D02*
X13086848Y-10497984D01*
X13086848Y-10497984D02*
X13105896Y-10507508D01*
X13105896Y-10507508D02*
X13115420Y-10517031D01*
X13115420Y-10517031D02*
X13124944Y-10536079D01*
X13124944Y-10536079D02*
X13124944Y-10545603D01*
X13124944Y-10545603D02*
X13115420Y-10564650D01*
X13115420Y-10564650D02*
X13105896Y-10574174D01*
X13105896Y-10574174D02*
X13086848Y-10583698D01*
X13086848Y-10583698D02*
X13048753Y-10583698D01*
X13048753Y-10583698D02*
X13029706Y-10593222D01*
X13029706Y-10593222D02*
X13020182Y-10602746D01*
X13020182Y-10602746D02*
X13010658Y-10621793D01*
X13010658Y-10621793D02*
X13010658Y-10659889D01*
X13010658Y-10659889D02*
X13020182Y-10678936D01*
X13020182Y-10678936D02*
X13029706Y-10688460D01*
X13029706Y-10688460D02*
X13048753Y-10697984D01*
X13048753Y-10697984D02*
X13086848Y-10697984D01*
X13086848Y-10697984D02*
X13105896Y-10688460D01*
X13105896Y-10688460D02*
X13115420Y-10678936D01*
X13115420Y-10678936D02*
X13124944Y-10659889D01*
X13124944Y-10659889D02*
X13124944Y-10621793D01*
X13124944Y-10621793D02*
X13115420Y-10602746D01*
X13115420Y-10602746D02*
X13105896Y-10593222D01*
X13105896Y-10593222D02*
X13086848Y-10583698D01*
X13201134Y-10497984D02*
X13201134Y-10536079D01*
X13277325Y-10497984D02*
X13277325Y-10536079D01*
X13572563Y-10774174D02*
X13563039Y-10764650D01*
X13563039Y-10764650D02*
X13543991Y-10736079D01*
X13543991Y-10736079D02*
X13534468Y-10717031D01*
X13534468Y-10717031D02*
X13524944Y-10688460D01*
X13524944Y-10688460D02*
X13515420Y-10640841D01*
X13515420Y-10640841D02*
X13515420Y-10602746D01*
X13515420Y-10602746D02*
X13524944Y-10555127D01*
X13524944Y-10555127D02*
X13534468Y-10526555D01*
X13534468Y-10526555D02*
X13543991Y-10507508D01*
X13543991Y-10507508D02*
X13563039Y-10478936D01*
X13563039Y-10478936D02*
X13572563Y-10469412D01*
X13658277Y-10697984D02*
X13696372Y-10697984D01*
X13696372Y-10697984D02*
X13715420Y-10688460D01*
X13715420Y-10688460D02*
X13724944Y-10678936D01*
X13724944Y-10678936D02*
X13743991Y-10650365D01*
X13743991Y-10650365D02*
X13753515Y-10612270D01*
X13753515Y-10612270D02*
X13753515Y-10536079D01*
X13753515Y-10536079D02*
X13743991Y-10517031D01*
X13743991Y-10517031D02*
X13734468Y-10507508D01*
X13734468Y-10507508D02*
X13715420Y-10497984D01*
X13715420Y-10497984D02*
X13677325Y-10497984D01*
X13677325Y-10497984D02*
X13658277Y-10507508D01*
X13658277Y-10507508D02*
X13648753Y-10517031D01*
X13648753Y-10517031D02*
X13639229Y-10536079D01*
X13639229Y-10536079D02*
X13639229Y-10583698D01*
X13639229Y-10583698D02*
X13648753Y-10602746D01*
X13648753Y-10602746D02*
X13658277Y-10612270D01*
X13658277Y-10612270D02*
X13677325Y-10621793D01*
X13677325Y-10621793D02*
X13715420Y-10621793D01*
X13715420Y-10621793D02*
X13734468Y-10612270D01*
X13734468Y-10612270D02*
X13743991Y-10602746D01*
X13743991Y-10602746D02*
X13753515Y-10583698D01*
X13991610Y-10697984D02*
X13991610Y-10497984D01*
X14077325Y-10697984D02*
X14077325Y-10593222D01*
X14077325Y-10593222D02*
X14067801Y-10574174D01*
X14067801Y-10574174D02*
X14048753Y-10564650D01*
X14048753Y-10564650D02*
X14020182Y-10564650D01*
X14020182Y-10564650D02*
X14001134Y-10574174D01*
X14001134Y-10574174D02*
X13991610Y-10583698D01*
X14201134Y-10697984D02*
X14182087Y-10688460D01*
X14182087Y-10688460D02*
X14172563Y-10678936D01*
X14172563Y-10678936D02*
X14163039Y-10659889D01*
X14163039Y-10659889D02*
X14163039Y-10602746D01*
X14163039Y-10602746D02*
X14172563Y-10583698D01*
X14172563Y-10583698D02*
X14182087Y-10574174D01*
X14182087Y-10574174D02*
X14201134Y-10564650D01*
X14201134Y-10564650D02*
X14229706Y-10564650D01*
X14229706Y-10564650D02*
X14248753Y-10574174D01*
X14248753Y-10574174D02*
X14258277Y-10583698D01*
X14258277Y-10583698D02*
X14267801Y-10602746D01*
X14267801Y-10602746D02*
X14267801Y-10659889D01*
X14267801Y-10659889D02*
X14258277Y-10678936D01*
X14258277Y-10678936D02*
X14248753Y-10688460D01*
X14248753Y-10688460D02*
X14229706Y-10697984D01*
X14229706Y-10697984D02*
X14201134Y-10697984D01*
X14382087Y-10697984D02*
X14363039Y-10688460D01*
X14363039Y-10688460D02*
X14353515Y-10669412D01*
X14353515Y-10669412D02*
X14353515Y-10497984D01*
X14534468Y-10688460D02*
X14515420Y-10697984D01*
X14515420Y-10697984D02*
X14477325Y-10697984D01*
X14477325Y-10697984D02*
X14458277Y-10688460D01*
X14458277Y-10688460D02*
X14448753Y-10669412D01*
X14448753Y-10669412D02*
X14448753Y-10593222D01*
X14448753Y-10593222D02*
X14458277Y-10574174D01*
X14458277Y-10574174D02*
X14477325Y-10564650D01*
X14477325Y-10564650D02*
X14515420Y-10564650D01*
X14515420Y-10564650D02*
X14534468Y-10574174D01*
X14534468Y-10574174D02*
X14543991Y-10593222D01*
X14543991Y-10593222D02*
X14543991Y-10612270D01*
X14543991Y-10612270D02*
X14448753Y-10631317D01*
X14620182Y-10688460D02*
X14639230Y-10697984D01*
X14639230Y-10697984D02*
X14677325Y-10697984D01*
X14677325Y-10697984D02*
X14696372Y-10688460D01*
X14696372Y-10688460D02*
X14705896Y-10669412D01*
X14705896Y-10669412D02*
X14705896Y-10659889D01*
X14705896Y-10659889D02*
X14696372Y-10640841D01*
X14696372Y-10640841D02*
X14677325Y-10631317D01*
X14677325Y-10631317D02*
X14648753Y-10631317D01*
X14648753Y-10631317D02*
X14629706Y-10621793D01*
X14629706Y-10621793D02*
X14620182Y-10602746D01*
X14620182Y-10602746D02*
X14620182Y-10593222D01*
X14620182Y-10593222D02*
X14629706Y-10574174D01*
X14629706Y-10574174D02*
X14648753Y-10564650D01*
X14648753Y-10564650D02*
X14677325Y-10564650D01*
X14677325Y-10564650D02*
X14696372Y-10574174D01*
X14772563Y-10774174D02*
X14782087Y-10764650D01*
X14782087Y-10764650D02*
X14801134Y-10736079D01*
X14801134Y-10736079D02*
X14810658Y-10717031D01*
X14810658Y-10717031D02*
X14820182Y-10688460D01*
X14820182Y-10688460D02*
X14829706Y-10640841D01*
X14829706Y-10640841D02*
X14829706Y-10602746D01*
X14829706Y-10602746D02*
X14820182Y-10555127D01*
X14820182Y-10555127D02*
X14810658Y-10526555D01*
X14810658Y-10526555D02*
X14801134Y-10507508D01*
X14801134Y-10507508D02*
X14782087Y-10478936D01*
X14782087Y-10478936D02*
X14772563Y-10469412D01*
D12*
X9972500Y-10845500D02*
X9972500Y-10895500D01*
X9947500Y-10870500D02*
X9997500Y-10870500D01*
D11*
X10296372Y-10761984D02*
X10315420Y-10761984D01*
X10315420Y-10761984D02*
X10334467Y-10771508D01*
X10334467Y-10771508D02*
X10343991Y-10781031D01*
X10343991Y-10781031D02*
X10353515Y-10800079D01*
X10353515Y-10800079D02*
X10363039Y-10838174D01*
X10363039Y-10838174D02*
X10363039Y-10885793D01*
X10363039Y-10885793D02*
X10353515Y-10923889D01*
X10353515Y-10923889D02*
X10343991Y-10942936D01*
X10343991Y-10942936D02*
X10334467Y-10952460D01*
X10334467Y-10952460D02*
X10315420Y-10961984D01*
X10315420Y-10961984D02*
X10296372Y-10961984D01*
X10296372Y-10961984D02*
X10277324Y-10952460D01*
X10277324Y-10952460D02*
X10267801Y-10942936D01*
X10267801Y-10942936D02*
X10258277Y-10923889D01*
X10258277Y-10923889D02*
X10248753Y-10885793D01*
X10248753Y-10885793D02*
X10248753Y-10838174D01*
X10248753Y-10838174D02*
X10258277Y-10800079D01*
X10258277Y-10800079D02*
X10267801Y-10781031D01*
X10267801Y-10781031D02*
X10277324Y-10771508D01*
X10277324Y-10771508D02*
X10296372Y-10761984D01*
X10448753Y-10942936D02*
X10458277Y-10952460D01*
X10458277Y-10952460D02*
X10448753Y-10961984D01*
X10448753Y-10961984D02*
X10439229Y-10952460D01*
X10439229Y-10952460D02*
X10448753Y-10942936D01*
X10448753Y-10942936D02*
X10448753Y-10961984D01*
X10639229Y-10761984D02*
X10543991Y-10761984D01*
X10543991Y-10761984D02*
X10534467Y-10857222D01*
X10534467Y-10857222D02*
X10543991Y-10847698D01*
X10543991Y-10847698D02*
X10563039Y-10838174D01*
X10563039Y-10838174D02*
X10610658Y-10838174D01*
X10610658Y-10838174D02*
X10629705Y-10847698D01*
X10629705Y-10847698D02*
X10639229Y-10857222D01*
X10639229Y-10857222D02*
X10648753Y-10876270D01*
X10648753Y-10876270D02*
X10648753Y-10923889D01*
X10648753Y-10923889D02*
X10639229Y-10942936D01*
X10639229Y-10942936D02*
X10629705Y-10952460D01*
X10629705Y-10952460D02*
X10610658Y-10961984D01*
X10610658Y-10961984D02*
X10563039Y-10961984D01*
X10563039Y-10961984D02*
X10543991Y-10952460D01*
X10543991Y-10952460D02*
X10534467Y-10942936D01*
X10772563Y-10761984D02*
X10791610Y-10761984D01*
X10791610Y-10761984D02*
X10810658Y-10771508D01*
X10810658Y-10771508D02*
X10820182Y-10781031D01*
X10820182Y-10781031D02*
X10829705Y-10800079D01*
X10829705Y-10800079D02*
X10839229Y-10838174D01*
X10839229Y-10838174D02*
X10839229Y-10885793D01*
X10839229Y-10885793D02*
X10829705Y-10923889D01*
X10829705Y-10923889D02*
X10820182Y-10942936D01*
X10820182Y-10942936D02*
X10810658Y-10952460D01*
X10810658Y-10952460D02*
X10791610Y-10961984D01*
X10791610Y-10961984D02*
X10772563Y-10961984D01*
X10772563Y-10961984D02*
X10753515Y-10952460D01*
X10753515Y-10952460D02*
X10743991Y-10942936D01*
X10743991Y-10942936D02*
X10734467Y-10923889D01*
X10734467Y-10923889D02*
X10724944Y-10885793D01*
X10724944Y-10885793D02*
X10724944Y-10838174D01*
X10724944Y-10838174D02*
X10734467Y-10800079D01*
X10734467Y-10800079D02*
X10743991Y-10781031D01*
X10743991Y-10781031D02*
X10753515Y-10771508D01*
X10753515Y-10771508D02*
X10772563Y-10761984D01*
X10963039Y-10761984D02*
X10982086Y-10761984D01*
X10982086Y-10761984D02*
X11001134Y-10771508D01*
X11001134Y-10771508D02*
X11010658Y-10781031D01*
X11010658Y-10781031D02*
X11020182Y-10800079D01*
X11020182Y-10800079D02*
X11029705Y-10838174D01*
X11029705Y-10838174D02*
X11029705Y-10885793D01*
X11029705Y-10885793D02*
X11020182Y-10923889D01*
X11020182Y-10923889D02*
X11010658Y-10942936D01*
X11010658Y-10942936D02*
X11001134Y-10952460D01*
X11001134Y-10952460D02*
X10982086Y-10961984D01*
X10982086Y-10961984D02*
X10963039Y-10961984D01*
X10963039Y-10961984D02*
X10943991Y-10952460D01*
X10943991Y-10952460D02*
X10934467Y-10942936D01*
X10934467Y-10942936D02*
X10924944Y-10923889D01*
X10924944Y-10923889D02*
X10915420Y-10885793D01*
X10915420Y-10885793D02*
X10915420Y-10838174D01*
X10915420Y-10838174D02*
X10924944Y-10800079D01*
X10924944Y-10800079D02*
X10934467Y-10781031D01*
X10934467Y-10781031D02*
X10943991Y-10771508D01*
X10943991Y-10771508D02*
X10963039Y-10761984D01*
X11115420Y-10961984D02*
X11115420Y-10828650D01*
X11115420Y-10847698D02*
X11124944Y-10838174D01*
X11124944Y-10838174D02*
X11143991Y-10828650D01*
X11143991Y-10828650D02*
X11172563Y-10828650D01*
X11172563Y-10828650D02*
X11191610Y-10838174D01*
X11191610Y-10838174D02*
X11201134Y-10857222D01*
X11201134Y-10857222D02*
X11201134Y-10961984D01*
X11201134Y-10857222D02*
X11210658Y-10838174D01*
X11210658Y-10838174D02*
X11229705Y-10828650D01*
X11229705Y-10828650D02*
X11258277Y-10828650D01*
X11258277Y-10828650D02*
X11277324Y-10838174D01*
X11277324Y-10838174D02*
X11286848Y-10857222D01*
X11286848Y-10857222D02*
X11286848Y-10961984D01*
X11382086Y-10961984D02*
X11382086Y-10828650D01*
X11382086Y-10847698D02*
X11391610Y-10838174D01*
X11391610Y-10838174D02*
X11410658Y-10828650D01*
X11410658Y-10828650D02*
X11439229Y-10828650D01*
X11439229Y-10828650D02*
X11458277Y-10838174D01*
X11458277Y-10838174D02*
X11467801Y-10857222D01*
X11467801Y-10857222D02*
X11467801Y-10961984D01*
X11467801Y-10857222D02*
X11477324Y-10838174D01*
X11477324Y-10838174D02*
X11496372Y-10828650D01*
X11496372Y-10828650D02*
X11524943Y-10828650D01*
X11524943Y-10828650D02*
X11543991Y-10838174D01*
X11543991Y-10838174D02*
X11553515Y-10857222D01*
X11553515Y-10857222D02*
X11553515Y-10961984D01*
X11943991Y-10752460D02*
X11772563Y-11009603D01*
X12201134Y-10761984D02*
X12220182Y-10761984D01*
X12220182Y-10761984D02*
X12239229Y-10771508D01*
X12239229Y-10771508D02*
X12248753Y-10781031D01*
X12248753Y-10781031D02*
X12258277Y-10800079D01*
X12258277Y-10800079D02*
X12267801Y-10838174D01*
X12267801Y-10838174D02*
X12267801Y-10885793D01*
X12267801Y-10885793D02*
X12258277Y-10923889D01*
X12258277Y-10923889D02*
X12248753Y-10942936D01*
X12248753Y-10942936D02*
X12239229Y-10952460D01*
X12239229Y-10952460D02*
X12220182Y-10961984D01*
X12220182Y-10961984D02*
X12201134Y-10961984D01*
X12201134Y-10961984D02*
X12182086Y-10952460D01*
X12182086Y-10952460D02*
X12172563Y-10942936D01*
X12172563Y-10942936D02*
X12163039Y-10923889D01*
X12163039Y-10923889D02*
X12153515Y-10885793D01*
X12153515Y-10885793D02*
X12153515Y-10838174D01*
X12153515Y-10838174D02*
X12163039Y-10800079D01*
X12163039Y-10800079D02*
X12172563Y-10781031D01*
X12172563Y-10781031D02*
X12182086Y-10771508D01*
X12182086Y-10771508D02*
X12201134Y-10761984D01*
X12353515Y-10942936D02*
X12363039Y-10952460D01*
X12363039Y-10952460D02*
X12353515Y-10961984D01*
X12353515Y-10961984D02*
X12343991Y-10952460D01*
X12343991Y-10952460D02*
X12353515Y-10942936D01*
X12353515Y-10942936D02*
X12353515Y-10961984D01*
X12486848Y-10761984D02*
X12505896Y-10761984D01*
X12505896Y-10761984D02*
X12524944Y-10771508D01*
X12524944Y-10771508D02*
X12534467Y-10781031D01*
X12534467Y-10781031D02*
X12543991Y-10800079D01*
X12543991Y-10800079D02*
X12553515Y-10838174D01*
X12553515Y-10838174D02*
X12553515Y-10885793D01*
X12553515Y-10885793D02*
X12543991Y-10923889D01*
X12543991Y-10923889D02*
X12534467Y-10942936D01*
X12534467Y-10942936D02*
X12524944Y-10952460D01*
X12524944Y-10952460D02*
X12505896Y-10961984D01*
X12505896Y-10961984D02*
X12486848Y-10961984D01*
X12486848Y-10961984D02*
X12467801Y-10952460D01*
X12467801Y-10952460D02*
X12458277Y-10942936D01*
X12458277Y-10942936D02*
X12448753Y-10923889D01*
X12448753Y-10923889D02*
X12439229Y-10885793D01*
X12439229Y-10885793D02*
X12439229Y-10838174D01*
X12439229Y-10838174D02*
X12448753Y-10800079D01*
X12448753Y-10800079D02*
X12458277Y-10781031D01*
X12458277Y-10781031D02*
X12467801Y-10771508D01*
X12467801Y-10771508D02*
X12486848Y-10761984D01*
X12743991Y-10961984D02*
X12629706Y-10961984D01*
X12686848Y-10961984D02*
X12686848Y-10761984D01*
X12686848Y-10761984D02*
X12667801Y-10790555D01*
X12667801Y-10790555D02*
X12648753Y-10809603D01*
X12648753Y-10809603D02*
X12629706Y-10819127D01*
X12839229Y-10961984D02*
X12877325Y-10961984D01*
X12877325Y-10961984D02*
X12896372Y-10952460D01*
X12896372Y-10952460D02*
X12905896Y-10942936D01*
X12905896Y-10942936D02*
X12924944Y-10914365D01*
X12924944Y-10914365D02*
X12934467Y-10876270D01*
X12934467Y-10876270D02*
X12934467Y-10800079D01*
X12934467Y-10800079D02*
X12924944Y-10781031D01*
X12924944Y-10781031D02*
X12915420Y-10771508D01*
X12915420Y-10771508D02*
X12896372Y-10761984D01*
X12896372Y-10761984D02*
X12858277Y-10761984D01*
X12858277Y-10761984D02*
X12839229Y-10771508D01*
X12839229Y-10771508D02*
X12829706Y-10781031D01*
X12829706Y-10781031D02*
X12820182Y-10800079D01*
X12820182Y-10800079D02*
X12820182Y-10847698D01*
X12820182Y-10847698D02*
X12829706Y-10866746D01*
X12829706Y-10866746D02*
X12839229Y-10876270D01*
X12839229Y-10876270D02*
X12858277Y-10885793D01*
X12858277Y-10885793D02*
X12896372Y-10885793D01*
X12896372Y-10885793D02*
X12915420Y-10876270D01*
X12915420Y-10876270D02*
X12924944Y-10866746D01*
X12924944Y-10866746D02*
X12934467Y-10847698D01*
X13001134Y-10761984D02*
X13134467Y-10761984D01*
X13134467Y-10761984D02*
X13048753Y-10961984D01*
X13201134Y-10761984D02*
X13201134Y-10800079D01*
X13277325Y-10761984D02*
X13277325Y-10800079D01*
X13572563Y-11038174D02*
X13563039Y-11028650D01*
X13563039Y-11028650D02*
X13543991Y-11000079D01*
X13543991Y-11000079D02*
X13534468Y-10981031D01*
X13534468Y-10981031D02*
X13524944Y-10952460D01*
X13524944Y-10952460D02*
X13515420Y-10904841D01*
X13515420Y-10904841D02*
X13515420Y-10866746D01*
X13515420Y-10866746D02*
X13524944Y-10819127D01*
X13524944Y-10819127D02*
X13534468Y-10790555D01*
X13534468Y-10790555D02*
X13543991Y-10771508D01*
X13543991Y-10771508D02*
X13563039Y-10742936D01*
X13563039Y-10742936D02*
X13572563Y-10733412D01*
X13734468Y-10761984D02*
X13696372Y-10761984D01*
X13696372Y-10761984D02*
X13677325Y-10771508D01*
X13677325Y-10771508D02*
X13667801Y-10781031D01*
X13667801Y-10781031D02*
X13648753Y-10809603D01*
X13648753Y-10809603D02*
X13639229Y-10847698D01*
X13639229Y-10847698D02*
X13639229Y-10923889D01*
X13639229Y-10923889D02*
X13648753Y-10942936D01*
X13648753Y-10942936D02*
X13658277Y-10952460D01*
X13658277Y-10952460D02*
X13677325Y-10961984D01*
X13677325Y-10961984D02*
X13715420Y-10961984D01*
X13715420Y-10961984D02*
X13734468Y-10952460D01*
X13734468Y-10952460D02*
X13743991Y-10942936D01*
X13743991Y-10942936D02*
X13753515Y-10923889D01*
X13753515Y-10923889D02*
X13753515Y-10876270D01*
X13753515Y-10876270D02*
X13743991Y-10857222D01*
X13743991Y-10857222D02*
X13734468Y-10847698D01*
X13734468Y-10847698D02*
X13715420Y-10838174D01*
X13715420Y-10838174D02*
X13677325Y-10838174D01*
X13677325Y-10838174D02*
X13658277Y-10847698D01*
X13658277Y-10847698D02*
X13648753Y-10857222D01*
X13648753Y-10857222D02*
X13639229Y-10876270D01*
X13991610Y-10961984D02*
X13991610Y-10761984D01*
X14077325Y-10961984D02*
X14077325Y-10857222D01*
X14077325Y-10857222D02*
X14067801Y-10838174D01*
X14067801Y-10838174D02*
X14048753Y-10828650D01*
X14048753Y-10828650D02*
X14020182Y-10828650D01*
X14020182Y-10828650D02*
X14001134Y-10838174D01*
X14001134Y-10838174D02*
X13991610Y-10847698D01*
X14201134Y-10961984D02*
X14182087Y-10952460D01*
X14182087Y-10952460D02*
X14172563Y-10942936D01*
X14172563Y-10942936D02*
X14163039Y-10923889D01*
X14163039Y-10923889D02*
X14163039Y-10866746D01*
X14163039Y-10866746D02*
X14172563Y-10847698D01*
X14172563Y-10847698D02*
X14182087Y-10838174D01*
X14182087Y-10838174D02*
X14201134Y-10828650D01*
X14201134Y-10828650D02*
X14229706Y-10828650D01*
X14229706Y-10828650D02*
X14248753Y-10838174D01*
X14248753Y-10838174D02*
X14258277Y-10847698D01*
X14258277Y-10847698D02*
X14267801Y-10866746D01*
X14267801Y-10866746D02*
X14267801Y-10923889D01*
X14267801Y-10923889D02*
X14258277Y-10942936D01*
X14258277Y-10942936D02*
X14248753Y-10952460D01*
X14248753Y-10952460D02*
X14229706Y-10961984D01*
X14229706Y-10961984D02*
X14201134Y-10961984D01*
X14382087Y-10961984D02*
X14363039Y-10952460D01*
X14363039Y-10952460D02*
X14353515Y-10933412D01*
X14353515Y-10933412D02*
X14353515Y-10761984D01*
X14534468Y-10952460D02*
X14515420Y-10961984D01*
X14515420Y-10961984D02*
X14477325Y-10961984D01*
X14477325Y-10961984D02*
X14458277Y-10952460D01*
X14458277Y-10952460D02*
X14448753Y-10933412D01*
X14448753Y-10933412D02*
X14448753Y-10857222D01*
X14448753Y-10857222D02*
X14458277Y-10838174D01*
X14458277Y-10838174D02*
X14477325Y-10828650D01*
X14477325Y-10828650D02*
X14515420Y-10828650D01*
X14515420Y-10828650D02*
X14534468Y-10838174D01*
X14534468Y-10838174D02*
X14543991Y-10857222D01*
X14543991Y-10857222D02*
X14543991Y-10876270D01*
X14543991Y-10876270D02*
X14448753Y-10895317D01*
X14620182Y-10952460D02*
X14639230Y-10961984D01*
X14639230Y-10961984D02*
X14677325Y-10961984D01*
X14677325Y-10961984D02*
X14696372Y-10952460D01*
X14696372Y-10952460D02*
X14705896Y-10933412D01*
X14705896Y-10933412D02*
X14705896Y-10923889D01*
X14705896Y-10923889D02*
X14696372Y-10904841D01*
X14696372Y-10904841D02*
X14677325Y-10895317D01*
X14677325Y-10895317D02*
X14648753Y-10895317D01*
X14648753Y-10895317D02*
X14629706Y-10885793D01*
X14629706Y-10885793D02*
X14620182Y-10866746D01*
X14620182Y-10866746D02*
X14620182Y-10857222D01*
X14620182Y-10857222D02*
X14629706Y-10838174D01*
X14629706Y-10838174D02*
X14648753Y-10828650D01*
X14648753Y-10828650D02*
X14677325Y-10828650D01*
X14677325Y-10828650D02*
X14696372Y-10838174D01*
X14772563Y-11038174D02*
X14782087Y-11028650D01*
X14782087Y-11028650D02*
X14801134Y-11000079D01*
X14801134Y-11000079D02*
X14810658Y-10981031D01*
X14810658Y-10981031D02*
X14820182Y-10952460D01*
X14820182Y-10952460D02*
X14829706Y-10904841D01*
X14829706Y-10904841D02*
X14829706Y-10866746D01*
X14829706Y-10866746D02*
X14820182Y-10819127D01*
X14820182Y-10819127D02*
X14810658Y-10790555D01*
X14810658Y-10790555D02*
X14801134Y-10771508D01*
X14801134Y-10771508D02*
X14782087Y-10742936D01*
X14782087Y-10742936D02*
X14772563Y-10733412D01*
D12*
X9988713Y-11155713D02*
X9988713Y-11113287D01*
X9946287Y-11113287D01*
X9946287Y-11155713D01*
X9988713Y-11155713D01*
D11*
X10296372Y-11025984D02*
X10315420Y-11025984D01*
X10315420Y-11025984D02*
X10334467Y-11035508D01*
X10334467Y-11035508D02*
X10343991Y-11045031D01*
X10343991Y-11045031D02*
X10353515Y-11064079D01*
X10353515Y-11064079D02*
X10363039Y-11102174D01*
X10363039Y-11102174D02*
X10363039Y-11149793D01*
X10363039Y-11149793D02*
X10353515Y-11187888D01*
X10353515Y-11187888D02*
X10343991Y-11206936D01*
X10343991Y-11206936D02*
X10334467Y-11216460D01*
X10334467Y-11216460D02*
X10315420Y-11225984D01*
X10315420Y-11225984D02*
X10296372Y-11225984D01*
X10296372Y-11225984D02*
X10277324Y-11216460D01*
X10277324Y-11216460D02*
X10267801Y-11206936D01*
X10267801Y-11206936D02*
X10258277Y-11187888D01*
X10258277Y-11187888D02*
X10248753Y-11149793D01*
X10248753Y-11149793D02*
X10248753Y-11102174D01*
X10248753Y-11102174D02*
X10258277Y-11064079D01*
X10258277Y-11064079D02*
X10267801Y-11045031D01*
X10267801Y-11045031D02*
X10277324Y-11035508D01*
X10277324Y-11035508D02*
X10296372Y-11025984D01*
X10448753Y-11206936D02*
X10458277Y-11216460D01*
X10458277Y-11216460D02*
X10448753Y-11225984D01*
X10448753Y-11225984D02*
X10439229Y-11216460D01*
X10439229Y-11216460D02*
X10448753Y-11206936D01*
X10448753Y-11206936D02*
X10448753Y-11225984D01*
X10629705Y-11025984D02*
X10591610Y-11025984D01*
X10591610Y-11025984D02*
X10572563Y-11035508D01*
X10572563Y-11035508D02*
X10563039Y-11045031D01*
X10563039Y-11045031D02*
X10543991Y-11073603D01*
X10543991Y-11073603D02*
X10534467Y-11111698D01*
X10534467Y-11111698D02*
X10534467Y-11187888D01*
X10534467Y-11187888D02*
X10543991Y-11206936D01*
X10543991Y-11206936D02*
X10553515Y-11216460D01*
X10553515Y-11216460D02*
X10572563Y-11225984D01*
X10572563Y-11225984D02*
X10610658Y-11225984D01*
X10610658Y-11225984D02*
X10629705Y-11216460D01*
X10629705Y-11216460D02*
X10639229Y-11206936D01*
X10639229Y-11206936D02*
X10648753Y-11187888D01*
X10648753Y-11187888D02*
X10648753Y-11140270D01*
X10648753Y-11140270D02*
X10639229Y-11121222D01*
X10639229Y-11121222D02*
X10629705Y-11111698D01*
X10629705Y-11111698D02*
X10610658Y-11102174D01*
X10610658Y-11102174D02*
X10572563Y-11102174D01*
X10572563Y-11102174D02*
X10553515Y-11111698D01*
X10553515Y-11111698D02*
X10543991Y-11121222D01*
X10543991Y-11121222D02*
X10534467Y-11140270D01*
X10772563Y-11025984D02*
X10791610Y-11025984D01*
X10791610Y-11025984D02*
X10810658Y-11035508D01*
X10810658Y-11035508D02*
X10820182Y-11045031D01*
X10820182Y-11045031D02*
X10829705Y-11064079D01*
X10829705Y-11064079D02*
X10839229Y-11102174D01*
X10839229Y-11102174D02*
X10839229Y-11149793D01*
X10839229Y-11149793D02*
X10829705Y-11187888D01*
X10829705Y-11187888D02*
X10820182Y-11206936D01*
X10820182Y-11206936D02*
X10810658Y-11216460D01*
X10810658Y-11216460D02*
X10791610Y-11225984D01*
X10791610Y-11225984D02*
X10772563Y-11225984D01*
X10772563Y-11225984D02*
X10753515Y-11216460D01*
X10753515Y-11216460D02*
X10743991Y-11206936D01*
X10743991Y-11206936D02*
X10734467Y-11187888D01*
X10734467Y-11187888D02*
X10724944Y-11149793D01*
X10724944Y-11149793D02*
X10724944Y-11102174D01*
X10724944Y-11102174D02*
X10734467Y-11064079D01*
X10734467Y-11064079D02*
X10743991Y-11045031D01*
X10743991Y-11045031D02*
X10753515Y-11035508D01*
X10753515Y-11035508D02*
X10772563Y-11025984D01*
X10963039Y-11025984D02*
X10982086Y-11025984D01*
X10982086Y-11025984D02*
X11001134Y-11035508D01*
X11001134Y-11035508D02*
X11010658Y-11045031D01*
X11010658Y-11045031D02*
X11020182Y-11064079D01*
X11020182Y-11064079D02*
X11029705Y-11102174D01*
X11029705Y-11102174D02*
X11029705Y-11149793D01*
X11029705Y-11149793D02*
X11020182Y-11187888D01*
X11020182Y-11187888D02*
X11010658Y-11206936D01*
X11010658Y-11206936D02*
X11001134Y-11216460D01*
X11001134Y-11216460D02*
X10982086Y-11225984D01*
X10982086Y-11225984D02*
X10963039Y-11225984D01*
X10963039Y-11225984D02*
X10943991Y-11216460D01*
X10943991Y-11216460D02*
X10934467Y-11206936D01*
X10934467Y-11206936D02*
X10924944Y-11187888D01*
X10924944Y-11187888D02*
X10915420Y-11149793D01*
X10915420Y-11149793D02*
X10915420Y-11102174D01*
X10915420Y-11102174D02*
X10924944Y-11064079D01*
X10924944Y-11064079D02*
X10934467Y-11045031D01*
X10934467Y-11045031D02*
X10943991Y-11035508D01*
X10943991Y-11035508D02*
X10963039Y-11025984D01*
X11115420Y-11225984D02*
X11115420Y-11092650D01*
X11115420Y-11111698D02*
X11124944Y-11102174D01*
X11124944Y-11102174D02*
X11143991Y-11092650D01*
X11143991Y-11092650D02*
X11172563Y-11092650D01*
X11172563Y-11092650D02*
X11191610Y-11102174D01*
X11191610Y-11102174D02*
X11201134Y-11121222D01*
X11201134Y-11121222D02*
X11201134Y-11225984D01*
X11201134Y-11121222D02*
X11210658Y-11102174D01*
X11210658Y-11102174D02*
X11229705Y-11092650D01*
X11229705Y-11092650D02*
X11258277Y-11092650D01*
X11258277Y-11092650D02*
X11277324Y-11102174D01*
X11277324Y-11102174D02*
X11286848Y-11121222D01*
X11286848Y-11121222D02*
X11286848Y-11225984D01*
X11382086Y-11225984D02*
X11382086Y-11092650D01*
X11382086Y-11111698D02*
X11391610Y-11102174D01*
X11391610Y-11102174D02*
X11410658Y-11092650D01*
X11410658Y-11092650D02*
X11439229Y-11092650D01*
X11439229Y-11092650D02*
X11458277Y-11102174D01*
X11458277Y-11102174D02*
X11467801Y-11121222D01*
X11467801Y-11121222D02*
X11467801Y-11225984D01*
X11467801Y-11121222D02*
X11477324Y-11102174D01*
X11477324Y-11102174D02*
X11496372Y-11092650D01*
X11496372Y-11092650D02*
X11524943Y-11092650D01*
X11524943Y-11092650D02*
X11543991Y-11102174D01*
X11543991Y-11102174D02*
X11553515Y-11121222D01*
X11553515Y-11121222D02*
X11553515Y-11225984D01*
X11943991Y-11016460D02*
X11772563Y-11273603D01*
X12201134Y-11025984D02*
X12220182Y-11025984D01*
X12220182Y-11025984D02*
X12239229Y-11035508D01*
X12239229Y-11035508D02*
X12248753Y-11045031D01*
X12248753Y-11045031D02*
X12258277Y-11064079D01*
X12258277Y-11064079D02*
X12267801Y-11102174D01*
X12267801Y-11102174D02*
X12267801Y-11149793D01*
X12267801Y-11149793D02*
X12258277Y-11187888D01*
X12258277Y-11187888D02*
X12248753Y-11206936D01*
X12248753Y-11206936D02*
X12239229Y-11216460D01*
X12239229Y-11216460D02*
X12220182Y-11225984D01*
X12220182Y-11225984D02*
X12201134Y-11225984D01*
X12201134Y-11225984D02*
X12182086Y-11216460D01*
X12182086Y-11216460D02*
X12172563Y-11206936D01*
X12172563Y-11206936D02*
X12163039Y-11187888D01*
X12163039Y-11187888D02*
X12153515Y-11149793D01*
X12153515Y-11149793D02*
X12153515Y-11102174D01*
X12153515Y-11102174D02*
X12163039Y-11064079D01*
X12163039Y-11064079D02*
X12172563Y-11045031D01*
X12172563Y-11045031D02*
X12182086Y-11035508D01*
X12182086Y-11035508D02*
X12201134Y-11025984D01*
X12353515Y-11206936D02*
X12363039Y-11216460D01*
X12363039Y-11216460D02*
X12353515Y-11225984D01*
X12353515Y-11225984D02*
X12343991Y-11216460D01*
X12343991Y-11216460D02*
X12353515Y-11206936D01*
X12353515Y-11206936D02*
X12353515Y-11225984D01*
X12486848Y-11025984D02*
X12505896Y-11025984D01*
X12505896Y-11025984D02*
X12524944Y-11035508D01*
X12524944Y-11035508D02*
X12534467Y-11045031D01*
X12534467Y-11045031D02*
X12543991Y-11064079D01*
X12543991Y-11064079D02*
X12553515Y-11102174D01*
X12553515Y-11102174D02*
X12553515Y-11149793D01*
X12553515Y-11149793D02*
X12543991Y-11187888D01*
X12543991Y-11187888D02*
X12534467Y-11206936D01*
X12534467Y-11206936D02*
X12524944Y-11216460D01*
X12524944Y-11216460D02*
X12505896Y-11225984D01*
X12505896Y-11225984D02*
X12486848Y-11225984D01*
X12486848Y-11225984D02*
X12467801Y-11216460D01*
X12467801Y-11216460D02*
X12458277Y-11206936D01*
X12458277Y-11206936D02*
X12448753Y-11187888D01*
X12448753Y-11187888D02*
X12439229Y-11149793D01*
X12439229Y-11149793D02*
X12439229Y-11102174D01*
X12439229Y-11102174D02*
X12448753Y-11064079D01*
X12448753Y-11064079D02*
X12458277Y-11045031D01*
X12458277Y-11045031D02*
X12467801Y-11035508D01*
X12467801Y-11035508D02*
X12486848Y-11025984D01*
X12629706Y-11045031D02*
X12639229Y-11035508D01*
X12639229Y-11035508D02*
X12658277Y-11025984D01*
X12658277Y-11025984D02*
X12705896Y-11025984D01*
X12705896Y-11025984D02*
X12724944Y-11035508D01*
X12724944Y-11035508D02*
X12734467Y-11045031D01*
X12734467Y-11045031D02*
X12743991Y-11064079D01*
X12743991Y-11064079D02*
X12743991Y-11083127D01*
X12743991Y-11083127D02*
X12734467Y-11111698D01*
X12734467Y-11111698D02*
X12620182Y-11225984D01*
X12620182Y-11225984D02*
X12743991Y-11225984D01*
X12810658Y-11025984D02*
X12934467Y-11025984D01*
X12934467Y-11025984D02*
X12867801Y-11102174D01*
X12867801Y-11102174D02*
X12896372Y-11102174D01*
X12896372Y-11102174D02*
X12915420Y-11111698D01*
X12915420Y-11111698D02*
X12924944Y-11121222D01*
X12924944Y-11121222D02*
X12934467Y-11140270D01*
X12934467Y-11140270D02*
X12934467Y-11187888D01*
X12934467Y-11187888D02*
X12924944Y-11206936D01*
X12924944Y-11206936D02*
X12915420Y-11216460D01*
X12915420Y-11216460D02*
X12896372Y-11225984D01*
X12896372Y-11225984D02*
X12839229Y-11225984D01*
X12839229Y-11225984D02*
X12820182Y-11216460D01*
X12820182Y-11216460D02*
X12810658Y-11206936D01*
X13105896Y-11025984D02*
X13067801Y-11025984D01*
X13067801Y-11025984D02*
X13048753Y-11035508D01*
X13048753Y-11035508D02*
X13039229Y-11045031D01*
X13039229Y-11045031D02*
X13020182Y-11073603D01*
X13020182Y-11073603D02*
X13010658Y-11111698D01*
X13010658Y-11111698D02*
X13010658Y-11187888D01*
X13010658Y-11187888D02*
X13020182Y-11206936D01*
X13020182Y-11206936D02*
X13029706Y-11216460D01*
X13029706Y-11216460D02*
X13048753Y-11225984D01*
X13048753Y-11225984D02*
X13086848Y-11225984D01*
X13086848Y-11225984D02*
X13105896Y-11216460D01*
X13105896Y-11216460D02*
X13115420Y-11206936D01*
X13115420Y-11206936D02*
X13124944Y-11187888D01*
X13124944Y-11187888D02*
X13124944Y-11140270D01*
X13124944Y-11140270D02*
X13115420Y-11121222D01*
X13115420Y-11121222D02*
X13105896Y-11111698D01*
X13105896Y-11111698D02*
X13086848Y-11102174D01*
X13086848Y-11102174D02*
X13048753Y-11102174D01*
X13048753Y-11102174D02*
X13029706Y-11111698D01*
X13029706Y-11111698D02*
X13020182Y-11121222D01*
X13020182Y-11121222D02*
X13010658Y-11140270D01*
X13201134Y-11025984D02*
X13201134Y-11064079D01*
X13277325Y-11025984D02*
X13277325Y-11064079D01*
X13572563Y-11302174D02*
X13563039Y-11292650D01*
X13563039Y-11292650D02*
X13543991Y-11264079D01*
X13543991Y-11264079D02*
X13534468Y-11245031D01*
X13534468Y-11245031D02*
X13524944Y-11216460D01*
X13524944Y-11216460D02*
X13515420Y-11168841D01*
X13515420Y-11168841D02*
X13515420Y-11130746D01*
X13515420Y-11130746D02*
X13524944Y-11083127D01*
X13524944Y-11083127D02*
X13534468Y-11054555D01*
X13534468Y-11054555D02*
X13543991Y-11035508D01*
X13543991Y-11035508D02*
X13563039Y-11006936D01*
X13563039Y-11006936D02*
X13572563Y-10997412D01*
X13753515Y-11225984D02*
X13639229Y-11225984D01*
X13696372Y-11225984D02*
X13696372Y-11025984D01*
X13696372Y-11025984D02*
X13677325Y-11054555D01*
X13677325Y-11054555D02*
X13658277Y-11073603D01*
X13658277Y-11073603D02*
X13639229Y-11083127D01*
X13820182Y-11025984D02*
X13953515Y-11025984D01*
X13953515Y-11025984D02*
X13867801Y-11225984D01*
X14182087Y-11225984D02*
X14182087Y-11025984D01*
X14267801Y-11225984D02*
X14267801Y-11121222D01*
X14267801Y-11121222D02*
X14258277Y-11102174D01*
X14258277Y-11102174D02*
X14239230Y-11092650D01*
X14239230Y-11092650D02*
X14210658Y-11092650D01*
X14210658Y-11092650D02*
X14191610Y-11102174D01*
X14191610Y-11102174D02*
X14182087Y-11111698D01*
X14391610Y-11225984D02*
X14372563Y-11216460D01*
X14372563Y-11216460D02*
X14363039Y-11206936D01*
X14363039Y-11206936D02*
X14353515Y-11187888D01*
X14353515Y-11187888D02*
X14353515Y-11130746D01*
X14353515Y-11130746D02*
X14363039Y-11111698D01*
X14363039Y-11111698D02*
X14372563Y-11102174D01*
X14372563Y-11102174D02*
X14391610Y-11092650D01*
X14391610Y-11092650D02*
X14420182Y-11092650D01*
X14420182Y-11092650D02*
X14439230Y-11102174D01*
X14439230Y-11102174D02*
X14448753Y-11111698D01*
X14448753Y-11111698D02*
X14458277Y-11130746D01*
X14458277Y-11130746D02*
X14458277Y-11187888D01*
X14458277Y-11187888D02*
X14448753Y-11206936D01*
X14448753Y-11206936D02*
X14439230Y-11216460D01*
X14439230Y-11216460D02*
X14420182Y-11225984D01*
X14420182Y-11225984D02*
X14391610Y-11225984D01*
X14572563Y-11225984D02*
X14553515Y-11216460D01*
X14553515Y-11216460D02*
X14543991Y-11197412D01*
X14543991Y-11197412D02*
X14543991Y-11025984D01*
X14724944Y-11216460D02*
X14705896Y-11225984D01*
X14705896Y-11225984D02*
X14667801Y-11225984D01*
X14667801Y-11225984D02*
X14648753Y-11216460D01*
X14648753Y-11216460D02*
X14639230Y-11197412D01*
X14639230Y-11197412D02*
X14639230Y-11121222D01*
X14639230Y-11121222D02*
X14648753Y-11102174D01*
X14648753Y-11102174D02*
X14667801Y-11092650D01*
X14667801Y-11092650D02*
X14705896Y-11092650D01*
X14705896Y-11092650D02*
X14724944Y-11102174D01*
X14724944Y-11102174D02*
X14734468Y-11121222D01*
X14734468Y-11121222D02*
X14734468Y-11140270D01*
X14734468Y-11140270D02*
X14639230Y-11159317D01*
X14810658Y-11216460D02*
X14829706Y-11225984D01*
X14829706Y-11225984D02*
X14867801Y-11225984D01*
X14867801Y-11225984D02*
X14886849Y-11216460D01*
X14886849Y-11216460D02*
X14896372Y-11197412D01*
X14896372Y-11197412D02*
X14896372Y-11187888D01*
X14896372Y-11187888D02*
X14886849Y-11168841D01*
X14886849Y-11168841D02*
X14867801Y-11159317D01*
X14867801Y-11159317D02*
X14839230Y-11159317D01*
X14839230Y-11159317D02*
X14820182Y-11149793D01*
X14820182Y-11149793D02*
X14810658Y-11130746D01*
X14810658Y-11130746D02*
X14810658Y-11121222D01*
X14810658Y-11121222D02*
X14820182Y-11102174D01*
X14820182Y-11102174D02*
X14839230Y-11092650D01*
X14839230Y-11092650D02*
X14867801Y-11092650D01*
X14867801Y-11092650D02*
X14886849Y-11102174D01*
X15134468Y-11149793D02*
X15286849Y-11149793D01*
X15210658Y-11225984D02*
X15210658Y-11073603D01*
X15620182Y-11092650D02*
X15620182Y-11225984D01*
X15572563Y-11016460D02*
X15524944Y-11159317D01*
X15524944Y-11159317D02*
X15648753Y-11159317D01*
X15867801Y-11216460D02*
X15886849Y-11225984D01*
X15886849Y-11225984D02*
X15924944Y-11225984D01*
X15924944Y-11225984D02*
X15943992Y-11216460D01*
X15943992Y-11216460D02*
X15953515Y-11197412D01*
X15953515Y-11197412D02*
X15953515Y-11187888D01*
X15953515Y-11187888D02*
X15943992Y-11168841D01*
X15943992Y-11168841D02*
X15924944Y-11159317D01*
X15924944Y-11159317D02*
X15896373Y-11159317D01*
X15896373Y-11159317D02*
X15877325Y-11149793D01*
X15877325Y-11149793D02*
X15867801Y-11130746D01*
X15867801Y-11130746D02*
X15867801Y-11121222D01*
X15867801Y-11121222D02*
X15877325Y-11102174D01*
X15877325Y-11102174D02*
X15896373Y-11092650D01*
X15896373Y-11092650D02*
X15924944Y-11092650D01*
X15924944Y-11092650D02*
X15943992Y-11102174D01*
X16067801Y-11225984D02*
X16048754Y-11216460D01*
X16048754Y-11216460D02*
X16039230Y-11197412D01*
X16039230Y-11197412D02*
X16039230Y-11025984D01*
X16172563Y-11225984D02*
X16153515Y-11216460D01*
X16153515Y-11216460D02*
X16143992Y-11206936D01*
X16143992Y-11206936D02*
X16134468Y-11187888D01*
X16134468Y-11187888D02*
X16134468Y-11130746D01*
X16134468Y-11130746D02*
X16143992Y-11111698D01*
X16143992Y-11111698D02*
X16153515Y-11102174D01*
X16153515Y-11102174D02*
X16172563Y-11092650D01*
X16172563Y-11092650D02*
X16201135Y-11092650D01*
X16201135Y-11092650D02*
X16220182Y-11102174D01*
X16220182Y-11102174D02*
X16229706Y-11111698D01*
X16229706Y-11111698D02*
X16239230Y-11130746D01*
X16239230Y-11130746D02*
X16239230Y-11187888D01*
X16239230Y-11187888D02*
X16229706Y-11206936D01*
X16229706Y-11206936D02*
X16220182Y-11216460D01*
X16220182Y-11216460D02*
X16201135Y-11225984D01*
X16201135Y-11225984D02*
X16172563Y-11225984D01*
X16296373Y-11092650D02*
X16372563Y-11092650D01*
X16324944Y-11025984D02*
X16324944Y-11197412D01*
X16324944Y-11197412D02*
X16334468Y-11216460D01*
X16334468Y-11216460D02*
X16353515Y-11225984D01*
X16353515Y-11225984D02*
X16372563Y-11225984D01*
X16429706Y-11216460D02*
X16448754Y-11225984D01*
X16448754Y-11225984D02*
X16486849Y-11225984D01*
X16486849Y-11225984D02*
X16505896Y-11216460D01*
X16505896Y-11216460D02*
X16515420Y-11197412D01*
X16515420Y-11197412D02*
X16515420Y-11187888D01*
X16515420Y-11187888D02*
X16505896Y-11168841D01*
X16505896Y-11168841D02*
X16486849Y-11159317D01*
X16486849Y-11159317D02*
X16458277Y-11159317D01*
X16458277Y-11159317D02*
X16439230Y-11149793D01*
X16439230Y-11149793D02*
X16429706Y-11130746D01*
X16429706Y-11130746D02*
X16429706Y-11121222D01*
X16429706Y-11121222D02*
X16439230Y-11102174D01*
X16439230Y-11102174D02*
X16458277Y-11092650D01*
X16458277Y-11092650D02*
X16486849Y-11092650D01*
X16486849Y-11092650D02*
X16505896Y-11102174D01*
X16582087Y-11302174D02*
X16591611Y-11292650D01*
X16591611Y-11292650D02*
X16610658Y-11264079D01*
X16610658Y-11264079D02*
X16620182Y-11245031D01*
X16620182Y-11245031D02*
X16629706Y-11216460D01*
X16629706Y-11216460D02*
X16639230Y-11168841D01*
X16639230Y-11168841D02*
X16639230Y-11130746D01*
X16639230Y-11130746D02*
X16629706Y-11083127D01*
X16629706Y-11083127D02*
X16620182Y-11054555D01*
X16620182Y-11054555D02*
X16610658Y-11035508D01*
X16610658Y-11035508D02*
X16591611Y-11006936D01*
X16591611Y-11006936D02*
X16582087Y-10997412D01*
D12*
X9962500Y-11433500D02*
X9997500Y-11398500D01*
X9962500Y-11363500D01*
X9927500Y-11398500D01*
X9962500Y-11433500D01*
D11*
X10296372Y-11289984D02*
X10315420Y-11289984D01*
X10315420Y-11289984D02*
X10334467Y-11299508D01*
X10334467Y-11299508D02*
X10343991Y-11309031D01*
X10343991Y-11309031D02*
X10353515Y-11328079D01*
X10353515Y-11328079D02*
X10363039Y-11366174D01*
X10363039Y-11366174D02*
X10363039Y-11413793D01*
X10363039Y-11413793D02*
X10353515Y-11451888D01*
X10353515Y-11451888D02*
X10343991Y-11470936D01*
X10343991Y-11470936D02*
X10334467Y-11480460D01*
X10334467Y-11480460D02*
X10315420Y-11489984D01*
X10315420Y-11489984D02*
X10296372Y-11489984D01*
X10296372Y-11489984D02*
X10277324Y-11480460D01*
X10277324Y-11480460D02*
X10267801Y-11470936D01*
X10267801Y-11470936D02*
X10258277Y-11451888D01*
X10258277Y-11451888D02*
X10248753Y-11413793D01*
X10248753Y-11413793D02*
X10248753Y-11366174D01*
X10248753Y-11366174D02*
X10258277Y-11328079D01*
X10258277Y-11328079D02*
X10267801Y-11309031D01*
X10267801Y-11309031D02*
X10277324Y-11299508D01*
X10277324Y-11299508D02*
X10296372Y-11289984D01*
X10448753Y-11470936D02*
X10458277Y-11480460D01*
X10458277Y-11480460D02*
X10448753Y-11489984D01*
X10448753Y-11489984D02*
X10439229Y-11480460D01*
X10439229Y-11480460D02*
X10448753Y-11470936D01*
X10448753Y-11470936D02*
X10448753Y-11489984D01*
X10524944Y-11289984D02*
X10658277Y-11289984D01*
X10658277Y-11289984D02*
X10572563Y-11489984D01*
X10772563Y-11289984D02*
X10791610Y-11289984D01*
X10791610Y-11289984D02*
X10810658Y-11299508D01*
X10810658Y-11299508D02*
X10820182Y-11309031D01*
X10820182Y-11309031D02*
X10829705Y-11328079D01*
X10829705Y-11328079D02*
X10839229Y-11366174D01*
X10839229Y-11366174D02*
X10839229Y-11413793D01*
X10839229Y-11413793D02*
X10829705Y-11451888D01*
X10829705Y-11451888D02*
X10820182Y-11470936D01*
X10820182Y-11470936D02*
X10810658Y-11480460D01*
X10810658Y-11480460D02*
X10791610Y-11489984D01*
X10791610Y-11489984D02*
X10772563Y-11489984D01*
X10772563Y-11489984D02*
X10753515Y-11480460D01*
X10753515Y-11480460D02*
X10743991Y-11470936D01*
X10743991Y-11470936D02*
X10734467Y-11451888D01*
X10734467Y-11451888D02*
X10724944Y-11413793D01*
X10724944Y-11413793D02*
X10724944Y-11366174D01*
X10724944Y-11366174D02*
X10734467Y-11328079D01*
X10734467Y-11328079D02*
X10743991Y-11309031D01*
X10743991Y-11309031D02*
X10753515Y-11299508D01*
X10753515Y-11299508D02*
X10772563Y-11289984D01*
X10963039Y-11289984D02*
X10982086Y-11289984D01*
X10982086Y-11289984D02*
X11001134Y-11299508D01*
X11001134Y-11299508D02*
X11010658Y-11309031D01*
X11010658Y-11309031D02*
X11020182Y-11328079D01*
X11020182Y-11328079D02*
X11029705Y-11366174D01*
X11029705Y-11366174D02*
X11029705Y-11413793D01*
X11029705Y-11413793D02*
X11020182Y-11451888D01*
X11020182Y-11451888D02*
X11010658Y-11470936D01*
X11010658Y-11470936D02*
X11001134Y-11480460D01*
X11001134Y-11480460D02*
X10982086Y-11489984D01*
X10982086Y-11489984D02*
X10963039Y-11489984D01*
X10963039Y-11489984D02*
X10943991Y-11480460D01*
X10943991Y-11480460D02*
X10934467Y-11470936D01*
X10934467Y-11470936D02*
X10924944Y-11451888D01*
X10924944Y-11451888D02*
X10915420Y-11413793D01*
X10915420Y-11413793D02*
X10915420Y-11366174D01*
X10915420Y-11366174D02*
X10924944Y-11328079D01*
X10924944Y-11328079D02*
X10934467Y-11309031D01*
X10934467Y-11309031D02*
X10943991Y-11299508D01*
X10943991Y-11299508D02*
X10963039Y-11289984D01*
X11115420Y-11489984D02*
X11115420Y-11356650D01*
X11115420Y-11375698D02*
X11124944Y-11366174D01*
X11124944Y-11366174D02*
X11143991Y-11356650D01*
X11143991Y-11356650D02*
X11172563Y-11356650D01*
X11172563Y-11356650D02*
X11191610Y-11366174D01*
X11191610Y-11366174D02*
X11201134Y-11385222D01*
X11201134Y-11385222D02*
X11201134Y-11489984D01*
X11201134Y-11385222D02*
X11210658Y-11366174D01*
X11210658Y-11366174D02*
X11229705Y-11356650D01*
X11229705Y-11356650D02*
X11258277Y-11356650D01*
X11258277Y-11356650D02*
X11277324Y-11366174D01*
X11277324Y-11366174D02*
X11286848Y-11385222D01*
X11286848Y-11385222D02*
X11286848Y-11489984D01*
X11382086Y-11489984D02*
X11382086Y-11356650D01*
X11382086Y-11375698D02*
X11391610Y-11366174D01*
X11391610Y-11366174D02*
X11410658Y-11356650D01*
X11410658Y-11356650D02*
X11439229Y-11356650D01*
X11439229Y-11356650D02*
X11458277Y-11366174D01*
X11458277Y-11366174D02*
X11467801Y-11385222D01*
X11467801Y-11385222D02*
X11467801Y-11489984D01*
X11467801Y-11385222D02*
X11477324Y-11366174D01*
X11477324Y-11366174D02*
X11496372Y-11356650D01*
X11496372Y-11356650D02*
X11524943Y-11356650D01*
X11524943Y-11356650D02*
X11543991Y-11366174D01*
X11543991Y-11366174D02*
X11553515Y-11385222D01*
X11553515Y-11385222D02*
X11553515Y-11489984D01*
X11943991Y-11280460D02*
X11772563Y-11537603D01*
X12201134Y-11289984D02*
X12220182Y-11289984D01*
X12220182Y-11289984D02*
X12239229Y-11299508D01*
X12239229Y-11299508D02*
X12248753Y-11309031D01*
X12248753Y-11309031D02*
X12258277Y-11328079D01*
X12258277Y-11328079D02*
X12267801Y-11366174D01*
X12267801Y-11366174D02*
X12267801Y-11413793D01*
X12267801Y-11413793D02*
X12258277Y-11451888D01*
X12258277Y-11451888D02*
X12248753Y-11470936D01*
X12248753Y-11470936D02*
X12239229Y-11480460D01*
X12239229Y-11480460D02*
X12220182Y-11489984D01*
X12220182Y-11489984D02*
X12201134Y-11489984D01*
X12201134Y-11489984D02*
X12182086Y-11480460D01*
X12182086Y-11480460D02*
X12172563Y-11470936D01*
X12172563Y-11470936D02*
X12163039Y-11451888D01*
X12163039Y-11451888D02*
X12153515Y-11413793D01*
X12153515Y-11413793D02*
X12153515Y-11366174D01*
X12153515Y-11366174D02*
X12163039Y-11328079D01*
X12163039Y-11328079D02*
X12172563Y-11309031D01*
X12172563Y-11309031D02*
X12182086Y-11299508D01*
X12182086Y-11299508D02*
X12201134Y-11289984D01*
X12353515Y-11470936D02*
X12363039Y-11480460D01*
X12363039Y-11480460D02*
X12353515Y-11489984D01*
X12353515Y-11489984D02*
X12343991Y-11480460D01*
X12343991Y-11480460D02*
X12353515Y-11470936D01*
X12353515Y-11470936D02*
X12353515Y-11489984D01*
X12486848Y-11289984D02*
X12505896Y-11289984D01*
X12505896Y-11289984D02*
X12524944Y-11299508D01*
X12524944Y-11299508D02*
X12534467Y-11309031D01*
X12534467Y-11309031D02*
X12543991Y-11328079D01*
X12543991Y-11328079D02*
X12553515Y-11366174D01*
X12553515Y-11366174D02*
X12553515Y-11413793D01*
X12553515Y-11413793D02*
X12543991Y-11451888D01*
X12543991Y-11451888D02*
X12534467Y-11470936D01*
X12534467Y-11470936D02*
X12524944Y-11480460D01*
X12524944Y-11480460D02*
X12505896Y-11489984D01*
X12505896Y-11489984D02*
X12486848Y-11489984D01*
X12486848Y-11489984D02*
X12467801Y-11480460D01*
X12467801Y-11480460D02*
X12458277Y-11470936D01*
X12458277Y-11470936D02*
X12448753Y-11451888D01*
X12448753Y-11451888D02*
X12439229Y-11413793D01*
X12439229Y-11413793D02*
X12439229Y-11366174D01*
X12439229Y-11366174D02*
X12448753Y-11328079D01*
X12448753Y-11328079D02*
X12458277Y-11309031D01*
X12458277Y-11309031D02*
X12467801Y-11299508D01*
X12467801Y-11299508D02*
X12486848Y-11289984D01*
X12629706Y-11309031D02*
X12639229Y-11299508D01*
X12639229Y-11299508D02*
X12658277Y-11289984D01*
X12658277Y-11289984D02*
X12705896Y-11289984D01*
X12705896Y-11289984D02*
X12724944Y-11299508D01*
X12724944Y-11299508D02*
X12734467Y-11309031D01*
X12734467Y-11309031D02*
X12743991Y-11328079D01*
X12743991Y-11328079D02*
X12743991Y-11347127D01*
X12743991Y-11347127D02*
X12734467Y-11375698D01*
X12734467Y-11375698D02*
X12620182Y-11489984D01*
X12620182Y-11489984D02*
X12743991Y-11489984D01*
X12810658Y-11289984D02*
X12943991Y-11289984D01*
X12943991Y-11289984D02*
X12858277Y-11489984D01*
X13105896Y-11289984D02*
X13067801Y-11289984D01*
X13067801Y-11289984D02*
X13048753Y-11299508D01*
X13048753Y-11299508D02*
X13039229Y-11309031D01*
X13039229Y-11309031D02*
X13020182Y-11337603D01*
X13020182Y-11337603D02*
X13010658Y-11375698D01*
X13010658Y-11375698D02*
X13010658Y-11451888D01*
X13010658Y-11451888D02*
X13020182Y-11470936D01*
X13020182Y-11470936D02*
X13029706Y-11480460D01*
X13029706Y-11480460D02*
X13048753Y-11489984D01*
X13048753Y-11489984D02*
X13086848Y-11489984D01*
X13086848Y-11489984D02*
X13105896Y-11480460D01*
X13105896Y-11480460D02*
X13115420Y-11470936D01*
X13115420Y-11470936D02*
X13124944Y-11451888D01*
X13124944Y-11451888D02*
X13124944Y-11404269D01*
X13124944Y-11404269D02*
X13115420Y-11385222D01*
X13115420Y-11385222D02*
X13105896Y-11375698D01*
X13105896Y-11375698D02*
X13086848Y-11366174D01*
X13086848Y-11366174D02*
X13048753Y-11366174D01*
X13048753Y-11366174D02*
X13029706Y-11375698D01*
X13029706Y-11375698D02*
X13020182Y-11385222D01*
X13020182Y-11385222D02*
X13010658Y-11404269D01*
X13201134Y-11289984D02*
X13201134Y-11328079D01*
X13277325Y-11289984D02*
X13277325Y-11328079D01*
X13572563Y-11566174D02*
X13563039Y-11556650D01*
X13563039Y-11556650D02*
X13543991Y-11528079D01*
X13543991Y-11528079D02*
X13534468Y-11509031D01*
X13534468Y-11509031D02*
X13524944Y-11480460D01*
X13524944Y-11480460D02*
X13515420Y-11432841D01*
X13515420Y-11432841D02*
X13515420Y-11394746D01*
X13515420Y-11394746D02*
X13524944Y-11347127D01*
X13524944Y-11347127D02*
X13534468Y-11318555D01*
X13534468Y-11318555D02*
X13543991Y-11299508D01*
X13543991Y-11299508D02*
X13563039Y-11270936D01*
X13563039Y-11270936D02*
X13572563Y-11261412D01*
X13686848Y-11289984D02*
X13705896Y-11289984D01*
X13705896Y-11289984D02*
X13724944Y-11299508D01*
X13724944Y-11299508D02*
X13734468Y-11309031D01*
X13734468Y-11309031D02*
X13743991Y-11328079D01*
X13743991Y-11328079D02*
X13753515Y-11366174D01*
X13753515Y-11366174D02*
X13753515Y-11413793D01*
X13753515Y-11413793D02*
X13743991Y-11451888D01*
X13743991Y-11451888D02*
X13734468Y-11470936D01*
X13734468Y-11470936D02*
X13724944Y-11480460D01*
X13724944Y-11480460D02*
X13705896Y-11489984D01*
X13705896Y-11489984D02*
X13686848Y-11489984D01*
X13686848Y-11489984D02*
X13667801Y-11480460D01*
X13667801Y-11480460D02*
X13658277Y-11470936D01*
X13658277Y-11470936D02*
X13648753Y-11451888D01*
X13648753Y-11451888D02*
X13639229Y-11413793D01*
X13639229Y-11413793D02*
X13639229Y-11366174D01*
X13639229Y-11366174D02*
X13648753Y-11328079D01*
X13648753Y-11328079D02*
X13658277Y-11309031D01*
X13658277Y-11309031D02*
X13667801Y-11299508D01*
X13667801Y-11299508D02*
X13686848Y-11289984D01*
X13991610Y-11489984D02*
X13991610Y-11289984D01*
X14077325Y-11489984D02*
X14077325Y-11385222D01*
X14077325Y-11385222D02*
X14067801Y-11366174D01*
X14067801Y-11366174D02*
X14048753Y-11356650D01*
X14048753Y-11356650D02*
X14020182Y-11356650D01*
X14020182Y-11356650D02*
X14001134Y-11366174D01*
X14001134Y-11366174D02*
X13991610Y-11375698D01*
X14201134Y-11489984D02*
X14182087Y-11480460D01*
X14182087Y-11480460D02*
X14172563Y-11470936D01*
X14172563Y-11470936D02*
X14163039Y-11451888D01*
X14163039Y-11451888D02*
X14163039Y-11394746D01*
X14163039Y-11394746D02*
X14172563Y-11375698D01*
X14172563Y-11375698D02*
X14182087Y-11366174D01*
X14182087Y-11366174D02*
X14201134Y-11356650D01*
X14201134Y-11356650D02*
X14229706Y-11356650D01*
X14229706Y-11356650D02*
X14248753Y-11366174D01*
X14248753Y-11366174D02*
X14258277Y-11375698D01*
X14258277Y-11375698D02*
X14267801Y-11394746D01*
X14267801Y-11394746D02*
X14267801Y-11451888D01*
X14267801Y-11451888D02*
X14258277Y-11470936D01*
X14258277Y-11470936D02*
X14248753Y-11480460D01*
X14248753Y-11480460D02*
X14229706Y-11489984D01*
X14229706Y-11489984D02*
X14201134Y-11489984D01*
X14382087Y-11489984D02*
X14363039Y-11480460D01*
X14363039Y-11480460D02*
X14353515Y-11461412D01*
X14353515Y-11461412D02*
X14353515Y-11289984D01*
X14534468Y-11480460D02*
X14515420Y-11489984D01*
X14515420Y-11489984D02*
X14477325Y-11489984D01*
X14477325Y-11489984D02*
X14458277Y-11480460D01*
X14458277Y-11480460D02*
X14448753Y-11461412D01*
X14448753Y-11461412D02*
X14448753Y-11385222D01*
X14448753Y-11385222D02*
X14458277Y-11366174D01*
X14458277Y-11366174D02*
X14477325Y-11356650D01*
X14477325Y-11356650D02*
X14515420Y-11356650D01*
X14515420Y-11356650D02*
X14534468Y-11366174D01*
X14534468Y-11366174D02*
X14543991Y-11385222D01*
X14543991Y-11385222D02*
X14543991Y-11404269D01*
X14543991Y-11404269D02*
X14448753Y-11423317D01*
X14620182Y-11480460D02*
X14639230Y-11489984D01*
X14639230Y-11489984D02*
X14677325Y-11489984D01*
X14677325Y-11489984D02*
X14696372Y-11480460D01*
X14696372Y-11480460D02*
X14705896Y-11461412D01*
X14705896Y-11461412D02*
X14705896Y-11451888D01*
X14705896Y-11451888D02*
X14696372Y-11432841D01*
X14696372Y-11432841D02*
X14677325Y-11423317D01*
X14677325Y-11423317D02*
X14648753Y-11423317D01*
X14648753Y-11423317D02*
X14629706Y-11413793D01*
X14629706Y-11413793D02*
X14620182Y-11394746D01*
X14620182Y-11394746D02*
X14620182Y-11385222D01*
X14620182Y-11385222D02*
X14629706Y-11366174D01*
X14629706Y-11366174D02*
X14648753Y-11356650D01*
X14648753Y-11356650D02*
X14677325Y-11356650D01*
X14677325Y-11356650D02*
X14696372Y-11366174D01*
X14943992Y-11413793D02*
X15096373Y-11413793D01*
X15020182Y-11489984D02*
X15020182Y-11337603D01*
X15334468Y-11309031D02*
X15343992Y-11299508D01*
X15343992Y-11299508D02*
X15363039Y-11289984D01*
X15363039Y-11289984D02*
X15410658Y-11289984D01*
X15410658Y-11289984D02*
X15429706Y-11299508D01*
X15429706Y-11299508D02*
X15439230Y-11309031D01*
X15439230Y-11309031D02*
X15448753Y-11328079D01*
X15448753Y-11328079D02*
X15448753Y-11347127D01*
X15448753Y-11347127D02*
X15439230Y-11375698D01*
X15439230Y-11375698D02*
X15324944Y-11489984D01*
X15324944Y-11489984D02*
X15448753Y-11489984D01*
X15677325Y-11480460D02*
X15696373Y-11489984D01*
X15696373Y-11489984D02*
X15734468Y-11489984D01*
X15734468Y-11489984D02*
X15753515Y-11480460D01*
X15753515Y-11480460D02*
X15763039Y-11461412D01*
X15763039Y-11461412D02*
X15763039Y-11451888D01*
X15763039Y-11451888D02*
X15753515Y-11432841D01*
X15753515Y-11432841D02*
X15734468Y-11423317D01*
X15734468Y-11423317D02*
X15705896Y-11423317D01*
X15705896Y-11423317D02*
X15686849Y-11413793D01*
X15686849Y-11413793D02*
X15677325Y-11394746D01*
X15677325Y-11394746D02*
X15677325Y-11385222D01*
X15677325Y-11385222D02*
X15686849Y-11366174D01*
X15686849Y-11366174D02*
X15705896Y-11356650D01*
X15705896Y-11356650D02*
X15734468Y-11356650D01*
X15734468Y-11356650D02*
X15753515Y-11366174D01*
X15877325Y-11489984D02*
X15858277Y-11480460D01*
X15858277Y-11480460D02*
X15848754Y-11461412D01*
X15848754Y-11461412D02*
X15848754Y-11289984D01*
X15982087Y-11489984D02*
X15963039Y-11480460D01*
X15963039Y-11480460D02*
X15953515Y-11470936D01*
X15953515Y-11470936D02*
X15943992Y-11451888D01*
X15943992Y-11451888D02*
X15943992Y-11394746D01*
X15943992Y-11394746D02*
X15953515Y-11375698D01*
X15953515Y-11375698D02*
X15963039Y-11366174D01*
X15963039Y-11366174D02*
X15982087Y-11356650D01*
X15982087Y-11356650D02*
X16010658Y-11356650D01*
X16010658Y-11356650D02*
X16029706Y-11366174D01*
X16029706Y-11366174D02*
X16039230Y-11375698D01*
X16039230Y-11375698D02*
X16048754Y-11394746D01*
X16048754Y-11394746D02*
X16048754Y-11451888D01*
X16048754Y-11451888D02*
X16039230Y-11470936D01*
X16039230Y-11470936D02*
X16029706Y-11480460D01*
X16029706Y-11480460D02*
X16010658Y-11489984D01*
X16010658Y-11489984D02*
X15982087Y-11489984D01*
X16105896Y-11356650D02*
X16182087Y-11356650D01*
X16134468Y-11289984D02*
X16134468Y-11461412D01*
X16134468Y-11461412D02*
X16143992Y-11480460D01*
X16143992Y-11480460D02*
X16163039Y-11489984D01*
X16163039Y-11489984D02*
X16182087Y-11489984D01*
X16239230Y-11480460D02*
X16258277Y-11489984D01*
X16258277Y-11489984D02*
X16296373Y-11489984D01*
X16296373Y-11489984D02*
X16315420Y-11480460D01*
X16315420Y-11480460D02*
X16324944Y-11461412D01*
X16324944Y-11461412D02*
X16324944Y-11451888D01*
X16324944Y-11451888D02*
X16315420Y-11432841D01*
X16315420Y-11432841D02*
X16296373Y-11423317D01*
X16296373Y-11423317D02*
X16267801Y-11423317D01*
X16267801Y-11423317D02*
X16248754Y-11413793D01*
X16248754Y-11413793D02*
X16239230Y-11394746D01*
X16239230Y-11394746D02*
X16239230Y-11385222D01*
X16239230Y-11385222D02*
X16248754Y-11366174D01*
X16248754Y-11366174D02*
X16267801Y-11356650D01*
X16267801Y-11356650D02*
X16296373Y-11356650D01*
X16296373Y-11356650D02*
X16315420Y-11366174D01*
X16391611Y-11566174D02*
X16401135Y-11556650D01*
X16401135Y-11556650D02*
X16420182Y-11528079D01*
X16420182Y-11528079D02*
X16429706Y-11509031D01*
X16429706Y-11509031D02*
X16439230Y-11480460D01*
X16439230Y-11480460D02*
X16448754Y-11432841D01*
X16448754Y-11432841D02*
X16448754Y-11394746D01*
X16448754Y-11394746D02*
X16439230Y-11347127D01*
X16439230Y-11347127D02*
X16429706Y-11318555D01*
X16429706Y-11318555D02*
X16420182Y-11299508D01*
X16420182Y-11299508D02*
X16401135Y-11270936D01*
X16401135Y-11270936D02*
X16391611Y-11261412D01*
D12*
X9922500Y-11625000D02*
X9997500Y-11700000D01*
X9997500Y-11625000D02*
X9922500Y-11700000D01*
X9997500Y-11662500D02*
G75*
G02*
X9922500Y-11662500I-37500J0D01*
G01*
X9922500Y-11662500D02*
G75*
G02*
X9997500Y-11662500I37500J0D01*
G01*
D11*
X10296372Y-11553984D02*
X10315420Y-11553984D01*
X10315420Y-11553984D02*
X10334467Y-11563508D01*
X10334467Y-11563508D02*
X10343991Y-11573031D01*
X10343991Y-11573031D02*
X10353515Y-11592079D01*
X10353515Y-11592079D02*
X10363039Y-11630174D01*
X10363039Y-11630174D02*
X10363039Y-11677793D01*
X10363039Y-11677793D02*
X10353515Y-11715888D01*
X10353515Y-11715888D02*
X10343991Y-11734936D01*
X10343991Y-11734936D02*
X10334467Y-11744460D01*
X10334467Y-11744460D02*
X10315420Y-11753984D01*
X10315420Y-11753984D02*
X10296372Y-11753984D01*
X10296372Y-11753984D02*
X10277324Y-11744460D01*
X10277324Y-11744460D02*
X10267801Y-11734936D01*
X10267801Y-11734936D02*
X10258277Y-11715888D01*
X10258277Y-11715888D02*
X10248753Y-11677793D01*
X10248753Y-11677793D02*
X10248753Y-11630174D01*
X10248753Y-11630174D02*
X10258277Y-11592079D01*
X10258277Y-11592079D02*
X10267801Y-11573031D01*
X10267801Y-11573031D02*
X10277324Y-11563508D01*
X10277324Y-11563508D02*
X10296372Y-11553984D01*
X10448753Y-11734936D02*
X10458277Y-11744460D01*
X10458277Y-11744460D02*
X10448753Y-11753984D01*
X10448753Y-11753984D02*
X10439229Y-11744460D01*
X10439229Y-11744460D02*
X10448753Y-11734936D01*
X10448753Y-11734936D02*
X10448753Y-11753984D01*
X10524944Y-11553984D02*
X10658277Y-11553984D01*
X10658277Y-11553984D02*
X10572563Y-11753984D01*
X10829705Y-11553984D02*
X10734467Y-11553984D01*
X10734467Y-11553984D02*
X10724944Y-11649222D01*
X10724944Y-11649222D02*
X10734467Y-11639698D01*
X10734467Y-11639698D02*
X10753515Y-11630174D01*
X10753515Y-11630174D02*
X10801134Y-11630174D01*
X10801134Y-11630174D02*
X10820182Y-11639698D01*
X10820182Y-11639698D02*
X10829705Y-11649222D01*
X10829705Y-11649222D02*
X10839229Y-11668269D01*
X10839229Y-11668269D02*
X10839229Y-11715888D01*
X10839229Y-11715888D02*
X10829705Y-11734936D01*
X10829705Y-11734936D02*
X10820182Y-11744460D01*
X10820182Y-11744460D02*
X10801134Y-11753984D01*
X10801134Y-11753984D02*
X10753515Y-11753984D01*
X10753515Y-11753984D02*
X10734467Y-11744460D01*
X10734467Y-11744460D02*
X10724944Y-11734936D01*
X10963039Y-11553984D02*
X10982086Y-11553984D01*
X10982086Y-11553984D02*
X11001134Y-11563508D01*
X11001134Y-11563508D02*
X11010658Y-11573031D01*
X11010658Y-11573031D02*
X11020182Y-11592079D01*
X11020182Y-11592079D02*
X11029705Y-11630174D01*
X11029705Y-11630174D02*
X11029705Y-11677793D01*
X11029705Y-11677793D02*
X11020182Y-11715888D01*
X11020182Y-11715888D02*
X11010658Y-11734936D01*
X11010658Y-11734936D02*
X11001134Y-11744460D01*
X11001134Y-11744460D02*
X10982086Y-11753984D01*
X10982086Y-11753984D02*
X10963039Y-11753984D01*
X10963039Y-11753984D02*
X10943991Y-11744460D01*
X10943991Y-11744460D02*
X10934467Y-11734936D01*
X10934467Y-11734936D02*
X10924944Y-11715888D01*
X10924944Y-11715888D02*
X10915420Y-11677793D01*
X10915420Y-11677793D02*
X10915420Y-11630174D01*
X10915420Y-11630174D02*
X10924944Y-11592079D01*
X10924944Y-11592079D02*
X10934467Y-11573031D01*
X10934467Y-11573031D02*
X10943991Y-11563508D01*
X10943991Y-11563508D02*
X10963039Y-11553984D01*
X11115420Y-11753984D02*
X11115420Y-11620650D01*
X11115420Y-11639698D02*
X11124944Y-11630174D01*
X11124944Y-11630174D02*
X11143991Y-11620650D01*
X11143991Y-11620650D02*
X11172563Y-11620650D01*
X11172563Y-11620650D02*
X11191610Y-11630174D01*
X11191610Y-11630174D02*
X11201134Y-11649222D01*
X11201134Y-11649222D02*
X11201134Y-11753984D01*
X11201134Y-11649222D02*
X11210658Y-11630174D01*
X11210658Y-11630174D02*
X11229705Y-11620650D01*
X11229705Y-11620650D02*
X11258277Y-11620650D01*
X11258277Y-11620650D02*
X11277324Y-11630174D01*
X11277324Y-11630174D02*
X11286848Y-11649222D01*
X11286848Y-11649222D02*
X11286848Y-11753984D01*
X11382086Y-11753984D02*
X11382086Y-11620650D01*
X11382086Y-11639698D02*
X11391610Y-11630174D01*
X11391610Y-11630174D02*
X11410658Y-11620650D01*
X11410658Y-11620650D02*
X11439229Y-11620650D01*
X11439229Y-11620650D02*
X11458277Y-11630174D01*
X11458277Y-11630174D02*
X11467801Y-11649222D01*
X11467801Y-11649222D02*
X11467801Y-11753984D01*
X11467801Y-11649222D02*
X11477324Y-11630174D01*
X11477324Y-11630174D02*
X11496372Y-11620650D01*
X11496372Y-11620650D02*
X11524943Y-11620650D01*
X11524943Y-11620650D02*
X11543991Y-11630174D01*
X11543991Y-11630174D02*
X11553515Y-11649222D01*
X11553515Y-11649222D02*
X11553515Y-11753984D01*
X11943991Y-11544460D02*
X11772563Y-11801603D01*
X12201134Y-11553984D02*
X12220182Y-11553984D01*
X12220182Y-11553984D02*
X12239229Y-11563508D01*
X12239229Y-11563508D02*
X12248753Y-11573031D01*
X12248753Y-11573031D02*
X12258277Y-11592079D01*
X12258277Y-11592079D02*
X12267801Y-11630174D01*
X12267801Y-11630174D02*
X12267801Y-11677793D01*
X12267801Y-11677793D02*
X12258277Y-11715888D01*
X12258277Y-11715888D02*
X12248753Y-11734936D01*
X12248753Y-11734936D02*
X12239229Y-11744460D01*
X12239229Y-11744460D02*
X12220182Y-11753984D01*
X12220182Y-11753984D02*
X12201134Y-11753984D01*
X12201134Y-11753984D02*
X12182086Y-11744460D01*
X12182086Y-11744460D02*
X12172563Y-11734936D01*
X12172563Y-11734936D02*
X12163039Y-11715888D01*
X12163039Y-11715888D02*
X12153515Y-11677793D01*
X12153515Y-11677793D02*
X12153515Y-11630174D01*
X12153515Y-11630174D02*
X12163039Y-11592079D01*
X12163039Y-11592079D02*
X12172563Y-11573031D01*
X12172563Y-11573031D02*
X12182086Y-11563508D01*
X12182086Y-11563508D02*
X12201134Y-11553984D01*
X12353515Y-11734936D02*
X12363039Y-11744460D01*
X12363039Y-11744460D02*
X12353515Y-11753984D01*
X12353515Y-11753984D02*
X12343991Y-11744460D01*
X12343991Y-11744460D02*
X12353515Y-11734936D01*
X12353515Y-11734936D02*
X12353515Y-11753984D01*
X12486848Y-11553984D02*
X12505896Y-11553984D01*
X12505896Y-11553984D02*
X12524944Y-11563508D01*
X12524944Y-11563508D02*
X12534467Y-11573031D01*
X12534467Y-11573031D02*
X12543991Y-11592079D01*
X12543991Y-11592079D02*
X12553515Y-11630174D01*
X12553515Y-11630174D02*
X12553515Y-11677793D01*
X12553515Y-11677793D02*
X12543991Y-11715888D01*
X12543991Y-11715888D02*
X12534467Y-11734936D01*
X12534467Y-11734936D02*
X12524944Y-11744460D01*
X12524944Y-11744460D02*
X12505896Y-11753984D01*
X12505896Y-11753984D02*
X12486848Y-11753984D01*
X12486848Y-11753984D02*
X12467801Y-11744460D01*
X12467801Y-11744460D02*
X12458277Y-11734936D01*
X12458277Y-11734936D02*
X12448753Y-11715888D01*
X12448753Y-11715888D02*
X12439229Y-11677793D01*
X12439229Y-11677793D02*
X12439229Y-11630174D01*
X12439229Y-11630174D02*
X12448753Y-11592079D01*
X12448753Y-11592079D02*
X12458277Y-11573031D01*
X12458277Y-11573031D02*
X12467801Y-11563508D01*
X12467801Y-11563508D02*
X12486848Y-11553984D01*
X12629706Y-11573031D02*
X12639229Y-11563508D01*
X12639229Y-11563508D02*
X12658277Y-11553984D01*
X12658277Y-11553984D02*
X12705896Y-11553984D01*
X12705896Y-11553984D02*
X12724944Y-11563508D01*
X12724944Y-11563508D02*
X12734467Y-11573031D01*
X12734467Y-11573031D02*
X12743991Y-11592079D01*
X12743991Y-11592079D02*
X12743991Y-11611127D01*
X12743991Y-11611127D02*
X12734467Y-11639698D01*
X12734467Y-11639698D02*
X12620182Y-11753984D01*
X12620182Y-11753984D02*
X12743991Y-11753984D01*
X12839229Y-11753984D02*
X12877325Y-11753984D01*
X12877325Y-11753984D02*
X12896372Y-11744460D01*
X12896372Y-11744460D02*
X12905896Y-11734936D01*
X12905896Y-11734936D02*
X12924944Y-11706365D01*
X12924944Y-11706365D02*
X12934467Y-11668269D01*
X12934467Y-11668269D02*
X12934467Y-11592079D01*
X12934467Y-11592079D02*
X12924944Y-11573031D01*
X12924944Y-11573031D02*
X12915420Y-11563508D01*
X12915420Y-11563508D02*
X12896372Y-11553984D01*
X12896372Y-11553984D02*
X12858277Y-11553984D01*
X12858277Y-11553984D02*
X12839229Y-11563508D01*
X12839229Y-11563508D02*
X12829706Y-11573031D01*
X12829706Y-11573031D02*
X12820182Y-11592079D01*
X12820182Y-11592079D02*
X12820182Y-11639698D01*
X12820182Y-11639698D02*
X12829706Y-11658746D01*
X12829706Y-11658746D02*
X12839229Y-11668269D01*
X12839229Y-11668269D02*
X12858277Y-11677793D01*
X12858277Y-11677793D02*
X12896372Y-11677793D01*
X12896372Y-11677793D02*
X12915420Y-11668269D01*
X12915420Y-11668269D02*
X12924944Y-11658746D01*
X12924944Y-11658746D02*
X12934467Y-11639698D01*
X13115420Y-11553984D02*
X13020182Y-11553984D01*
X13020182Y-11553984D02*
X13010658Y-11649222D01*
X13010658Y-11649222D02*
X13020182Y-11639698D01*
X13020182Y-11639698D02*
X13039229Y-11630174D01*
X13039229Y-11630174D02*
X13086848Y-11630174D01*
X13086848Y-11630174D02*
X13105896Y-11639698D01*
X13105896Y-11639698D02*
X13115420Y-11649222D01*
X13115420Y-11649222D02*
X13124944Y-11668269D01*
X13124944Y-11668269D02*
X13124944Y-11715888D01*
X13124944Y-11715888D02*
X13115420Y-11734936D01*
X13115420Y-11734936D02*
X13105896Y-11744460D01*
X13105896Y-11744460D02*
X13086848Y-11753984D01*
X13086848Y-11753984D02*
X13039229Y-11753984D01*
X13039229Y-11753984D02*
X13020182Y-11744460D01*
X13020182Y-11744460D02*
X13010658Y-11734936D01*
X13201134Y-11553984D02*
X13201134Y-11592079D01*
X13277325Y-11553984D02*
X13277325Y-11592079D01*
X13572563Y-11830174D02*
X13563039Y-11820650D01*
X13563039Y-11820650D02*
X13543991Y-11792079D01*
X13543991Y-11792079D02*
X13534468Y-11773031D01*
X13534468Y-11773031D02*
X13524944Y-11744460D01*
X13524944Y-11744460D02*
X13515420Y-11696841D01*
X13515420Y-11696841D02*
X13515420Y-11658746D01*
X13515420Y-11658746D02*
X13524944Y-11611127D01*
X13524944Y-11611127D02*
X13534468Y-11582555D01*
X13534468Y-11582555D02*
X13543991Y-11563508D01*
X13543991Y-11563508D02*
X13563039Y-11534936D01*
X13563039Y-11534936D02*
X13572563Y-11525412D01*
X13639229Y-11573031D02*
X13648753Y-11563508D01*
X13648753Y-11563508D02*
X13667801Y-11553984D01*
X13667801Y-11553984D02*
X13715420Y-11553984D01*
X13715420Y-11553984D02*
X13734468Y-11563508D01*
X13734468Y-11563508D02*
X13743991Y-11573031D01*
X13743991Y-11573031D02*
X13753515Y-11592079D01*
X13753515Y-11592079D02*
X13753515Y-11611127D01*
X13753515Y-11611127D02*
X13743991Y-11639698D01*
X13743991Y-11639698D02*
X13629706Y-11753984D01*
X13629706Y-11753984D02*
X13753515Y-11753984D01*
X13991610Y-11753984D02*
X13991610Y-11553984D01*
X14077325Y-11753984D02*
X14077325Y-11649222D01*
X14077325Y-11649222D02*
X14067801Y-11630174D01*
X14067801Y-11630174D02*
X14048753Y-11620650D01*
X14048753Y-11620650D02*
X14020182Y-11620650D01*
X14020182Y-11620650D02*
X14001134Y-11630174D01*
X14001134Y-11630174D02*
X13991610Y-11639698D01*
X14201134Y-11753984D02*
X14182087Y-11744460D01*
X14182087Y-11744460D02*
X14172563Y-11734936D01*
X14172563Y-11734936D02*
X14163039Y-11715888D01*
X14163039Y-11715888D02*
X14163039Y-11658746D01*
X14163039Y-11658746D02*
X14172563Y-11639698D01*
X14172563Y-11639698D02*
X14182087Y-11630174D01*
X14182087Y-11630174D02*
X14201134Y-11620650D01*
X14201134Y-11620650D02*
X14229706Y-11620650D01*
X14229706Y-11620650D02*
X14248753Y-11630174D01*
X14248753Y-11630174D02*
X14258277Y-11639698D01*
X14258277Y-11639698D02*
X14267801Y-11658746D01*
X14267801Y-11658746D02*
X14267801Y-11715888D01*
X14267801Y-11715888D02*
X14258277Y-11734936D01*
X14258277Y-11734936D02*
X14248753Y-11744460D01*
X14248753Y-11744460D02*
X14229706Y-11753984D01*
X14229706Y-11753984D02*
X14201134Y-11753984D01*
X14382087Y-11753984D02*
X14363039Y-11744460D01*
X14363039Y-11744460D02*
X14353515Y-11725412D01*
X14353515Y-11725412D02*
X14353515Y-11553984D01*
X14534468Y-11744460D02*
X14515420Y-11753984D01*
X14515420Y-11753984D02*
X14477325Y-11753984D01*
X14477325Y-11753984D02*
X14458277Y-11744460D01*
X14458277Y-11744460D02*
X14448753Y-11725412D01*
X14448753Y-11725412D02*
X14448753Y-11649222D01*
X14448753Y-11649222D02*
X14458277Y-11630174D01*
X14458277Y-11630174D02*
X14477325Y-11620650D01*
X14477325Y-11620650D02*
X14515420Y-11620650D01*
X14515420Y-11620650D02*
X14534468Y-11630174D01*
X14534468Y-11630174D02*
X14543991Y-11649222D01*
X14543991Y-11649222D02*
X14543991Y-11668269D01*
X14543991Y-11668269D02*
X14448753Y-11687317D01*
X14620182Y-11744460D02*
X14639230Y-11753984D01*
X14639230Y-11753984D02*
X14677325Y-11753984D01*
X14677325Y-11753984D02*
X14696372Y-11744460D01*
X14696372Y-11744460D02*
X14705896Y-11725412D01*
X14705896Y-11725412D02*
X14705896Y-11715888D01*
X14705896Y-11715888D02*
X14696372Y-11696841D01*
X14696372Y-11696841D02*
X14677325Y-11687317D01*
X14677325Y-11687317D02*
X14648753Y-11687317D01*
X14648753Y-11687317D02*
X14629706Y-11677793D01*
X14629706Y-11677793D02*
X14620182Y-11658746D01*
X14620182Y-11658746D02*
X14620182Y-11649222D01*
X14620182Y-11649222D02*
X14629706Y-11630174D01*
X14629706Y-11630174D02*
X14648753Y-11620650D01*
X14648753Y-11620650D02*
X14677325Y-11620650D01*
X14677325Y-11620650D02*
X14696372Y-11630174D01*
X14772563Y-11830174D02*
X14782087Y-11820650D01*
X14782087Y-11820650D02*
X14801134Y-11792079D01*
X14801134Y-11792079D02*
X14810658Y-11773031D01*
X14810658Y-11773031D02*
X14820182Y-11744460D01*
X14820182Y-11744460D02*
X14829706Y-11696841D01*
X14829706Y-11696841D02*
X14829706Y-11658746D01*
X14829706Y-11658746D02*
X14820182Y-11611127D01*
X14820182Y-11611127D02*
X14810658Y-11582555D01*
X14810658Y-11582555D02*
X14801134Y-11563508D01*
X14801134Y-11563508D02*
X14782087Y-11534936D01*
X14782087Y-11534936D02*
X14772563Y-11525412D01*
D12*
X9916220Y-11885860D02*
X9997500Y-11967140D01*
X9997500Y-11885860D02*
X9916220Y-11967140D01*
X9956860Y-11885860D02*
X9956860Y-11967140D01*
X9916220Y-11926500D02*
X9997500Y-11926500D01*
D11*
X10296372Y-11817984D02*
X10315420Y-11817984D01*
X10315420Y-11817984D02*
X10334467Y-11827508D01*
X10334467Y-11827508D02*
X10343991Y-11837031D01*
X10343991Y-11837031D02*
X10353515Y-11856079D01*
X10353515Y-11856079D02*
X10363039Y-11894174D01*
X10363039Y-11894174D02*
X10363039Y-11941793D01*
X10363039Y-11941793D02*
X10353515Y-11979888D01*
X10353515Y-11979888D02*
X10343991Y-11998936D01*
X10343991Y-11998936D02*
X10334467Y-12008460D01*
X10334467Y-12008460D02*
X10315420Y-12017984D01*
X10315420Y-12017984D02*
X10296372Y-12017984D01*
X10296372Y-12017984D02*
X10277324Y-12008460D01*
X10277324Y-12008460D02*
X10267801Y-11998936D01*
X10267801Y-11998936D02*
X10258277Y-11979888D01*
X10258277Y-11979888D02*
X10248753Y-11941793D01*
X10248753Y-11941793D02*
X10248753Y-11894174D01*
X10248753Y-11894174D02*
X10258277Y-11856079D01*
X10258277Y-11856079D02*
X10267801Y-11837031D01*
X10267801Y-11837031D02*
X10277324Y-11827508D01*
X10277324Y-11827508D02*
X10296372Y-11817984D01*
X10448753Y-11998936D02*
X10458277Y-12008460D01*
X10458277Y-12008460D02*
X10448753Y-12017984D01*
X10448753Y-12017984D02*
X10439229Y-12008460D01*
X10439229Y-12008460D02*
X10448753Y-11998936D01*
X10448753Y-11998936D02*
X10448753Y-12017984D01*
X10572563Y-11903698D02*
X10553515Y-11894174D01*
X10553515Y-11894174D02*
X10543991Y-11884650D01*
X10543991Y-11884650D02*
X10534467Y-11865603D01*
X10534467Y-11865603D02*
X10534467Y-11856079D01*
X10534467Y-11856079D02*
X10543991Y-11837031D01*
X10543991Y-11837031D02*
X10553515Y-11827508D01*
X10553515Y-11827508D02*
X10572563Y-11817984D01*
X10572563Y-11817984D02*
X10610658Y-11817984D01*
X10610658Y-11817984D02*
X10629705Y-11827508D01*
X10629705Y-11827508D02*
X10639229Y-11837031D01*
X10639229Y-11837031D02*
X10648753Y-11856079D01*
X10648753Y-11856079D02*
X10648753Y-11865603D01*
X10648753Y-11865603D02*
X10639229Y-11884650D01*
X10639229Y-11884650D02*
X10629705Y-11894174D01*
X10629705Y-11894174D02*
X10610658Y-11903698D01*
X10610658Y-11903698D02*
X10572563Y-11903698D01*
X10572563Y-11903698D02*
X10553515Y-11913222D01*
X10553515Y-11913222D02*
X10543991Y-11922746D01*
X10543991Y-11922746D02*
X10534467Y-11941793D01*
X10534467Y-11941793D02*
X10534467Y-11979888D01*
X10534467Y-11979888D02*
X10543991Y-11998936D01*
X10543991Y-11998936D02*
X10553515Y-12008460D01*
X10553515Y-12008460D02*
X10572563Y-12017984D01*
X10572563Y-12017984D02*
X10610658Y-12017984D01*
X10610658Y-12017984D02*
X10629705Y-12008460D01*
X10629705Y-12008460D02*
X10639229Y-11998936D01*
X10639229Y-11998936D02*
X10648753Y-11979888D01*
X10648753Y-11979888D02*
X10648753Y-11941793D01*
X10648753Y-11941793D02*
X10639229Y-11922746D01*
X10639229Y-11922746D02*
X10629705Y-11913222D01*
X10629705Y-11913222D02*
X10610658Y-11903698D01*
X10839229Y-12017984D02*
X10724944Y-12017984D01*
X10782086Y-12017984D02*
X10782086Y-11817984D01*
X10782086Y-11817984D02*
X10763039Y-11846555D01*
X10763039Y-11846555D02*
X10743991Y-11865603D01*
X10743991Y-11865603D02*
X10724944Y-11875127D01*
X10905896Y-11817984D02*
X11029705Y-11817984D01*
X11029705Y-11817984D02*
X10963039Y-11894174D01*
X10963039Y-11894174D02*
X10991610Y-11894174D01*
X10991610Y-11894174D02*
X11010658Y-11903698D01*
X11010658Y-11903698D02*
X11020182Y-11913222D01*
X11020182Y-11913222D02*
X11029705Y-11932269D01*
X11029705Y-11932269D02*
X11029705Y-11979888D01*
X11029705Y-11979888D02*
X11020182Y-11998936D01*
X11020182Y-11998936D02*
X11010658Y-12008460D01*
X11010658Y-12008460D02*
X10991610Y-12017984D01*
X10991610Y-12017984D02*
X10934467Y-12017984D01*
X10934467Y-12017984D02*
X10915420Y-12008460D01*
X10915420Y-12008460D02*
X10905896Y-11998936D01*
X11115420Y-12017984D02*
X11115420Y-11884650D01*
X11115420Y-11903698D02*
X11124944Y-11894174D01*
X11124944Y-11894174D02*
X11143991Y-11884650D01*
X11143991Y-11884650D02*
X11172563Y-11884650D01*
X11172563Y-11884650D02*
X11191610Y-11894174D01*
X11191610Y-11894174D02*
X11201134Y-11913222D01*
X11201134Y-11913222D02*
X11201134Y-12017984D01*
X11201134Y-11913222D02*
X11210658Y-11894174D01*
X11210658Y-11894174D02*
X11229705Y-11884650D01*
X11229705Y-11884650D02*
X11258277Y-11884650D01*
X11258277Y-11884650D02*
X11277324Y-11894174D01*
X11277324Y-11894174D02*
X11286848Y-11913222D01*
X11286848Y-11913222D02*
X11286848Y-12017984D01*
X11382086Y-12017984D02*
X11382086Y-11884650D01*
X11382086Y-11903698D02*
X11391610Y-11894174D01*
X11391610Y-11894174D02*
X11410658Y-11884650D01*
X11410658Y-11884650D02*
X11439229Y-11884650D01*
X11439229Y-11884650D02*
X11458277Y-11894174D01*
X11458277Y-11894174D02*
X11467801Y-11913222D01*
X11467801Y-11913222D02*
X11467801Y-12017984D01*
X11467801Y-11913222D02*
X11477324Y-11894174D01*
X11477324Y-11894174D02*
X11496372Y-11884650D01*
X11496372Y-11884650D02*
X11524943Y-11884650D01*
X11524943Y-11884650D02*
X11543991Y-11894174D01*
X11543991Y-11894174D02*
X11553515Y-11913222D01*
X11553515Y-11913222D02*
X11553515Y-12017984D01*
X11943991Y-11808460D02*
X11772563Y-12065603D01*
X12201134Y-11817984D02*
X12220182Y-11817984D01*
X12220182Y-11817984D02*
X12239229Y-11827508D01*
X12239229Y-11827508D02*
X12248753Y-11837031D01*
X12248753Y-11837031D02*
X12258277Y-11856079D01*
X12258277Y-11856079D02*
X12267801Y-11894174D01*
X12267801Y-11894174D02*
X12267801Y-11941793D01*
X12267801Y-11941793D02*
X12258277Y-11979888D01*
X12258277Y-11979888D02*
X12248753Y-11998936D01*
X12248753Y-11998936D02*
X12239229Y-12008460D01*
X12239229Y-12008460D02*
X12220182Y-12017984D01*
X12220182Y-12017984D02*
X12201134Y-12017984D01*
X12201134Y-12017984D02*
X12182086Y-12008460D01*
X12182086Y-12008460D02*
X12172563Y-11998936D01*
X12172563Y-11998936D02*
X12163039Y-11979888D01*
X12163039Y-11979888D02*
X12153515Y-11941793D01*
X12153515Y-11941793D02*
X12153515Y-11894174D01*
X12153515Y-11894174D02*
X12163039Y-11856079D01*
X12163039Y-11856079D02*
X12172563Y-11837031D01*
X12172563Y-11837031D02*
X12182086Y-11827508D01*
X12182086Y-11827508D02*
X12201134Y-11817984D01*
X12353515Y-11998936D02*
X12363039Y-12008460D01*
X12363039Y-12008460D02*
X12353515Y-12017984D01*
X12353515Y-12017984D02*
X12343991Y-12008460D01*
X12343991Y-12008460D02*
X12353515Y-11998936D01*
X12353515Y-11998936D02*
X12353515Y-12017984D01*
X12486848Y-11817984D02*
X12505896Y-11817984D01*
X12505896Y-11817984D02*
X12524944Y-11827508D01*
X12524944Y-11827508D02*
X12534467Y-11837031D01*
X12534467Y-11837031D02*
X12543991Y-11856079D01*
X12543991Y-11856079D02*
X12553515Y-11894174D01*
X12553515Y-11894174D02*
X12553515Y-11941793D01*
X12553515Y-11941793D02*
X12543991Y-11979888D01*
X12543991Y-11979888D02*
X12534467Y-11998936D01*
X12534467Y-11998936D02*
X12524944Y-12008460D01*
X12524944Y-12008460D02*
X12505896Y-12017984D01*
X12505896Y-12017984D02*
X12486848Y-12017984D01*
X12486848Y-12017984D02*
X12467801Y-12008460D01*
X12467801Y-12008460D02*
X12458277Y-11998936D01*
X12458277Y-11998936D02*
X12448753Y-11979888D01*
X12448753Y-11979888D02*
X12439229Y-11941793D01*
X12439229Y-11941793D02*
X12439229Y-11894174D01*
X12439229Y-11894174D02*
X12448753Y-11856079D01*
X12448753Y-11856079D02*
X12458277Y-11837031D01*
X12458277Y-11837031D02*
X12467801Y-11827508D01*
X12467801Y-11827508D02*
X12486848Y-11817984D01*
X12620182Y-11817984D02*
X12743991Y-11817984D01*
X12743991Y-11817984D02*
X12677325Y-11894174D01*
X12677325Y-11894174D02*
X12705896Y-11894174D01*
X12705896Y-11894174D02*
X12724944Y-11903698D01*
X12724944Y-11903698D02*
X12734467Y-11913222D01*
X12734467Y-11913222D02*
X12743991Y-11932269D01*
X12743991Y-11932269D02*
X12743991Y-11979888D01*
X12743991Y-11979888D02*
X12734467Y-11998936D01*
X12734467Y-11998936D02*
X12724944Y-12008460D01*
X12724944Y-12008460D02*
X12705896Y-12017984D01*
X12705896Y-12017984D02*
X12648753Y-12017984D01*
X12648753Y-12017984D02*
X12629706Y-12008460D01*
X12629706Y-12008460D02*
X12620182Y-11998936D01*
X12820182Y-11837031D02*
X12829706Y-11827508D01*
X12829706Y-11827508D02*
X12848753Y-11817984D01*
X12848753Y-11817984D02*
X12896372Y-11817984D01*
X12896372Y-11817984D02*
X12915420Y-11827508D01*
X12915420Y-11827508D02*
X12924944Y-11837031D01*
X12924944Y-11837031D02*
X12934467Y-11856079D01*
X12934467Y-11856079D02*
X12934467Y-11875127D01*
X12934467Y-11875127D02*
X12924944Y-11903698D01*
X12924944Y-11903698D02*
X12810658Y-12017984D01*
X12810658Y-12017984D02*
X12934467Y-12017984D01*
X13058277Y-11817984D02*
X13077325Y-11817984D01*
X13077325Y-11817984D02*
X13096372Y-11827508D01*
X13096372Y-11827508D02*
X13105896Y-11837031D01*
X13105896Y-11837031D02*
X13115420Y-11856079D01*
X13115420Y-11856079D02*
X13124944Y-11894174D01*
X13124944Y-11894174D02*
X13124944Y-11941793D01*
X13124944Y-11941793D02*
X13115420Y-11979888D01*
X13115420Y-11979888D02*
X13105896Y-11998936D01*
X13105896Y-11998936D02*
X13096372Y-12008460D01*
X13096372Y-12008460D02*
X13077325Y-12017984D01*
X13077325Y-12017984D02*
X13058277Y-12017984D01*
X13058277Y-12017984D02*
X13039229Y-12008460D01*
X13039229Y-12008460D02*
X13029706Y-11998936D01*
X13029706Y-11998936D02*
X13020182Y-11979888D01*
X13020182Y-11979888D02*
X13010658Y-11941793D01*
X13010658Y-11941793D02*
X13010658Y-11894174D01*
X13010658Y-11894174D02*
X13020182Y-11856079D01*
X13020182Y-11856079D02*
X13029706Y-11837031D01*
X13029706Y-11837031D02*
X13039229Y-11827508D01*
X13039229Y-11827508D02*
X13058277Y-11817984D01*
X13201134Y-11817984D02*
X13201134Y-11856079D01*
X13277325Y-11817984D02*
X13277325Y-11856079D01*
X13572563Y-12094174D02*
X13563039Y-12084650D01*
X13563039Y-12084650D02*
X13543991Y-12056079D01*
X13543991Y-12056079D02*
X13534468Y-12037031D01*
X13534468Y-12037031D02*
X13524944Y-12008460D01*
X13524944Y-12008460D02*
X13515420Y-11960841D01*
X13515420Y-11960841D02*
X13515420Y-11922746D01*
X13515420Y-11922746D02*
X13524944Y-11875127D01*
X13524944Y-11875127D02*
X13534468Y-11846555D01*
X13534468Y-11846555D02*
X13543991Y-11827508D01*
X13543991Y-11827508D02*
X13563039Y-11798936D01*
X13563039Y-11798936D02*
X13572563Y-11789412D01*
X13629706Y-11817984D02*
X13753515Y-11817984D01*
X13753515Y-11817984D02*
X13686848Y-11894174D01*
X13686848Y-11894174D02*
X13715420Y-11894174D01*
X13715420Y-11894174D02*
X13734468Y-11903698D01*
X13734468Y-11903698D02*
X13743991Y-11913222D01*
X13743991Y-11913222D02*
X13753515Y-11932269D01*
X13753515Y-11932269D02*
X13753515Y-11979888D01*
X13753515Y-11979888D02*
X13743991Y-11998936D01*
X13743991Y-11998936D02*
X13734468Y-12008460D01*
X13734468Y-12008460D02*
X13715420Y-12017984D01*
X13715420Y-12017984D02*
X13658277Y-12017984D01*
X13658277Y-12017984D02*
X13639229Y-12008460D01*
X13639229Y-12008460D02*
X13629706Y-11998936D01*
X13991610Y-12017984D02*
X13991610Y-11817984D01*
X14077325Y-12017984D02*
X14077325Y-11913222D01*
X14077325Y-11913222D02*
X14067801Y-11894174D01*
X14067801Y-11894174D02*
X14048753Y-11884650D01*
X14048753Y-11884650D02*
X14020182Y-11884650D01*
X14020182Y-11884650D02*
X14001134Y-11894174D01*
X14001134Y-11894174D02*
X13991610Y-11903698D01*
X14201134Y-12017984D02*
X14182087Y-12008460D01*
X14182087Y-12008460D02*
X14172563Y-11998936D01*
X14172563Y-11998936D02*
X14163039Y-11979888D01*
X14163039Y-11979888D02*
X14163039Y-11922746D01*
X14163039Y-11922746D02*
X14172563Y-11903698D01*
X14172563Y-11903698D02*
X14182087Y-11894174D01*
X14182087Y-11894174D02*
X14201134Y-11884650D01*
X14201134Y-11884650D02*
X14229706Y-11884650D01*
X14229706Y-11884650D02*
X14248753Y-11894174D01*
X14248753Y-11894174D02*
X14258277Y-11903698D01*
X14258277Y-11903698D02*
X14267801Y-11922746D01*
X14267801Y-11922746D02*
X14267801Y-11979888D01*
X14267801Y-11979888D02*
X14258277Y-11998936D01*
X14258277Y-11998936D02*
X14248753Y-12008460D01*
X14248753Y-12008460D02*
X14229706Y-12017984D01*
X14229706Y-12017984D02*
X14201134Y-12017984D01*
X14382087Y-12017984D02*
X14363039Y-12008460D01*
X14363039Y-12008460D02*
X14353515Y-11989412D01*
X14353515Y-11989412D02*
X14353515Y-11817984D01*
X14534468Y-12008460D02*
X14515420Y-12017984D01*
X14515420Y-12017984D02*
X14477325Y-12017984D01*
X14477325Y-12017984D02*
X14458277Y-12008460D01*
X14458277Y-12008460D02*
X14448753Y-11989412D01*
X14448753Y-11989412D02*
X14448753Y-11913222D01*
X14448753Y-11913222D02*
X14458277Y-11894174D01*
X14458277Y-11894174D02*
X14477325Y-11884650D01*
X14477325Y-11884650D02*
X14515420Y-11884650D01*
X14515420Y-11884650D02*
X14534468Y-11894174D01*
X14534468Y-11894174D02*
X14543991Y-11913222D01*
X14543991Y-11913222D02*
X14543991Y-11932269D01*
X14543991Y-11932269D02*
X14448753Y-11951317D01*
X14620182Y-12008460D02*
X14639230Y-12017984D01*
X14639230Y-12017984D02*
X14677325Y-12017984D01*
X14677325Y-12017984D02*
X14696372Y-12008460D01*
X14696372Y-12008460D02*
X14705896Y-11989412D01*
X14705896Y-11989412D02*
X14705896Y-11979888D01*
X14705896Y-11979888D02*
X14696372Y-11960841D01*
X14696372Y-11960841D02*
X14677325Y-11951317D01*
X14677325Y-11951317D02*
X14648753Y-11951317D01*
X14648753Y-11951317D02*
X14629706Y-11941793D01*
X14629706Y-11941793D02*
X14620182Y-11922746D01*
X14620182Y-11922746D02*
X14620182Y-11913222D01*
X14620182Y-11913222D02*
X14629706Y-11894174D01*
X14629706Y-11894174D02*
X14648753Y-11884650D01*
X14648753Y-11884650D02*
X14677325Y-11884650D01*
X14677325Y-11884650D02*
X14696372Y-11894174D01*
X14772563Y-12094174D02*
X14782087Y-12084650D01*
X14782087Y-12084650D02*
X14801134Y-12056079D01*
X14801134Y-12056079D02*
X14810658Y-12037031D01*
X14810658Y-12037031D02*
X14820182Y-12008460D01*
X14820182Y-12008460D02*
X14829706Y-11960841D01*
X14829706Y-11960841D02*
X14829706Y-11922746D01*
X14829706Y-11922746D02*
X14820182Y-11875127D01*
X14820182Y-11875127D02*
X14810658Y-11846555D01*
X14810658Y-11846555D02*
X14801134Y-11827508D01*
X14801134Y-11827508D02*
X14782087Y-11798936D01*
X14782087Y-11798936D02*
X14772563Y-11789412D01*
D12*
X9898440Y-12140970D02*
X9997500Y-12240030D01*
X9997500Y-12140970D02*
X9898440Y-12240030D01*
X9982993Y-12225523D02*
X9982993Y-12155477D01*
X9912947Y-12155477D01*
X9912947Y-12225523D01*
X9982993Y-12225523D01*
D11*
X10296372Y-12081984D02*
X10315420Y-12081984D01*
X10315420Y-12081984D02*
X10334467Y-12091508D01*
X10334467Y-12091508D02*
X10343991Y-12101031D01*
X10343991Y-12101031D02*
X10353515Y-12120079D01*
X10353515Y-12120079D02*
X10363039Y-12158174D01*
X10363039Y-12158174D02*
X10363039Y-12205793D01*
X10363039Y-12205793D02*
X10353515Y-12243888D01*
X10353515Y-12243888D02*
X10343991Y-12262936D01*
X10343991Y-12262936D02*
X10334467Y-12272460D01*
X10334467Y-12272460D02*
X10315420Y-12281984D01*
X10315420Y-12281984D02*
X10296372Y-12281984D01*
X10296372Y-12281984D02*
X10277324Y-12272460D01*
X10277324Y-12272460D02*
X10267801Y-12262936D01*
X10267801Y-12262936D02*
X10258277Y-12243888D01*
X10258277Y-12243888D02*
X10248753Y-12205793D01*
X10248753Y-12205793D02*
X10248753Y-12158174D01*
X10248753Y-12158174D02*
X10258277Y-12120079D01*
X10258277Y-12120079D02*
X10267801Y-12101031D01*
X10267801Y-12101031D02*
X10277324Y-12091508D01*
X10277324Y-12091508D02*
X10296372Y-12081984D01*
X10448753Y-12262936D02*
X10458277Y-12272460D01*
X10458277Y-12272460D02*
X10448753Y-12281984D01*
X10448753Y-12281984D02*
X10439229Y-12272460D01*
X10439229Y-12272460D02*
X10448753Y-12262936D01*
X10448753Y-12262936D02*
X10448753Y-12281984D01*
X10553515Y-12281984D02*
X10591610Y-12281984D01*
X10591610Y-12281984D02*
X10610658Y-12272460D01*
X10610658Y-12272460D02*
X10620182Y-12262936D01*
X10620182Y-12262936D02*
X10639229Y-12234365D01*
X10639229Y-12234365D02*
X10648753Y-12196269D01*
X10648753Y-12196269D02*
X10648753Y-12120079D01*
X10648753Y-12120079D02*
X10639229Y-12101031D01*
X10639229Y-12101031D02*
X10629705Y-12091508D01*
X10629705Y-12091508D02*
X10610658Y-12081984D01*
X10610658Y-12081984D02*
X10572563Y-12081984D01*
X10572563Y-12081984D02*
X10553515Y-12091508D01*
X10553515Y-12091508D02*
X10543991Y-12101031D01*
X10543991Y-12101031D02*
X10534467Y-12120079D01*
X10534467Y-12120079D02*
X10534467Y-12167698D01*
X10534467Y-12167698D02*
X10543991Y-12186746D01*
X10543991Y-12186746D02*
X10553515Y-12196269D01*
X10553515Y-12196269D02*
X10572563Y-12205793D01*
X10572563Y-12205793D02*
X10610658Y-12205793D01*
X10610658Y-12205793D02*
X10629705Y-12196269D01*
X10629705Y-12196269D02*
X10639229Y-12186746D01*
X10639229Y-12186746D02*
X10648753Y-12167698D01*
X10743991Y-12281984D02*
X10782086Y-12281984D01*
X10782086Y-12281984D02*
X10801134Y-12272460D01*
X10801134Y-12272460D02*
X10810658Y-12262936D01*
X10810658Y-12262936D02*
X10829705Y-12234365D01*
X10829705Y-12234365D02*
X10839229Y-12196269D01*
X10839229Y-12196269D02*
X10839229Y-12120079D01*
X10839229Y-12120079D02*
X10829705Y-12101031D01*
X10829705Y-12101031D02*
X10820182Y-12091508D01*
X10820182Y-12091508D02*
X10801134Y-12081984D01*
X10801134Y-12081984D02*
X10763039Y-12081984D01*
X10763039Y-12081984D02*
X10743991Y-12091508D01*
X10743991Y-12091508D02*
X10734467Y-12101031D01*
X10734467Y-12101031D02*
X10724944Y-12120079D01*
X10724944Y-12120079D02*
X10724944Y-12167698D01*
X10724944Y-12167698D02*
X10734467Y-12186746D01*
X10734467Y-12186746D02*
X10743991Y-12196269D01*
X10743991Y-12196269D02*
X10763039Y-12205793D01*
X10763039Y-12205793D02*
X10801134Y-12205793D01*
X10801134Y-12205793D02*
X10820182Y-12196269D01*
X10820182Y-12196269D02*
X10829705Y-12186746D01*
X10829705Y-12186746D02*
X10839229Y-12167698D01*
X11029705Y-12281984D02*
X10915420Y-12281984D01*
X10972563Y-12281984D02*
X10972563Y-12081984D01*
X10972563Y-12081984D02*
X10953515Y-12110555D01*
X10953515Y-12110555D02*
X10934467Y-12129603D01*
X10934467Y-12129603D02*
X10915420Y-12139127D01*
X11115420Y-12281984D02*
X11115420Y-12148650D01*
X11115420Y-12167698D02*
X11124944Y-12158174D01*
X11124944Y-12158174D02*
X11143991Y-12148650D01*
X11143991Y-12148650D02*
X11172563Y-12148650D01*
X11172563Y-12148650D02*
X11191610Y-12158174D01*
X11191610Y-12158174D02*
X11201134Y-12177222D01*
X11201134Y-12177222D02*
X11201134Y-12281984D01*
X11201134Y-12177222D02*
X11210658Y-12158174D01*
X11210658Y-12158174D02*
X11229705Y-12148650D01*
X11229705Y-12148650D02*
X11258277Y-12148650D01*
X11258277Y-12148650D02*
X11277324Y-12158174D01*
X11277324Y-12158174D02*
X11286848Y-12177222D01*
X11286848Y-12177222D02*
X11286848Y-12281984D01*
X11382086Y-12281984D02*
X11382086Y-12148650D01*
X11382086Y-12167698D02*
X11391610Y-12158174D01*
X11391610Y-12158174D02*
X11410658Y-12148650D01*
X11410658Y-12148650D02*
X11439229Y-12148650D01*
X11439229Y-12148650D02*
X11458277Y-12158174D01*
X11458277Y-12158174D02*
X11467801Y-12177222D01*
X11467801Y-12177222D02*
X11467801Y-12281984D01*
X11467801Y-12177222D02*
X11477324Y-12158174D01*
X11477324Y-12158174D02*
X11496372Y-12148650D01*
X11496372Y-12148650D02*
X11524943Y-12148650D01*
X11524943Y-12148650D02*
X11543991Y-12158174D01*
X11543991Y-12158174D02*
X11553515Y-12177222D01*
X11553515Y-12177222D02*
X11553515Y-12281984D01*
X11943991Y-12072460D02*
X11772563Y-12329603D01*
X12201134Y-12081984D02*
X12220182Y-12081984D01*
X12220182Y-12081984D02*
X12239229Y-12091508D01*
X12239229Y-12091508D02*
X12248753Y-12101031D01*
X12248753Y-12101031D02*
X12258277Y-12120079D01*
X12258277Y-12120079D02*
X12267801Y-12158174D01*
X12267801Y-12158174D02*
X12267801Y-12205793D01*
X12267801Y-12205793D02*
X12258277Y-12243888D01*
X12258277Y-12243888D02*
X12248753Y-12262936D01*
X12248753Y-12262936D02*
X12239229Y-12272460D01*
X12239229Y-12272460D02*
X12220182Y-12281984D01*
X12220182Y-12281984D02*
X12201134Y-12281984D01*
X12201134Y-12281984D02*
X12182086Y-12272460D01*
X12182086Y-12272460D02*
X12172563Y-12262936D01*
X12172563Y-12262936D02*
X12163039Y-12243888D01*
X12163039Y-12243888D02*
X12153515Y-12205793D01*
X12153515Y-12205793D02*
X12153515Y-12158174D01*
X12153515Y-12158174D02*
X12163039Y-12120079D01*
X12163039Y-12120079D02*
X12172563Y-12101031D01*
X12172563Y-12101031D02*
X12182086Y-12091508D01*
X12182086Y-12091508D02*
X12201134Y-12081984D01*
X12353515Y-12262936D02*
X12363039Y-12272460D01*
X12363039Y-12272460D02*
X12353515Y-12281984D01*
X12353515Y-12281984D02*
X12343991Y-12272460D01*
X12343991Y-12272460D02*
X12353515Y-12262936D01*
X12353515Y-12262936D02*
X12353515Y-12281984D01*
X12486848Y-12081984D02*
X12505896Y-12081984D01*
X12505896Y-12081984D02*
X12524944Y-12091508D01*
X12524944Y-12091508D02*
X12534467Y-12101031D01*
X12534467Y-12101031D02*
X12543991Y-12120079D01*
X12543991Y-12120079D02*
X12553515Y-12158174D01*
X12553515Y-12158174D02*
X12553515Y-12205793D01*
X12553515Y-12205793D02*
X12543991Y-12243888D01*
X12543991Y-12243888D02*
X12534467Y-12262936D01*
X12534467Y-12262936D02*
X12524944Y-12272460D01*
X12524944Y-12272460D02*
X12505896Y-12281984D01*
X12505896Y-12281984D02*
X12486848Y-12281984D01*
X12486848Y-12281984D02*
X12467801Y-12272460D01*
X12467801Y-12272460D02*
X12458277Y-12262936D01*
X12458277Y-12262936D02*
X12448753Y-12243888D01*
X12448753Y-12243888D02*
X12439229Y-12205793D01*
X12439229Y-12205793D02*
X12439229Y-12158174D01*
X12439229Y-12158174D02*
X12448753Y-12120079D01*
X12448753Y-12120079D02*
X12458277Y-12101031D01*
X12458277Y-12101031D02*
X12467801Y-12091508D01*
X12467801Y-12091508D02*
X12486848Y-12081984D01*
X12620182Y-12081984D02*
X12743991Y-12081984D01*
X12743991Y-12081984D02*
X12677325Y-12158174D01*
X12677325Y-12158174D02*
X12705896Y-12158174D01*
X12705896Y-12158174D02*
X12724944Y-12167698D01*
X12724944Y-12167698D02*
X12734467Y-12177222D01*
X12734467Y-12177222D02*
X12743991Y-12196269D01*
X12743991Y-12196269D02*
X12743991Y-12243888D01*
X12743991Y-12243888D02*
X12734467Y-12262936D01*
X12734467Y-12262936D02*
X12724944Y-12272460D01*
X12724944Y-12272460D02*
X12705896Y-12281984D01*
X12705896Y-12281984D02*
X12648753Y-12281984D01*
X12648753Y-12281984D02*
X12629706Y-12272460D01*
X12629706Y-12272460D02*
X12620182Y-12262936D01*
X12839229Y-12281984D02*
X12877325Y-12281984D01*
X12877325Y-12281984D02*
X12896372Y-12272460D01*
X12896372Y-12272460D02*
X12905896Y-12262936D01*
X12905896Y-12262936D02*
X12924944Y-12234365D01*
X12924944Y-12234365D02*
X12934467Y-12196269D01*
X12934467Y-12196269D02*
X12934467Y-12120079D01*
X12934467Y-12120079D02*
X12924944Y-12101031D01*
X12924944Y-12101031D02*
X12915420Y-12091508D01*
X12915420Y-12091508D02*
X12896372Y-12081984D01*
X12896372Y-12081984D02*
X12858277Y-12081984D01*
X12858277Y-12081984D02*
X12839229Y-12091508D01*
X12839229Y-12091508D02*
X12829706Y-12101031D01*
X12829706Y-12101031D02*
X12820182Y-12120079D01*
X12820182Y-12120079D02*
X12820182Y-12167698D01*
X12820182Y-12167698D02*
X12829706Y-12186746D01*
X12829706Y-12186746D02*
X12839229Y-12196269D01*
X12839229Y-12196269D02*
X12858277Y-12205793D01*
X12858277Y-12205793D02*
X12896372Y-12205793D01*
X12896372Y-12205793D02*
X12915420Y-12196269D01*
X12915420Y-12196269D02*
X12924944Y-12186746D01*
X12924944Y-12186746D02*
X12934467Y-12167698D01*
X13058277Y-12081984D02*
X13077325Y-12081984D01*
X13077325Y-12081984D02*
X13096372Y-12091508D01*
X13096372Y-12091508D02*
X13105896Y-12101031D01*
X13105896Y-12101031D02*
X13115420Y-12120079D01*
X13115420Y-12120079D02*
X13124944Y-12158174D01*
X13124944Y-12158174D02*
X13124944Y-12205793D01*
X13124944Y-12205793D02*
X13115420Y-12243888D01*
X13115420Y-12243888D02*
X13105896Y-12262936D01*
X13105896Y-12262936D02*
X13096372Y-12272460D01*
X13096372Y-12272460D02*
X13077325Y-12281984D01*
X13077325Y-12281984D02*
X13058277Y-12281984D01*
X13058277Y-12281984D02*
X13039229Y-12272460D01*
X13039229Y-12272460D02*
X13029706Y-12262936D01*
X13029706Y-12262936D02*
X13020182Y-12243888D01*
X13020182Y-12243888D02*
X13010658Y-12205793D01*
X13010658Y-12205793D02*
X13010658Y-12158174D01*
X13010658Y-12158174D02*
X13020182Y-12120079D01*
X13020182Y-12120079D02*
X13029706Y-12101031D01*
X13029706Y-12101031D02*
X13039229Y-12091508D01*
X13039229Y-12091508D02*
X13058277Y-12081984D01*
X13201134Y-12081984D02*
X13201134Y-12120079D01*
X13277325Y-12081984D02*
X13277325Y-12120079D01*
X13572563Y-12358174D02*
X13563039Y-12348650D01*
X13563039Y-12348650D02*
X13543991Y-12320079D01*
X13543991Y-12320079D02*
X13534468Y-12301031D01*
X13534468Y-12301031D02*
X13524944Y-12272460D01*
X13524944Y-12272460D02*
X13515420Y-12224841D01*
X13515420Y-12224841D02*
X13515420Y-12186746D01*
X13515420Y-12186746D02*
X13524944Y-12139127D01*
X13524944Y-12139127D02*
X13534468Y-12110555D01*
X13534468Y-12110555D02*
X13543991Y-12091508D01*
X13543991Y-12091508D02*
X13563039Y-12062936D01*
X13563039Y-12062936D02*
X13572563Y-12053412D01*
X13753515Y-12281984D02*
X13639229Y-12281984D01*
X13696372Y-12281984D02*
X13696372Y-12081984D01*
X13696372Y-12081984D02*
X13677325Y-12110555D01*
X13677325Y-12110555D02*
X13658277Y-12129603D01*
X13658277Y-12129603D02*
X13639229Y-12139127D01*
X13924944Y-12081984D02*
X13886848Y-12081984D01*
X13886848Y-12081984D02*
X13867801Y-12091508D01*
X13867801Y-12091508D02*
X13858277Y-12101031D01*
X13858277Y-12101031D02*
X13839229Y-12129603D01*
X13839229Y-12129603D02*
X13829706Y-12167698D01*
X13829706Y-12167698D02*
X13829706Y-12243888D01*
X13829706Y-12243888D02*
X13839229Y-12262936D01*
X13839229Y-12262936D02*
X13848753Y-12272460D01*
X13848753Y-12272460D02*
X13867801Y-12281984D01*
X13867801Y-12281984D02*
X13905896Y-12281984D01*
X13905896Y-12281984D02*
X13924944Y-12272460D01*
X13924944Y-12272460D02*
X13934468Y-12262936D01*
X13934468Y-12262936D02*
X13943991Y-12243888D01*
X13943991Y-12243888D02*
X13943991Y-12196269D01*
X13943991Y-12196269D02*
X13934468Y-12177222D01*
X13934468Y-12177222D02*
X13924944Y-12167698D01*
X13924944Y-12167698D02*
X13905896Y-12158174D01*
X13905896Y-12158174D02*
X13867801Y-12158174D01*
X13867801Y-12158174D02*
X13848753Y-12167698D01*
X13848753Y-12167698D02*
X13839229Y-12177222D01*
X13839229Y-12177222D02*
X13829706Y-12196269D01*
X14182087Y-12281984D02*
X14182087Y-12081984D01*
X14267801Y-12281984D02*
X14267801Y-12177222D01*
X14267801Y-12177222D02*
X14258277Y-12158174D01*
X14258277Y-12158174D02*
X14239230Y-12148650D01*
X14239230Y-12148650D02*
X14210658Y-12148650D01*
X14210658Y-12148650D02*
X14191610Y-12158174D01*
X14191610Y-12158174D02*
X14182087Y-12167698D01*
X14391610Y-12281984D02*
X14372563Y-12272460D01*
X14372563Y-12272460D02*
X14363039Y-12262936D01*
X14363039Y-12262936D02*
X14353515Y-12243888D01*
X14353515Y-12243888D02*
X14353515Y-12186746D01*
X14353515Y-12186746D02*
X14363039Y-12167698D01*
X14363039Y-12167698D02*
X14372563Y-12158174D01*
X14372563Y-12158174D02*
X14391610Y-12148650D01*
X14391610Y-12148650D02*
X14420182Y-12148650D01*
X14420182Y-12148650D02*
X14439230Y-12158174D01*
X14439230Y-12158174D02*
X14448753Y-12167698D01*
X14448753Y-12167698D02*
X14458277Y-12186746D01*
X14458277Y-12186746D02*
X14458277Y-12243888D01*
X14458277Y-12243888D02*
X14448753Y-12262936D01*
X14448753Y-12262936D02*
X14439230Y-12272460D01*
X14439230Y-12272460D02*
X14420182Y-12281984D01*
X14420182Y-12281984D02*
X14391610Y-12281984D01*
X14572563Y-12281984D02*
X14553515Y-12272460D01*
X14553515Y-12272460D02*
X14543991Y-12253412D01*
X14543991Y-12253412D02*
X14543991Y-12081984D01*
X14724944Y-12272460D02*
X14705896Y-12281984D01*
X14705896Y-12281984D02*
X14667801Y-12281984D01*
X14667801Y-12281984D02*
X14648753Y-12272460D01*
X14648753Y-12272460D02*
X14639230Y-12253412D01*
X14639230Y-12253412D02*
X14639230Y-12177222D01*
X14639230Y-12177222D02*
X14648753Y-12158174D01*
X14648753Y-12158174D02*
X14667801Y-12148650D01*
X14667801Y-12148650D02*
X14705896Y-12148650D01*
X14705896Y-12148650D02*
X14724944Y-12158174D01*
X14724944Y-12158174D02*
X14734468Y-12177222D01*
X14734468Y-12177222D02*
X14734468Y-12196269D01*
X14734468Y-12196269D02*
X14639230Y-12215317D01*
X14810658Y-12272460D02*
X14829706Y-12281984D01*
X14829706Y-12281984D02*
X14867801Y-12281984D01*
X14867801Y-12281984D02*
X14886849Y-12272460D01*
X14886849Y-12272460D02*
X14896372Y-12253412D01*
X14896372Y-12253412D02*
X14896372Y-12243888D01*
X14896372Y-12243888D02*
X14886849Y-12224841D01*
X14886849Y-12224841D02*
X14867801Y-12215317D01*
X14867801Y-12215317D02*
X14839230Y-12215317D01*
X14839230Y-12215317D02*
X14820182Y-12205793D01*
X14820182Y-12205793D02*
X14810658Y-12186746D01*
X14810658Y-12186746D02*
X14810658Y-12177222D01*
X14810658Y-12177222D02*
X14820182Y-12158174D01*
X14820182Y-12158174D02*
X14839230Y-12148650D01*
X14839230Y-12148650D02*
X14867801Y-12148650D01*
X14867801Y-12148650D02*
X14886849Y-12158174D01*
X14963039Y-12358174D02*
X14972563Y-12348650D01*
X14972563Y-12348650D02*
X14991611Y-12320079D01*
X14991611Y-12320079D02*
X15001134Y-12301031D01*
X15001134Y-12301031D02*
X15010658Y-12272460D01*
X15010658Y-12272460D02*
X15020182Y-12224841D01*
X15020182Y-12224841D02*
X15020182Y-12186746D01*
X15020182Y-12186746D02*
X15010658Y-12139127D01*
X15010658Y-12139127D02*
X15001134Y-12110555D01*
X15001134Y-12110555D02*
X14991611Y-12091508D01*
X14991611Y-12091508D02*
X14972563Y-12062936D01*
X14972563Y-12062936D02*
X14963039Y-12053412D01*
D12*
X9897500Y-12404500D02*
X9997500Y-12504500D01*
X9997500Y-12404500D02*
X9897500Y-12504500D01*
X9947500Y-12504500D02*
X9997500Y-12454500D01*
X9947500Y-12404500D01*
X9897500Y-12454500D01*
X9947500Y-12504500D01*
D11*
X10363039Y-12545984D02*
X10248753Y-12545984D01*
X10305896Y-12545984D02*
X10305896Y-12345984D01*
X10305896Y-12345984D02*
X10286848Y-12374555D01*
X10286848Y-12374555D02*
X10267801Y-12393603D01*
X10267801Y-12393603D02*
X10248753Y-12403127D01*
X10448753Y-12526936D02*
X10458277Y-12536460D01*
X10458277Y-12536460D02*
X10448753Y-12545984D01*
X10448753Y-12545984D02*
X10439229Y-12536460D01*
X10439229Y-12536460D02*
X10448753Y-12526936D01*
X10448753Y-12526936D02*
X10448753Y-12545984D01*
X10582086Y-12345984D02*
X10601134Y-12345984D01*
X10601134Y-12345984D02*
X10620182Y-12355508D01*
X10620182Y-12355508D02*
X10629705Y-12365031D01*
X10629705Y-12365031D02*
X10639229Y-12384079D01*
X10639229Y-12384079D02*
X10648753Y-12422174D01*
X10648753Y-12422174D02*
X10648753Y-12469793D01*
X10648753Y-12469793D02*
X10639229Y-12507888D01*
X10639229Y-12507888D02*
X10629705Y-12526936D01*
X10629705Y-12526936D02*
X10620182Y-12536460D01*
X10620182Y-12536460D02*
X10601134Y-12545984D01*
X10601134Y-12545984D02*
X10582086Y-12545984D01*
X10582086Y-12545984D02*
X10563039Y-12536460D01*
X10563039Y-12536460D02*
X10553515Y-12526936D01*
X10553515Y-12526936D02*
X10543991Y-12507888D01*
X10543991Y-12507888D02*
X10534467Y-12469793D01*
X10534467Y-12469793D02*
X10534467Y-12422174D01*
X10534467Y-12422174D02*
X10543991Y-12384079D01*
X10543991Y-12384079D02*
X10553515Y-12365031D01*
X10553515Y-12365031D02*
X10563039Y-12355508D01*
X10563039Y-12355508D02*
X10582086Y-12345984D01*
X10772563Y-12345984D02*
X10791610Y-12345984D01*
X10791610Y-12345984D02*
X10810658Y-12355508D01*
X10810658Y-12355508D02*
X10820182Y-12365031D01*
X10820182Y-12365031D02*
X10829705Y-12384079D01*
X10829705Y-12384079D02*
X10839229Y-12422174D01*
X10839229Y-12422174D02*
X10839229Y-12469793D01*
X10839229Y-12469793D02*
X10829705Y-12507888D01*
X10829705Y-12507888D02*
X10820182Y-12526936D01*
X10820182Y-12526936D02*
X10810658Y-12536460D01*
X10810658Y-12536460D02*
X10791610Y-12545984D01*
X10791610Y-12545984D02*
X10772563Y-12545984D01*
X10772563Y-12545984D02*
X10753515Y-12536460D01*
X10753515Y-12536460D02*
X10743991Y-12526936D01*
X10743991Y-12526936D02*
X10734467Y-12507888D01*
X10734467Y-12507888D02*
X10724944Y-12469793D01*
X10724944Y-12469793D02*
X10724944Y-12422174D01*
X10724944Y-12422174D02*
X10734467Y-12384079D01*
X10734467Y-12384079D02*
X10743991Y-12365031D01*
X10743991Y-12365031D02*
X10753515Y-12355508D01*
X10753515Y-12355508D02*
X10772563Y-12345984D01*
X10963039Y-12345984D02*
X10982086Y-12345984D01*
X10982086Y-12345984D02*
X11001134Y-12355508D01*
X11001134Y-12355508D02*
X11010658Y-12365031D01*
X11010658Y-12365031D02*
X11020182Y-12384079D01*
X11020182Y-12384079D02*
X11029705Y-12422174D01*
X11029705Y-12422174D02*
X11029705Y-12469793D01*
X11029705Y-12469793D02*
X11020182Y-12507888D01*
X11020182Y-12507888D02*
X11010658Y-12526936D01*
X11010658Y-12526936D02*
X11001134Y-12536460D01*
X11001134Y-12536460D02*
X10982086Y-12545984D01*
X10982086Y-12545984D02*
X10963039Y-12545984D01*
X10963039Y-12545984D02*
X10943991Y-12536460D01*
X10943991Y-12536460D02*
X10934467Y-12526936D01*
X10934467Y-12526936D02*
X10924944Y-12507888D01*
X10924944Y-12507888D02*
X10915420Y-12469793D01*
X10915420Y-12469793D02*
X10915420Y-12422174D01*
X10915420Y-12422174D02*
X10924944Y-12384079D01*
X10924944Y-12384079D02*
X10934467Y-12365031D01*
X10934467Y-12365031D02*
X10943991Y-12355508D01*
X10943991Y-12355508D02*
X10963039Y-12345984D01*
X11115420Y-12545984D02*
X11115420Y-12412650D01*
X11115420Y-12431698D02*
X11124944Y-12422174D01*
X11124944Y-12422174D02*
X11143991Y-12412650D01*
X11143991Y-12412650D02*
X11172563Y-12412650D01*
X11172563Y-12412650D02*
X11191610Y-12422174D01*
X11191610Y-12422174D02*
X11201134Y-12441222D01*
X11201134Y-12441222D02*
X11201134Y-12545984D01*
X11201134Y-12441222D02*
X11210658Y-12422174D01*
X11210658Y-12422174D02*
X11229705Y-12412650D01*
X11229705Y-12412650D02*
X11258277Y-12412650D01*
X11258277Y-12412650D02*
X11277324Y-12422174D01*
X11277324Y-12422174D02*
X11286848Y-12441222D01*
X11286848Y-12441222D02*
X11286848Y-12545984D01*
X11382086Y-12545984D02*
X11382086Y-12412650D01*
X11382086Y-12431698D02*
X11391610Y-12422174D01*
X11391610Y-12422174D02*
X11410658Y-12412650D01*
X11410658Y-12412650D02*
X11439229Y-12412650D01*
X11439229Y-12412650D02*
X11458277Y-12422174D01*
X11458277Y-12422174D02*
X11467801Y-12441222D01*
X11467801Y-12441222D02*
X11467801Y-12545984D01*
X11467801Y-12441222D02*
X11477324Y-12422174D01*
X11477324Y-12422174D02*
X11496372Y-12412650D01*
X11496372Y-12412650D02*
X11524943Y-12412650D01*
X11524943Y-12412650D02*
X11543991Y-12422174D01*
X11543991Y-12422174D02*
X11553515Y-12441222D01*
X11553515Y-12441222D02*
X11553515Y-12545984D01*
X11943991Y-12336460D02*
X11772563Y-12593603D01*
X12201134Y-12345984D02*
X12220182Y-12345984D01*
X12220182Y-12345984D02*
X12239229Y-12355508D01*
X12239229Y-12355508D02*
X12248753Y-12365031D01*
X12248753Y-12365031D02*
X12258277Y-12384079D01*
X12258277Y-12384079D02*
X12267801Y-12422174D01*
X12267801Y-12422174D02*
X12267801Y-12469793D01*
X12267801Y-12469793D02*
X12258277Y-12507888D01*
X12258277Y-12507888D02*
X12248753Y-12526936D01*
X12248753Y-12526936D02*
X12239229Y-12536460D01*
X12239229Y-12536460D02*
X12220182Y-12545984D01*
X12220182Y-12545984D02*
X12201134Y-12545984D01*
X12201134Y-12545984D02*
X12182086Y-12536460D01*
X12182086Y-12536460D02*
X12172563Y-12526936D01*
X12172563Y-12526936D02*
X12163039Y-12507888D01*
X12163039Y-12507888D02*
X12153515Y-12469793D01*
X12153515Y-12469793D02*
X12153515Y-12422174D01*
X12153515Y-12422174D02*
X12163039Y-12384079D01*
X12163039Y-12384079D02*
X12172563Y-12365031D01*
X12172563Y-12365031D02*
X12182086Y-12355508D01*
X12182086Y-12355508D02*
X12201134Y-12345984D01*
X12353515Y-12526936D02*
X12363039Y-12536460D01*
X12363039Y-12536460D02*
X12353515Y-12545984D01*
X12353515Y-12545984D02*
X12343991Y-12536460D01*
X12343991Y-12536460D02*
X12353515Y-12526936D01*
X12353515Y-12526936D02*
X12353515Y-12545984D01*
X12486848Y-12345984D02*
X12505896Y-12345984D01*
X12505896Y-12345984D02*
X12524944Y-12355508D01*
X12524944Y-12355508D02*
X12534467Y-12365031D01*
X12534467Y-12365031D02*
X12543991Y-12384079D01*
X12543991Y-12384079D02*
X12553515Y-12422174D01*
X12553515Y-12422174D02*
X12553515Y-12469793D01*
X12553515Y-12469793D02*
X12543991Y-12507888D01*
X12543991Y-12507888D02*
X12534467Y-12526936D01*
X12534467Y-12526936D02*
X12524944Y-12536460D01*
X12524944Y-12536460D02*
X12505896Y-12545984D01*
X12505896Y-12545984D02*
X12486848Y-12545984D01*
X12486848Y-12545984D02*
X12467801Y-12536460D01*
X12467801Y-12536460D02*
X12458277Y-12526936D01*
X12458277Y-12526936D02*
X12448753Y-12507888D01*
X12448753Y-12507888D02*
X12439229Y-12469793D01*
X12439229Y-12469793D02*
X12439229Y-12422174D01*
X12439229Y-12422174D02*
X12448753Y-12384079D01*
X12448753Y-12384079D02*
X12458277Y-12365031D01*
X12458277Y-12365031D02*
X12467801Y-12355508D01*
X12467801Y-12355508D02*
X12486848Y-12345984D01*
X12620182Y-12345984D02*
X12743991Y-12345984D01*
X12743991Y-12345984D02*
X12677325Y-12422174D01*
X12677325Y-12422174D02*
X12705896Y-12422174D01*
X12705896Y-12422174D02*
X12724944Y-12431698D01*
X12724944Y-12431698D02*
X12734467Y-12441222D01*
X12734467Y-12441222D02*
X12743991Y-12460269D01*
X12743991Y-12460269D02*
X12743991Y-12507888D01*
X12743991Y-12507888D02*
X12734467Y-12526936D01*
X12734467Y-12526936D02*
X12724944Y-12536460D01*
X12724944Y-12536460D02*
X12705896Y-12545984D01*
X12705896Y-12545984D02*
X12648753Y-12545984D01*
X12648753Y-12545984D02*
X12629706Y-12536460D01*
X12629706Y-12536460D02*
X12620182Y-12526936D01*
X12839229Y-12545984D02*
X12877325Y-12545984D01*
X12877325Y-12545984D02*
X12896372Y-12536460D01*
X12896372Y-12536460D02*
X12905896Y-12526936D01*
X12905896Y-12526936D02*
X12924944Y-12498365D01*
X12924944Y-12498365D02*
X12934467Y-12460269D01*
X12934467Y-12460269D02*
X12934467Y-12384079D01*
X12934467Y-12384079D02*
X12924944Y-12365031D01*
X12924944Y-12365031D02*
X12915420Y-12355508D01*
X12915420Y-12355508D02*
X12896372Y-12345984D01*
X12896372Y-12345984D02*
X12858277Y-12345984D01*
X12858277Y-12345984D02*
X12839229Y-12355508D01*
X12839229Y-12355508D02*
X12829706Y-12365031D01*
X12829706Y-12365031D02*
X12820182Y-12384079D01*
X12820182Y-12384079D02*
X12820182Y-12431698D01*
X12820182Y-12431698D02*
X12829706Y-12450746D01*
X12829706Y-12450746D02*
X12839229Y-12460269D01*
X12839229Y-12460269D02*
X12858277Y-12469793D01*
X12858277Y-12469793D02*
X12896372Y-12469793D01*
X12896372Y-12469793D02*
X12915420Y-12460269D01*
X12915420Y-12460269D02*
X12924944Y-12450746D01*
X12924944Y-12450746D02*
X12934467Y-12431698D01*
X13105896Y-12412650D02*
X13105896Y-12545984D01*
X13058277Y-12336460D02*
X13010658Y-12479317D01*
X13010658Y-12479317D02*
X13134467Y-12479317D01*
X13201134Y-12345984D02*
X13201134Y-12384079D01*
X13277325Y-12345984D02*
X13277325Y-12384079D01*
X13572563Y-12622174D02*
X13563039Y-12612650D01*
X13563039Y-12612650D02*
X13543991Y-12584079D01*
X13543991Y-12584079D02*
X13534468Y-12565031D01*
X13534468Y-12565031D02*
X13524944Y-12536460D01*
X13524944Y-12536460D02*
X13515420Y-12488841D01*
X13515420Y-12488841D02*
X13515420Y-12450746D01*
X13515420Y-12450746D02*
X13524944Y-12403127D01*
X13524944Y-12403127D02*
X13534468Y-12374555D01*
X13534468Y-12374555D02*
X13543991Y-12355508D01*
X13543991Y-12355508D02*
X13563039Y-12326936D01*
X13563039Y-12326936D02*
X13572563Y-12317412D01*
X13686848Y-12345984D02*
X13705896Y-12345984D01*
X13705896Y-12345984D02*
X13724944Y-12355508D01*
X13724944Y-12355508D02*
X13734468Y-12365031D01*
X13734468Y-12365031D02*
X13743991Y-12384079D01*
X13743991Y-12384079D02*
X13753515Y-12422174D01*
X13753515Y-12422174D02*
X13753515Y-12469793D01*
X13753515Y-12469793D02*
X13743991Y-12507888D01*
X13743991Y-12507888D02*
X13734468Y-12526936D01*
X13734468Y-12526936D02*
X13724944Y-12536460D01*
X13724944Y-12536460D02*
X13705896Y-12545984D01*
X13705896Y-12545984D02*
X13686848Y-12545984D01*
X13686848Y-12545984D02*
X13667801Y-12536460D01*
X13667801Y-12536460D02*
X13658277Y-12526936D01*
X13658277Y-12526936D02*
X13648753Y-12507888D01*
X13648753Y-12507888D02*
X13639229Y-12469793D01*
X13639229Y-12469793D02*
X13639229Y-12422174D01*
X13639229Y-12422174D02*
X13648753Y-12384079D01*
X13648753Y-12384079D02*
X13658277Y-12365031D01*
X13658277Y-12365031D02*
X13667801Y-12355508D01*
X13667801Y-12355508D02*
X13686848Y-12345984D01*
X13991610Y-12545984D02*
X13991610Y-12345984D01*
X14077325Y-12545984D02*
X14077325Y-12441222D01*
X14077325Y-12441222D02*
X14067801Y-12422174D01*
X14067801Y-12422174D02*
X14048753Y-12412650D01*
X14048753Y-12412650D02*
X14020182Y-12412650D01*
X14020182Y-12412650D02*
X14001134Y-12422174D01*
X14001134Y-12422174D02*
X13991610Y-12431698D01*
X14201134Y-12545984D02*
X14182087Y-12536460D01*
X14182087Y-12536460D02*
X14172563Y-12526936D01*
X14172563Y-12526936D02*
X14163039Y-12507888D01*
X14163039Y-12507888D02*
X14163039Y-12450746D01*
X14163039Y-12450746D02*
X14172563Y-12431698D01*
X14172563Y-12431698D02*
X14182087Y-12422174D01*
X14182087Y-12422174D02*
X14201134Y-12412650D01*
X14201134Y-12412650D02*
X14229706Y-12412650D01*
X14229706Y-12412650D02*
X14248753Y-12422174D01*
X14248753Y-12422174D02*
X14258277Y-12431698D01*
X14258277Y-12431698D02*
X14267801Y-12450746D01*
X14267801Y-12450746D02*
X14267801Y-12507888D01*
X14267801Y-12507888D02*
X14258277Y-12526936D01*
X14258277Y-12526936D02*
X14248753Y-12536460D01*
X14248753Y-12536460D02*
X14229706Y-12545984D01*
X14229706Y-12545984D02*
X14201134Y-12545984D01*
X14382087Y-12545984D02*
X14363039Y-12536460D01*
X14363039Y-12536460D02*
X14353515Y-12517412D01*
X14353515Y-12517412D02*
X14353515Y-12345984D01*
X14534468Y-12536460D02*
X14515420Y-12545984D01*
X14515420Y-12545984D02*
X14477325Y-12545984D01*
X14477325Y-12545984D02*
X14458277Y-12536460D01*
X14458277Y-12536460D02*
X14448753Y-12517412D01*
X14448753Y-12517412D02*
X14448753Y-12441222D01*
X14448753Y-12441222D02*
X14458277Y-12422174D01*
X14458277Y-12422174D02*
X14477325Y-12412650D01*
X14477325Y-12412650D02*
X14515420Y-12412650D01*
X14515420Y-12412650D02*
X14534468Y-12422174D01*
X14534468Y-12422174D02*
X14543991Y-12441222D01*
X14543991Y-12441222D02*
X14543991Y-12460269D01*
X14543991Y-12460269D02*
X14448753Y-12479317D01*
X14620182Y-12536460D02*
X14639230Y-12545984D01*
X14639230Y-12545984D02*
X14677325Y-12545984D01*
X14677325Y-12545984D02*
X14696372Y-12536460D01*
X14696372Y-12536460D02*
X14705896Y-12517412D01*
X14705896Y-12517412D02*
X14705896Y-12507888D01*
X14705896Y-12507888D02*
X14696372Y-12488841D01*
X14696372Y-12488841D02*
X14677325Y-12479317D01*
X14677325Y-12479317D02*
X14648753Y-12479317D01*
X14648753Y-12479317D02*
X14629706Y-12469793D01*
X14629706Y-12469793D02*
X14620182Y-12450746D01*
X14620182Y-12450746D02*
X14620182Y-12441222D01*
X14620182Y-12441222D02*
X14629706Y-12422174D01*
X14629706Y-12422174D02*
X14648753Y-12412650D01*
X14648753Y-12412650D02*
X14677325Y-12412650D01*
X14677325Y-12412650D02*
X14696372Y-12422174D01*
X14943992Y-12469793D02*
X15096373Y-12469793D01*
X15020182Y-12545984D02*
X15020182Y-12393603D01*
X15324944Y-12345984D02*
X15448753Y-12345984D01*
X15448753Y-12345984D02*
X15382087Y-12422174D01*
X15382087Y-12422174D02*
X15410658Y-12422174D01*
X15410658Y-12422174D02*
X15429706Y-12431698D01*
X15429706Y-12431698D02*
X15439230Y-12441222D01*
X15439230Y-12441222D02*
X15448753Y-12460269D01*
X15448753Y-12460269D02*
X15448753Y-12507888D01*
X15448753Y-12507888D02*
X15439230Y-12526936D01*
X15439230Y-12526936D02*
X15429706Y-12536460D01*
X15429706Y-12536460D02*
X15410658Y-12545984D01*
X15410658Y-12545984D02*
X15353515Y-12545984D01*
X15353515Y-12545984D02*
X15334468Y-12536460D01*
X15334468Y-12536460D02*
X15324944Y-12526936D01*
X15677325Y-12536460D02*
X15696373Y-12545984D01*
X15696373Y-12545984D02*
X15734468Y-12545984D01*
X15734468Y-12545984D02*
X15753515Y-12536460D01*
X15753515Y-12536460D02*
X15763039Y-12517412D01*
X15763039Y-12517412D02*
X15763039Y-12507888D01*
X15763039Y-12507888D02*
X15753515Y-12488841D01*
X15753515Y-12488841D02*
X15734468Y-12479317D01*
X15734468Y-12479317D02*
X15705896Y-12479317D01*
X15705896Y-12479317D02*
X15686849Y-12469793D01*
X15686849Y-12469793D02*
X15677325Y-12450746D01*
X15677325Y-12450746D02*
X15677325Y-12441222D01*
X15677325Y-12441222D02*
X15686849Y-12422174D01*
X15686849Y-12422174D02*
X15705896Y-12412650D01*
X15705896Y-12412650D02*
X15734468Y-12412650D01*
X15734468Y-12412650D02*
X15753515Y-12422174D01*
X15877325Y-12545984D02*
X15858277Y-12536460D01*
X15858277Y-12536460D02*
X15848754Y-12517412D01*
X15848754Y-12517412D02*
X15848754Y-12345984D01*
X15982087Y-12545984D02*
X15963039Y-12536460D01*
X15963039Y-12536460D02*
X15953515Y-12526936D01*
X15953515Y-12526936D02*
X15943992Y-12507888D01*
X15943992Y-12507888D02*
X15943992Y-12450746D01*
X15943992Y-12450746D02*
X15953515Y-12431698D01*
X15953515Y-12431698D02*
X15963039Y-12422174D01*
X15963039Y-12422174D02*
X15982087Y-12412650D01*
X15982087Y-12412650D02*
X16010658Y-12412650D01*
X16010658Y-12412650D02*
X16029706Y-12422174D01*
X16029706Y-12422174D02*
X16039230Y-12431698D01*
X16039230Y-12431698D02*
X16048754Y-12450746D01*
X16048754Y-12450746D02*
X16048754Y-12507888D01*
X16048754Y-12507888D02*
X16039230Y-12526936D01*
X16039230Y-12526936D02*
X16029706Y-12536460D01*
X16029706Y-12536460D02*
X16010658Y-12545984D01*
X16010658Y-12545984D02*
X15982087Y-12545984D01*
X16105896Y-12412650D02*
X16182087Y-12412650D01*
X16134468Y-12345984D02*
X16134468Y-12517412D01*
X16134468Y-12517412D02*
X16143992Y-12536460D01*
X16143992Y-12536460D02*
X16163039Y-12545984D01*
X16163039Y-12545984D02*
X16182087Y-12545984D01*
X16239230Y-12536460D02*
X16258277Y-12545984D01*
X16258277Y-12545984D02*
X16296373Y-12545984D01*
X16296373Y-12545984D02*
X16315420Y-12536460D01*
X16315420Y-12536460D02*
X16324944Y-12517412D01*
X16324944Y-12517412D02*
X16324944Y-12507888D01*
X16324944Y-12507888D02*
X16315420Y-12488841D01*
X16315420Y-12488841D02*
X16296373Y-12479317D01*
X16296373Y-12479317D02*
X16267801Y-12479317D01*
X16267801Y-12479317D02*
X16248754Y-12469793D01*
X16248754Y-12469793D02*
X16239230Y-12450746D01*
X16239230Y-12450746D02*
X16239230Y-12441222D01*
X16239230Y-12441222D02*
X16248754Y-12422174D01*
X16248754Y-12422174D02*
X16267801Y-12412650D01*
X16267801Y-12412650D02*
X16296373Y-12412650D01*
X16296373Y-12412650D02*
X16315420Y-12422174D01*
X16391611Y-12622174D02*
X16401135Y-12612650D01*
X16401135Y-12612650D02*
X16420182Y-12584079D01*
X16420182Y-12584079D02*
X16429706Y-12565031D01*
X16429706Y-12565031D02*
X16439230Y-12536460D01*
X16439230Y-12536460D02*
X16448754Y-12488841D01*
X16448754Y-12488841D02*
X16448754Y-12450746D01*
X16448754Y-12450746D02*
X16439230Y-12403127D01*
X16439230Y-12403127D02*
X16429706Y-12374555D01*
X16429706Y-12374555D02*
X16420182Y-12355508D01*
X16420182Y-12355508D02*
X16401135Y-12326936D01*
X16401135Y-12326936D02*
X16391611Y-12317412D01*
D13*
X9932730Y-12653730D02*
X9932730Y-12783270D01*
X9867960Y-12718500D02*
X9997500Y-12718500D01*
X9997500Y-12718500D02*
G75*
G02*
X9867960Y-12718500I-64770J0D01*
G01*
X9867960Y-12718500D02*
G75*
G02*
X9997500Y-12718500I64770J0D01*
G01*
D11*
X10363039Y-12809984D02*
X10248753Y-12809984D01*
X10305896Y-12809984D02*
X10305896Y-12609984D01*
X10305896Y-12609984D02*
X10286848Y-12638555D01*
X10286848Y-12638555D02*
X10267801Y-12657603D01*
X10267801Y-12657603D02*
X10248753Y-12667127D01*
X10448753Y-12790936D02*
X10458277Y-12800460D01*
X10458277Y-12800460D02*
X10448753Y-12809984D01*
X10448753Y-12809984D02*
X10439229Y-12800460D01*
X10439229Y-12800460D02*
X10448753Y-12790936D01*
X10448753Y-12790936D02*
X10448753Y-12809984D01*
X10534467Y-12629031D02*
X10543991Y-12619508D01*
X10543991Y-12619508D02*
X10563039Y-12609984D01*
X10563039Y-12609984D02*
X10610658Y-12609984D01*
X10610658Y-12609984D02*
X10629705Y-12619508D01*
X10629705Y-12619508D02*
X10639229Y-12629031D01*
X10639229Y-12629031D02*
X10648753Y-12648079D01*
X10648753Y-12648079D02*
X10648753Y-12667127D01*
X10648753Y-12667127D02*
X10639229Y-12695698D01*
X10639229Y-12695698D02*
X10524944Y-12809984D01*
X10524944Y-12809984D02*
X10648753Y-12809984D01*
X10743991Y-12809984D02*
X10782086Y-12809984D01*
X10782086Y-12809984D02*
X10801134Y-12800460D01*
X10801134Y-12800460D02*
X10810658Y-12790936D01*
X10810658Y-12790936D02*
X10829705Y-12762365D01*
X10829705Y-12762365D02*
X10839229Y-12724269D01*
X10839229Y-12724269D02*
X10839229Y-12648079D01*
X10839229Y-12648079D02*
X10829705Y-12629031D01*
X10829705Y-12629031D02*
X10820182Y-12619508D01*
X10820182Y-12619508D02*
X10801134Y-12609984D01*
X10801134Y-12609984D02*
X10763039Y-12609984D01*
X10763039Y-12609984D02*
X10743991Y-12619508D01*
X10743991Y-12619508D02*
X10734467Y-12629031D01*
X10734467Y-12629031D02*
X10724944Y-12648079D01*
X10724944Y-12648079D02*
X10724944Y-12695698D01*
X10724944Y-12695698D02*
X10734467Y-12714746D01*
X10734467Y-12714746D02*
X10743991Y-12724269D01*
X10743991Y-12724269D02*
X10763039Y-12733793D01*
X10763039Y-12733793D02*
X10801134Y-12733793D01*
X10801134Y-12733793D02*
X10820182Y-12724269D01*
X10820182Y-12724269D02*
X10829705Y-12714746D01*
X10829705Y-12714746D02*
X10839229Y-12695698D01*
X11020182Y-12609984D02*
X10924944Y-12609984D01*
X10924944Y-12609984D02*
X10915420Y-12705222D01*
X10915420Y-12705222D02*
X10924944Y-12695698D01*
X10924944Y-12695698D02*
X10943991Y-12686174D01*
X10943991Y-12686174D02*
X10991610Y-12686174D01*
X10991610Y-12686174D02*
X11010658Y-12695698D01*
X11010658Y-12695698D02*
X11020182Y-12705222D01*
X11020182Y-12705222D02*
X11029705Y-12724269D01*
X11029705Y-12724269D02*
X11029705Y-12771888D01*
X11029705Y-12771888D02*
X11020182Y-12790936D01*
X11020182Y-12790936D02*
X11010658Y-12800460D01*
X11010658Y-12800460D02*
X10991610Y-12809984D01*
X10991610Y-12809984D02*
X10943991Y-12809984D01*
X10943991Y-12809984D02*
X10924944Y-12800460D01*
X10924944Y-12800460D02*
X10915420Y-12790936D01*
X11115420Y-12809984D02*
X11115420Y-12676650D01*
X11115420Y-12695698D02*
X11124944Y-12686174D01*
X11124944Y-12686174D02*
X11143991Y-12676650D01*
X11143991Y-12676650D02*
X11172563Y-12676650D01*
X11172563Y-12676650D02*
X11191610Y-12686174D01*
X11191610Y-12686174D02*
X11201134Y-12705222D01*
X11201134Y-12705222D02*
X11201134Y-12809984D01*
X11201134Y-12705222D02*
X11210658Y-12686174D01*
X11210658Y-12686174D02*
X11229705Y-12676650D01*
X11229705Y-12676650D02*
X11258277Y-12676650D01*
X11258277Y-12676650D02*
X11277324Y-12686174D01*
X11277324Y-12686174D02*
X11286848Y-12705222D01*
X11286848Y-12705222D02*
X11286848Y-12809984D01*
X11382086Y-12809984D02*
X11382086Y-12676650D01*
X11382086Y-12695698D02*
X11391610Y-12686174D01*
X11391610Y-12686174D02*
X11410658Y-12676650D01*
X11410658Y-12676650D02*
X11439229Y-12676650D01*
X11439229Y-12676650D02*
X11458277Y-12686174D01*
X11458277Y-12686174D02*
X11467801Y-12705222D01*
X11467801Y-12705222D02*
X11467801Y-12809984D01*
X11467801Y-12705222D02*
X11477324Y-12686174D01*
X11477324Y-12686174D02*
X11496372Y-12676650D01*
X11496372Y-12676650D02*
X11524943Y-12676650D01*
X11524943Y-12676650D02*
X11543991Y-12686174D01*
X11543991Y-12686174D02*
X11553515Y-12705222D01*
X11553515Y-12705222D02*
X11553515Y-12809984D01*
X11943991Y-12600460D02*
X11772563Y-12857603D01*
X12201134Y-12609984D02*
X12220182Y-12609984D01*
X12220182Y-12609984D02*
X12239229Y-12619508D01*
X12239229Y-12619508D02*
X12248753Y-12629031D01*
X12248753Y-12629031D02*
X12258277Y-12648079D01*
X12258277Y-12648079D02*
X12267801Y-12686174D01*
X12267801Y-12686174D02*
X12267801Y-12733793D01*
X12267801Y-12733793D02*
X12258277Y-12771888D01*
X12258277Y-12771888D02*
X12248753Y-12790936D01*
X12248753Y-12790936D02*
X12239229Y-12800460D01*
X12239229Y-12800460D02*
X12220182Y-12809984D01*
X12220182Y-12809984D02*
X12201134Y-12809984D01*
X12201134Y-12809984D02*
X12182086Y-12800460D01*
X12182086Y-12800460D02*
X12172563Y-12790936D01*
X12172563Y-12790936D02*
X12163039Y-12771888D01*
X12163039Y-12771888D02*
X12153515Y-12733793D01*
X12153515Y-12733793D02*
X12153515Y-12686174D01*
X12153515Y-12686174D02*
X12163039Y-12648079D01*
X12163039Y-12648079D02*
X12172563Y-12629031D01*
X12172563Y-12629031D02*
X12182086Y-12619508D01*
X12182086Y-12619508D02*
X12201134Y-12609984D01*
X12353515Y-12790936D02*
X12363039Y-12800460D01*
X12363039Y-12800460D02*
X12353515Y-12809984D01*
X12353515Y-12809984D02*
X12343991Y-12800460D01*
X12343991Y-12800460D02*
X12353515Y-12790936D01*
X12353515Y-12790936D02*
X12353515Y-12809984D01*
X12486848Y-12609984D02*
X12505896Y-12609984D01*
X12505896Y-12609984D02*
X12524944Y-12619508D01*
X12524944Y-12619508D02*
X12534467Y-12629031D01*
X12534467Y-12629031D02*
X12543991Y-12648079D01*
X12543991Y-12648079D02*
X12553515Y-12686174D01*
X12553515Y-12686174D02*
X12553515Y-12733793D01*
X12553515Y-12733793D02*
X12543991Y-12771888D01*
X12543991Y-12771888D02*
X12534467Y-12790936D01*
X12534467Y-12790936D02*
X12524944Y-12800460D01*
X12524944Y-12800460D02*
X12505896Y-12809984D01*
X12505896Y-12809984D02*
X12486848Y-12809984D01*
X12486848Y-12809984D02*
X12467801Y-12800460D01*
X12467801Y-12800460D02*
X12458277Y-12790936D01*
X12458277Y-12790936D02*
X12448753Y-12771888D01*
X12448753Y-12771888D02*
X12439229Y-12733793D01*
X12439229Y-12733793D02*
X12439229Y-12686174D01*
X12439229Y-12686174D02*
X12448753Y-12648079D01*
X12448753Y-12648079D02*
X12458277Y-12629031D01*
X12458277Y-12629031D02*
X12467801Y-12619508D01*
X12467801Y-12619508D02*
X12486848Y-12609984D01*
X12734467Y-12609984D02*
X12639229Y-12609984D01*
X12639229Y-12609984D02*
X12629706Y-12705222D01*
X12629706Y-12705222D02*
X12639229Y-12695698D01*
X12639229Y-12695698D02*
X12658277Y-12686174D01*
X12658277Y-12686174D02*
X12705896Y-12686174D01*
X12705896Y-12686174D02*
X12724944Y-12695698D01*
X12724944Y-12695698D02*
X12734467Y-12705222D01*
X12734467Y-12705222D02*
X12743991Y-12724269D01*
X12743991Y-12724269D02*
X12743991Y-12771888D01*
X12743991Y-12771888D02*
X12734467Y-12790936D01*
X12734467Y-12790936D02*
X12724944Y-12800460D01*
X12724944Y-12800460D02*
X12705896Y-12809984D01*
X12705896Y-12809984D02*
X12658277Y-12809984D01*
X12658277Y-12809984D02*
X12639229Y-12800460D01*
X12639229Y-12800460D02*
X12629706Y-12790936D01*
X12934467Y-12809984D02*
X12820182Y-12809984D01*
X12877325Y-12809984D02*
X12877325Y-12609984D01*
X12877325Y-12609984D02*
X12858277Y-12638555D01*
X12858277Y-12638555D02*
X12839229Y-12657603D01*
X12839229Y-12657603D02*
X12820182Y-12667127D01*
X13058277Y-12609984D02*
X13077325Y-12609984D01*
X13077325Y-12609984D02*
X13096372Y-12619508D01*
X13096372Y-12619508D02*
X13105896Y-12629031D01*
X13105896Y-12629031D02*
X13115420Y-12648079D01*
X13115420Y-12648079D02*
X13124944Y-12686174D01*
X13124944Y-12686174D02*
X13124944Y-12733793D01*
X13124944Y-12733793D02*
X13115420Y-12771888D01*
X13115420Y-12771888D02*
X13105896Y-12790936D01*
X13105896Y-12790936D02*
X13096372Y-12800460D01*
X13096372Y-12800460D02*
X13077325Y-12809984D01*
X13077325Y-12809984D02*
X13058277Y-12809984D01*
X13058277Y-12809984D02*
X13039229Y-12800460D01*
X13039229Y-12800460D02*
X13029706Y-12790936D01*
X13029706Y-12790936D02*
X13020182Y-12771888D01*
X13020182Y-12771888D02*
X13010658Y-12733793D01*
X13010658Y-12733793D02*
X13010658Y-12686174D01*
X13010658Y-12686174D02*
X13020182Y-12648079D01*
X13020182Y-12648079D02*
X13029706Y-12629031D01*
X13029706Y-12629031D02*
X13039229Y-12619508D01*
X13039229Y-12619508D02*
X13058277Y-12609984D01*
X13201134Y-12609984D02*
X13201134Y-12648079D01*
X13277325Y-12609984D02*
X13277325Y-12648079D01*
X13572563Y-12886174D02*
X13563039Y-12876650D01*
X13563039Y-12876650D02*
X13543991Y-12848079D01*
X13543991Y-12848079D02*
X13534468Y-12829031D01*
X13534468Y-12829031D02*
X13524944Y-12800460D01*
X13524944Y-12800460D02*
X13515420Y-12752841D01*
X13515420Y-12752841D02*
X13515420Y-12714746D01*
X13515420Y-12714746D02*
X13524944Y-12667127D01*
X13524944Y-12667127D02*
X13534468Y-12638555D01*
X13534468Y-12638555D02*
X13543991Y-12619508D01*
X13543991Y-12619508D02*
X13563039Y-12590936D01*
X13563039Y-12590936D02*
X13572563Y-12581412D01*
X13734468Y-12676650D02*
X13734468Y-12809984D01*
X13686848Y-12600460D02*
X13639229Y-12743317D01*
X13639229Y-12743317D02*
X13763039Y-12743317D01*
X13991610Y-12809984D02*
X13991610Y-12609984D01*
X14077325Y-12809984D02*
X14077325Y-12705222D01*
X14077325Y-12705222D02*
X14067801Y-12686174D01*
X14067801Y-12686174D02*
X14048753Y-12676650D01*
X14048753Y-12676650D02*
X14020182Y-12676650D01*
X14020182Y-12676650D02*
X14001134Y-12686174D01*
X14001134Y-12686174D02*
X13991610Y-12695698D01*
X14201134Y-12809984D02*
X14182087Y-12800460D01*
X14182087Y-12800460D02*
X14172563Y-12790936D01*
X14172563Y-12790936D02*
X14163039Y-12771888D01*
X14163039Y-12771888D02*
X14163039Y-12714746D01*
X14163039Y-12714746D02*
X14172563Y-12695698D01*
X14172563Y-12695698D02*
X14182087Y-12686174D01*
X14182087Y-12686174D02*
X14201134Y-12676650D01*
X14201134Y-12676650D02*
X14229706Y-12676650D01*
X14229706Y-12676650D02*
X14248753Y-12686174D01*
X14248753Y-12686174D02*
X14258277Y-12695698D01*
X14258277Y-12695698D02*
X14267801Y-12714746D01*
X14267801Y-12714746D02*
X14267801Y-12771888D01*
X14267801Y-12771888D02*
X14258277Y-12790936D01*
X14258277Y-12790936D02*
X14248753Y-12800460D01*
X14248753Y-12800460D02*
X14229706Y-12809984D01*
X14229706Y-12809984D02*
X14201134Y-12809984D01*
X14382087Y-12809984D02*
X14363039Y-12800460D01*
X14363039Y-12800460D02*
X14353515Y-12781412D01*
X14353515Y-12781412D02*
X14353515Y-12609984D01*
X14534468Y-12800460D02*
X14515420Y-12809984D01*
X14515420Y-12809984D02*
X14477325Y-12809984D01*
X14477325Y-12809984D02*
X14458277Y-12800460D01*
X14458277Y-12800460D02*
X14448753Y-12781412D01*
X14448753Y-12781412D02*
X14448753Y-12705222D01*
X14448753Y-12705222D02*
X14458277Y-12686174D01*
X14458277Y-12686174D02*
X14477325Y-12676650D01*
X14477325Y-12676650D02*
X14515420Y-12676650D01*
X14515420Y-12676650D02*
X14534468Y-12686174D01*
X14534468Y-12686174D02*
X14543991Y-12705222D01*
X14543991Y-12705222D02*
X14543991Y-12724269D01*
X14543991Y-12724269D02*
X14448753Y-12743317D01*
X14620182Y-12800460D02*
X14639230Y-12809984D01*
X14639230Y-12809984D02*
X14677325Y-12809984D01*
X14677325Y-12809984D02*
X14696372Y-12800460D01*
X14696372Y-12800460D02*
X14705896Y-12781412D01*
X14705896Y-12781412D02*
X14705896Y-12771888D01*
X14705896Y-12771888D02*
X14696372Y-12752841D01*
X14696372Y-12752841D02*
X14677325Y-12743317D01*
X14677325Y-12743317D02*
X14648753Y-12743317D01*
X14648753Y-12743317D02*
X14629706Y-12733793D01*
X14629706Y-12733793D02*
X14620182Y-12714746D01*
X14620182Y-12714746D02*
X14620182Y-12705222D01*
X14620182Y-12705222D02*
X14629706Y-12686174D01*
X14629706Y-12686174D02*
X14648753Y-12676650D01*
X14648753Y-12676650D02*
X14677325Y-12676650D01*
X14677325Y-12676650D02*
X14696372Y-12686174D01*
X14772563Y-12886174D02*
X14782087Y-12876650D01*
X14782087Y-12876650D02*
X14801134Y-12848079D01*
X14801134Y-12848079D02*
X14810658Y-12829031D01*
X14810658Y-12829031D02*
X14820182Y-12800460D01*
X14820182Y-12800460D02*
X14829706Y-12752841D01*
X14829706Y-12752841D02*
X14829706Y-12714746D01*
X14829706Y-12714746D02*
X14820182Y-12667127D01*
X14820182Y-12667127D02*
X14810658Y-12638555D01*
X14810658Y-12638555D02*
X14801134Y-12619508D01*
X14801134Y-12619508D02*
X14782087Y-12590936D01*
X14782087Y-12590936D02*
X14772563Y-12581412D01*
D14*
X9975554Y-13035484D02*
X9975554Y-12929516D01*
X9869586Y-12929516D01*
X9869586Y-13035484D01*
X9975554Y-13035484D01*
X9997500Y-12982500D02*
G75*
G02*
X9847640Y-12982500I-74930J0D01*
G01*
X9847640Y-12982500D02*
G75*
G02*
X9997500Y-12982500I74930J0D01*
G01*
D11*
X10363039Y-13073984D02*
X10248753Y-13073984D01*
X10305896Y-13073984D02*
X10305896Y-12873984D01*
X10305896Y-12873984D02*
X10286848Y-12902555D01*
X10286848Y-12902555D02*
X10267801Y-12921603D01*
X10267801Y-12921603D02*
X10248753Y-12931127D01*
X10448753Y-13054936D02*
X10458277Y-13064460D01*
X10458277Y-13064460D02*
X10448753Y-13073984D01*
X10448753Y-13073984D02*
X10439229Y-13064460D01*
X10439229Y-13064460D02*
X10448753Y-13054936D01*
X10448753Y-13054936D02*
X10448753Y-13073984D01*
X10629705Y-12940650D02*
X10629705Y-13073984D01*
X10582086Y-12864460D02*
X10534467Y-13007317D01*
X10534467Y-13007317D02*
X10658277Y-13007317D01*
X10743991Y-13073984D02*
X10782086Y-13073984D01*
X10782086Y-13073984D02*
X10801134Y-13064460D01*
X10801134Y-13064460D02*
X10810658Y-13054936D01*
X10810658Y-13054936D02*
X10829705Y-13026365D01*
X10829705Y-13026365D02*
X10839229Y-12988269D01*
X10839229Y-12988269D02*
X10839229Y-12912079D01*
X10839229Y-12912079D02*
X10829705Y-12893031D01*
X10829705Y-12893031D02*
X10820182Y-12883508D01*
X10820182Y-12883508D02*
X10801134Y-12873984D01*
X10801134Y-12873984D02*
X10763039Y-12873984D01*
X10763039Y-12873984D02*
X10743991Y-12883508D01*
X10743991Y-12883508D02*
X10734467Y-12893031D01*
X10734467Y-12893031D02*
X10724944Y-12912079D01*
X10724944Y-12912079D02*
X10724944Y-12959698D01*
X10724944Y-12959698D02*
X10734467Y-12978746D01*
X10734467Y-12978746D02*
X10743991Y-12988269D01*
X10743991Y-12988269D02*
X10763039Y-12997793D01*
X10763039Y-12997793D02*
X10801134Y-12997793D01*
X10801134Y-12997793D02*
X10820182Y-12988269D01*
X10820182Y-12988269D02*
X10829705Y-12978746D01*
X10829705Y-12978746D02*
X10839229Y-12959698D01*
X10934467Y-13073984D02*
X10972563Y-13073984D01*
X10972563Y-13073984D02*
X10991610Y-13064460D01*
X10991610Y-13064460D02*
X11001134Y-13054936D01*
X11001134Y-13054936D02*
X11020182Y-13026365D01*
X11020182Y-13026365D02*
X11029705Y-12988269D01*
X11029705Y-12988269D02*
X11029705Y-12912079D01*
X11029705Y-12912079D02*
X11020182Y-12893031D01*
X11020182Y-12893031D02*
X11010658Y-12883508D01*
X11010658Y-12883508D02*
X10991610Y-12873984D01*
X10991610Y-12873984D02*
X10953515Y-12873984D01*
X10953515Y-12873984D02*
X10934467Y-12883508D01*
X10934467Y-12883508D02*
X10924944Y-12893031D01*
X10924944Y-12893031D02*
X10915420Y-12912079D01*
X10915420Y-12912079D02*
X10915420Y-12959698D01*
X10915420Y-12959698D02*
X10924944Y-12978746D01*
X10924944Y-12978746D02*
X10934467Y-12988269D01*
X10934467Y-12988269D02*
X10953515Y-12997793D01*
X10953515Y-12997793D02*
X10991610Y-12997793D01*
X10991610Y-12997793D02*
X11010658Y-12988269D01*
X11010658Y-12988269D02*
X11020182Y-12978746D01*
X11020182Y-12978746D02*
X11029705Y-12959698D01*
X11115420Y-13073984D02*
X11115420Y-12940650D01*
X11115420Y-12959698D02*
X11124944Y-12950174D01*
X11124944Y-12950174D02*
X11143991Y-12940650D01*
X11143991Y-12940650D02*
X11172563Y-12940650D01*
X11172563Y-12940650D02*
X11191610Y-12950174D01*
X11191610Y-12950174D02*
X11201134Y-12969222D01*
X11201134Y-12969222D02*
X11201134Y-13073984D01*
X11201134Y-12969222D02*
X11210658Y-12950174D01*
X11210658Y-12950174D02*
X11229705Y-12940650D01*
X11229705Y-12940650D02*
X11258277Y-12940650D01*
X11258277Y-12940650D02*
X11277324Y-12950174D01*
X11277324Y-12950174D02*
X11286848Y-12969222D01*
X11286848Y-12969222D02*
X11286848Y-13073984D01*
X11382086Y-13073984D02*
X11382086Y-12940650D01*
X11382086Y-12959698D02*
X11391610Y-12950174D01*
X11391610Y-12950174D02*
X11410658Y-12940650D01*
X11410658Y-12940650D02*
X11439229Y-12940650D01*
X11439229Y-12940650D02*
X11458277Y-12950174D01*
X11458277Y-12950174D02*
X11467801Y-12969222D01*
X11467801Y-12969222D02*
X11467801Y-13073984D01*
X11467801Y-12969222D02*
X11477324Y-12950174D01*
X11477324Y-12950174D02*
X11496372Y-12940650D01*
X11496372Y-12940650D02*
X11524943Y-12940650D01*
X11524943Y-12940650D02*
X11543991Y-12950174D01*
X11543991Y-12950174D02*
X11553515Y-12969222D01*
X11553515Y-12969222D02*
X11553515Y-13073984D01*
X11943991Y-12864460D02*
X11772563Y-13121603D01*
X12201134Y-12873984D02*
X12220182Y-12873984D01*
X12220182Y-12873984D02*
X12239229Y-12883508D01*
X12239229Y-12883508D02*
X12248753Y-12893031D01*
X12248753Y-12893031D02*
X12258277Y-12912079D01*
X12258277Y-12912079D02*
X12267801Y-12950174D01*
X12267801Y-12950174D02*
X12267801Y-12997793D01*
X12267801Y-12997793D02*
X12258277Y-13035888D01*
X12258277Y-13035888D02*
X12248753Y-13054936D01*
X12248753Y-13054936D02*
X12239229Y-13064460D01*
X12239229Y-13064460D02*
X12220182Y-13073984D01*
X12220182Y-13073984D02*
X12201134Y-13073984D01*
X12201134Y-13073984D02*
X12182086Y-13064460D01*
X12182086Y-13064460D02*
X12172563Y-13054936D01*
X12172563Y-13054936D02*
X12163039Y-13035888D01*
X12163039Y-13035888D02*
X12153515Y-12997793D01*
X12153515Y-12997793D02*
X12153515Y-12950174D01*
X12153515Y-12950174D02*
X12163039Y-12912079D01*
X12163039Y-12912079D02*
X12172563Y-12893031D01*
X12172563Y-12893031D02*
X12182086Y-12883508D01*
X12182086Y-12883508D02*
X12201134Y-12873984D01*
X12353515Y-13054936D02*
X12363039Y-13064460D01*
X12363039Y-13064460D02*
X12353515Y-13073984D01*
X12353515Y-13073984D02*
X12343991Y-13064460D01*
X12343991Y-13064460D02*
X12353515Y-13054936D01*
X12353515Y-13054936D02*
X12353515Y-13073984D01*
X12486848Y-12873984D02*
X12505896Y-12873984D01*
X12505896Y-12873984D02*
X12524944Y-12883508D01*
X12524944Y-12883508D02*
X12534467Y-12893031D01*
X12534467Y-12893031D02*
X12543991Y-12912079D01*
X12543991Y-12912079D02*
X12553515Y-12950174D01*
X12553515Y-12950174D02*
X12553515Y-12997793D01*
X12553515Y-12997793D02*
X12543991Y-13035888D01*
X12543991Y-13035888D02*
X12534467Y-13054936D01*
X12534467Y-13054936D02*
X12524944Y-13064460D01*
X12524944Y-13064460D02*
X12505896Y-13073984D01*
X12505896Y-13073984D02*
X12486848Y-13073984D01*
X12486848Y-13073984D02*
X12467801Y-13064460D01*
X12467801Y-13064460D02*
X12458277Y-13054936D01*
X12458277Y-13054936D02*
X12448753Y-13035888D01*
X12448753Y-13035888D02*
X12439229Y-12997793D01*
X12439229Y-12997793D02*
X12439229Y-12950174D01*
X12439229Y-12950174D02*
X12448753Y-12912079D01*
X12448753Y-12912079D02*
X12458277Y-12893031D01*
X12458277Y-12893031D02*
X12467801Y-12883508D01*
X12467801Y-12883508D02*
X12486848Y-12873984D01*
X12734467Y-12873984D02*
X12639229Y-12873984D01*
X12639229Y-12873984D02*
X12629706Y-12969222D01*
X12629706Y-12969222D02*
X12639229Y-12959698D01*
X12639229Y-12959698D02*
X12658277Y-12950174D01*
X12658277Y-12950174D02*
X12705896Y-12950174D01*
X12705896Y-12950174D02*
X12724944Y-12959698D01*
X12724944Y-12959698D02*
X12734467Y-12969222D01*
X12734467Y-12969222D02*
X12743991Y-12988269D01*
X12743991Y-12988269D02*
X12743991Y-13035888D01*
X12743991Y-13035888D02*
X12734467Y-13054936D01*
X12734467Y-13054936D02*
X12724944Y-13064460D01*
X12724944Y-13064460D02*
X12705896Y-13073984D01*
X12705896Y-13073984D02*
X12658277Y-13073984D01*
X12658277Y-13073984D02*
X12639229Y-13064460D01*
X12639229Y-13064460D02*
X12629706Y-13054936D01*
X12839229Y-13073984D02*
X12877325Y-13073984D01*
X12877325Y-13073984D02*
X12896372Y-13064460D01*
X12896372Y-13064460D02*
X12905896Y-13054936D01*
X12905896Y-13054936D02*
X12924944Y-13026365D01*
X12924944Y-13026365D02*
X12934467Y-12988269D01*
X12934467Y-12988269D02*
X12934467Y-12912079D01*
X12934467Y-12912079D02*
X12924944Y-12893031D01*
X12924944Y-12893031D02*
X12915420Y-12883508D01*
X12915420Y-12883508D02*
X12896372Y-12873984D01*
X12896372Y-12873984D02*
X12858277Y-12873984D01*
X12858277Y-12873984D02*
X12839229Y-12883508D01*
X12839229Y-12883508D02*
X12829706Y-12893031D01*
X12829706Y-12893031D02*
X12820182Y-12912079D01*
X12820182Y-12912079D02*
X12820182Y-12959698D01*
X12820182Y-12959698D02*
X12829706Y-12978746D01*
X12829706Y-12978746D02*
X12839229Y-12988269D01*
X12839229Y-12988269D02*
X12858277Y-12997793D01*
X12858277Y-12997793D02*
X12896372Y-12997793D01*
X12896372Y-12997793D02*
X12915420Y-12988269D01*
X12915420Y-12988269D02*
X12924944Y-12978746D01*
X12924944Y-12978746D02*
X12934467Y-12959698D01*
X13058277Y-12873984D02*
X13077325Y-12873984D01*
X13077325Y-12873984D02*
X13096372Y-12883508D01*
X13096372Y-12883508D02*
X13105896Y-12893031D01*
X13105896Y-12893031D02*
X13115420Y-12912079D01*
X13115420Y-12912079D02*
X13124944Y-12950174D01*
X13124944Y-12950174D02*
X13124944Y-12997793D01*
X13124944Y-12997793D02*
X13115420Y-13035888D01*
X13115420Y-13035888D02*
X13105896Y-13054936D01*
X13105896Y-13054936D02*
X13096372Y-13064460D01*
X13096372Y-13064460D02*
X13077325Y-13073984D01*
X13077325Y-13073984D02*
X13058277Y-13073984D01*
X13058277Y-13073984D02*
X13039229Y-13064460D01*
X13039229Y-13064460D02*
X13029706Y-13054936D01*
X13029706Y-13054936D02*
X13020182Y-13035888D01*
X13020182Y-13035888D02*
X13010658Y-12997793D01*
X13010658Y-12997793D02*
X13010658Y-12950174D01*
X13010658Y-12950174D02*
X13020182Y-12912079D01*
X13020182Y-12912079D02*
X13029706Y-12893031D01*
X13029706Y-12893031D02*
X13039229Y-12883508D01*
X13039229Y-12883508D02*
X13058277Y-12873984D01*
X13201134Y-12873984D02*
X13201134Y-12912079D01*
X13277325Y-12873984D02*
X13277325Y-12912079D01*
X13572563Y-13150174D02*
X13563039Y-13140650D01*
X13563039Y-13140650D02*
X13543991Y-13112079D01*
X13543991Y-13112079D02*
X13534468Y-13093031D01*
X13534468Y-13093031D02*
X13524944Y-13064460D01*
X13524944Y-13064460D02*
X13515420Y-13016841D01*
X13515420Y-13016841D02*
X13515420Y-12978746D01*
X13515420Y-12978746D02*
X13524944Y-12931127D01*
X13524944Y-12931127D02*
X13534468Y-12902555D01*
X13534468Y-12902555D02*
X13543991Y-12883508D01*
X13543991Y-12883508D02*
X13563039Y-12854936D01*
X13563039Y-12854936D02*
X13572563Y-12845412D01*
X13639229Y-12893031D02*
X13648753Y-12883508D01*
X13648753Y-12883508D02*
X13667801Y-12873984D01*
X13667801Y-12873984D02*
X13715420Y-12873984D01*
X13715420Y-12873984D02*
X13734468Y-12883508D01*
X13734468Y-12883508D02*
X13743991Y-12893031D01*
X13743991Y-12893031D02*
X13753515Y-12912079D01*
X13753515Y-12912079D02*
X13753515Y-12931127D01*
X13753515Y-12931127D02*
X13743991Y-12959698D01*
X13743991Y-12959698D02*
X13629706Y-13073984D01*
X13629706Y-13073984D02*
X13753515Y-13073984D01*
X13991610Y-13073984D02*
X13991610Y-12873984D01*
X14077325Y-13073984D02*
X14077325Y-12969222D01*
X14077325Y-12969222D02*
X14067801Y-12950174D01*
X14067801Y-12950174D02*
X14048753Y-12940650D01*
X14048753Y-12940650D02*
X14020182Y-12940650D01*
X14020182Y-12940650D02*
X14001134Y-12950174D01*
X14001134Y-12950174D02*
X13991610Y-12959698D01*
X14201134Y-13073984D02*
X14182087Y-13064460D01*
X14182087Y-13064460D02*
X14172563Y-13054936D01*
X14172563Y-13054936D02*
X14163039Y-13035888D01*
X14163039Y-13035888D02*
X14163039Y-12978746D01*
X14163039Y-12978746D02*
X14172563Y-12959698D01*
X14172563Y-12959698D02*
X14182087Y-12950174D01*
X14182087Y-12950174D02*
X14201134Y-12940650D01*
X14201134Y-12940650D02*
X14229706Y-12940650D01*
X14229706Y-12940650D02*
X14248753Y-12950174D01*
X14248753Y-12950174D02*
X14258277Y-12959698D01*
X14258277Y-12959698D02*
X14267801Y-12978746D01*
X14267801Y-12978746D02*
X14267801Y-13035888D01*
X14267801Y-13035888D02*
X14258277Y-13054936D01*
X14258277Y-13054936D02*
X14248753Y-13064460D01*
X14248753Y-13064460D02*
X14229706Y-13073984D01*
X14229706Y-13073984D02*
X14201134Y-13073984D01*
X14382087Y-13073984D02*
X14363039Y-13064460D01*
X14363039Y-13064460D02*
X14353515Y-13045412D01*
X14353515Y-13045412D02*
X14353515Y-12873984D01*
X14534468Y-13064460D02*
X14515420Y-13073984D01*
X14515420Y-13073984D02*
X14477325Y-13073984D01*
X14477325Y-13073984D02*
X14458277Y-13064460D01*
X14458277Y-13064460D02*
X14448753Y-13045412D01*
X14448753Y-13045412D02*
X14448753Y-12969222D01*
X14448753Y-12969222D02*
X14458277Y-12950174D01*
X14458277Y-12950174D02*
X14477325Y-12940650D01*
X14477325Y-12940650D02*
X14515420Y-12940650D01*
X14515420Y-12940650D02*
X14534468Y-12950174D01*
X14534468Y-12950174D02*
X14543991Y-12969222D01*
X14543991Y-12969222D02*
X14543991Y-12988269D01*
X14543991Y-12988269D02*
X14448753Y-13007317D01*
X14620182Y-13064460D02*
X14639230Y-13073984D01*
X14639230Y-13073984D02*
X14677325Y-13073984D01*
X14677325Y-13073984D02*
X14696372Y-13064460D01*
X14696372Y-13064460D02*
X14705896Y-13045412D01*
X14705896Y-13045412D02*
X14705896Y-13035888D01*
X14705896Y-13035888D02*
X14696372Y-13016841D01*
X14696372Y-13016841D02*
X14677325Y-13007317D01*
X14677325Y-13007317D02*
X14648753Y-13007317D01*
X14648753Y-13007317D02*
X14629706Y-12997793D01*
X14629706Y-12997793D02*
X14620182Y-12978746D01*
X14620182Y-12978746D02*
X14620182Y-12969222D01*
X14620182Y-12969222D02*
X14629706Y-12950174D01*
X14629706Y-12950174D02*
X14648753Y-12940650D01*
X14648753Y-12940650D02*
X14677325Y-12940650D01*
X14677325Y-12940650D02*
X14696372Y-12950174D01*
X14772563Y-13150174D02*
X14782087Y-13140650D01*
X14782087Y-13140650D02*
X14801134Y-13112079D01*
X14801134Y-13112079D02*
X14810658Y-13093031D01*
X14810658Y-13093031D02*
X14820182Y-13064460D01*
X14820182Y-13064460D02*
X14829706Y-13016841D01*
X14829706Y-13016841D02*
X14829706Y-12978746D01*
X14829706Y-12978746D02*
X14820182Y-12931127D01*
X14820182Y-12931127D02*
X14810658Y-12902555D01*
X14810658Y-12902555D02*
X14801134Y-12883508D01*
X14801134Y-12883508D02*
X14782087Y-12854936D01*
X14782087Y-12854936D02*
X14772563Y-12845412D01*
M02*
