G04 #@! TF.GenerationSoftware,KiCad,Pcbnew,10.0.3*
G04 #@! TF.CreationDate,2026-07-22T21:07:00-07:00*
G04 #@! TF.ProjectId,mp3-player,6d70332d-706c-4617-9965-722e6b696361,rev?*
G04 #@! TF.SameCoordinates,Original*
G04 #@! TF.FileFunction,Legend,Top*
G04 #@! TF.FilePolarity,Positive*
%FSLAX46Y46*%
G04 Gerber Fmt 4.6, Leading zero omitted, Abs format (unit mm)*
G04 Created by KiCad (PCBNEW 10.0.3) date 2026-07-22 21:07:00*
%MOMM*%
%LPD*%
G01*
G04 APERTURE LIST*
G04 Aperture macros list*
%AMRoundRect*
0 Rectangle with rounded corners*
0 $1 Rounding radius*
0 $2 $3 $4 $5 $6 $7 $8 $9 X,Y pos of 4 corners*
0 Add a 4 corners polygon primitive as box body*
4,1,4,$2,$3,$4,$5,$6,$7,$8,$9,$2,$3,0*
0 Add four circle primitives for the rounded corners*
1,1,$1+$1,$2,$3*
1,1,$1+$1,$4,$5*
1,1,$1+$1,$6,$7*
1,1,$1+$1,$8,$9*
0 Add four rect primitives between the rounded corners*
20,1,$1+$1,$2,$3,$4,$5,0*
20,1,$1+$1,$4,$5,$6,$7,0*
20,1,$1+$1,$6,$7,$8,$9,0*
20,1,$1+$1,$8,$9,$2,$3,0*%
%AMFreePoly0*
4,1,18,-0.100000,0.387500,-0.096194,0.406634,-0.085355,0.422855,-0.069134,0.433694,-0.050000,0.437500,0.050000,0.437500,0.069134,0.433694,0.085355,0.422855,0.096194,0.406634,0.100000,0.387500,0.100000,-0.387500,0.096194,-0.406634,0.085355,-0.422855,0.069134,-0.433694,0.050000,-0.437500,-0.050000,-0.437500,-0.100000,-0.387500,-0.100000,0.387500,-0.100000,0.387500,$1*%
%AMFreePoly1*
4,1,18,-0.100000,0.387500,-0.096194,0.406634,-0.085355,0.422855,-0.069134,0.433694,-0.050000,0.437500,0.050000,0.437500,0.069134,0.433694,0.085355,0.422855,0.096194,0.406634,0.100000,0.387500,0.100000,-0.387500,0.050000,-0.437500,-0.050000,-0.437500,-0.069134,-0.433694,-0.085355,-0.422855,-0.096194,-0.406634,-0.100000,-0.387500,-0.100000,0.387500,-0.100000,0.387500,$1*%
%AMFreePoly2*
4,1,18,-0.437500,0.050000,-0.387500,0.100000,0.387500,0.100000,0.406634,0.096194,0.422855,0.085355,0.433694,0.069134,0.437500,0.050000,0.437500,-0.050000,0.433694,-0.069134,0.422855,-0.085355,0.406634,-0.096194,0.387500,-0.100000,-0.387500,-0.100000,-0.406634,-0.096194,-0.422855,-0.085355,-0.433694,-0.069134,-0.437500,-0.050000,-0.437500,0.050000,-0.437500,0.050000,$1*%
%AMFreePoly3*
4,1,18,-0.437500,0.050000,-0.433694,0.069134,-0.422855,0.085355,-0.406634,0.096194,-0.387500,0.100000,0.387500,0.100000,0.406634,0.096194,0.422855,0.085355,0.433694,0.069134,0.437500,0.050000,0.437500,-0.050000,0.433694,-0.069134,0.422855,-0.085355,0.406634,-0.096194,0.387500,-0.100000,-0.387500,-0.100000,-0.437500,-0.050000,-0.437500,0.050000,-0.437500,0.050000,$1*%
%AMFreePoly4*
4,1,18,-0.100000,0.387500,-0.096194,0.406634,-0.085355,0.422855,-0.069134,0.433694,-0.050000,0.437500,0.050000,0.437500,0.100000,0.387500,0.100000,-0.387500,0.096194,-0.406634,0.085355,-0.422855,0.069134,-0.433694,0.050000,-0.437500,-0.050000,-0.437500,-0.069134,-0.433694,-0.085355,-0.422855,-0.096194,-0.406634,-0.100000,-0.387500,-0.100000,0.387500,-0.100000,0.387500,$1*%
%AMFreePoly5*
4,1,18,-0.100000,0.387500,-0.050000,0.437500,0.050000,0.437500,0.069134,0.433694,0.085355,0.422855,0.096194,0.406634,0.100000,0.387500,0.100000,-0.387500,0.096194,-0.406634,0.085355,-0.422855,0.069134,-0.433694,0.050000,-0.437500,-0.050000,-0.437500,-0.069134,-0.433694,-0.085355,-0.422855,-0.096194,-0.406634,-0.100000,-0.387500,-0.100000,0.387500,-0.100000,0.387500,$1*%
%AMFreePoly6*
4,1,18,-0.437500,0.050000,-0.433694,0.069134,-0.422855,0.085355,-0.406634,0.096194,-0.387500,0.100000,0.387500,0.100000,0.406634,0.096194,0.422855,0.085355,0.433694,0.069134,0.437500,0.050000,0.437500,-0.050000,0.387500,-0.100000,-0.387500,-0.100000,-0.406634,-0.096194,-0.422855,-0.085355,-0.433694,-0.069134,-0.437500,-0.050000,-0.437500,0.050000,-0.437500,0.050000,$1*%
%AMFreePoly7*
4,1,18,-0.437500,0.050000,-0.433694,0.069134,-0.422855,0.085355,-0.406634,0.096194,-0.387500,0.100000,0.387500,0.100000,0.437500,0.050000,0.437500,-0.050000,0.433694,-0.069134,0.422855,-0.085355,0.406634,-0.096194,0.387500,-0.100000,-0.387500,-0.100000,-0.406634,-0.096194,-0.422855,-0.085355,-0.433694,-0.069134,-0.437500,-0.050000,-0.437500,0.050000,-0.437500,0.050000,$1*%
G04 Aperture macros list end*
%ADD10C,0.150000*%
%ADD11C,0.191421*%
%ADD12C,0.250000*%
%ADD13C,0.152400*%
%ADD14C,0.120000*%
%ADD15C,0.000000*%
%ADD16C,0.200000*%
%ADD17C,0.127000*%
%ADD18RoundRect,0.140000X0.170000X-0.140000X0.170000X0.140000X-0.170000X0.140000X-0.170000X-0.140000X0*%
%ADD19RoundRect,0.135000X0.185000X-0.135000X0.185000X0.135000X-0.185000X0.135000X-0.185000X-0.135000X0*%
%ADD20R,0.470000X0.530000*%
%ADD21R,0.700000X1.700000*%
%ADD22RoundRect,0.140000X0.140000X0.170000X-0.140000X0.170000X-0.140000X-0.170000X0.140000X-0.170000X0*%
%ADD23R,0.508000X1.320800*%
%ADD24RoundRect,0.140000X-0.140000X-0.170000X0.140000X-0.170000X0.140000X0.170000X-0.140000X0.170000X0*%
%ADD25RoundRect,0.135000X-0.135000X-0.185000X0.135000X-0.185000X0.135000X0.185000X-0.135000X0.185000X0*%
%ADD26RoundRect,0.135000X0.135000X0.185000X-0.135000X0.185000X-0.135000X-0.185000X0.135000X-0.185000X0*%
%ADD27RoundRect,0.140000X-0.170000X0.140000X-0.170000X-0.140000X0.170000X-0.140000X0.170000X0.140000X0*%
%ADD28C,3.200000*%
%ADD29RoundRect,0.150000X0.150000X-0.512500X0.150000X0.512500X-0.150000X0.512500X-0.150000X-0.512500X0*%
%ADD30RoundRect,0.135000X-0.185000X0.135000X-0.185000X-0.135000X0.185000X-0.135000X0.185000X0.135000X0*%
%ADD31C,1.498600*%
%ADD32O,1.750000X1.200000*%
%ADD33RoundRect,0.250000X0.625000X-0.350000X0.625000X0.350000X-0.625000X0.350000X-0.625000X-0.350000X0*%
%ADD34C,2.006600*%
%ADD35C,1.320800*%
%ADD36O,1.712000X3.220000*%
%ADD37C,1.000000*%
%ADD38RoundRect,0.153000X-1.547000X1.547000X-1.547000X-1.547000X1.547000X-1.547000X1.547000X1.547000X0*%
%ADD39FreePoly0,180.000000*%
%ADD40RoundRect,0.050000X0.050000X0.387500X-0.050000X0.387500X-0.050000X-0.387500X0.050000X-0.387500X0*%
%ADD41FreePoly1,180.000000*%
%ADD42FreePoly2,180.000000*%
%ADD43RoundRect,0.050000X0.387500X0.050000X-0.387500X0.050000X-0.387500X-0.050000X0.387500X-0.050000X0*%
%ADD44FreePoly3,180.000000*%
%ADD45FreePoly4,180.000000*%
%ADD46FreePoly5,180.000000*%
%ADD47FreePoly6,180.000000*%
%ADD48FreePoly7,180.000000*%
%ADD49C,1.803400*%
%ADD50O,1.108000X2.308000*%
%ADD51O,1.108000X1.908000*%
%ADD52RoundRect,0.250000X0.450000X0.350000X-0.450000X0.350000X-0.450000X-0.350000X0.450000X-0.350000X0*%
%ADD53R,0.355600X1.676400*%
%ADD54RoundRect,0.087500X0.087500X-0.425000X0.087500X0.425000X-0.087500X0.425000X-0.087500X-0.425000X0*%
%ADD55RoundRect,0.162500X0.162500X-0.650000X0.162500X0.650000X-0.162500X0.650000X-0.162500X-0.650000X0*%
%ADD56RoundRect,0.100000X0.100000X-0.637500X0.100000X0.637500X-0.100000X0.637500X-0.100000X-0.637500X0*%
%ADD57R,1.050000X0.650000*%
%ADD58RoundRect,0.150000X0.150000X-0.587500X0.150000X0.587500X-0.150000X0.587500X-0.150000X-0.587500X0*%
%ADD59O,2.620000X1.412000*%
%ADD60C,1.204000*%
%ADD61RoundRect,0.102000X-0.500000X-0.500000X0.500000X-0.500000X0.500000X0.500000X-0.500000X0.500000X0*%
%ADD62C,0.800000*%
%ADD63C,0.850000*%
%ADD64R,0.850000X0.850000*%
%ADD65RoundRect,0.087500X-0.087500X0.425000X-0.087500X-0.425000X0.087500X-0.425000X0.087500X0.425000X0*%
%ADD66RoundRect,0.150000X-0.512500X-0.150000X0.512500X-0.150000X0.512500X0.150000X-0.512500X0.150000X0*%
G04 APERTURE END LIST*
D10*
X103941541Y-95303152D02*
X104179636Y-95969819D01*
X104179636Y-95969819D02*
X104417731Y-95303152D01*
X104989160Y-94969819D02*
X105084398Y-94969819D01*
X105084398Y-94969819D02*
X105179636Y-95017438D01*
X105179636Y-95017438D02*
X105227255Y-95065057D01*
X105227255Y-95065057D02*
X105274874Y-95160295D01*
X105274874Y-95160295D02*
X105322493Y-95350771D01*
X105322493Y-95350771D02*
X105322493Y-95588866D01*
X105322493Y-95588866D02*
X105274874Y-95779342D01*
X105274874Y-95779342D02*
X105227255Y-95874580D01*
X105227255Y-95874580D02*
X105179636Y-95922200D01*
X105179636Y-95922200D02*
X105084398Y-95969819D01*
X105084398Y-95969819D02*
X104989160Y-95969819D01*
X104989160Y-95969819D02*
X104893922Y-95922200D01*
X104893922Y-95922200D02*
X104846303Y-95874580D01*
X104846303Y-95874580D02*
X104798684Y-95779342D01*
X104798684Y-95779342D02*
X104751065Y-95588866D01*
X104751065Y-95588866D02*
X104751065Y-95350771D01*
X104751065Y-95350771D02*
X104798684Y-95160295D01*
X104798684Y-95160295D02*
X104846303Y-95065057D01*
X104846303Y-95065057D02*
X104893922Y-95017438D01*
X104893922Y-95017438D02*
X104989160Y-94969819D01*
X105751065Y-95874580D02*
X105798684Y-95922200D01*
X105798684Y-95922200D02*
X105751065Y-95969819D01*
X105751065Y-95969819D02*
X105703446Y-95922200D01*
X105703446Y-95922200D02*
X105751065Y-95874580D01*
X105751065Y-95874580D02*
X105751065Y-95969819D01*
X106751064Y-95969819D02*
X106179636Y-95969819D01*
X106465350Y-95969819D02*
X106465350Y-94969819D01*
X106465350Y-94969819D02*
X106370112Y-95112676D01*
X106370112Y-95112676D02*
X106274874Y-95207914D01*
X106274874Y-95207914D02*
X106179636Y-95255533D01*
X153169819Y-94463220D02*
X152169819Y-94463220D01*
X152169819Y-94463220D02*
X152169819Y-94225125D01*
X152169819Y-94225125D02*
X152217438Y-94082268D01*
X152217438Y-94082268D02*
X152312676Y-93987030D01*
X152312676Y-93987030D02*
X152407914Y-93939411D01*
X152407914Y-93939411D02*
X152598390Y-93891792D01*
X152598390Y-93891792D02*
X152741247Y-93891792D01*
X152741247Y-93891792D02*
X152931723Y-93939411D01*
X152931723Y-93939411D02*
X153026961Y-93987030D01*
X153026961Y-93987030D02*
X153122200Y-94082268D01*
X153122200Y-94082268D02*
X153169819Y-94225125D01*
X153169819Y-94225125D02*
X153169819Y-94463220D01*
X153074580Y-93463220D02*
X153122200Y-93415601D01*
X153122200Y-93415601D02*
X153169819Y-93463220D01*
X153169819Y-93463220D02*
X153122200Y-93510839D01*
X153122200Y-93510839D02*
X153074580Y-93463220D01*
X153074580Y-93463220D02*
X153169819Y-93463220D01*
X152884104Y-92272744D02*
X152884104Y-91796554D01*
X153169819Y-92367982D02*
X152169819Y-92034649D01*
X152169819Y-92034649D02*
X153169819Y-91701316D01*
X153169819Y-91367982D02*
X152503152Y-91367982D01*
X152693628Y-91367982D02*
X152598390Y-91320363D01*
X152598390Y-91320363D02*
X152550771Y-91272744D01*
X152550771Y-91272744D02*
X152503152Y-91177506D01*
X152503152Y-91177506D02*
X152503152Y-91082268D01*
X152503152Y-90748934D02*
X153169819Y-90748934D01*
X152598390Y-90748934D02*
X152550771Y-90701315D01*
X152550771Y-90701315D02*
X152503152Y-90606077D01*
X152503152Y-90606077D02*
X152503152Y-90463220D01*
X152503152Y-90463220D02*
X152550771Y-90367982D01*
X152550771Y-90367982D02*
X152646009Y-90320363D01*
X152646009Y-90320363D02*
X153169819Y-90320363D01*
X153122200Y-89463220D02*
X153169819Y-89558458D01*
X153169819Y-89558458D02*
X153169819Y-89748934D01*
X153169819Y-89748934D02*
X153122200Y-89844172D01*
X153122200Y-89844172D02*
X153026961Y-89891791D01*
X153026961Y-89891791D02*
X152646009Y-89891791D01*
X152646009Y-89891791D02*
X152550771Y-89844172D01*
X152550771Y-89844172D02*
X152503152Y-89748934D01*
X152503152Y-89748934D02*
X152503152Y-89558458D01*
X152503152Y-89558458D02*
X152550771Y-89463220D01*
X152550771Y-89463220D02*
X152646009Y-89415601D01*
X152646009Y-89415601D02*
X152741247Y-89415601D01*
X152741247Y-89415601D02*
X152836485Y-89891791D01*
X152503152Y-89129886D02*
X152503152Y-88748934D01*
X152169819Y-88987029D02*
X153026961Y-88987029D01*
X153026961Y-88987029D02*
X153122200Y-88939410D01*
X153122200Y-88939410D02*
X153169819Y-88844172D01*
X153169819Y-88844172D02*
X153169819Y-88748934D01*
X152503152Y-88558457D02*
X152503152Y-88177505D01*
X152169819Y-88415600D02*
X153026961Y-88415600D01*
X153026961Y-88415600D02*
X153122200Y-88367981D01*
X153122200Y-88367981D02*
X153169819Y-88272743D01*
X153169819Y-88272743D02*
X153169819Y-88177505D01*
X123433333Y-81654819D02*
X122957143Y-81654819D01*
X122957143Y-81654819D02*
X122957143Y-80654819D01*
X124290476Y-81654819D02*
X123719048Y-81654819D01*
X124004762Y-81654819D02*
X124004762Y-80654819D01*
X124004762Y-80654819D02*
X123909524Y-80797676D01*
X123909524Y-80797676D02*
X123814286Y-80892914D01*
X123814286Y-80892914D02*
X123719048Y-80940533D01*
X127938095Y-88454819D02*
X127938095Y-89264342D01*
X127938095Y-89264342D02*
X127985714Y-89359580D01*
X127985714Y-89359580D02*
X128033333Y-89407200D01*
X128033333Y-89407200D02*
X128128571Y-89454819D01*
X128128571Y-89454819D02*
X128319047Y-89454819D01*
X128319047Y-89454819D02*
X128414285Y-89407200D01*
X128414285Y-89407200D02*
X128461904Y-89359580D01*
X128461904Y-89359580D02*
X128509523Y-89264342D01*
X128509523Y-89264342D02*
X128509523Y-88454819D01*
X129033333Y-89454819D02*
X129223809Y-89454819D01*
X129223809Y-89454819D02*
X129319047Y-89407200D01*
X129319047Y-89407200D02*
X129366666Y-89359580D01*
X129366666Y-89359580D02*
X129461904Y-89216723D01*
X129461904Y-89216723D02*
X129509523Y-89026247D01*
X129509523Y-89026247D02*
X129509523Y-88645295D01*
X129509523Y-88645295D02*
X129461904Y-88550057D01*
X129461904Y-88550057D02*
X129414285Y-88502438D01*
X129414285Y-88502438D02*
X129319047Y-88454819D01*
X129319047Y-88454819D02*
X129128571Y-88454819D01*
X129128571Y-88454819D02*
X129033333Y-88502438D01*
X129033333Y-88502438D02*
X128985714Y-88550057D01*
X128985714Y-88550057D02*
X128938095Y-88645295D01*
X128938095Y-88645295D02*
X128938095Y-88883390D01*
X128938095Y-88883390D02*
X128985714Y-88978628D01*
X128985714Y-88978628D02*
X129033333Y-89026247D01*
X129033333Y-89026247D02*
X129128571Y-89073866D01*
X129128571Y-89073866D02*
X129319047Y-89073866D01*
X129319047Y-89073866D02*
X129414285Y-89026247D01*
X129414285Y-89026247D02*
X129461904Y-88978628D01*
X129461904Y-88978628D02*
X129509523Y-88883390D01*
X108738095Y-87754819D02*
X108738095Y-88564342D01*
X108738095Y-88564342D02*
X108785714Y-88659580D01*
X108785714Y-88659580D02*
X108833333Y-88707200D01*
X108833333Y-88707200D02*
X108928571Y-88754819D01*
X108928571Y-88754819D02*
X109119047Y-88754819D01*
X109119047Y-88754819D02*
X109214285Y-88707200D01*
X109214285Y-88707200D02*
X109261904Y-88659580D01*
X109261904Y-88659580D02*
X109309523Y-88564342D01*
X109309523Y-88564342D02*
X109309523Y-87754819D01*
X109690476Y-87754819D02*
X110309523Y-87754819D01*
X110309523Y-87754819D02*
X109976190Y-88135771D01*
X109976190Y-88135771D02*
X110119047Y-88135771D01*
X110119047Y-88135771D02*
X110214285Y-88183390D01*
X110214285Y-88183390D02*
X110261904Y-88231009D01*
X110261904Y-88231009D02*
X110309523Y-88326247D01*
X110309523Y-88326247D02*
X110309523Y-88564342D01*
X110309523Y-88564342D02*
X110261904Y-88659580D01*
X110261904Y-88659580D02*
X110214285Y-88707200D01*
X110214285Y-88707200D02*
X110119047Y-88754819D01*
X110119047Y-88754819D02*
X109833333Y-88754819D01*
X109833333Y-88754819D02*
X109738095Y-88707200D01*
X109738095Y-88707200D02*
X109690476Y-88659580D01*
X117166667Y-60157199D02*
X117309524Y-60204818D01*
X117309524Y-60204818D02*
X117547619Y-60204818D01*
X117547619Y-60204818D02*
X117642857Y-60157199D01*
X117642857Y-60157199D02*
X117690476Y-60109579D01*
X117690476Y-60109579D02*
X117738095Y-60014341D01*
X117738095Y-60014341D02*
X117738095Y-59919103D01*
X117738095Y-59919103D02*
X117690476Y-59823865D01*
X117690476Y-59823865D02*
X117642857Y-59776246D01*
X117642857Y-59776246D02*
X117547619Y-59728627D01*
X117547619Y-59728627D02*
X117357143Y-59681008D01*
X117357143Y-59681008D02*
X117261905Y-59633389D01*
X117261905Y-59633389D02*
X117214286Y-59585770D01*
X117214286Y-59585770D02*
X117166667Y-59490532D01*
X117166667Y-59490532D02*
X117166667Y-59395294D01*
X117166667Y-59395294D02*
X117214286Y-59300056D01*
X117214286Y-59300056D02*
X117261905Y-59252437D01*
X117261905Y-59252437D02*
X117357143Y-59204818D01*
X117357143Y-59204818D02*
X117595238Y-59204818D01*
X117595238Y-59204818D02*
X117738095Y-59252437D01*
X118071429Y-59204818D02*
X118309524Y-60204818D01*
X118309524Y-60204818D02*
X118500000Y-59490532D01*
X118500000Y-59490532D02*
X118690476Y-60204818D01*
X118690476Y-60204818D02*
X118928572Y-59204818D01*
X119261905Y-59300056D02*
X119309524Y-59252437D01*
X119309524Y-59252437D02*
X119404762Y-59204818D01*
X119404762Y-59204818D02*
X119642857Y-59204818D01*
X119642857Y-59204818D02*
X119738095Y-59252437D01*
X119738095Y-59252437D02*
X119785714Y-59300056D01*
X119785714Y-59300056D02*
X119833333Y-59395294D01*
X119833333Y-59395294D02*
X119833333Y-59490532D01*
X119833333Y-59490532D02*
X119785714Y-59633389D01*
X119785714Y-59633389D02*
X119214286Y-60204818D01*
X119214286Y-60204818D02*
X119833333Y-60204818D01*
X121890476Y-67854819D02*
X121890476Y-68664342D01*
X121890476Y-68664342D02*
X121928571Y-68759580D01*
X121928571Y-68759580D02*
X121966666Y-68807200D01*
X121966666Y-68807200D02*
X122042857Y-68854819D01*
X122042857Y-68854819D02*
X122195238Y-68854819D01*
X122195238Y-68854819D02*
X122271428Y-68807200D01*
X122271428Y-68807200D02*
X122309523Y-68759580D01*
X122309523Y-68759580D02*
X122347619Y-68664342D01*
X122347619Y-68664342D02*
X122347619Y-67854819D01*
X123147618Y-68854819D02*
X122690475Y-68854819D01*
X122919047Y-68854819D02*
X122919047Y-67854819D01*
X122919047Y-67854819D02*
X122842856Y-67997676D01*
X122842856Y-67997676D02*
X122766666Y-68092914D01*
X122766666Y-68092914D02*
X122690475Y-68140533D01*
X144538095Y-84754819D02*
X144538095Y-85564342D01*
X144538095Y-85564342D02*
X144585714Y-85659580D01*
X144585714Y-85659580D02*
X144633333Y-85707200D01*
X144633333Y-85707200D02*
X144728571Y-85754819D01*
X144728571Y-85754819D02*
X144919047Y-85754819D01*
X144919047Y-85754819D02*
X145014285Y-85707200D01*
X145014285Y-85707200D02*
X145061904Y-85659580D01*
X145061904Y-85659580D02*
X145109523Y-85564342D01*
X145109523Y-85564342D02*
X145109523Y-84754819D01*
X146014285Y-84754819D02*
X145823809Y-84754819D01*
X145823809Y-84754819D02*
X145728571Y-84802438D01*
X145728571Y-84802438D02*
X145680952Y-84850057D01*
X145680952Y-84850057D02*
X145585714Y-84992914D01*
X145585714Y-84992914D02*
X145538095Y-85183390D01*
X145538095Y-85183390D02*
X145538095Y-85564342D01*
X145538095Y-85564342D02*
X145585714Y-85659580D01*
X145585714Y-85659580D02*
X145633333Y-85707200D01*
X145633333Y-85707200D02*
X145728571Y-85754819D01*
X145728571Y-85754819D02*
X145919047Y-85754819D01*
X145919047Y-85754819D02*
X146014285Y-85707200D01*
X146014285Y-85707200D02*
X146061904Y-85659580D01*
X146061904Y-85659580D02*
X146109523Y-85564342D01*
X146109523Y-85564342D02*
X146109523Y-85326247D01*
X146109523Y-85326247D02*
X146061904Y-85231009D01*
X146061904Y-85231009D02*
X146014285Y-85183390D01*
X146014285Y-85183390D02*
X145919047Y-85135771D01*
X145919047Y-85135771D02*
X145728571Y-85135771D01*
X145728571Y-85135771D02*
X145633333Y-85183390D01*
X145633333Y-85183390D02*
X145585714Y-85231009D01*
X145585714Y-85231009D02*
X145538095Y-85326247D01*
X117038095Y-86054819D02*
X117038095Y-86864342D01*
X117038095Y-86864342D02*
X117085714Y-86959580D01*
X117085714Y-86959580D02*
X117133333Y-87007200D01*
X117133333Y-87007200D02*
X117228571Y-87054819D01*
X117228571Y-87054819D02*
X117419047Y-87054819D01*
X117419047Y-87054819D02*
X117514285Y-87007200D01*
X117514285Y-87007200D02*
X117561904Y-86959580D01*
X117561904Y-86959580D02*
X117609523Y-86864342D01*
X117609523Y-86864342D02*
X117609523Y-86054819D01*
X118514285Y-86388152D02*
X118514285Y-87054819D01*
X118276190Y-86007200D02*
X118038095Y-86721485D01*
X118038095Y-86721485D02*
X118657142Y-86721485D01*
X134661905Y-67454819D02*
X134661905Y-68264342D01*
X134661905Y-68264342D02*
X134709524Y-68359580D01*
X134709524Y-68359580D02*
X134757143Y-68407200D01*
X134757143Y-68407200D02*
X134852381Y-68454819D01*
X134852381Y-68454819D02*
X135042857Y-68454819D01*
X135042857Y-68454819D02*
X135138095Y-68407200D01*
X135138095Y-68407200D02*
X135185714Y-68359580D01*
X135185714Y-68359580D02*
X135233333Y-68264342D01*
X135233333Y-68264342D02*
X135233333Y-67454819D01*
X136233333Y-68454819D02*
X135661905Y-68454819D01*
X135947619Y-68454819D02*
X135947619Y-67454819D01*
X135947619Y-67454819D02*
X135852381Y-67597676D01*
X135852381Y-67597676D02*
X135757143Y-67692914D01*
X135757143Y-67692914D02*
X135661905Y-67740533D01*
X136852381Y-67454819D02*
X136947619Y-67454819D01*
X136947619Y-67454819D02*
X137042857Y-67502438D01*
X137042857Y-67502438D02*
X137090476Y-67550057D01*
X137090476Y-67550057D02*
X137138095Y-67645295D01*
X137138095Y-67645295D02*
X137185714Y-67835771D01*
X137185714Y-67835771D02*
X137185714Y-68073866D01*
X137185714Y-68073866D02*
X137138095Y-68264342D01*
X137138095Y-68264342D02*
X137090476Y-68359580D01*
X137090476Y-68359580D02*
X137042857Y-68407200D01*
X137042857Y-68407200D02*
X136947619Y-68454819D01*
X136947619Y-68454819D02*
X136852381Y-68454819D01*
X136852381Y-68454819D02*
X136757143Y-68407200D01*
X136757143Y-68407200D02*
X136709524Y-68359580D01*
X136709524Y-68359580D02*
X136661905Y-68264342D01*
X136661905Y-68264342D02*
X136614286Y-68073866D01*
X136614286Y-68073866D02*
X136614286Y-67835771D01*
X136614286Y-67835771D02*
X136661905Y-67645295D01*
X136661905Y-67645295D02*
X136709524Y-67550057D01*
X136709524Y-67550057D02*
X136757143Y-67502438D01*
X136757143Y-67502438D02*
X136852381Y-67454819D01*
X125638095Y-85354819D02*
X125638095Y-86164342D01*
X125638095Y-86164342D02*
X125685714Y-86259580D01*
X125685714Y-86259580D02*
X125733333Y-86307200D01*
X125733333Y-86307200D02*
X125828571Y-86354819D01*
X125828571Y-86354819D02*
X126019047Y-86354819D01*
X126019047Y-86354819D02*
X126114285Y-86307200D01*
X126114285Y-86307200D02*
X126161904Y-86259580D01*
X126161904Y-86259580D02*
X126209523Y-86164342D01*
X126209523Y-86164342D02*
X126209523Y-85354819D01*
X126828571Y-85783390D02*
X126733333Y-85735771D01*
X126733333Y-85735771D02*
X126685714Y-85688152D01*
X126685714Y-85688152D02*
X126638095Y-85592914D01*
X126638095Y-85592914D02*
X126638095Y-85545295D01*
X126638095Y-85545295D02*
X126685714Y-85450057D01*
X126685714Y-85450057D02*
X126733333Y-85402438D01*
X126733333Y-85402438D02*
X126828571Y-85354819D01*
X126828571Y-85354819D02*
X127019047Y-85354819D01*
X127019047Y-85354819D02*
X127114285Y-85402438D01*
X127114285Y-85402438D02*
X127161904Y-85450057D01*
X127161904Y-85450057D02*
X127209523Y-85545295D01*
X127209523Y-85545295D02*
X127209523Y-85592914D01*
X127209523Y-85592914D02*
X127161904Y-85688152D01*
X127161904Y-85688152D02*
X127114285Y-85735771D01*
X127114285Y-85735771D02*
X127019047Y-85783390D01*
X127019047Y-85783390D02*
X126828571Y-85783390D01*
X126828571Y-85783390D02*
X126733333Y-85831009D01*
X126733333Y-85831009D02*
X126685714Y-85878628D01*
X126685714Y-85878628D02*
X126638095Y-85973866D01*
X126638095Y-85973866D02*
X126638095Y-86164342D01*
X126638095Y-86164342D02*
X126685714Y-86259580D01*
X126685714Y-86259580D02*
X126733333Y-86307200D01*
X126733333Y-86307200D02*
X126828571Y-86354819D01*
X126828571Y-86354819D02*
X127019047Y-86354819D01*
X127019047Y-86354819D02*
X127114285Y-86307200D01*
X127114285Y-86307200D02*
X127161904Y-86259580D01*
X127161904Y-86259580D02*
X127209523Y-86164342D01*
X127209523Y-86164342D02*
X127209523Y-85973866D01*
X127209523Y-85973866D02*
X127161904Y-85878628D01*
X127161904Y-85878628D02*
X127114285Y-85831009D01*
X127114285Y-85831009D02*
X127019047Y-85783390D01*
X140838095Y-84054819D02*
X140838095Y-84864342D01*
X140838095Y-84864342D02*
X140885714Y-84959580D01*
X140885714Y-84959580D02*
X140933333Y-85007200D01*
X140933333Y-85007200D02*
X141028571Y-85054819D01*
X141028571Y-85054819D02*
X141219047Y-85054819D01*
X141219047Y-85054819D02*
X141314285Y-85007200D01*
X141314285Y-85007200D02*
X141361904Y-84959580D01*
X141361904Y-84959580D02*
X141409523Y-84864342D01*
X141409523Y-84864342D02*
X141409523Y-84054819D01*
X142361904Y-84054819D02*
X141885714Y-84054819D01*
X141885714Y-84054819D02*
X141838095Y-84531009D01*
X141838095Y-84531009D02*
X141885714Y-84483390D01*
X141885714Y-84483390D02*
X141980952Y-84435771D01*
X141980952Y-84435771D02*
X142219047Y-84435771D01*
X142219047Y-84435771D02*
X142314285Y-84483390D01*
X142314285Y-84483390D02*
X142361904Y-84531009D01*
X142361904Y-84531009D02*
X142409523Y-84626247D01*
X142409523Y-84626247D02*
X142409523Y-84864342D01*
X142409523Y-84864342D02*
X142361904Y-84959580D01*
X142361904Y-84959580D02*
X142314285Y-85007200D01*
X142314285Y-85007200D02*
X142219047Y-85054819D01*
X142219047Y-85054819D02*
X141980952Y-85054819D01*
X141980952Y-85054819D02*
X141885714Y-85007200D01*
X141885714Y-85007200D02*
X141838095Y-84959580D01*
X141309523Y-75931009D02*
X141452380Y-75978628D01*
X141452380Y-75978628D02*
X141499999Y-76026247D01*
X141499999Y-76026247D02*
X141547618Y-76121485D01*
X141547618Y-76121485D02*
X141547618Y-76264342D01*
X141547618Y-76264342D02*
X141499999Y-76359580D01*
X141499999Y-76359580D02*
X141452380Y-76407200D01*
X141452380Y-76407200D02*
X141357142Y-76454819D01*
X141357142Y-76454819D02*
X140976190Y-76454819D01*
X140976190Y-76454819D02*
X140976190Y-75454819D01*
X140976190Y-75454819D02*
X141309523Y-75454819D01*
X141309523Y-75454819D02*
X141404761Y-75502438D01*
X141404761Y-75502438D02*
X141452380Y-75550057D01*
X141452380Y-75550057D02*
X141499999Y-75645295D01*
X141499999Y-75645295D02*
X141499999Y-75740533D01*
X141499999Y-75740533D02*
X141452380Y-75835771D01*
X141452380Y-75835771D02*
X141404761Y-75883390D01*
X141404761Y-75883390D02*
X141309523Y-75931009D01*
X141309523Y-75931009D02*
X140976190Y-75931009D01*
X142166666Y-75454819D02*
X142357142Y-75454819D01*
X142357142Y-75454819D02*
X142452380Y-75502438D01*
X142452380Y-75502438D02*
X142547618Y-75597676D01*
X142547618Y-75597676D02*
X142595237Y-75788152D01*
X142595237Y-75788152D02*
X142595237Y-76121485D01*
X142595237Y-76121485D02*
X142547618Y-76311961D01*
X142547618Y-76311961D02*
X142452380Y-76407200D01*
X142452380Y-76407200D02*
X142357142Y-76454819D01*
X142357142Y-76454819D02*
X142166666Y-76454819D01*
X142166666Y-76454819D02*
X142071428Y-76407200D01*
X142071428Y-76407200D02*
X141976190Y-76311961D01*
X141976190Y-76311961D02*
X141928571Y-76121485D01*
X141928571Y-76121485D02*
X141928571Y-75788152D01*
X141928571Y-75788152D02*
X141976190Y-75597676D01*
X141976190Y-75597676D02*
X142071428Y-75502438D01*
X142071428Y-75502438D02*
X142166666Y-75454819D01*
X143214285Y-75454819D02*
X143404761Y-75454819D01*
X143404761Y-75454819D02*
X143499999Y-75502438D01*
X143499999Y-75502438D02*
X143595237Y-75597676D01*
X143595237Y-75597676D02*
X143642856Y-75788152D01*
X143642856Y-75788152D02*
X143642856Y-76121485D01*
X143642856Y-76121485D02*
X143595237Y-76311961D01*
X143595237Y-76311961D02*
X143499999Y-76407200D01*
X143499999Y-76407200D02*
X143404761Y-76454819D01*
X143404761Y-76454819D02*
X143214285Y-76454819D01*
X143214285Y-76454819D02*
X143119047Y-76407200D01*
X143119047Y-76407200D02*
X143023809Y-76311961D01*
X143023809Y-76311961D02*
X142976190Y-76121485D01*
X142976190Y-76121485D02*
X142976190Y-75788152D01*
X142976190Y-75788152D02*
X143023809Y-75597676D01*
X143023809Y-75597676D02*
X143119047Y-75502438D01*
X143119047Y-75502438D02*
X143214285Y-75454819D01*
X143928571Y-75454819D02*
X144499999Y-75454819D01*
X144214285Y-76454819D02*
X144214285Y-75454819D01*
X144785714Y-76407200D02*
X144928571Y-76454819D01*
X144928571Y-76454819D02*
X145166666Y-76454819D01*
X145166666Y-76454819D02*
X145261904Y-76407200D01*
X145261904Y-76407200D02*
X145309523Y-76359580D01*
X145309523Y-76359580D02*
X145357142Y-76264342D01*
X145357142Y-76264342D02*
X145357142Y-76169104D01*
X145357142Y-76169104D02*
X145309523Y-76073866D01*
X145309523Y-76073866D02*
X145261904Y-76026247D01*
X145261904Y-76026247D02*
X145166666Y-75978628D01*
X145166666Y-75978628D02*
X144976190Y-75931009D01*
X144976190Y-75931009D02*
X144880952Y-75883390D01*
X144880952Y-75883390D02*
X144833333Y-75835771D01*
X144833333Y-75835771D02*
X144785714Y-75740533D01*
X144785714Y-75740533D02*
X144785714Y-75645295D01*
X144785714Y-75645295D02*
X144833333Y-75550057D01*
X144833333Y-75550057D02*
X144880952Y-75502438D01*
X144880952Y-75502438D02*
X144976190Y-75454819D01*
X144976190Y-75454819D02*
X145214285Y-75454819D01*
X145214285Y-75454819D02*
X145357142Y-75502438D01*
X145785714Y-75931009D02*
X146119047Y-75931009D01*
X146261904Y-76454819D02*
X145785714Y-76454819D01*
X145785714Y-76454819D02*
X145785714Y-75454819D01*
X145785714Y-75454819D02*
X146261904Y-75454819D01*
X147166666Y-76454819D02*
X146690476Y-76454819D01*
X146690476Y-76454819D02*
X146690476Y-75454819D01*
X135166667Y-60157199D02*
X135309524Y-60204818D01*
X135309524Y-60204818D02*
X135547619Y-60204818D01*
X135547619Y-60204818D02*
X135642857Y-60157199D01*
X135642857Y-60157199D02*
X135690476Y-60109579D01*
X135690476Y-60109579D02*
X135738095Y-60014341D01*
X135738095Y-60014341D02*
X135738095Y-59919103D01*
X135738095Y-59919103D02*
X135690476Y-59823865D01*
X135690476Y-59823865D02*
X135642857Y-59776246D01*
X135642857Y-59776246D02*
X135547619Y-59728627D01*
X135547619Y-59728627D02*
X135357143Y-59681008D01*
X135357143Y-59681008D02*
X135261905Y-59633389D01*
X135261905Y-59633389D02*
X135214286Y-59585770D01*
X135214286Y-59585770D02*
X135166667Y-59490532D01*
X135166667Y-59490532D02*
X135166667Y-59395294D01*
X135166667Y-59395294D02*
X135214286Y-59300056D01*
X135214286Y-59300056D02*
X135261905Y-59252437D01*
X135261905Y-59252437D02*
X135357143Y-59204818D01*
X135357143Y-59204818D02*
X135595238Y-59204818D01*
X135595238Y-59204818D02*
X135738095Y-59252437D01*
X136071429Y-59204818D02*
X136309524Y-60204818D01*
X136309524Y-60204818D02*
X136500000Y-59490532D01*
X136500000Y-59490532D02*
X136690476Y-60204818D01*
X136690476Y-60204818D02*
X136928572Y-59204818D01*
X137738095Y-59538151D02*
X137738095Y-60204818D01*
X137500000Y-59157199D02*
X137261905Y-59871484D01*
X137261905Y-59871484D02*
X137880952Y-59871484D01*
X142104761Y-57050057D02*
X142009523Y-57002438D01*
X142009523Y-57002438D02*
X141914285Y-56907200D01*
X141914285Y-56907200D02*
X141771428Y-56764342D01*
X141771428Y-56764342D02*
X141676190Y-56716723D01*
X141676190Y-56716723D02*
X141580952Y-56716723D01*
X141628571Y-56954819D02*
X141533333Y-56907200D01*
X141533333Y-56907200D02*
X141438095Y-56811961D01*
X141438095Y-56811961D02*
X141390476Y-56621485D01*
X141390476Y-56621485D02*
X141390476Y-56288152D01*
X141390476Y-56288152D02*
X141438095Y-56097676D01*
X141438095Y-56097676D02*
X141533333Y-56002438D01*
X141533333Y-56002438D02*
X141628571Y-55954819D01*
X141628571Y-55954819D02*
X141819047Y-55954819D01*
X141819047Y-55954819D02*
X141914285Y-56002438D01*
X141914285Y-56002438D02*
X142009523Y-56097676D01*
X142009523Y-56097676D02*
X142057142Y-56288152D01*
X142057142Y-56288152D02*
X142057142Y-56621485D01*
X142057142Y-56621485D02*
X142009523Y-56811961D01*
X142009523Y-56811961D02*
X141914285Y-56907200D01*
X141914285Y-56907200D02*
X141819047Y-56954819D01*
X141819047Y-56954819D02*
X141628571Y-56954819D01*
X142438095Y-56050057D02*
X142485714Y-56002438D01*
X142485714Y-56002438D02*
X142580952Y-55954819D01*
X142580952Y-55954819D02*
X142819047Y-55954819D01*
X142819047Y-55954819D02*
X142914285Y-56002438D01*
X142914285Y-56002438D02*
X142961904Y-56050057D01*
X142961904Y-56050057D02*
X143009523Y-56145295D01*
X143009523Y-56145295D02*
X143009523Y-56240533D01*
X143009523Y-56240533D02*
X142961904Y-56383390D01*
X142961904Y-56383390D02*
X142390476Y-56954819D01*
X142390476Y-56954819D02*
X143009523Y-56954819D01*
X111566666Y-76054819D02*
X111566666Y-76769104D01*
X111566666Y-76769104D02*
X111519047Y-76911961D01*
X111519047Y-76911961D02*
X111423809Y-77007200D01*
X111423809Y-77007200D02*
X111280952Y-77054819D01*
X111280952Y-77054819D02*
X111185714Y-77054819D01*
X112471428Y-76054819D02*
X112280952Y-76054819D01*
X112280952Y-76054819D02*
X112185714Y-76102438D01*
X112185714Y-76102438D02*
X112138095Y-76150057D01*
X112138095Y-76150057D02*
X112042857Y-76292914D01*
X112042857Y-76292914D02*
X111995238Y-76483390D01*
X111995238Y-76483390D02*
X111995238Y-76864342D01*
X111995238Y-76864342D02*
X112042857Y-76959580D01*
X112042857Y-76959580D02*
X112090476Y-77007200D01*
X112090476Y-77007200D02*
X112185714Y-77054819D01*
X112185714Y-77054819D02*
X112376190Y-77054819D01*
X112376190Y-77054819D02*
X112471428Y-77007200D01*
X112471428Y-77007200D02*
X112519047Y-76959580D01*
X112519047Y-76959580D02*
X112566666Y-76864342D01*
X112566666Y-76864342D02*
X112566666Y-76626247D01*
X112566666Y-76626247D02*
X112519047Y-76531009D01*
X112519047Y-76531009D02*
X112471428Y-76483390D01*
X112471428Y-76483390D02*
X112376190Y-76435771D01*
X112376190Y-76435771D02*
X112185714Y-76435771D01*
X112185714Y-76435771D02*
X112090476Y-76483390D01*
X112090476Y-76483390D02*
X112042857Y-76531009D01*
X112042857Y-76531009D02*
X111995238Y-76626247D01*
X117138095Y-82054819D02*
X117138095Y-82864342D01*
X117138095Y-82864342D02*
X117185714Y-82959580D01*
X117185714Y-82959580D02*
X117233333Y-83007200D01*
X117233333Y-83007200D02*
X117328571Y-83054819D01*
X117328571Y-83054819D02*
X117519047Y-83054819D01*
X117519047Y-83054819D02*
X117614285Y-83007200D01*
X117614285Y-83007200D02*
X117661904Y-82959580D01*
X117661904Y-82959580D02*
X117709523Y-82864342D01*
X117709523Y-82864342D02*
X117709523Y-82054819D01*
X118090476Y-82054819D02*
X118757142Y-82054819D01*
X118757142Y-82054819D02*
X118328571Y-83054819D01*
X116138095Y-89554819D02*
X116138095Y-90364342D01*
X116138095Y-90364342D02*
X116185714Y-90459580D01*
X116185714Y-90459580D02*
X116233333Y-90507200D01*
X116233333Y-90507200D02*
X116328571Y-90554819D01*
X116328571Y-90554819D02*
X116519047Y-90554819D01*
X116519047Y-90554819D02*
X116614285Y-90507200D01*
X116614285Y-90507200D02*
X116661904Y-90459580D01*
X116661904Y-90459580D02*
X116709523Y-90364342D01*
X116709523Y-90364342D02*
X116709523Y-89554819D01*
X117138095Y-89650057D02*
X117185714Y-89602438D01*
X117185714Y-89602438D02*
X117280952Y-89554819D01*
X117280952Y-89554819D02*
X117519047Y-89554819D01*
X117519047Y-89554819D02*
X117614285Y-89602438D01*
X117614285Y-89602438D02*
X117661904Y-89650057D01*
X117661904Y-89650057D02*
X117709523Y-89745295D01*
X117709523Y-89745295D02*
X117709523Y-89840533D01*
X117709523Y-89840533D02*
X117661904Y-89983390D01*
X117661904Y-89983390D02*
X117090476Y-90554819D01*
X117090476Y-90554819D02*
X117709523Y-90554819D01*
X126166667Y-60157199D02*
X126309524Y-60204818D01*
X126309524Y-60204818D02*
X126547619Y-60204818D01*
X126547619Y-60204818D02*
X126642857Y-60157199D01*
X126642857Y-60157199D02*
X126690476Y-60109579D01*
X126690476Y-60109579D02*
X126738095Y-60014341D01*
X126738095Y-60014341D02*
X126738095Y-59919103D01*
X126738095Y-59919103D02*
X126690476Y-59823865D01*
X126690476Y-59823865D02*
X126642857Y-59776246D01*
X126642857Y-59776246D02*
X126547619Y-59728627D01*
X126547619Y-59728627D02*
X126357143Y-59681008D01*
X126357143Y-59681008D02*
X126261905Y-59633389D01*
X126261905Y-59633389D02*
X126214286Y-59585770D01*
X126214286Y-59585770D02*
X126166667Y-59490532D01*
X126166667Y-59490532D02*
X126166667Y-59395294D01*
X126166667Y-59395294D02*
X126214286Y-59300056D01*
X126214286Y-59300056D02*
X126261905Y-59252437D01*
X126261905Y-59252437D02*
X126357143Y-59204818D01*
X126357143Y-59204818D02*
X126595238Y-59204818D01*
X126595238Y-59204818D02*
X126738095Y-59252437D01*
X127071429Y-59204818D02*
X127309524Y-60204818D01*
X127309524Y-60204818D02*
X127500000Y-59490532D01*
X127500000Y-59490532D02*
X127690476Y-60204818D01*
X127690476Y-60204818D02*
X127928572Y-59204818D01*
X128214286Y-59204818D02*
X128833333Y-59204818D01*
X128833333Y-59204818D02*
X128500000Y-59585770D01*
X128500000Y-59585770D02*
X128642857Y-59585770D01*
X128642857Y-59585770D02*
X128738095Y-59633389D01*
X128738095Y-59633389D02*
X128785714Y-59681008D01*
X128785714Y-59681008D02*
X128833333Y-59776246D01*
X128833333Y-59776246D02*
X128833333Y-60014341D01*
X128833333Y-60014341D02*
X128785714Y-60109579D01*
X128785714Y-60109579D02*
X128738095Y-60157199D01*
X128738095Y-60157199D02*
X128642857Y-60204818D01*
X128642857Y-60204818D02*
X128357143Y-60204818D01*
X128357143Y-60204818D02*
X128261905Y-60157199D01*
X128261905Y-60157199D02*
X128214286Y-60109579D01*
G04 #@! TO.C,L1*
D11*
X122495710Y-81600000D02*
G75*
G02*
X122304290Y-81600000I-95710J0D01*
G01*
X122304290Y-81600000D02*
G75*
G02*
X122495710Y-81600000I95710J0D01*
G01*
G04 #@! TO.C,U9*
D12*
X132425000Y-84400000D02*
G75*
G02*
X132175000Y-84400000I-125000J0D01*
G01*
X132175000Y-84400000D02*
G75*
G02*
X132425000Y-84400000I125000J0D01*
G01*
D13*
X131838300Y-87090600D02*
X131838300Y-85109400D01*
X129836739Y-87090600D02*
X130563261Y-87090600D01*
X128561700Y-85109400D02*
X128561700Y-87090600D01*
D14*
G04 #@! TO.C,U3*
X110790000Y-89700000D02*
X110460000Y-89940000D01*
X110460000Y-89460000D01*
X110790000Y-89700000D01*
G36*
X110790000Y-89700000D02*
G01*
X110460000Y-89940000D01*
X110460000Y-89460000D01*
X110790000Y-89700000D01*
G37*
X113860000Y-89160000D02*
X113810000Y-89160000D01*
X113860000Y-87340000D02*
X113860000Y-89160000D01*
X113810000Y-87340000D02*
X113860000Y-87340000D01*
X111910000Y-87340000D02*
X112690000Y-87340000D01*
X110790000Y-89160000D02*
X110740000Y-89160000D01*
X110740000Y-89160000D02*
X110740000Y-87340000D01*
X110740000Y-87340000D02*
X110790000Y-87340000D01*
G04 #@! TO.C,SW2*
D13*
X121624200Y-60925298D02*
X121624200Y-58574701D01*
X121112360Y-56625799D02*
X116307708Y-56625799D01*
X115887640Y-62874199D02*
X121112360Y-62874199D01*
X115375800Y-58582039D02*
X115375800Y-60925298D01*
G04 #@! TO.C,U1*
D14*
X127110000Y-69490000D02*
X127110000Y-69940000D01*
X126660000Y-76710000D02*
X127110000Y-76710000D01*
X126660000Y-69490000D02*
X127110000Y-69490000D01*
X120340000Y-76710000D02*
X119890000Y-76710000D01*
X120340000Y-69490000D02*
X119890000Y-69490000D01*
X119890000Y-76710000D02*
X119890000Y-76260000D01*
X119890000Y-69490000D02*
X119890000Y-69940000D01*
G04 #@! TO.C,Y1*
X127210000Y-66860000D02*
X127210000Y-63440000D01*
X127210000Y-63440000D02*
X123090000Y-63440000D01*
D15*
G04 #@! TO.C,U6*
G36*
X144400000Y-95854000D02*
G01*
X144019000Y-95854000D01*
X144019000Y-95600000D01*
X144400000Y-95600000D01*
X144400000Y-95854000D01*
G37*
D12*
X147725000Y-87800000D02*
G75*
G02*
X147475000Y-87800000I-125000J0D01*
G01*
X147475000Y-87800000D02*
G75*
G02*
X147725000Y-87800000I125000J0D01*
G01*
D13*
X147452700Y-90904800D02*
G75*
G02*
X147452700Y-90295200I0J304800D01*
G01*
X147452700Y-92847900D02*
X147452700Y-88352100D01*
X142347300Y-88352100D02*
X142347300Y-92847900D01*
D14*
G04 #@! TO.C,U4*
X118910000Y-88680000D02*
X118720000Y-88820000D01*
X118720000Y-88540000D01*
X118910000Y-88680000D01*
G36*
X118910000Y-88680000D02*
G01*
X118720000Y-88820000D01*
X118720000Y-88540000D01*
X118910000Y-88680000D01*
G37*
X121110000Y-88235000D02*
X121085000Y-88235000D01*
X121110000Y-86765000D02*
X121110000Y-88235000D01*
X121085000Y-86765000D02*
X121110000Y-86765000D01*
X118915000Y-88235000D02*
X118890000Y-88235000D01*
X118890000Y-88235000D02*
X118890000Y-86765000D01*
X118890000Y-86765000D02*
X118915000Y-86765000D01*
G04 #@! TO.C,U10*
X131700000Y-77190000D02*
X131230000Y-77530000D01*
X131230000Y-76850000D01*
X131700000Y-77190000D01*
G36*
X131700000Y-77190000D02*
G01*
X131230000Y-77530000D01*
X131230000Y-76850000D01*
X131700000Y-77190000D01*
G37*
X136960000Y-76360000D02*
X136690000Y-76360000D01*
X136960000Y-70840000D02*
X136960000Y-76360000D01*
X136690000Y-70840000D02*
X136960000Y-70840000D01*
X131710000Y-76360000D02*
X131440000Y-76360000D01*
X131440000Y-76360000D02*
X131440000Y-70840000D01*
X131440000Y-70840000D02*
X131710000Y-70840000D01*
G04 #@! TO.C,U8*
D12*
X125625000Y-84300000D02*
G75*
G02*
X125375000Y-84300000I-125000J0D01*
G01*
X125375000Y-84300000D02*
G75*
G02*
X125625000Y-84300000I125000J0D01*
G01*
D13*
X125300000Y-87090600D02*
X125300000Y-85109400D01*
X123136739Y-87090600D02*
X123863261Y-87090600D01*
X121700000Y-85109400D02*
X121700000Y-87090600D01*
D14*
G04 #@! TO.C,U5*
X133700000Y-89200000D02*
X133370000Y-89440000D01*
X133370000Y-88960000D01*
X133700000Y-89200000D01*
G36*
X133700000Y-89200000D02*
G01*
X133370000Y-89440000D01*
X133370000Y-88960000D01*
X133700000Y-89200000D01*
G37*
X140585000Y-83890000D02*
X140585000Y-88510000D01*
X133815000Y-88510000D02*
X133815000Y-83890000D01*
G04 #@! TO.C,BOOTSEL*
X145800000Y-73450000D02*
X145800000Y-73350000D01*
X145800000Y-71650000D02*
X141400000Y-71650000D01*
X141400000Y-75150000D02*
X145800000Y-75150000D01*
X141400000Y-73450000D02*
X141400000Y-73350000D01*
G04 #@! TO.C,SW4*
D13*
X139624200Y-60925298D02*
X139624200Y-58574701D01*
X139112360Y-56625799D02*
X134307708Y-56625799D01*
X133887640Y-62874199D02*
X139112360Y-62874199D01*
X133375800Y-58582039D02*
X133375800Y-60925298D01*
D14*
G04 #@! TO.C,Q2*
X143520000Y-59650000D02*
X143850000Y-59410000D01*
X143850000Y-59890000D01*
X143520000Y-59650000D01*
G36*
X143850000Y-59890000D02*
G01*
X143520000Y-59650000D01*
X143850000Y-59410000D01*
X143850000Y-59890000D01*
G37*
X145460000Y-59110000D02*
X145410000Y-59110000D01*
X145460000Y-57590000D02*
X145460000Y-59110000D01*
X144460000Y-57590000D02*
X145460000Y-57590000D01*
X144290000Y-59110000D02*
X143510000Y-59110000D01*
X142390000Y-59110000D02*
X142340000Y-59110000D01*
X142340000Y-59110000D02*
X142340000Y-57590000D01*
X142340000Y-57590000D02*
X143340000Y-57590000D01*
G04 #@! TO.C,DS1*
D16*
X114663243Y-52918710D02*
G75*
G02*
X114463243Y-52918710I-100000J0D01*
G01*
X114463243Y-52918710D02*
G75*
G02*
X114663243Y-52918710I100000J0D01*
G01*
D17*
X148263243Y-50918710D02*
X148263243Y-53418710D01*
X147163243Y-54568710D02*
X107963243Y-54568710D01*
X106863243Y-53418710D02*
X106863243Y-50918710D01*
G04 #@! TO.C,J6*
D14*
X114645000Y-73935000D02*
X114645000Y-78810000D01*
X114585565Y-73935000D02*
X114645000Y-73935000D01*
X114310030Y-78810000D02*
X114645000Y-78810000D01*
X113155000Y-78810000D02*
X113489970Y-78810000D01*
X113155000Y-73935000D02*
X113214435Y-73935000D01*
X113155000Y-73935000D02*
X113155000Y-78810000D01*
X113155000Y-73200000D02*
X113155000Y-72465000D01*
X113155000Y-72465000D02*
X113900000Y-72465000D01*
G04 #@! TO.C,U7*
X121080762Y-82618581D02*
X121270762Y-82478581D01*
X121270762Y-82758581D01*
X121080762Y-82618581D01*
G36*
X121270762Y-82758581D02*
G01*
X121080762Y-82618581D01*
X121270762Y-82478581D01*
X121270762Y-82758581D01*
G37*
X121100762Y-84533581D02*
X121075762Y-84533581D01*
X121100762Y-83063581D02*
X121100762Y-84533581D01*
X121075762Y-83063581D02*
X121100762Y-83063581D01*
X118905762Y-84533581D02*
X118880762Y-84533581D01*
X118880762Y-84533581D02*
X118880762Y-83063581D01*
X118880762Y-83063581D02*
X118905762Y-83063581D01*
G04 #@! TO.C,U2*
X117900000Y-90993655D02*
X117570000Y-91233655D01*
X117570000Y-90753655D01*
X117900000Y-90993655D01*
G36*
X117900000Y-90993655D02*
G01*
X117570000Y-91233655D01*
X117570000Y-90753655D01*
X117900000Y-90993655D01*
G37*
X121110000Y-93553655D02*
X119290000Y-93553655D01*
X121110000Y-93503655D02*
X121110000Y-93553655D01*
X121110000Y-91603655D02*
X121110000Y-92383655D01*
X121110000Y-90433655D02*
X121110000Y-90483655D01*
X119290000Y-93553655D02*
X119290000Y-93503655D01*
X119290000Y-90483655D02*
X119290000Y-90433655D01*
X119290000Y-90433655D02*
X121110000Y-90433655D01*
G04 #@! TO.C,SW3*
D13*
X130624200Y-60925298D02*
X130624200Y-58574701D01*
X130112360Y-56625799D02*
X125307708Y-56625799D01*
X124887640Y-62874199D02*
X130112360Y-62874199D01*
X124375800Y-58582039D02*
X124375800Y-60925298D01*
G04 #@! TD*
%LPC*%
D18*
G04 #@! TO.C,C9*
X119300000Y-77670000D03*
X119300000Y-78630000D03*
G04 #@! TD*
D19*
G04 #@! TO.C,R5*
X119300000Y-79490000D03*
X119300000Y-80510000D03*
G04 #@! TD*
D20*
G04 #@! TO.C,C7*
X120985000Y-78650000D03*
X122015000Y-78650000D03*
G04 #@! TD*
D21*
G04 #@! TO.C,L1*
X120800000Y-80300000D03*
X122200000Y-80300000D03*
G04 #@! TD*
D20*
G04 #@! TO.C,C6*
X120985000Y-77700000D03*
X122015000Y-77700000D03*
G04 #@! TD*
D22*
G04 #@! TO.C,C25*
X130520000Y-88700000D03*
X131480000Y-88700000D03*
G04 #@! TD*
D23*
G04 #@! TO.C,U9*
X131150001Y-87293800D03*
X129249999Y-87293800D03*
X129249999Y-84906200D03*
X130200000Y-84906200D03*
X131150001Y-84906200D03*
G04 #@! TD*
D24*
G04 #@! TO.C,C41*
X143980000Y-86000000D03*
X143020000Y-86000000D03*
G04 #@! TD*
D25*
G04 #@! TO.C,R39*
X139110000Y-55500000D03*
X138090000Y-55500000D03*
G04 #@! TD*
D24*
G04 #@! TO.C,C30*
X135180000Y-81800000D03*
X134220000Y-81800000D03*
G04 #@! TD*
G04 #@! TO.C,C28*
X136620000Y-81350000D03*
X137580000Y-81350000D03*
G04 #@! TD*
D26*
G04 #@! TO.C,R1*
X138790000Y-75900000D03*
X139810000Y-75900000D03*
G04 #@! TD*
D27*
G04 #@! TO.C,C1*
X121800000Y-95180000D03*
X121800000Y-94220000D03*
G04 #@! TD*
D28*
G04 #@! TO.C,H2*
X150500000Y-58500000D03*
G04 #@! TD*
D22*
G04 #@! TO.C,C40*
X148320000Y-88400000D03*
X149280000Y-88400000D03*
G04 #@! TD*
D24*
G04 #@! TO.C,C31*
X135180000Y-80800000D03*
X134220000Y-80800000D03*
G04 #@! TD*
D26*
G04 #@! TO.C,R42*
X141890000Y-70500000D03*
X142910000Y-70500000D03*
G04 #@! TD*
D27*
G04 #@! TO.C,C24*
X125600000Y-88980000D03*
X125600000Y-88020000D03*
G04 #@! TD*
D25*
G04 #@! TO.C,R6*
X139510000Y-74500000D03*
X138490000Y-74500000D03*
G04 #@! TD*
D29*
G04 #@! TO.C,U3*
X111350000Y-87112500D03*
X113250000Y-87112500D03*
X113250000Y-89387500D03*
X112300000Y-89387500D03*
X111350000Y-89387500D03*
G04 #@! TD*
D24*
G04 #@! TO.C,C50*
X140280000Y-67400000D03*
X139320000Y-67400000D03*
G04 #@! TD*
D30*
G04 #@! TO.C,R32*
X106800000Y-67010000D03*
X106800000Y-65990000D03*
G04 #@! TD*
D25*
G04 #@! TO.C,R36*
X144860000Y-55650000D03*
X143840000Y-55650000D03*
G04 #@! TD*
D31*
G04 #@! TO.C,SW2*
X121750000Y-62000000D03*
X115249999Y-62000000D03*
X121750000Y-57499999D03*
X115249999Y-57499999D03*
G04 #@! TD*
D24*
G04 #@! TO.C,C43*
X132380000Y-64000000D03*
X131420000Y-64000000D03*
G04 #@! TD*
D26*
G04 #@! TO.C,R2*
X123440000Y-67500000D03*
X124460000Y-67500000D03*
G04 #@! TD*
D19*
G04 #@! TO.C,R21*
X130250000Y-63480000D03*
X130250000Y-64500000D03*
G04 #@! TD*
D24*
G04 #@! TO.C,C57*
X124780000Y-55400000D03*
X123820000Y-55400000D03*
G04 #@! TD*
D26*
G04 #@! TO.C,R43*
X139990000Y-64800000D03*
X141010000Y-64800000D03*
G04 #@! TD*
D22*
G04 #@! TO.C,C16*
X118020000Y-68400000D03*
X118980000Y-68400000D03*
G04 #@! TD*
D32*
G04 #@! TO.C,J1*
X116350000Y-92454786D03*
D33*
X116350000Y-94454786D03*
G04 #@! TD*
D22*
G04 #@! TO.C,C20*
X123020000Y-83400000D03*
X123980000Y-83400000D03*
G04 #@! TD*
D34*
G04 #@! TO.C,SW9*
X151512450Y-73099999D03*
X151512450Y-64900001D03*
D35*
X151512450Y-71000001D03*
X151512450Y-69000000D03*
X151512450Y-67000000D03*
G04 #@! TD*
D25*
G04 #@! TO.C,R41*
X137710000Y-66200000D03*
X136690000Y-66200000D03*
G04 #@! TD*
D36*
G04 #@! TO.C,J7*
X149000000Y-90900000D03*
X147750000Y-85600000D03*
X153250000Y-85600000D03*
D37*
X150500000Y-87500000D03*
X150500000Y-95000000D03*
G04 #@! TD*
D38*
G04 #@! TO.C,U1*
X123500000Y-73100000D03*
D39*
X126300000Y-76537500D03*
D40*
X125900000Y-76537500D03*
X125500000Y-76537500D03*
X125100000Y-76537500D03*
X124700000Y-76537500D03*
X124300000Y-76537500D03*
X123900000Y-76537500D03*
X123500000Y-76537500D03*
X123100000Y-76537500D03*
X122700000Y-76537500D03*
X122300000Y-76537500D03*
X121900000Y-76537500D03*
X121500000Y-76537500D03*
X121100000Y-76537500D03*
D41*
X120700000Y-76537500D03*
D42*
X120062500Y-75900000D03*
D43*
X120062500Y-75500000D03*
X120062500Y-75100000D03*
X120062500Y-74700000D03*
X120062500Y-74300000D03*
X120062500Y-73900000D03*
X120062500Y-73500000D03*
X120062500Y-73100000D03*
X120062500Y-72700000D03*
X120062500Y-72300000D03*
X120062500Y-71900000D03*
X120062500Y-71500000D03*
X120062500Y-71100000D03*
X120062500Y-70700000D03*
D44*
X120062500Y-70300000D03*
D45*
X120700000Y-69662500D03*
D40*
X121100000Y-69662500D03*
X121500000Y-69662500D03*
X121900000Y-69662500D03*
X122300000Y-69662500D03*
X122700000Y-69662500D03*
X123100000Y-69662500D03*
X123500000Y-69662500D03*
X123900000Y-69662500D03*
X124300000Y-69662500D03*
X124700000Y-69662500D03*
X125100000Y-69662500D03*
X125500000Y-69662500D03*
X125900000Y-69662500D03*
D46*
X126300000Y-69662500D03*
D47*
X126937500Y-70300000D03*
D43*
X126937500Y-70700000D03*
X126937500Y-71100000D03*
X126937500Y-71500000D03*
X126937500Y-71900000D03*
X126937500Y-72300000D03*
X126937500Y-72700000D03*
X126937500Y-73100000D03*
X126937500Y-73500000D03*
X126937500Y-73900000D03*
X126937500Y-74300000D03*
X126937500Y-74700000D03*
X126937500Y-75100000D03*
X126937500Y-75500000D03*
D48*
X126937500Y-75900000D03*
G04 #@! TD*
D37*
G04 #@! TO.C,J3*
X134550000Y-78937500D03*
X142550000Y-78937500D03*
G04 #@! TD*
D49*
G04 #@! TO.C,SW6*
X106436150Y-64495000D03*
X106436150Y-71505001D03*
D31*
X103945851Y-65750000D03*
X103945851Y-70250001D03*
G04 #@! TD*
D18*
G04 #@! TO.C,C18*
X128100000Y-66070000D03*
X128100000Y-67030000D03*
G04 #@! TD*
D49*
G04 #@! TO.C,SW5*
X106436150Y-73995000D03*
X106436150Y-81005001D03*
D31*
X103945851Y-75250000D03*
X103945851Y-79750001D03*
G04 #@! TD*
D50*
G04 #@! TO.C,J5*
X123179968Y-95151128D03*
D51*
X123179998Y-91151085D03*
X131820002Y-91151085D03*
D50*
X131820032Y-95151128D03*
G04 #@! TD*
D24*
G04 #@! TO.C,C3*
X126430000Y-67500000D03*
X125470000Y-67500000D03*
G04 #@! TD*
D52*
G04 #@! TO.C,Y1*
X126250000Y-66000000D03*
X124050000Y-66000000D03*
X124050000Y-64300000D03*
X126250000Y-64300000D03*
G04 #@! TD*
D18*
G04 #@! TO.C,C4*
X122400000Y-65670000D03*
X122400000Y-66630000D03*
G04 #@! TD*
D22*
G04 #@! TO.C,C13*
X118180000Y-77800000D03*
X117220000Y-77800000D03*
G04 #@! TD*
D28*
G04 #@! TO.C,H1*
X104500000Y-87493070D03*
G04 #@! TD*
D27*
G04 #@! TO.C,C59*
X144900000Y-83880000D03*
X144900000Y-82920000D03*
G04 #@! TD*
D22*
G04 #@! TO.C,C15*
X117120000Y-72950000D03*
X118080000Y-72950000D03*
G04 #@! TD*
D25*
G04 #@! TO.C,R35*
X144110000Y-61100000D03*
X143090000Y-61100000D03*
G04 #@! TD*
D19*
G04 #@! TO.C,R18*
X114900000Y-88240000D03*
X114900000Y-89260000D03*
G04 #@! TD*
D25*
G04 #@! TO.C,R28*
X134510000Y-63800000D03*
X133490000Y-63800000D03*
G04 #@! TD*
D53*
G04 #@! TO.C,U6*
X146849999Y-93419400D03*
X146200000Y-93419400D03*
X145549999Y-93419400D03*
X144900000Y-93419400D03*
X144249999Y-93419400D03*
X143600000Y-93419400D03*
X142949999Y-93419400D03*
X142950001Y-87780600D03*
X143600000Y-87780600D03*
X144250001Y-87780600D03*
X144900000Y-87780600D03*
X145549999Y-87780600D03*
X146200000Y-87780600D03*
X146850001Y-87780600D03*
G04 #@! TD*
D19*
G04 #@! TO.C,R7*
X124900000Y-79090000D03*
X124900000Y-80110000D03*
G04 #@! TD*
D24*
G04 #@! TO.C,C35*
X134880000Y-91600000D03*
X133920000Y-91600000D03*
G04 #@! TD*
D54*
G04 #@! TO.C,U4*
X119350000Y-86662500D03*
X120000000Y-86662500D03*
X120650000Y-86662500D03*
X120650000Y-88337500D03*
X120000000Y-88337500D03*
X119350000Y-88337500D03*
G04 #@! TD*
D19*
G04 #@! TO.C,R29*
X135700000Y-63790000D03*
X135700000Y-64810000D03*
G04 #@! TD*
D22*
G04 #@! TO.C,C23*
X129669999Y-83300000D03*
X130629999Y-83300000D03*
G04 #@! TD*
D55*
G04 #@! TO.C,U10*
X132295000Y-70012500D03*
X133565000Y-70012500D03*
X134835000Y-70012500D03*
X136105000Y-70012500D03*
X136105000Y-77187500D03*
X134835000Y-77187500D03*
X133565000Y-77187500D03*
X132295000Y-77187500D03*
G04 #@! TD*
D30*
G04 #@! TO.C,R4*
X148800000Y-72710000D03*
X148800000Y-71690000D03*
G04 #@! TD*
D22*
G04 #@! TO.C,C56*
X126320000Y-55400000D03*
X127280000Y-55400000D03*
G04 #@! TD*
D24*
G04 #@! TO.C,C37*
X140480000Y-93700000D03*
X139520000Y-93700000D03*
G04 #@! TD*
D27*
G04 #@! TO.C,C27*
X136700000Y-91680000D03*
X136700000Y-90720000D03*
G04 #@! TD*
D30*
G04 #@! TO.C,R16*
X138500000Y-93710000D03*
X138500000Y-92690000D03*
G04 #@! TD*
D23*
G04 #@! TO.C,U8*
X124450001Y-87293800D03*
X122549999Y-87293800D03*
X122549999Y-84906200D03*
X123500000Y-84906200D03*
X124450001Y-84906200D03*
G04 #@! TD*
D24*
G04 #@! TO.C,C54*
X122780000Y-55400000D03*
X121820000Y-55400000D03*
G04 #@! TD*
D27*
G04 #@! TO.C,C17*
X128200000Y-77080000D03*
X128200000Y-76120000D03*
G04 #@! TD*
D56*
G04 #@! TO.C,U5*
X134275000Y-83337500D03*
X134925000Y-83337500D03*
X135575000Y-83337500D03*
X136225000Y-83337500D03*
X136875000Y-83337500D03*
X137525000Y-83337500D03*
X138175000Y-83337500D03*
X138825000Y-83337500D03*
X139475000Y-83337500D03*
X140125000Y-83337500D03*
X140125000Y-89062500D03*
X139475000Y-89062500D03*
X138825000Y-89062500D03*
X138175000Y-89062500D03*
X137525000Y-89062500D03*
X136875000Y-89062500D03*
X136225000Y-89062500D03*
X135575000Y-89062500D03*
X134925000Y-89062500D03*
X134275000Y-89062500D03*
G04 #@! TD*
D30*
G04 #@! TO.C,R3*
X120200000Y-95410000D03*
X120200000Y-94390000D03*
G04 #@! TD*
D57*
G04 #@! TO.C,BOOTSEL*
X145650000Y-74475000D03*
X141525000Y-74475000D03*
X145675000Y-72325000D03*
X141525000Y-72325000D03*
G04 #@! TD*
D31*
G04 #@! TO.C,SW4*
X139750000Y-62000000D03*
X133249999Y-62000000D03*
X139750000Y-57499999D03*
X133249999Y-57499999D03*
G04 #@! TD*
D58*
G04 #@! TO.C,Q2*
X143900000Y-57412500D03*
X144850000Y-59287500D03*
X142950000Y-59287500D03*
G04 #@! TD*
D26*
G04 #@! TO.C,R31*
X107690000Y-77500000D03*
X108710000Y-77500000D03*
G04 #@! TD*
D22*
G04 #@! TO.C,C45*
X117320000Y-76800000D03*
X118280000Y-76800000D03*
G04 #@! TD*
G04 #@! TO.C,C53*
X113820000Y-55400000D03*
X114780000Y-55400000D03*
G04 #@! TD*
G04 #@! TO.C,C22*
X129669999Y-82300000D03*
X130629999Y-82300000D03*
G04 #@! TD*
D59*
G04 #@! TO.C,DS1*
X144863243Y-52018710D03*
X110263243Y-52018710D03*
D60*
X139563243Y-53818710D03*
X138063243Y-53818710D03*
X136563243Y-53818710D03*
X135063243Y-53818710D03*
X133563243Y-53818710D03*
X132063243Y-53818710D03*
X130563243Y-53818710D03*
X129063243Y-53818710D03*
X127563243Y-53818710D03*
X126063243Y-53818710D03*
X124563243Y-53818710D03*
X123063243Y-53818710D03*
X121563243Y-53818710D03*
X120063243Y-53818710D03*
X118563243Y-53818710D03*
X117063243Y-53818710D03*
D61*
X115563243Y-53818710D03*
D62*
X147663243Y-53968710D03*
X107463243Y-53968710D03*
G04 #@! TD*
D24*
G04 #@! TO.C,C29*
X136620000Y-80350000D03*
X137580000Y-80350000D03*
G04 #@! TD*
G04 #@! TO.C,C51*
X118780000Y-55400000D03*
X117820000Y-55400000D03*
G04 #@! TD*
D26*
G04 #@! TO.C,R33*
X106790000Y-68100000D03*
X107810000Y-68100000D03*
G04 #@! TD*
D28*
G04 #@! TO.C,H3*
X150500000Y-79000000D03*
G04 #@! TD*
D22*
G04 #@! TO.C,C39*
X146120000Y-95200000D03*
X147080000Y-95200000D03*
G04 #@! TD*
D19*
G04 #@! TO.C,R8*
X123900000Y-79090000D03*
X123900000Y-80110000D03*
G04 #@! TD*
D63*
G04 #@! TO.C,J6*
X113900000Y-78200000D03*
X113900000Y-77200000D03*
X113900000Y-76200000D03*
X113900000Y-75200000D03*
X113900000Y-74200000D03*
D64*
X113900000Y-73200000D03*
G04 #@! TD*
D30*
G04 #@! TO.C,R19*
X148500000Y-94410000D03*
X148500000Y-93390000D03*
G04 #@! TD*
D19*
G04 #@! TO.C,R17*
X114900000Y-90440000D03*
X114900000Y-91460000D03*
G04 #@! TD*
D24*
G04 #@! TO.C,C2*
X133230000Y-68350000D03*
X132270000Y-68350000D03*
G04 #@! TD*
D26*
G04 #@! TO.C,R40*
X141890000Y-69300000D03*
X142910000Y-69300000D03*
G04 #@! TD*
D19*
G04 #@! TO.C,R37*
X128750000Y-94090000D03*
X128750000Y-95110000D03*
G04 #@! TD*
D27*
G04 #@! TO.C,C5*
X118500000Y-95180000D03*
X118500000Y-94220000D03*
G04 #@! TD*
D24*
G04 #@! TO.C,C34*
X134880000Y-90600000D03*
X133920000Y-90600000D03*
G04 #@! TD*
D22*
G04 #@! TO.C,C10*
X120470000Y-67350000D03*
X121430000Y-67350000D03*
G04 #@! TD*
D24*
G04 #@! TO.C,C46*
X130380000Y-71600000D03*
X129420000Y-71600000D03*
G04 #@! TD*
D19*
G04 #@! TO.C,R23*
X118700000Y-63790000D03*
X118700000Y-64810000D03*
G04 #@! TD*
D25*
G04 #@! TO.C,R22*
X117410000Y-63800000D03*
X116390000Y-63800000D03*
G04 #@! TD*
D27*
G04 #@! TO.C,C49*
X106800000Y-70180000D03*
X106800000Y-69220000D03*
G04 #@! TD*
D24*
G04 #@! TO.C,C44*
X120880000Y-63800000D03*
X119920000Y-63800000D03*
G04 #@! TD*
G04 #@! TO.C,C8*
X129880000Y-73750000D03*
X128920000Y-73750000D03*
G04 #@! TD*
D27*
G04 #@! TO.C,C48*
X107700000Y-79580000D03*
X107700000Y-78620000D03*
G04 #@! TD*
D24*
G04 #@! TO.C,C47*
X137880000Y-63800000D03*
X136920000Y-63800000D03*
G04 #@! TD*
D27*
G04 #@! TO.C,C12*
X126000000Y-80480000D03*
X126000000Y-79520000D03*
G04 #@! TD*
D65*
G04 #@! TO.C,U7*
X120640762Y-84636081D03*
X119990762Y-84636081D03*
X119340762Y-84636081D03*
X119340762Y-82961081D03*
X119990762Y-82961081D03*
X120640762Y-82961081D03*
G04 #@! TD*
D30*
G04 #@! TO.C,R15*
X137500000Y-93710000D03*
X137500000Y-92690000D03*
G04 #@! TD*
D22*
G04 #@! TO.C,C11*
X116820000Y-73900000D03*
X117780000Y-73900000D03*
G04 #@! TD*
D24*
G04 #@! TO.C,C19*
X120780000Y-55400000D03*
X119820000Y-55400000D03*
G04 #@! TD*
G04 #@! TO.C,C32*
X140455000Y-90575000D03*
X139495000Y-90575000D03*
G04 #@! TD*
G04 #@! TO.C,C52*
X116780000Y-55400000D03*
X115820000Y-55400000D03*
G04 #@! TD*
G04 #@! TO.C,C42*
X144980000Y-95100000D03*
X144020000Y-95100000D03*
G04 #@! TD*
D66*
G04 #@! TO.C,U2*
X121337500Y-91043655D03*
X121337500Y-92943655D03*
X119062500Y-92943655D03*
X119062500Y-91993655D03*
X119062500Y-91043655D03*
G04 #@! TD*
D24*
G04 #@! TO.C,C58*
X111130000Y-55550000D03*
X110170000Y-55550000D03*
G04 #@! TD*
D28*
G04 #@! TO.C,H4*
X104500000Y-58500000D03*
G04 #@! TD*
D18*
G04 #@! TO.C,C26*
X133100000Y-86820000D03*
X133100000Y-87780000D03*
G04 #@! TD*
D19*
G04 #@! TO.C,R38*
X126700000Y-95110000D03*
X126700000Y-94090000D03*
G04 #@! TD*
D22*
G04 #@! TO.C,C36*
X136480000Y-93700000D03*
X135520000Y-93700000D03*
G04 #@! TD*
D24*
G04 #@! TO.C,C33*
X140455000Y-91700000D03*
X139495000Y-91700000D03*
G04 #@! TD*
D19*
G04 #@! TO.C,R14*
X142600000Y-80290000D03*
X142600000Y-81310000D03*
G04 #@! TD*
D25*
G04 #@! TO.C,R20*
X129310000Y-64000000D03*
X128290000Y-64000000D03*
G04 #@! TD*
D22*
G04 #@! TO.C,C21*
X122920000Y-82400000D03*
X123880000Y-82400000D03*
G04 #@! TD*
D30*
G04 #@! TO.C,R30*
X107700000Y-76510000D03*
X107700000Y-75490000D03*
G04 #@! TD*
D31*
G04 #@! TO.C,SW3*
X130750000Y-62000000D03*
X124249999Y-62000000D03*
X130750000Y-57499999D03*
X124249999Y-57499999D03*
G04 #@! TD*
D18*
G04 #@! TO.C,C38*
X141475000Y-88720000D03*
X141475000Y-89680000D03*
G04 #@! TD*
D19*
G04 #@! TO.C,R24*
X143800000Y-82490000D03*
X143800000Y-83510000D03*
G04 #@! TD*
D24*
G04 #@! TO.C,C55*
X130280000Y-55400000D03*
X129320000Y-55400000D03*
G04 #@! TD*
%LPD*%
M02*
