M48
; DRILL file KiCad 10.0.3 date 2026-07-21T01:40:53
; FORMAT={-:-/ absolute / metric / decimal}
; #@! TF.CreationDate,2026-07-21T01:40:53-07:00
; #@! TF.GenerationSoftware,Kicad,Pcbnew,10.0.3
; #@! TF.FileFunction,Plated,1,4,PTH
FMAT,2
METRIC
; #@! TA.AperFunction,Plated,PTH,ViaDrill
T1C0.300
; #@! TA.AperFunction,Plated,PTH,ComponentDrill
T2C0.300
; #@! TA.AperFunction,Plated,PTH,ComponentDrill
T3C0.500
; #@! TA.AperFunction,Plated,PTH,ComponentDrill
T4C0.600
; #@! TA.AperFunction,Plated,PTH,ComponentDrill
T5C0.700
; #@! TA.AperFunction,Plated,PTH,ComponentDrill
T6C0.750
; #@! TA.AperFunction,Plated,PTH,ComponentDrill
T7C0.813
; #@! TA.AperFunction,Plated,PTH,ComponentDrill
T8C0.991
; #@! TA.AperFunction,Plated,PTH,ComponentDrill
T9C1.000
; #@! TA.AperFunction,Plated,PTH,ComponentDrill
T10C1.295
; #@! TA.AperFunction,Plated,PTH,ComponentDrill
T11C1.499
%
G90
G05
T1
X103.8Y-92.4
X104.0Y-53.2
X108.8Y-68.1
X109.4Y-59.3
X109.7Y-77.5
X111.0Y-81.2
X111.35Y-85.7
X111.95Y-55.55
X112.3Y-90.95
X112.75Y-67.15
X113.4Y-64.45
X113.6Y-69.7
X113.8Y-54.5
X115.15Y-79.7
X115.6Y-66.25
X115.95Y-88.85
X116.05Y-74.65
X116.3Y-72.95
X116.5Y-76.75
X116.8Y-56.3
X117.22Y-78.67
X117.35Y-69.85
X117.4Y-67.7
X117.954Y-76.025
X118.0Y-91.7
X118.18Y-78.62
X118.225Y-67.643
X118.4Y-80.5
X118.4Y-84.075
X118.4Y-87.5
X118.5Y-96.0
X118.6Y-73.9
X118.624Y-90.124
X118.7Y-75.5
X118.8Y-56.3
X118.8Y-62.8
X118.8Y-69.5
X118.85Y-72.94
X119.35Y-81.45
X119.35Y-85.65
X119.4Y-61.05
X119.65Y-76.95
X119.7Y-65.0
X120.0Y-85.65
X120.2Y-92.0
X120.4Y-78.0
X120.4Y-78.6
X120.45Y-66.6
X120.45Y-68.8
X120.5Y-64.7
X120.641Y-85.65
X120.8Y-56.3
X121.4Y-66.6
X121.45Y-88.56
X121.46Y-89.18
X121.46Y-89.81
X121.8Y-96.0
X121.9Y-75.6
X122.0Y-83.7
X122.2Y-82.3
X122.4Y-64.8
X122.6Y-92.6
X122.6Y-93.2
X122.8Y-56.2
X122.8Y-64.15
X123.0Y-78.3
X123.0Y-78.9
X123.1Y-86.1
X123.7Y-87.3
X123.8Y-86.1
X124.7Y-88.8
X124.71Y-83.09
X124.71Y-83.7
X124.9Y-86.3
X125.737Y-92.613
X125.8Y-87.2
X126.55Y-81.15
X126.756Y-80.244
X126.999Y-91.819
X127.25Y-67.25
X127.3Y-66.0
X127.565Y-92.384
X127.7Y-60.976
X127.86Y-71.175
X128.05Y-73.8
X128.1Y-51.7
X128.367Y-92.332
X128.5Y-83.505
X128.55Y-71.625
X128.752Y-66.551
X128.798Y-65.75
X128.8Y-69.5
X128.876Y-91.541
X128.9Y-70.3
X129.0Y-76.2
X129.0Y-77.1
X129.0Y-82.3
X129.8Y-86.1
X130.2Y-88.0
X130.225Y-65.35
X130.35Y-76.1
X130.5Y-86.1
X130.65Y-73.8
X130.7Y-67.3
X131.3Y-71.6
X131.35Y-67.8
X131.5Y-83.05
X131.5Y-83.7
X131.5Y-89.4
X131.559Y-65.459
X131.771Y-80.25
X131.9Y-87.6
X132.0Y-86.9
X132.382Y-63.082
X132.4Y-67.6
X132.4Y-79.675
X133.1Y-79.1
X133.2Y-67.6
X133.6Y-71.6
X133.6Y-80.1
X133.9Y-92.5
X134.2Y-75.8
X134.55Y-93.3
X134.9Y-65.5
X134.9Y-71.6
X134.9Y-92.5
X135.18Y-79.98
X135.7Y-84.525
X136.0Y-71.4
X136.1Y-78.65
X136.6Y-73.075
X136.6Y-74.5
X137.0Y-82.0
X137.4Y-69.8
X138.6Y-64.5
X139.225Y-66.6
X139.55Y-92.45
X139.6Y-69.8
X140.1Y-81.9
X140.3Y-70.4
X140.4Y-66.6
X140.5Y-92.4
X140.6Y-76.7
X141.35Y-93.35
X142.2Y-86.0
X143.2Y-72.325
X144.0Y-92.0
X144.15Y-79.65
X144.9Y-82.1
X144.9Y-92.0
X145.0Y-60.8
X145.55Y-86.3
X146.2Y-92.1
X146.6Y-69.3
X147.5Y-76.1
X148.4Y-95.3
X151.2Y-54.1
X151.4Y-93.4
T2
X122.125Y-71.725
X122.125Y-73.1
X122.125Y-74.475
X123.5Y-71.725
X123.5Y-73.1
X123.5Y-74.475
X124.875Y-71.725
X124.875Y-73.1
X124.875Y-74.475
T3
X113.9Y-73.2
X113.9Y-74.2
X113.9Y-75.2
X113.9Y-76.2
X113.9Y-77.2
X113.9Y-78.2
T4
X115.563Y-53.819
X117.063Y-53.819
X118.563Y-53.819
X120.063Y-53.819
X121.563Y-53.819
X123.063Y-53.819
X124.563Y-53.819
X126.063Y-53.819
X127.563Y-53.819
X129.063Y-53.819
X130.563Y-53.819
X132.063Y-53.819
X133.563Y-53.819
X135.063Y-53.819
X136.563Y-53.819
X138.063Y-53.819
X139.563Y-53.819
T6
X116.35Y-92.455
X116.35Y-94.455
T7
X151.512Y-67.0
X151.512Y-69.0
X151.512Y-71.0
T8
X103.946Y-65.75
X103.946Y-70.25
X103.946Y-75.25
X103.946Y-79.75
X115.25Y-57.5
X115.25Y-62.0
X121.75Y-57.5
X121.75Y-62.0
X124.25Y-57.5
X124.25Y-62.0
X130.75Y-57.5
X130.75Y-62.0
X133.25Y-57.5
X133.25Y-62.0
X139.75Y-57.5
X139.75Y-62.0
T10
X106.436Y-64.495
X106.436Y-71.505
X106.436Y-73.995
X106.436Y-81.005
T11
X151.512Y-64.9
X151.512Y-73.1
T4
G00X123.18Y-95.751
M15
G01X123.18Y-94.551
M16
G05
G00X123.18Y-91.551
M15
G01X123.18Y-90.751
M16
G05
G00X131.82Y-91.551
M15
G01X131.82Y-90.751
M16
G05
G00X131.82Y-95.751
M15
G01X131.82Y-94.551
M16
G05
T5
G00X109.963Y-52.019
M15
G01X110.563Y-52.019
M16
G05
G00X144.563Y-52.019
M15
G01X145.163Y-52.019
M16
G05
T9
G00X147.75Y-85.85
M15
G01X147.75Y-85.35
M16
G05
G00X149.0Y-91.15
M15
G01X149.0Y-90.65
M16
G05
G00X153.25Y-85.85
M15
G01X153.25Y-85.35
M16
G05
M30
